<?xml version="1.0" standalone="no"?>
<!DOCTYPE svg PUBLIC "-//W3C//DTD SVG 1.1//EN" "http://www.w3.org/Graphics/SVG/1.1/DTD/svg11.dtd" >
<svg xmlns="http://www.w3.org/2000/svg" xmlns:xlink="http://www.w3.org/1999/xlink" version="1.1">
<metadata>
Created by FontForge 20170731 at Tue Feb 28 14:16:00 2012
 By Aleksey,,,
Copyright (c) Arkandis Digital Foundry under the GNU General Public License V2 and later, with font exception.
</metadata>
<defs>
<font id="TribunADFStd-BoldCond" horiz-adv-x="500" >
  <font-face 
    font-family="Tribun ADF Std Cond"
    font-weight="700"
    font-stretch="condensed"
    units-per-em="1000"
    panose-1="2 4 8 6 8 5 5 2 2 3"
    ascent="750"
    descent="-250"
    x-height="449"
    cap-height="660"
    bbox="-84 -250 1948 911"
    underline-thickness="50"
    underline-position="-200"
    unicode-range="U+0020-FB06"
  />
<missing-glyph 
d="M0 0v700h500v-700h-500zM250 395l170 255h-340zM280 350l170 -255v510zM80 50h340l-170 255zM50 605v-510l170 255z" />
    <glyph glyph-name="AE" unicode="AE" horiz-adv-x="918" 
d="M268 267h148l1 291zM238 207q-15 -27 -37 -66t-31.5 -56.5t-9.5 -21.5q0 -16 51 -16v-47h-211v47q20 0 31 2.5t23 14.5t19.5 24t28.5 45.5t42 64.5l208 383q-26 38 -26 61q0 18 20 18h509v-165h-48q-14 70 -34 84t-94 14h-136q-9 0 -14 -3v-211h131q50 0 66 15t25 74h50
v-247h-49q-13 62 -27 75t-68 13h-128v-237q13 -6 83 -6h61q33 0 54 4t30.5 8.5t27.5 16.5q36 23 69 92h53l-48 -187h-513v47q58 0 70 16v144h-178z" />
    <glyph glyph-name="ae" unicode="ae" horiz-adv-x="632" 
d="M468 313q11 22 11 41q0 41 -58 48q-26 0 -45.5 -25t-21.5 -64h114zM262 105q-11 44 -11 88v33q-11 -4 -32 -12.5t-28 -11.5t-20 -10.5t-17 -14t-8 -17t-4 -24.5q0 -33 14.5 -52.5t31.5 -19.5q46 0 74 41zM456 75q30 0 59 14.5t47.5 29t25.5 14.5q10 0 19 -10.5t9 -18.5
q-26 -49 -80 -82t-102 -33q-90 0 -143 75q-2 0 -2 -3q-28 -25 -44 -37.5t-40 -23.5t-48 -11q-60 0 -94 32.5t-34 87.5q0 17 2.5 31t10.5 26.5t13.5 21.5t21 18.5t24 15t31 15t33.5 13.5t40.5 14.5t42.5 15.5q0 2 0.5 42.5t0.5 53.5l-5 19q-12 18 -41 18q-15 0 -34 -9.5
t-25 -21.5l16 -50q-6 -23 -18 -33.5t-33 -13.5q-61 2 -61 59q0 33 17 57t45 36t54 17t52 5q39 0 58 -7.5t50 -29.5q56 37 109 37q64 0 112.5 -45t48.5 -94q0 -19 -8 -34t-16 -21l-7 -6h-211q0 -184 104 -184z" />
    <glyph glyph-name="OE" unicode="OE" horiz-adv-x="884" 
d="M408 517q0 19 -4.5 33.5t-11.5 23t-15.5 14t-17 8t-15.5 3.5t-12 1h-6q-48 -2 -81 -28t-49 -69.5t-22.5 -86t-6.5 -92.5q0 -121 41 -191t120 -70q43 0 61.5 19.5t18.5 58.5v376zM480 2q-44 0 -94 -4.5t-60 -4.5q-144 0 -222 93t-78 235q0 345 311 345q7 0 70 -4t93 -4
h324v-161h-52q-8 64 -27 80.5t-73 16.5h-138q1 -1 1 -5v-211h81q39 0 62 5t34 20t13.5 26t5.5 40h44v-248h-44q-7 57 -24 74.5t-57 17.5h-115v-218q0 -16 7.5 -20.5t32.5 -4.5l114 1q17 0 32.5 6t24.5 11t23 21t18 22t19 29t18 27h49l-49 -185h-344z" />
    <glyph glyph-name="oe" unicode="oe" horiz-adv-x="775" 
d="M259 403q-44 0 -75.5 -52t-31.5 -126q0 -73 31.5 -124.5t75.5 -51.5q43 0 70 51t27 126q0 76 -27 126.5t-70 50.5zM712 260h-252v-4q0 -188 112 -188h7q17 0 32.5 3t26 6t26 11.5t21 12t24 16.5t23.5 16q10 0 18.5 -10.5t8.5 -18.5q-27 -51 -79.5 -83t-107.5 -32
q-54 0 -103 25t-69 66q-27 -41 -70.5 -65.5t-84.5 -24.5q-99 0 -157 62.5t-58 172.5q0 99 66 167t156 68q98 0 146 -88q85 87 175 87q58 0 110.5 -40.5t52.5 -100.5q0 -17 -6 -31.5t-12 -20.5zM545 403q-71 0 -84 -87h157q12 8 12 22q0 21 -26 43t-59 22z" />
    <glyph glyph-name="f_j" unicode="fj" horiz-adv-x="635" 
d="M390 396h-118v-288q0 -38 16 -52t60 -14h6v-42h-263v42q51 4 62.5 14.5t11.5 46.5v293h-73v55h73q2 113 22 149q46 99 188 100h1q46 0 80.5 -26t34.5 -50t-13.5 -40.5t-38.5 -16.5q-20 0 -48 20.5t-51.5 41.5t-31.5 22q-36 0 -36 -80v-120h109q36 -8 72 -8q51 0 108 22
l15 -13v-479q0 -223 -164 -223q-47 0 -73.5 18.5t-26.5 50.5q0 22 14.5 37t39.5 15q23 0 44 -28.5t34 -28.5q9 0 15 7.5t8 26.5t2.5 34t0.5 46v369q0 54 -15.5 76.5t-64.5 22.5z" />
    <glyph glyph-name="f_f_j" unicode="ffj" horiz-adv-x="948" 
d="M300 451h204q2 115 21 149q46 99 188 100h1q46 0 80.5 -26t34.5 -50t-13.5 -40.5t-38.5 -16.5q-20 0 -47.5 20.5t-51 41.5t-31.5 22q-37 0 -37 -80v-120h110q36 -8 72 -8q51 0 108 22l15 -13v-479q0 -223 -164 -223q-47 0 -74 18.5t-27 50.5q0 22 14.5 37t39.5 15
q23 0 44.5 -28.5t34.5 -28.5q16 0 20.5 24.5t4.5 76.5v382q0 54 -15.5 76.5t-64.5 22.5h-118v-288q0 -38 16 -52t60 -14h6v-42h-263v42q51 4 63 15t12 46v293h-203v-285q0 -46 14 -57t58 -12h11v-42h-264v42q51 4 63 15t12 46v293h-74v55h74q2 115 21 149q16 34 71 61.5
t101 27.5q47 0 81.5 -26t34.5 -50t-13.5 -40.5t-38.5 -16.5q-20 0 -39 23.5t-34 47t-23 24.5q-21 0 -38.5 -21.5t-17.5 -58.5v-120z" />
    <glyph glyph-name="f_f" unicode="ff" horiz-adv-x="681" 
d="M676 624q0 -24 -14 -40.5t-38 -16.5q-16 0 -31 13t-24 28.5t-19 28.5t-17 14q-38 0 -38 -80v-120h111v-55h-110v-285q0 -53 23 -63q11 -4 60 -6v-42h-263v42q51 4 62.5 15t11.5 47v292h-193v-285q0 -46 14 -57t58 -12h11v-42h-264v42q52 4 63.5 15t11.5 47v292h-74v55h74
q2 115 21 149q17 34 71.5 61.5t100.5 27.5q47 0 81.5 -26t34.5 -50t-14 -40.5t-38 -16.5q-20 0 -39 23.5t-33.5 47t-23.5 24.5q-21 0 -38.5 -22t-17.5 -58v-120h194q2 115 22 149q18 37 61.5 68.5t86.5 31.5q47 0 81.5 -26t34.5 -50z" />
    <glyph glyph-name="f_i" unicode="fi" horiz-adv-x="586" 
d="M345 397h-136v-285q0 -47 14.5 -58t61.5 -12h9v-42h-270v42q52 3 64 14.5t12 48.5v292h-76v54h76q0 107 21 148q22 41 71.5 71t124.5 30q48 0 84 -25.5t36 -50.5q0 -24 -14 -40.5t-40 -16.5q-20 0 -38.5 21t-32 42t-21.5 21q-38 0 -60 -21t-22 -59v-120h159q64 0 122 14
l16 -14v-341q0 -16 0.5 -26.5t4 -17.5l5.5 -11t10 -6.5t11 -3.5t16 -1.5t19 -1.5v-42h-250v42q50 2 58 7q15 9 15 61v227q0 37 -8.5 47.5t-41.5 12.5z" />
    <glyph glyph-name="f_l" unicode="fl" horiz-adv-x="616" 
d="M514 700l22 -6v-602q0 -11 1 -18.5t4.5 -13t6 -8t10.5 -4.5t12 -2.5t16 -1.5t18 -2v-42h-251v42q48 3 60 13t12 33v481q0 28 -6.5 35.5t-28.5 7.5q-1 -19 -14 -32t-36 -13q-15 0 -29.5 12t-24 26.5t-20 26.5t-18.5 13q-39 0 -39 -74v-119h114v-55h-114v-285
q0 -47 14.5 -58t59.5 -12h11v-42h-270v42q52 3 64 14.5t12 48.5v292h-76v55h76q0 104 21 148q21 39 66.5 69.5t86.5 30.5q30 0 63.5 -13.5t42.5 -27.5q57 12 134 41z" />
    <glyph glyph-name="f_f_i" unicode="ffi" horiz-adv-x="872" 
d="M728 624q0 -24 -14.5 -40.5t-40.5 -16.5q-20 0 -38 20.5t-32 41.5t-22 22q-23 0 -48 -22.5t-25 -57.5v-121h155q34 0 121 15l16 -14v-341q0 -16 0.5 -26.5t4.5 -17.5t5.5 -11t9.5 -6.5t11.5 -3.5t16.5 -1.5t19 -1.5v-42h-251v42q53 1 64 11q9 16 9 57v227q0 16 -1.5 24.5
t-7.5 17.5t-19.5 13t-36.5 4h-116v-284q0 -47 14.5 -58t61.5 -12h9v-42h-270v42q54 3 65.5 14.5t11.5 51.5v288h-204v-285q0 -46 14 -57t58 -12h11v-42h-263v42q51 4 62.5 15t11.5 47v292h-74v55h74q2 104 22 138q18 38 69 68.5t113 31.5q47 0 81.5 -26t34.5 -50
t-13.5 -40.5t-38.5 -16.5q-16 0 -30.5 13t-23.5 28.5t-19 28.5t-17 14q-23 0 -47.5 -22.5t-24.5 -57.5v-109l204 -1q0 110 21 151q19 35 79.5 67t107.5 32q48 0 84 -25.5t36 -50.5z" />
    <glyph glyph-name="f_f_l" unicode="ffl" horiz-adv-x="898" 
d="M800 700l22 -6v-602q0 -11 1 -18.5t4.5 -13t6 -8t10.5 -4.5t12 -2.5t16 -1.5t18 -2v-42h-250v42q48 3 60 13t12 33v481q0 28 -7 35.5t-29 7.5q0 -19 -13.5 -32t-34.5 -13q-15 0 -31 20t-29 40t-23 21q-38 0 -38 -77v-120h113v-55h-113v-284q0 -47 14 -58t60 -12h11v-42
h-271v42q53 3 65 14.5t12 48.5v291h-201v-285q0 -47 13.5 -57.5t56.5 -11.5h13v-42h-264v42q52 4 63.5 15t11.5 47v292h-74v55h74q2 103 21 138q19 38 68 68.5t104 31.5q46 0 81 -26.5t35 -49.5q0 -24 -14 -40.5t-38 -16.5q-20 0 -37.5 20t-31 40.5t-22.5 21.5
q-21 0 -40.5 -21.5t-19.5 -56.5v-109h201q0 109 21 149q21 39 66.5 69.5t86.5 30.5q27 0 56 -13.5t38 -27.5q57 12 134 41z" />
    <glyph glyph-name=".notdef" 
d="M0 0v700h500v-700h-500zM250 395l170 255h-340zM280 350l170 -255v510zM80 50h340l-170 255zM50 605v-510l170 255z" />
    <glyph glyph-name=".null" horiz-adv-x="0" 
 />
    <glyph glyph-name="nonmarkingreturn" horiz-adv-x="333" 
 />
    <glyph glyph-name="space" unicode=" " horiz-adv-x="280" 
 />
    <glyph glyph-name="exclam" unicode="!" horiz-adv-x="291" 
d="M90 69q0 25 12 40.5t22.5 18.5t20.5 3q22 0 36 -21t14 -50q0 -28 -16.5 -46t-39.5 -18q-22 0 -35.5 22t-13.5 51zM89 581q0 35 17 59.5t37 30.5q59 0 59 -93q0 -7 -6.5 -70.5t-13.5 -133.5t-14 -137t-7 -69h-33q-39 387 -39 413z" />
    <glyph glyph-name="quotedbl" unicode="&#x22;" horiz-adv-x="375" 
d="M305 421h-49q-38 166 -38 198q0 24 19 38t43 14q18 0 36.5 -8.5t18.5 -22.5q0 -12 -15 -115t-15 -104zM126 421h-48q-40 168 -40 198q0 24 19.5 38t44.5 14q19 0 37 -8.5t18 -21.5q0 -11 -15.5 -115t-15.5 -105z" />
    <glyph glyph-name="numbersign" unicode="#" horiz-adv-x="515" 
d="M344 0h-79l27 204h-96l-32 -204h-82l30 204h-98v80h111q4 10 15 100h-100v80h113q2 3 8 47t12 92.5t7 53.5h81l-30 -193h100q6 10 14.5 87.5t10.5 105.5h79l-26 -193h91v-80h-101l-15 -100h93v-80h-105q-11 -48 -28 -204zM318 384h-97q0 -1 -4 -25.5t-7.5 -48t-4.5 -26.5
h98q1 4 7.5 50t7.5 50z" />
    <glyph glyph-name="dollar" unicode="$" horiz-adv-x="452" 
d="M198 421v186q-68 -20 -68 -83q0 -19 8.5 -35.5t18 -26.5t41.5 -41zM328 136q0 26 -2.5 42t-15.5 34t-20.5 25.5t-36.5 35.5v-220q69 16 75 83zM400 286q33 -37 33 -112q0 -39 -15 -70.5t-37 -50t-48 -31.5t-45.5 -17.5t-32.5 -4.5l-2 -69l-59 -14v83q-43 2 -91 17.5
t-79 37.5v143h40q3 -63 45.5 -104t84.5 -41v244q-164 107 -164 204q0 66 56 120q38 31 110 35l-3 2q0 1 1 1v65l59 17v-82q106 -14 147 -56v-129h-39q-20 119 -108 133v-212q29 -16 66 -43.5t59 -46.5z" />
    <glyph glyph-name="percent" unicode="%" horiz-adv-x="732" 
d="M528 671h61l-371 -685h-75l325 591q-48 -25 -78 -25q-28 0 -46 9q2 -22 2 -34q0 -92 -60.5 -173t-141.5 -81q-56 0 -92.5 41t-36.5 96q0 93 71.5 172t152.5 79q6 0 58 -25q52 -26 91 -26q55 0 140 61zM174 540q-70 -101 -70 -144q0 -36 38 -56q79 12 114.5 67.5
t35.5 128.5q0 24 -2 36q-26 16 -48 16q-43 0 -68 -48zM604 105q52 83 52 141q0 88 -50 88q-39 0 -79 -61.5t-40 -138.5q0 -82 38 -82q30 0 79 53zM712 309q3 -24 3 -46q0 -104 -62.5 -185.5t-144.5 -81.5q-62 0 -95 39t-33 100q0 109 73.5 175.5t162.5 66.5q74 0 96 -68z
" />
    <glyph glyph-name="ampersand" unicode="&#x26;" horiz-adv-x="712" 
d="M673 142l39 -26q-28 -61 -70.5 -95.5t-90.5 -34.5q-35 0 -80.5 23.5t-84.5 59.5q-106 -83 -184 -83q-51 0 -90.5 21t-59.5 50.5t-29.5 53.5t-9.5 38q0 45 14 80.5t43 62.5t52.5 43t63.5 39l3 1.5l3 1.5t3 2q-33 84 -33 131q0 64 44.5 112.5t118.5 48.5q58 0 98.5 -34.5
t40.5 -93.5q0 -106 -139 -171q52 -104 102 -168q71 103 71 152q0 29 -58 29v48h230v-48q-55 -5 -62 -13q-12 -14 -56.5 -89t-83.5 -126q58 -70 126 -70q6 1 20 6.5t33.5 19t25.5 29.5zM297 430q39 21 64 50.5t25 57.5q0 70 -58 70q-25 0 -44.5 -23.5t-19.5 -56.5
q0 -42 33 -98zM176 92q32 -19 63 -19q46 0 110 45q-1 3 -64 101t-64 101q-88 -62 -88 -138q0 -47 43 -90z" />
    <glyph glyph-name="quotesingle" unicode="'" horiz-adv-x="172" 
d="M105 421h-34q-31 169 -31 198q0 25 14.5 38.5t34.5 13.5q10 0 25 -9t15 -22q0 -12 -12 -115t-12 -104z" />
    <glyph glyph-name="parenleft" unicode="(" horiz-adv-x="291" 
d="M119 558q36 39 142 116l23 -31q-97 -90 -124 -160t-27 -223q0 -71 7.5 -127t16 -89t29.5 -68.5t33 -50.5t42 -49q2 -2 11.5 -8t11.5 -9l-24 -35q-1 0 -57 51t-58 52q-123 152 -123 330q0 158 97 301z" />
    <glyph glyph-name="parenright" unicode=")" horiz-adv-x="292" 
d="M28 -176l-22 39q85 76 104 116q28 23 42 76t16 91t2 102q0 123 -40 224q-25 63 -47 93.5t-77 77.5l18 31q3 0 64.5 -49.5t64.5 -52.5q115 -146 115 -321q0 -179 -98 -307q-48 -56 -142 -120z" />
    <glyph glyph-name="asterisk" unicode="*" horiz-adv-x="498" 
d="M426 542q0 -28 -22 -39.5t-60 -19t-58 -20.5q20 -13 59 -19.5t60.5 -18.5t21.5 -43q0 -40 -45 -45q-26 0 -67 47q-20 35 -44 56q1 -21 13.5 -68.5t12.5 -59.5q0 -54 -50 -54q-23 0 -36 14.5t-13 37.5q0 14 18.5 61.5t18.5 65.5q0 4 -2 4q-4 0 -12 -9t-14 -18l-6 -9l-8 -9
q-8 -9 -11.5 -12.5t-11.5 -12t-13.5 -12.5t-13.5 -9.5t-15 -8t-13 -2.5q-41 3 -47 46q0 21 23 35t62.5 26t54.5 20q-13 7 -64 16q-36 7 -56 24t-20 40q0 15 14 30.5t31 15.5q30 -2 55 -35q10 -13 21 -27t16 -21t10.5 -13.5t8 -9t4.5 -2.5q3 0 3 7q0 16 -15.5 64t-15.5 68
q0 22 14.5 35t34.5 13q44 0 44 -65q0 -16 -10.5 -56t-11.5 -52q16 12 39 37.5t40 42t29 16.5q47 0 47 -52z" />
    <glyph glyph-name="plus" unicode="+" horiz-adv-x="517" 
d="M507 208h-205v-208h-90v208h-202v89h202v208h90v-208h205v-89z" />
    <glyph glyph-name="comma" unicode="," horiz-adv-x="212" 
d="M100 -12q-24 0 -46 15t-22 41q0 34 19 50.5t49 16.5q32 0 55 -29t23 -66q0 -55 -35.5 -95t-79.5 -62l-18 40q68 47 68 89q0 2 -2.5 5t-4.5 3q-5 0 -6 -8z" />
    <glyph glyph-name="hyphen" unicode="-" horiz-adv-x="352" 
d="M300 188h-249v75h249v-75z" />
    <glyph glyph-name="period" unicode="." horiz-adv-x="230" 
d="M46 53q0 25 18.5 45.5t48.5 20.5q26 0 46 -18.5t20 -46.5q0 -25 -19 -46t-48 -21q-26 0 -46 19t-20 47z" />
    <glyph glyph-name="slash" unicode="/" horiz-adv-x="308" 
d="M304 671l-214 -686h-87l213 686h88z" />
    <glyph glyph-name="zero" unicode="0" horiz-adv-x="601" 
d="M302 614q-29 0 -51 -33t-32.5 -80.5t-15.5 -88.5t-5 -69q0 -27 1.5 -56.5t7.5 -75t16 -80t30 -60t47 -25.5q102 0 102 278q-5 282 -100 290zM524 326q0 -60 -12.5 -117.5t-37.5 -109t-70 -83t-104 -31.5q-58 0 -103 31.5t-70.5 83t-38 111t-12.5 122.5q0 140 59 239
t169 99q57 0 101 -33t69 -86t37.5 -111t12.5 -115z" />
    <glyph glyph-name="one" unicode="1" horiz-adv-x="380" 
d="M340 0h-280v42q28 1 39.5 2.5t24.5 7t16.5 17.5t3.5 33v431q0 26 -12 26q-14 0 -80 -22v41l176 93l24 -6v-583q0 -26 16.5 -32t71.5 -8v-42z" />
    <glyph glyph-name="two" unicode="2" horiz-adv-x="542" 
d="M318 235q-93 -89 -140 -138h198q41 0 60 17q0 1 22 52l36 -15l-60 -151h-383v31l167 183q49 59 80.5 122.5t32.5 112.5q0 74 -25 112t-64 38q-42 0 -84 -41.5t-64 -112.5l-43 8q13 63 36 106t53.5 65.5t56.5 32t60 14.5q77 0 131.5 -51t55.5 -133q0 -54 -34 -121.5
t-92 -130.5z" />
    <glyph glyph-name="three" unicode="3" horiz-adv-x="508" 
d="M305 394q52 -20 91 -63.5t42 -108.5q0 -79 -41 -134.5t-99 -79t-124 -23.5q-47 0 -83.5 15t-36.5 52q0 53 48 53q17 0 62.5 -25.5t73.5 -25.5q44 0 74 37t30 88q0 31 -9 61.5t-33.5 54.5t-59.5 24q-30 0 -85 -27v61q24 9 54 26t49 29.5t21 15.5q30 28 30 69
q0 36 -23.5 62.5t-69.5 26.5q-77 0 -124 -98l-39 6q15 90 68.5 135.5t128.5 45.5q69 0 113 -37.5t44 -106.5q-1 -43 -31 -80t-71 -53z" />
    <glyph glyph-name="four" unicode="4" horiz-adv-x="549" 
d="M118 245h188v288zM499 159h-93v-159h-101v159h-261v81l299 431h63v-426h93v-86z" />
    <glyph glyph-name="five" unicode="5" horiz-adv-x="515" 
d="M341 201q0 49 -27.5 89.5t-67 62.5t-75.5 33.5t-60 11.5q-28 0 -50 -11l120 273h201l26 10q27 10 29 10q2 -1 6.5 -4.5t6.5 -4.5l-38 -98q-7 -18 -35 -18h-173l-27 -52q37 -7 65 -14t65 -24t62 -39.5t44 -60.5t23 -87q0 -75 -19.5 -131t-47.5 -86t-66 -48t-67.5 -23
t-60.5 -5q-59 0 -95 20t-36 57q0 22 14.5 35.5t40.5 13.5q18 0 68.5 -27.5t63.5 -27.5q44 0 77 44.5t33 100.5z" />
    <glyph glyph-name="six" unicode="6" horiz-adv-x="564" 
d="M300 48q8 -2 11 -2q29 0 51.5 47t22.5 98q0 60 -31 116t-85 56q-31 0 -68 -23q-13 -19 -13 -117q0 -15 5 -37t16 -51t35 -53.5t56 -33.5zM472 679l2 -42q-97 -16 -168 -78t-100 -157q50 39 117 39q82 0 127.5 -62.5t45.5 -155.5q0 -103 -58.5 -170t-133.5 -67
q-106 0 -165.5 67.5t-70.5 189.5q0 87 26.5 161t69.5 123.5t97 84.5t107.5 51t103.5 16z" />
    <glyph glyph-name="seven" unicode="7" horiz-adv-x="512" 
d="M72 479l-40 21l61 160h368v-33l-183 -581l9 -46h-112l182 560h-183q-19 -1 -32.5 -5t-24 -13.5t-15.5 -16t-15 -23t-15 -23.5z" />
    <glyph glyph-name="eight" unicode="8" horiz-adv-x="538" 
d="M265 612q-35 0 -57.5 -23t-22.5 -53q0 -43 96 -136l1 3q68 49 68 120q0 33 -22.5 61t-62.5 28zM327 365q81 -62 109.5 -103.5t28.5 -94.5q0 -75 -53 -128.5t-144 -53.5q-189 0 -189 175q0 39 19 73t37 50t57 46q-63 55 -78 76q-30 41 -30 101q0 83 59 124t132 41
q69 0 119.5 -41.5t50.5 -107.5q0 -22 -6 -41.5t-11 -31t-21.5 -26.5t-22 -19.5t-29.5 -20.5t-28 -18zM238 293q-61 -73 -61 -141q0 -52 31 -78t72 -26q39 0 60.5 24t23.5 61q0 28 -32 68t-62 66t-32 26z" />
    <glyph glyph-name="nine" unicode="9" horiz-adv-x="561" 
d="M184 463q0 -72 26 -119.5t70 -47.5t83 31q6 12 6 40q0 125 -24.5 185t-79.5 60q-81 0 -81 -149zM97 -24l-4 49q51 0 116 39.5t112 98t47 108.5q-70 -48 -121 -48q-86 0 -133 58t-47 149q0 107 58.5 174t147.5 67q93 0 155.5 -78.5t62.5 -203.5q0 -81 -24 -150.5
t-64 -116.5t-92 -80.5t-106 -49t-108 -16.5z" />
    <glyph glyph-name="colon" unicode=":" horiz-adv-x="230" 
d="M43 57q0 28 18.5 50.5t48.5 22.5q28 0 48.5 -20.5t20.5 -51.5q0 -29 -19.5 -52t-48.5 -23q-26 0 -47 21t-21 53zM64 451q19 21 52 21q30 0 46.5 -17.5t16.5 -50.5q0 -31 -15 -51t-46 -20q-30 0 -49 19t-19 51q0 25 14 48z" />
    <glyph glyph-name="semicolon" unicode=";" horiz-adv-x="236" 
d="M50 -98q79 51 79 90q0 11 -4 11q-3 0 -7 -3t-7 -6l-3 -2q-64 7 -72 63q0 33 24 51t48 18q36 0 58 -28.5t22 -69.5q0 -39 -35.5 -86.5t-80.5 -80.5zM46 397q0 38 24.5 54.5t47.5 16.5q28 0 47 -23.5t19 -54.5t-21.5 -52t-50.5 -21t-47.5 23.5t-18.5 56.5z" />
    <glyph glyph-name="less" unicode="&#x3c;" horiz-adv-x="544" 
d="M515 84v-98l-502 224v87l502 221v-96l-379 -169q20 -10 379 -169z" />
    <glyph glyph-name="equal" unicode="=" horiz-adv-x="598" 
d="M547 117h-496v84h496v-84zM547 298h-496v90h496v-90z" />
    <glyph glyph-name="greater" unicode="&#x3e;" horiz-adv-x="544" 
d="M28 422v96l503 -221v-87l-503 -224v98l378 169q-32 16 -194.5 87.5t-183.5 81.5z" />
    <glyph glyph-name="question" unicode="?" horiz-adv-x="449" 
d="M391 509q0 -47 -25 -96.5t-67 -119.5t-67 -136h-39q1 36 17.5 102t33.5 114q32 74 32 140q0 43 -24.5 70t-56.5 27q-23 0 -46.5 -11t-23.5 -32q0 -4 18.5 -28t18.5 -41q0 -7 -1 -13t-1.5 -10.5t-3 -8.5t-3.5 -6.5t-5.5 -5t-6 -4t-7 -3.5t-7.5 -2.5t-9.5 -2t-9.5 -2.5
q-62 0 -62 79q0 73 51.5 112.5t113.5 39.5q70 0 125 -42t55 -120zM279 59q0 -67 -65 -67q-63 0 -63 66q0 35 18.5 51.5t46.5 16.5q25 0 44 -20t19 -47z" />
    <glyph glyph-name="at" unicode="@" horiz-adv-x="722" 
d="M580 101l21 -50q-127 -66 -220 -66q-153 0 -255 97t-104 240q4 154 111.5 251.5t244.5 97.5q57 0 111.5 -18.5t100.5 -53.5t76.5 -92.5t35.5 -128.5q0 -90 -55.5 -166t-134.5 -76q-12 0 -23 2.5t-19.5 6.5t-15.5 9.5t-12 11t-9.5 11.5t-6.5 10t-4 7l-2 4
q-50 -57 -110 -61q-49 0 -73.5 36t-24.5 86t25.5 108.5t73 102t101.5 43.5q15 0 39 -18l21 -19q4 17 5 20h93q-62 -267 -62 -271q0 -25 17 -25q45 0 75 57.5t30 111.5q0 103 -78.5 171.5t-171.5 68.5q-121 0 -184 -84t-63 -205q0 -112 73 -188t185 -76q63 0 189 45zM444 419
q-16 30 -39 30q-39 0 -66 -52.5t-27 -123.5q0 -34 11.5 -54t28.5 -20q28 0 50 51q1 1 21.5 84.5t20.5 84.5z" />
    <glyph glyph-name="A" unicode="A" horiz-adv-x="688" 
d="M154 72q0 -25 63 -25v-47h-216v47q36 0 52 18q30 52 63 131l156 368l-28 58l116 51l241 -551q25 -53 38.5 -64t46.5 -11v-47h-272v47q58 0 66 20q0 13 -19 53l-36 87h-223q-2 -5 -14 -38t-23 -63.5t-11 -33.5zM313 495q-4 -9 -43.5 -111t-44.5 -114h180q-2 5 -46 112
t-46 113z" />
    <glyph glyph-name="B" unicode="B" horiz-adv-x="610" 
d="M243 68l32 -1q86 0 128.5 27.5t42.5 90.5q0 32 -20 59.5t-49 45.5q-51 21 -145 21v-221q0 -5 3 -10.5t5 -8.5zM530 308q58 -51 58 -122q0 -81 -58.5 -131.5t-167.5 -54.5h-346v48q59 0 73 12t14 58v425q0 47 -18.5 59.5t-57.5 12.5h-11v45h276q263 0 263 -175
q0 -57 -26.5 -90t-83.5 -48q15 -4 36 -13.5t35 -17.5zM427 480q0 61 -40 87.5t-123 26.5q-2 0 -8 0.5t-9 0.5q-15 0 -15 -11v-206h73q56 0 89 28t33 74z" />
    <glyph glyph-name="C" unicode="C" horiz-adv-x="645" 
d="M592 161l36 -36q-50 -68 -124 -104t-150 -36q-140 0 -234 88t-94 253q0 164 93 254t237 95q46 0 100 -17.5t65 -17.5q24 0 35 35h55v-245h-50q-27 100 -64.5 138t-122.5 38q-99 0 -152.5 -76t-53.5 -190q0 -136 54 -209t134 -73q57 0 107 18.5t73 36t49 41.5z" />
    <glyph glyph-name="D" unicode="D" horiz-adv-x="704" 
d="M436 104q48 33 76.5 92t28.5 130q0 140 -105 225q-14 24 -62.5 45.5t-89.5 21.5q-55 0 -56 -43v-485q0 -23 5 -23q33 0 57.5 0.5t43.5 3t30 3.5t23.5 6t16 6.5t16 8.5t16.5 9zM17 615v45h269q186 0 290.5 -87.5t104.5 -238.5q-5 -71 -31.5 -137t-74.5 -113
q-98 -84 -275 -84h-283v47q55 4 67 14t12 44v438q0 45 -17 58.5t-62 13.5z" />
    <glyph glyph-name="E" unicode="E" horiz-adv-x="611" 
d="M360 312h-134v-240q11 -6 82 -6h26q96 0 135 22.5t76 98.5h55l-48 -187h-535v47q50 2 64 13.5t14 37.5v447q0 44 -17 58t-61 14v45h531v-165h-48q-13 68 -34.5 83t-97.5 15h-128q-11 0 -14 -3v-211h129q49 0 63.5 13.5t27.5 75.5h49v-247h-48q-18 65 -28.5 77t-58.5 12z
" />
    <glyph glyph-name="F" unicode="F" horiz-adv-x="568" 
d="M372 306q-26 4 -47 4h-98v-192q0 -49 13.5 -59.5t67.5 -12.5v-46h-291v46q53 1 65 11t12 48v438q0 46 -16.5 59.5t-60.5 13.5v44h530v-164h-47q-14 68 -35.5 83t-96.5 15h-131q-8 0 -10 -2v-213h98q50 0 66 18t24 71h49v-247h-49q-6 29 -43 85z" />
    <glyph glyph-name="G" unicode="G" horiz-adv-x="704" 
d="M360 676q58 0 117 -16.5t60 -16.5q4 0 9.5 4t9.5 9l8 10l4 5h52v-229h-46q-10 24 -26.5 52.5t-27.5 45.5l-12 16q-56 51 -133 51q-90 0 -150 -75t-60 -188q0 -136 58 -211.5t176 -75.5q36 0 72.5 12.5t36.5 27.5v154q0 46 -13 56.5t-68 15.5v44h270v-44q-41 -4 -53 -14.5
t-12 -47.5v-198q-31 -30 -114.5 -54t-139.5 -24q-150 0 -251.5 90t-101.5 249q0 111 49.5 193t124.5 120.5t161 38.5z" />
    <glyph glyph-name="H" unicode="H" horiz-adv-x="711" 
d="M17 660h293v-44q-5 0 -17 -1t-15.5 -1t-12.5 -1t-11 -2.5t-8 -4t-7 -6.5t-4.5 -9t-4 -12t-1.5 -16t-1 -20v-171h256v171q0 48 -15.5 59.5t-68.5 13.5v44h294v-44q-57 -4 -69.5 -14t-12.5 -59v-425q0 -46 14.5 -57.5t67.5 -14.5v-46h-294v46q49 2 66.5 16.5t17.5 65.5v173
h-256v-183q0 -44 13 -56t69 -16v-46h-293v46q47 2 63.5 16t16.5 56v425q0 48 -15.5 60.5t-64.5 12.5v44z" />
    <glyph glyph-name="I" unicode="I" horiz-adv-x="334" 
d="M16 660h302v-44q-57 -2 -72.5 -12.5t-15.5 -60.5v-425q0 -48 17 -59.5t71 -11.5v-47h-302v47q52 1 70 14t18 57v425q0 43 -20 57t-68 16v44z" />
    <glyph glyph-name="J" unicode="J" horiz-adv-x="376" 
d="M68 135q29 0 45 -19t21.5 -39.5t8.5 -21.5q15 0 15 46v444q0 50 -13.5 60t-68.5 12v43h292v-43q-80 -2 -80 -54v-372q0 -95 -47 -150.5t-126 -55.5q-49 0 -78 23.5t-29 64.5q0 27 15.5 44.5t44.5 17.5z" />
    <glyph glyph-name="K" unicode="K" horiz-adv-x="700" 
d="M444 54q0 8 -20.5 35.5t-51 61.5t-60 65.5t-52.5 55.5l-24 25l-8 -4v-175q0 -46 13 -58.5t70 -13.5v-46h-294v46q57 3 69 15t12 58v424q0 24 -4 38t-16 21t-24 9.5t-37 3.5v45h295v-45q-76 0 -84 -54v-189l144 144q64 61 64 81q0 7 -7 12.5t-15 5.5h-37v45h276v-45
q-76 -5 -110 -18q0 -2 -103 -112t-107 -112l212 -229q58 -62 84.5 -80t69.5 -18v-46h-318v46h40q23 0 23 8z" />
    <glyph glyph-name="L" unicode="L" horiz-adv-x="604" 
d="M601 193l-52 -193h-532v46q53 4 65.5 16.5t12.5 46.5v434q0 45 -17 59t-61 14v44h294v-44q-55 -4 -66 -12q-17 -13 -17 -61v-452q0 -16 9 -20t36 -4h82q99 0 153 50q13 13 40 76h53z" />
    <glyph glyph-name="M" unicode="M" horiz-adv-x="873" 
d="M774 543v-425q0 -47 14 -58.5t68 -13.5v-46h-296v46q51 2 69.5 17.5t18.5 60.5v403l-222 -527h-31l-220 504v-351q0 -38 4 -59.5t17 -31.5t27 -12.5t45 -3.5v-46h-253v46q60 3 74.5 20.5t14.5 86.5v390q0 45 -3 49q-21 24 -85 24v44h213l212 -470l198 470h217v-44
q-4 0 -9.5 -0.5t-19.5 -4.5t-24.5 -10.5t-19.5 -22t-9 -35.5z" />
    <glyph glyph-name="N" unicode="N" horiz-adv-x="713" 
d="M705 617q-59 -5 -75 -24.5t-16 -85.5v-519h-36l-402 520v-354q0 -47 10 -70t27.5 -29.5t54.5 -7.5v-46h-252v46q61 4 74.5 20.5t13.5 71.5v435q-30 43 -83 43h-5v43h180l348 -453v300q0 38 -4.5 59.5t-19 32t-26 13t-42.5 5.5v43h253v-43z" />
    <glyph glyph-name="O" unicode="O" horiz-adv-x="700" 
d="M463 563l-2 1q-53 45 -112 45q-94 0 -139 -78.5t-45 -202.5q2 -53 11.5 -99t29.5 -87t56.5 -64.5t85.5 -23.5q94 0 138 75.5t44 197.5q0 73 -19 137.5t-48 98.5zM344 -15q-141 0 -230 101t-89 253t94 244t230 92q139 0 232 -97.5t93 -251.5q0 -153 -96 -247t-234 -94z
" />
    <glyph glyph-name="P" unicode="P" horiz-adv-x="554" 
d="M491 597q48 -60 48 -124q0 -44 -28.5 -91.5t-68.5 -75.5q-64 -35 -173 -35q-27 0 -47 6v-160q0 -49 16.5 -60t68.5 -11v-46h-290v46q53 3 64.5 14t11.5 55v428q0 22 -1 33.5t-9 19t-12 9t-23.5 4.5t-30.5 6v45h261q135 0 213 -63zM222 581v-238q96 0 139 26.5t43 97.5
q0 127 -168 127q-3 -1 -8.5 -6.5t-5.5 -6.5z" />
    <glyph glyph-name="Q" unicode="Q" horiz-adv-x="704" 
d="M602 -113q48 -14 85 -15v-42q-39 -4 -55 -4q-230 0 -338 121l-44 49q-123 57 -172.5 128.5t-51.5 200.5q0 160 93 255t233 95q137 0 231 -100.5t94 -246.5q0 -68 -17.5 -120t-44.5 -80t-57.5 -49t-57.5 -31.5t-44.5 -23.5t-17.5 -28q0 -4 18 -25t59 -48.5t87 -35.5z
M354 607q-95 0 -141.5 -77t-46.5 -198q0 -123 47 -202.5t139 -79.5q182 0 182 280q0 55 -8.5 101t-27.5 87.5t-55.5 65t-88.5 23.5z" />
    <glyph glyph-name="R" unicode="R" horiz-adv-x="656" 
d="M383 309q21 -27 52 -68t44 -57t36 -41.5t50 -52.5l89 -45v-45h-174l-224 291q0 -1 -6 -1q-5 0 -15 1t-11 1v-175q0 -44 13.5 -57.5t70.5 -14.5v-45h-291v45q62 5 68 15q9 16 9 68v415q0 19 -1.5 30t-3 18t-9 10t-13 4.5t-21.5 4t-29 5.5v45h276q48 0 90 -8t82.5 -27
t64 -56.5t23.5 -90.5q0 -33 -11.5 -60t-26.5 -43t-41 -30.5t-44 -20.5t-47 -15zM224 573v-218q23 0 38.5 1t40.5 5t41.5 12t33.5 21t25.5 35t8.5 51q0 114 -156 114q-23 0 -32 -21z" />
    <glyph glyph-name="S" unicode="S" horiz-adv-x="496" 
d="M287 400q37 -23 44.5 -28t37 -25t36.5 -28t25.5 -27.5t23.5 -34t11 -36t6 -45.5q0 -88 -65.5 -139.5t-142.5 -51.5q-28 0 -85.5 18t-67.5 18q-4 0 -8.5 -9t-4.5 -23h-48l-25 231h44q34 -93 73.5 -129.5t102.5 -36.5q48 0 72.5 29t24.5 69q0 37 -30.5 68.5t-74 57
t-87.5 53.5t-74.5 70.5t-30.5 96.5q0 78 54 127.5t123 49.5q43 0 70 -4.5t35 -10t17 -10t19 -4.5q12 0 17 29h46l22 -233h-50q-19 81 -47 107l-9 11q-40 45 -101 45q-50 0 -67 -20t-17 -65q0 -31 131 -120z" />
    <glyph glyph-name="T" unicode="T" horiz-adv-x="605" 
d="M476 591h-112v-473q0 -44 14 -57.5t74 -14.5v-46h-302v46q59 3 72.5 14t13.5 50v481h-34q-76 0 -99.5 -19.5t-38.5 -101.5h-44v190h565v-190h-50q-13 77 -37 101q-1 1 -10.5 10t-11.5 10z" />
    <glyph glyph-name="U" unicode="U" horiz-adv-x="700" 
d="M530 252v256q0 70 -16 88t-70 21v43h249v-43q-32 -3 -45 -6t-25.5 -14t-15 -31t-2.5 -58v-248q0 -141 -62 -208t-196 -67q-213 0 -253 188q-3 33 -3 75v297q0 23 -1 35t-9 19t-13 8.5t-25.5 4t-34.5 5.5v43h296v-43q-10 -1 -26.5 -1t-22 -1t-14.5 -4t-11.5 -10.5t-5 -21
t-2.5 -34.5v-304q0 -97 33.5 -138.5t112.5 -41.5q89 0 125.5 42t36.5 149z" />
    <glyph glyph-name="V" unicode="V" horiz-adv-x="683" 
d="M216 598q0 -12 166 -403l123 332q16 41 16 63q0 9 -13.5 17.5t-35.5 8.5h-17v44h223v-44q-37 0 -48.5 -11.5t-38.5 -70.5l-213 -546h-36l-242 535q-25 56 -42 73.5t-54 19.5v44h278v-44q-66 -5 -66 -18z" />
    <glyph glyph-name="W" unicode="W" horiz-adv-x="920" 
d="M325 -12h-34l-191 522q-25 61 -43.5 83t-52.5 22v45h264v-45q-46 -2 -60 -14q8 -108 128 -379q4 11 41 130.5t44 134.5q-10 26 -34 68t-32 50q-17 9 -56 10v45h283v-45q-67 -1 -70 -19q0 -3 31 -89.5t64.5 -180t37.5 -107.5q11 30 64 194.5t53 175.5q0 26 -62 26v45h216
v-45q-42 -7 -53.5 -17t-21.5 -42q-33 -90 -60.5 -165.5t-45 -124.5t-30 -86t-19.5 -58t-11 -33.5t-6 -19t-2 -7.5q-17 -41 -26 -74h-37l-142 395q-7 -23 -66 -193t-71 -202z" />
    <glyph glyph-name="X" unicode="X" horiz-adv-x="704" 
d="M588 112q23 -33 46 -47t61 -19v-46h-310v46q83 3 83 14q-3 7 -68.5 105t-69.5 104q-146 -168 -146 -196v-2q0 -11 26 -18t48 -7v-46h-250v46q43 2 58 18q25 19 56.5 53t54 61.5t61 76.5t54.5 69q-188 259 -201 272q-29 19 -73 19v45h315v-45h-41q-14 0 -23 -6t-9 -13
q5 -12 51 -84t59 -91q126 164 126 175q0 19 -64 19v45h256v-45q-60 -3 -89 -26q-7 -5 -54 -60.5t-91 -108.5l-43 -53q11 -19 55.5 -82.5t83.5 -118.5z" />
    <glyph glyph-name="Y" unicode="Y" horiz-adv-x="679" 
d="M55 598q-20 16 -55 17v45h294v-45h-38q-25 -3 -25 -15q0 -4 62 -107t76 -125q1 3 34.5 54.5t65 106t31.5 69.5q0 3 -12.5 6.5t-30 6.5t-20.5 4v45h238v-45q-44 -4 -82 -37q-5 -5 -52 -75.5t-92 -138.5l-45 -68v-178q1 -44 23 -57t73 -14v-47h-316v47q60 2 72 8
q18 10 19 61v12v161q-16 22 -71 102t-98.5 141t-50.5 66z" />
    <glyph glyph-name="Z" unicode="Z" horiz-adv-x="611" 
d="M596 195l-26 -195h-558v37l404 560h-184q-80 0 -104 -21.5t-44 -106.5h-50l20 191h522v-35l-400 -562h220q69 0 98.5 25.5t55.5 106.5h46z" />
    <glyph glyph-name="bracketleft" unicode="[" horiz-adv-x="276" 
d="M265 -153h-214v810h214v-53h-91q-24 -5 -26 -28v-639q0 -37 28 -37h89v-53z" />
    <glyph glyph-name="backslash" unicode="\" horiz-adv-x="309" 
d="M305 -15h-88l-213 686h87z" />
    <glyph glyph-name="bracketright" unicode="]" horiz-adv-x="276" 
d="M224 -153h-213v53h93q24 4 25 29v638q0 37 -27 37h-91v53h213v-810z" />
    <glyph glyph-name="asciicircum" unicode="^" horiz-adv-x="449" 
d="M100 291h-90l178 366h73l177 -366h-88l-126 256q-9 -18 -35 -71t-54 -112t-35 -73z" />
    <glyph glyph-name="underscore" unicode="_" horiz-adv-x="576" 
d="M576 -121h-584v60h584v-60z" />
    <glyph glyph-name="grave" unicode="`" horiz-adv-x="280" 
d="M260 514h-60l-139 83q-34 26 -34 53q3 19 15.5 31t31.5 12q7 0 82.5 -74.5t103.5 -104.5z" />
    <glyph glyph-name="a" unicode="a" horiz-adv-x="446" 
d="M157 339q0 -53 -57 -53q-52 0 -52 54q0 52 45 85.5t123 33.5q150 0 150 -160v-185q0 -37 10 -37q17 0 55 20v-46q-21 -24 -54.5 -43t-42.5 -19q-25 0 -47 20.5t-22 46.5q-70 -63 -120 -67q-51 0 -84 34.5t-33 82.5q1 28 10.5 48t34.5 36t45.5 25.5t66.5 27.5t74 30v72
q-5 58 -55 62q-26 0 -42.5 -9.5t-16.5 -22.5q0 -9 6 -22t6 -14zM259 114v109q-75 -33 -101 -51t-26 -42q0 -23 15 -37.5t35 -14.5q19 0 46 9.5t31 26.5z" />
    <glyph glyph-name="b" unicode="b" horiz-adv-x="483" 
d="M219 -11q-35 0 -65 14t-47.5 28t-21.5 14l-35 -45q-1 0 -1 2v576q0 36 -29 36q-6 0 -16.5 -2t-11.5 -2v46l38 11q84 23 107 33l21 -6v-292q17 26 48 44.5t66 19.5q72 0 126 -62t54 -157q0 -108 -67 -183t-166 -75zM337 202q0 76 -27.5 125.5t-72.5 49.5q-29 0 -54 -18
t-25 -40v-237q0 -2 13.5 -11.5t32.5 -18t31 -8.5q45 0 73.5 41.5t28.5 116.5z" />
    <glyph glyph-name="c" unicode="c" horiz-adv-x="430" 
d="M341 294q-22 1 -37 18.5t-21.5 37t-17.5 36t-25 16.5q-49 0 -78.5 -44.5t-29.5 -100.5q0 -75 29 -128.5t92 -53.5q30 0 58.5 14.5t47 29t25.5 14.5q10 0 17.5 -10t7.5 -19q-25 -48 -83 -81.5t-106 -33.5q-67 0 -127 63t-64 164q0 99 61.5 174t149.5 75q66 0 113 -37.5
t47 -79.5q-2 -32 -15 -42t-44 -12z" />
    <glyph glyph-name="d" unicode="d" horiz-adv-x="507" 
d="M428 125q0 -41 22 -41q1 0 14.5 0.5t27.5 0.5v-41l-158 -55l-13 16v44q-52 -57 -121 -57q-65 0 -117 57.5t-52 154.5q0 107 60 184.5t148 77.5q9 0 17 -3.5t18.5 -12t15 -13t17 -18.5t14.5 -16v190l-2 17q-13 11 -28 11t-31 -9v44q127 36 145 44l23 -6v-569zM321 112v217
q0 36 -25.5 64t-55.5 28q-37 0 -66.5 -46.5t-29.5 -124.5q0 -42 11 -81.5t37.5 -69t63.5 -29.5q19 0 42 14t23 28z" />
    <glyph glyph-name="e" unicode="e" horiz-adv-x="432" 
d="M211 395q-31 0 -54 -19.5t-29 -58.5h144q20 5 22 21q0 20 -24.5 38.5t-58.5 18.5zM124 260q0 -105 32.5 -145.5t95.5 -40.5q27 0 45 3t36.5 14t24.5 16t30 26q8 0 15.5 -10.5t7.5 -18.5q-25 -49 -72.5 -82t-96.5 -33q-92 0 -152 67t-60 160q0 111 61 177.5t146 66.5
q60 0 111.5 -39t51.5 -104q-2 -21 -10.5 -39t-19.5 -18h-246z" />
    <glyph glyph-name="f" unicode="f" horiz-adv-x="328" 
d="M384 624q0 -24 -14 -40.5t-38 -16.5q-16 0 -31 13t-24 28.5t-19 28.5t-17 14q-37 0 -37 -80v-120h110v-55h-110v-285q0 -46 14 -57t58 -12h11v-42h-263v42q51 4 62.5 15t11.5 47v292h-74v55h74q2 115 22 149q18 37 61.5 68.5t86.5 31.5q47 0 81.5 -26t34.5 -50z" />
    <glyph glyph-name="g" unicode="g" horiz-adv-x="446" 
d="M204 -169q72 0 122 28t50 58q0 31 -97 31q-95 0 -153 15q-43 -49 -44 -86q0 -46 122 -46zM172 -250q-74 0 -124.5 31t-50.5 82q0 20 25.5 53.5t57.5 59.5q-21 1 -32 18t-11 37q0 60 78 117q-47 24 -64 60t-17 88q0 80 67 131q45 34 103 34q38 -1 60 -7.5t40.5 -17.5
t29.5 -15q15 2 37 15t37 31l17 -67q-29 -38 -63 -39q14 -29 14 -69q0 -79 -45.5 -125t-112.5 -46q-18 0 -50 6q-10 -6 -25.5 -24.5t-15.5 -31.5q0 -9 55 -9l118 -6q62 -4 95 -35.5t33 -86.5q0 -88 -74 -135.5t-182 -48.5zM144 323q0 -64 20.5 -103.5t57.5 -39.5q25 2 36 19
t14 52q0 49 -20 100t-57 51q-19 -1 -35 -25t-16 -47v-7z" />
    <glyph glyph-name="h" unicode="h" horiz-adv-x="504" 
d="M42 610q-8 0 -25 -5v51q132 39 146 44l20 -8v-304q54 77 121 77q130 0 130 -164v-191q0 -45 7.5 -53.5t46.5 -14.5v-42h-224v42q39 4 49 16t10 52v190q0 88 -52 88q-20 0 -44.5 -14.5t-43.5 -38.5v-225q0 -44 9.5 -53.5t51.5 -14.5v-42h-228v42q41 6 48.5 14t7.5 54v468
q0 14 -7.5 22t-14.5 9z" />
    <glyph glyph-name="i" unicode="i" horiz-adv-x="275" 
d="M24 370v41l158 54l15 -14v-341q0 -15 1 -25.5t4.5 -18t5 -11.5t9.5 -6.5t11 -3t15 -1.5t17 -2v-42h-239v42q47 1 58.5 9.5t11.5 36.5v242q0 38 -9 42zM200 617q0 -33 -18.5 -51.5t-46.5 -18.5q-29 0 -44.5 18t-15.5 49q0 26 18.5 45t41.5 19q64 -4 65 -61z" />
    <glyph glyph-name="j" unicode="j" horiz-adv-x="240" 
d="M-29 -128q22 0 43 -28.5t34 -28.5q9 0 15 7.5t8 26.5t2.5 34t0.5 46v403q0 28 -28 44q-13 -2 -37 -7v41l39 16q99 32 117 39l15 -13v-478q0 -223 -164 -223q-46 0 -73 18.5t-27 50.5q0 22 15 37t40 15zM180 615q0 -34 -16 -51t-44 -17q-26 0 -43.5 19t-17.5 48
q0 28 18 46t43 18q33 -2 45 -15t15 -48z" />
    <glyph glyph-name="k" unicode="k" horiz-adv-x="513" 
d="M12 612v44l40 11q94 24 117 33l19 -6v-413q2 2 33.5 34.5t58 60.5t26.5 31q0 16 -30 16l-12 -1v30h218v-41h-21q-26 0 -41 -4q-17 -5 -65.5 -43t-96.5 -83q11 -15 28.5 -39.5t26 -36t22.5 -29.5t29.5 -35t34.5 -37q19 -27 48.5 -46t57.5 -19v-39h-231v40q17 0 22.5 3.5
t5.5 12.5l-114 170v-142q0 -43 70 -45v-39h-246v39q33 1 49 11t16 38v481q0 26 -5 35t-20 9q-7 0 -16.5 -0.5t-16.5 -0.5h-7z" />
    <glyph glyph-name="l" unicode="l" horiz-adv-x="265" 
d="M11 612v44q98 23 155 44l22 -6v-602q0 -11 1 -18.5t4.5 -13t5.5 -8t9.5 -4.5t11 -2.5t15 -1.5t17.5 -2v-42h-240v42q44 2 56.5 12t12.5 30v488q0 25 -11 33t-32 8q-4 0 -13.5 -0.5t-13.5 -0.5z" />
    <glyph glyph-name="m" unicode="m" horiz-adv-x="778" 
d="M765 38v-38h-234v38q38 5 47.5 15t9.5 40v201q0 53 -13 69t-40 16q-2 0 -15 -1t-18 -2t-15.5 -3.5t-16.5 -6t-13 -10.5t-11 -16v-238q0 -34 14.5 -48.5t53.5 -15.5v-38h-240v38q30 1 43.5 8.5t16 16.5t2.5 29v207q0 45 -13 62.5t-43 17.5q-67 0 -84 -40v-264
q0 -6 1.5 -11t3 -8.5t6.5 -6t7.5 -4t9.5 -3t10 -2t12.5 -1.5t12.5 -1v-38h-239v38q40 1 51.5 12t11.5 31v249q0 23 -1.5 34.5t-8 19t-20.5 7.5t-30 -5v28q127 39 141 45l23 -6v-61q45 38 71.5 52.5t63.5 14.5q77 0 105 -74q70 74 148 74q126 0 126 -181v-195q3 -45 64 -45z
" />
    <glyph glyph-name="n" unicode="n" horiz-adv-x="506" 
d="M491 0h-223v41q33 4 44.5 17t11.5 48v196q0 75 -51 75q-17 0 -30 -4.5t-19 -9.5t-16 -15.5t-14 -14.5v-258q0 -20 13.5 -27t43.5 -7v-41h-226v41q37 4 46.5 14.5t9.5 40.5v234q0 42 -25 42q-10 0 -31 -7v50q19 6 66.5 20.5t71.5 23.5l24 -6v-62q60 68 121 68t94.5 -39.5
t33.5 -116.5v-216q0 -26 10.5 -33.5t44.5 -12.5v-41z" />
    <glyph glyph-name="o" unicode="o" 
d="M249 460q92 0 156 -71.5t64 -172.5t-63 -165t-157 -64t-157 64t-63 165t64 172.5t156 71.5zM245 405q-44 0 -74 -57t-30 -127q0 -68 31.5 -121.5t76.5 -53.5q44 0 71.5 52.5t27.5 122.5t-29.5 127t-73.5 57z" />
    <glyph glyph-name="p" unicode="p" horiz-adv-x="503" 
d="M260 371q-32 -4 -48 -13.5t-32 -36.5v-231q0 -17 30.5 -31t51.5 -14q48 0 71 49.5t23 109.5q0 76 -27 121.5t-69 45.5zM470 242q0 -109 -61.5 -183t-148.5 -74q-53 0 -81 31l1 -164q0 -39 12 -48.5t69 -10.5v-43h-253v42q39 2 50 11.5t11 41.5v482q0 44 -32 44
q-12 0 -25 -4v40q43 11 144 52l24 -6v-62q51 68 117 68q78 -4 125.5 -62.5t47.5 -154.5z" />
    <glyph glyph-name="q" unicode="q" horiz-adv-x="485" 
d="M325 127v196q0 79 -69 79q-40 0 -66 -26.5t-35.5 -62t-9.5 -77.5q0 -74 25.5 -118.5t78.5 -44.5q76 0 76 54zM492 -250h-246v42q48 2 63.5 13.5t15.5 46.5v194q-50 -61 -129 -61q-78 0 -121 65.5t-43 150.5q0 113 62.5 186t158.5 73q45 0 107 -30l42 24h32v-619
q0 -6 0.5 -10.5t1 -8t3 -6.5t3.5 -5t5 -4l6 -3t7.5 -2.5t8.5 -2t11 -2t12 -2.5v-39z" />
    <glyph glyph-name="r" unicode="r" horiz-adv-x="368" 
d="M24 412l156 47h10v-72q26 37 46.5 54.5t47.5 17.5q26 0 45 -14t23 -43q0 -32 -23 -67.5t-48 -36.5v5q0 22 -13.5 46.5t-23.5 24.5q-23 0 -38.5 -25.5t-15.5 -49.5v-201q0 -36 16.5 -45t61.5 -11v-42h-244v42q3 1 10.5 2t10.5 1.5t9 2t8.5 3t7 4.5t6.5 6t4 7.5t3 10.5
t1 13v238q0 17 -4.5 32.5t-9.5 17.5l-46 -11v43z" />
    <glyph glyph-name="s" unicode="s" horiz-adv-x="368" 
d="M340 127q0 -60 -47 -99t-96 -39q-28 0 -64.5 9.5t-42.5 9.5q-9 0 -15 -9h-32v174h41q15 -73 34.5 -100.5t66.5 -27.5q25 0 41.5 12.5t16.5 35.5q0 28 -29 51t-59 34q-116 65 -116 151q0 65 41.5 97t97.5 32q44 0 63 -8t20 -8q6 2 12 7h34v-148h-40q-14 55 -33 81t-55 26
q-50 0 -50 -50q0 -39 28 -57l98 -49q85 -53 85 -125z" />
    <glyph glyph-name="t" unicode="t" horiz-adv-x="297" 
d="M144 575q27 0 27 -28v-98h88v-57h-88v-262q0 -57 32 -57q27 0 51 31l31 -21q-51 -94 -125 -94q-45 0 -69 35.5t-24 103.5v264h-37q-13 5 -13 23q0 15 19 30h1q22 0 37.5 19t34.5 55t35 56z" />
    <glyph glyph-name="u" unicode="u" 
d="M321 -11v78l-18 -34q-40 -44 -104 -44q-56 0 -92.5 37.5t-36.5 101.5v236q0 27 -12 37t-43 12v36h167v-318q0 -36 10 -45t39 -9q31 0 56.5 14t25.5 51v219q0 31 -13 39t-52 10v39h175v-334q0 -23 6 -29.5t22 -6.5l30 1v-44q-145 -41 -160 -47z" />
    <glyph glyph-name="v" unicode="v" horiz-adv-x="472" 
d="M266 150q32 91 82 220q0 26 -8.5 33t-35.5 9v37h158v-37q-13 -2 -20 -3.5t-12.5 -8t-7.5 -11.5t-8.5 -20t-11.5 -27l-117 -299q-26 -58 -41 -58q-8 0 -66.5 128.5t-86.5 193.5q-35 80 -43 90q-11 13 -40 15v37h210v-37q-1 0 -9.5 -1t-13 -2t-11 -3.5t-9.5 -8t-3 -13.5
q0 -4 46.5 -115.5t47.5 -118.5z" />
    <glyph glyph-name="w" unicode="w" horiz-adv-x="680" 
d="M154 379l93 -233l71 144q-5 10 -15.5 37t-19 47t-12.5 24q-1 0 -19.5 6.5t-19.5 7.5v37h222v-37q-69 -2 -74 -23q0 -3 22.5 -57t47.5 -113t29 -69q3 9 29 69t49.5 115.5t23.5 59.5q0 9 -57 18v37h144v-37q-11 -4 -16 -10t-10 -17.5t-10 -19.5q-10 -25 -85.5 -189.5
t-86.5 -190.5q-7 20 -56 131.5t-53 122.5q-3 -6 -65.5 -127t-65.5 -127q-16 41 -80.5 187t-83.5 184q-19 41 -27 47q-9 6 -24 9v37h201v-37q-2 1 -8 1q-16 0 -30 -9t-14 -24v-1z" />
    <glyph glyph-name="x" unicode="x" horiz-adv-x="482" 
d="M184 231q-33 54 -81 126q-22 32 -36.5 43t-30.5 11h-13v38h221v-38q-40 -2 -40 -8q0 -1 -1.5 -7t-1.5 -10q0 -7 1.5 -13t7 -14.5t7.5 -12t11.5 -15.5t11.5 -14q50 76 50 86q-10 8 -32 8v38h172v-38q-46 -1 -74 -39q-4 -5 -21.5 -29.5t-33.5 -47t-21 -30.5l116 -173
q39 -51 76 -51v-41h-212v41q34 1 34 9q0 2 -14.5 26t-33.5 55.5t-26 45.5q-1 -1 -39.5 -57.5t-45.5 -70.5q0 -1 6 -3t17 -3.5t22 -1.5v-41h-164v41q38 5 51 18q90 130 117 172z" />
    <glyph glyph-name="y" unicode="y" horiz-adv-x="469" 
d="M133 -149q14 0 48 71.5t34 119.5q0 50 -37 128.5t-128 214.5q-13 20 -47 27v37h219v-39q-38 -4 -50 -16q2 -3 4.5 -13.5t3.5 -13.5l90 -220q78 241 78 253q0 10 -42 10v39h153v-39q-28 -4 -40 -23q-19 -47 -73.5 -200t-70.5 -202q-90 -235 -191 -235q-37 0 -60.5 18.5
t-23.5 51.5q0 26 15.5 42t40.5 16q12 0 40 -13.5t37 -13.5z" />
    <glyph glyph-name="z" unicode="z" horiz-adv-x="434" 
d="M420 157l-46 -157h-355v36l236 359h-103q-37 0 -48 -11l-18 -73h-37v138h339v-31l-235 -364h107q59 0 76 17l7.5 7.5t9.5 10.5t9.5 12.5t10.5 16t8.5 18t6.5 21.5h32z" />
    <glyph glyph-name="braceleft" unicode="{" horiz-adv-x="267" 
d="M178 125v-162q0 -47 17 -71t61 -34v-35q-76 1 -126 18q-5 3 -12 10t-22 40t-20 78v172q0 45 -17 65.5t-55 30.5v24q44 13 58 32.5t14 62.5v172q0 78 33 110t117 37h30v-39q-46 -11 -62 -34.5t-16 -68.5v-162q0 -54 -93 -131q1 0 1 0.5t1 0.5q13 0 52 -50t39 -66z" />
    <glyph glyph-name="bar" unicode="|" horiz-adv-x="176" 
d="M124 -15h-73v686h73v-686z" />
    <glyph glyph-name="braceright" unicode="}" horiz-adv-x="273" 
d="M188 528v-171q0 -49 17.5 -67.5t74.5 -40.5q-56 -21 -74 -44t-18 -63v-173q0 -78 -31.5 -109t-116.5 -37h-28v37q45 10 61 34t16 70v162q0 56 16 84.5t54 38.5q-42 13 -56 37t-14 86v162q0 50 -17 69.5t-60 32.5v39q87 -1 122 -19q54 -42 54 -128z" />
    <glyph glyph-name="asciitilde" unicode="~" horiz-adv-x="504" 
d="M408 309l72 -39q-5 -7 -15.5 -23t-15 -23t-14 -18.5t-17 -16.5t-18.5 -9t-23 -4q-11 0 -29 5q-12 0 -83 31.5t-93 31.5q-23 0 -82 -51l-69 36q66 91 161 91q19 0 88 -27.5t75 -27.5q2 -1 6 -1q10 0 19.5 6.5t23.5 22.5z" />
    <glyph glyph-name="uni00A0" unicode="&#xa0;" horiz-adv-x="280" 
 />
    <glyph glyph-name="exclamdown" unicode="&#xa1;" horiz-adv-x="293" 
d="M201 -123q0 -37 -15.5 -63t-42.5 -26q-54 0 -54 91l39 411h33q40 -379 40 -413zM203 404q0 -33 -17.5 -51.5t-42.5 -18.5q-26 0 -40 22t-14 53q0 26 15.5 42t36.5 16q19 0 40.5 -17t21.5 -46z" />
    <glyph glyph-name="cent" unicode="&#xa2;" horiz-adv-x="423" 
d="M254 407q-6 -1 -24 -1q-51 0 -79.5 -43.5t-28.5 -102.5q0 -43 9.5 -90.5t26.5 -52.5zM156 -121l-79 -14l47 152q-104 55 -104 202q0 113 61 180t155 67q17 0 37 -7q1 5 3 9l3.5 7t3.5 14t4 30v6q0 10 -3 26t-3 25l93 23l-45 -156q66 -28 66 -89q0 -3 -1 -7.5t-4.5 -17
t-9 -22t-15.5 -17t-23 -7.5q-11 0 -17.5 5.5t-16.5 21.5t-19 27q-44 -168 -77 -246q1 0 7.5 -4.5t17.5 -9t23 -4.5q54 0 118 95l34 -27q-25 -59 -85 -106t-117 -47q-15 0 -33 5z" />
    <glyph glyph-name="sterling" unicode="&#xa3;" horiz-adv-x="499" 
d="M136 87h-17l-17 2q-27 0 -27 -18q0 -19 19 -19q17 0 29.5 12t12.5 23zM392 500q-17 0 -36 12.5t-19 40.5q0 3 0.5 9.5t0.5 9.5q0 33 -39 41q-24 0 -39.5 -8.5t-21.5 -26t-7.5 -32t-1.5 -38.5q0 -57 7 -127h116v-71h-112l-28 -179q19 -7 65 -33t66 -26q41 0 67 14t33.5 30
t13 30t10.5 14q24 0 24 -14q0 -65 -43.5 -99t-129.5 -54q-51 0 -114 41l-16 17q-57 -59 -92 -59q-36 0 -58 20t-22 60q0 36 28.5 59.5t71.5 23.5q18 0 36 -8q-5 4 -5 9v4q0 21 -17 150h-101v71h98q-8 36 -8 52q0 102 51.5 170t143.5 68q46 0 91 -28.5t45 -76.5
q0 -25 -18.5 -45.5t-39.5 -20.5z" />
    <glyph glyph-name="currency" unicode="&#xa4;" horiz-adv-x="578" 
d="M556 120l-57 -62l-91 91q-60 -39 -115 -39t-119 38q-47 -53 -88 -91l-66 63l90 90q-35 64 -35 121q0 59 34 111l-89 96l64 61l91 -89q65 38 123 38t109 -37q21 16 92 87l57 -61l-84 -95q35 -57 35 -114q0 -58 -37 -117q53 -50 86 -91zM410 328q0 52 -38 88t-91 36
q-42 0 -76.5 -38.5t-34.5 -94.5q0 -39 34.5 -78.5t86.5 -39.5q46 0 82.5 37t36.5 90z" />
    <glyph glyph-name="yen" unicode="&#xa5;" horiz-adv-x="560" 
d="M366 360h130v-63h-162v-60h162v-63h-162v-56q0 -46 15 -58.5t61 -12.5v-47h-258v47q27 0 41.5 3.5t21.5 15.5t8 23.5t1 38.5v46h-161v63h161q0 10 -0.5 30t-0.5 30h-160v63h129q-12 18 -47 78t-64.5 109t-36.5 54q-15 11 -44 11v45h253v-45q-53 -3 -56 -15q0 -11 3.5 -23
t13 -32t19.5 -39.5t31 -59t39 -75.5q1 2 27 59.5t50 111t24 57.5q0 13 -20 16h-39v45h211v-45q-55 -11 -93 -58q-1 -2 -48 -97.5t-49 -96.5z" />
    <glyph glyph-name="brokenbar" unicode="&#xa6;" horiz-adv-x="176" 
d="M124 -15h-73v292h73v-292zM124 383h-73v288h73v-288z" />
    <glyph glyph-name="section" unicode="&#xa7;" horiz-adv-x="389" 
d="M290 214q0 41 -62 94.5t-92 53.5q-15 0 -27 -16t-12 -35q0 -54 57.5 -96.5t89.5 -46.5q18 0 32 12.5t14 33.5zM370 245q0 -76 -57 -113q-26 -8 -55 -8q46 -40 62 -64.5t16 -68.5q0 -68 -46 -102t-102 -34q-43 0 -92.5 31.5t-49.5 80.5q0 31 19 50t47 19q59 0 59 -59
q0 -25 -28 -48q0 -1 -1 -3q0 -11 18 -20q4 1 21.5 3t25.5 4t20 7.5t17.5 16.5t5.5 27q-2 48 -26 84t-56.5 58.5t-65.5 45t-57 56t-27 77.5q0 60 32.5 91t80.5 31q-36 31 -47.5 43t-21.5 34.5t-10 53.5q0 55 38.5 94t103.5 39q53 0 93 -30t40 -81q0 -26 -14 -44t-39 -20
l-10 -1h-3q-19 0 -37.5 16t-18.5 38q0 31 31 54q1 0 1 1q0 2 -6 5.5t-15.5 6.5t-18.5 3q-41 0 -55 -29q0 -9 -1 -20t-1 -15q0 -20 22 -42.5t120 -104.5q88 -74 88 -163z" />
    <glyph glyph-name="dieresis" unicode="&#xa8;" horiz-adv-x="383" 
d="M161 618q0 -24 -19 -38.5t-45 -14.5q-20 0 -38.5 16.5t-18.5 37.5q0 23 17 38.5t40 15.5q30 0 47 -15t17 -40zM339 618q0 -23 -19 -38t-45 -15q-19 0 -39 16.5t-20 37.5t18 37.5t41 16.5q27 0 45.5 -15.5t18.5 -39.5z" />
    <glyph glyph-name="copyright" unicode="&#xa9;" horiz-adv-x="720" 
d="M509 545q-73 55 -149 55q-109 -3 -177.5 -77t-72.5 -197q0 -114 74 -190.5t174 -76.5q103 0 178 75t76 188q-1 70 -22 122t-81 101zM696 321q0 -74 -29.5 -138.5t-77 -107t-107.5 -66.5t-122 -24q-87 0 -162 41t-123.5 120t-51.5 180q0 76 29 141t76.5 108.5t108 68.5
t123.5 27q138 0 237 -100t99 -250zM535 262l-17 -82q-2 -15 -42.5 -37.5t-79.5 -22.5q-53 0 -111 29.5t-83 63.5q-36 47 -36 115q0 103 67 156t156 53q5 0 14 -1t31 -5t39 -9t31 -15.5t14 -23.5v-81h-46q-12 83 -86 83q-60 0 -87 -43.5t-27 -107.5q0 -78 32 -116t83 -38
q38 0 61.5 21t40.5 61h46z" />
    <glyph glyph-name="ordfeminine" unicode="&#xaa;" horiz-adv-x="330" 
d="M170 575v16q0 23 -15 23q-16 0 -23 -5q0 -44 -11 -54q9 4 27.5 11.5t21.5 8.5zM172 471v56q-32 -21 -42 -30t-10 -18q0 -21 24 -21h1q27 0 27 13zM33 455q0 37 19.5 58t56.5 37q-5 -1 -22 -1q-37 0 -44 34q21 67 57 80q21 8 56 8q112 0 112 -104v-105q-1 -13 -4 -18
q14 1 36 18v-43q-38 -35 -64 -35q-34 0 -48 30q-36 -26 -86 -26q-27 0 -48 17.5t-21 49.5z" />
    <glyph glyph-name="guillemotleft" unicode="&#xab;" horiz-adv-x="448" 
d="M6 222l160 153q33 39 53 43q24 0 27 -25q0 -18 -53 -86q0 -1 -35 -39l-35 -38q121 -152 121 -172q0 -25 -25 -25q-4 0 -57 47.5t-104 94.5zM180 222q154 143 160 153q26 38 52 43q26 0 28 -25q0 -18 -35.5 -64t-102.5 -107q20 -20 23 -22q31 -41 61.5 -76.5t41.5 -48
t11 -17.5q0 -25 -27 -25q-5 4 -106.5 95t-105.5 94z" />
    <glyph glyph-name="logicalnot" unicode="&#xac;" horiz-adv-x="568" 
d="M516 105h-89v195h-407v88h496v-283z" />
    <glyph glyph-name="uni00AD" unicode="&#xad;" horiz-adv-x="352" 
d="M300 188h-249v75h249v-75z" />
    <glyph glyph-name="registered" unicode="&#xae;" horiz-adv-x="720" 
d="M404 397v19q0 58 -51 58h-21v-129h20q38 0 52 52zM481 252q37 -50 67 -75v-30q63 74 64 175q-1 70 -22 122t-81 101q-73 55 -149 55q-109 -3 -177.5 -77t-72.5 -197q0 -114 74 -190.5t174 -76.5q115 0 189 87h-74q-12 0 -53.5 54.5t-67.5 99.5h-20v-81v-11.5v-8.5l-1 -3
q9 -5 44 -9v-41h-178v41q41 3 44 6q-2 2 -2 26v227q0 10 -1 15.5t-1.5 9.5t-4.5 5.5t-7 2t-12 1t-16 1.5v41h179q56 0 90 -26t34 -75q0 -72 -70 -105q48 -59 51 -64zM696 321q0 -74 -29.5 -138.5t-77 -107t-107.5 -66.5t-122 -24q-87 0 -162 41t-123.5 120t-51.5 180
q0 76 29 141t76.5 108.5t108 68.5t123.5 27q138 0 237 -100t99 -250z" />
    <glyph glyph-name="macron" unicode="&#xaf;" horiz-adv-x="413" 
d="M362 535h-311v62h311v-62z" />
    <glyph glyph-name="degree" unicode="&#xb0;" horiz-adv-x="356" 
d="M252 526q0 35 -23.5 59t-51.5 24q-30 0 -53 -26t-23 -57q0 -35 22.5 -58.5t52.5 -23.5q32 0 54 23.5t22 58.5zM321 526q0 -66 -45.5 -106t-100.5 -40q-61 0 -102 42.5t-41 103.5q0 66 45 105.5t100 39.5q59 0 101.5 -43t42.5 -102z" />
    <glyph glyph-name="plusminus" unicode="&#xb1;" horiz-adv-x="540" 
d="M518 0h-497v89h497v-89zM518 267h-204v-152h-90v152h-203v89h203v207h90v-207h204v-89z" />
    <glyph glyph-name="uni00B2" unicode="&#xb2;" horiz-adv-x="347" 
d="M192 390l-35 -39l91 1q11 0 20.5 7t15.5 9h41l-44 -106h-250v43l92 105q61 69 66 118q0 17 -15.5 35.5t-36.5 18.5q-20 0 -38.5 -19t-30.5 -49l-45 24q23 68 54.5 100.5t90.5 32.5t97.5 -31t38.5 -86q0 -21 -7 -40.5t-21.5 -38.5t-25.5 -30.5t-31.5 -30t-26.5 -24.5z" />
    <glyph glyph-name="uni00B3" unicode="&#xb3;" horiz-adv-x="331" 
d="M87 548l-15 -17l-44 29q47 111 136 111q47 0 79.5 -24t32.5 -69q0 -31 -43 -71q68 -34 68 -108q0 -62 -51 -103t-137 -41q-83 9 -89 62q0 51 47 51q13 0 42.5 -18.5t38.5 -18.5q18 0 31.5 13.5t13.5 33.5q0 29 -20.5 46t-38.5 17q-1 0 -18.5 -1t-19.5 -2v41q9 4 22 10.5
t35 27t22 39.5q0 47 -22 47q-12 0 -29.5 -13.5t-29.5 -27.5z" />
    <glyph glyph-name="acute" unicode="&#xb4;" horiz-adv-x="277" 
d="M80 515h-60l139 154q28 25 45 25q47 0 47 -45q0 -28 -48 -50h-1q-10 0 -122 -84z" />
    <glyph glyph-name="uni00B5" unicode="&#xb5;" horiz-adv-x="512" 
d="M401 -17q-1 -1 -4 -1q-15 0 -40 23t-29 51q-58 -73 -118 -73q-58 0 -97 59q9 -29 23 -57q17 -71 17 -108q0 -89 -61 -89q-30 0 -44 24t-14 58q0 24 11.5 103.5t11.5 89.5v386h113v-301q0 -10 1 -18.5t1.5 -15t3.5 -11.5t4.5 -8.5t6 -6.5t6.5 -4t8.5 -2.5t9 -2t10.5 -1.5
t11 -1q52 0 87 50v322h111v-351q0 -46 16 -46q17 0 59 30v-33q-17 -23 -52.5 -45t-48.5 -22q-3 0 -3 1z" />
    <glyph glyph-name="paragraph" unicode="&#xb6;" horiz-adv-x="499" 
d="M16 464q0 61 17 101t49.5 59t66 26t79.5 7h258v-46q-62 -5 -66 -14q-12 -17 -12 -59v-636q0 -41 18 -52.5t60 -13.5v-47h-172v819h-25v-819h-171v47q14 -2 20 -2q12 0 22 3t14 6l3 3q13 15 17.5 29.5t4.5 43.5v337q-183 4 -183 208zM199 308v300q-41 -6 -60 -37t-19 -103
q0 -88 17.5 -119t61.5 -41z" />
    <glyph glyph-name="periodcentered" unicode="&#xb7;" horiz-adv-x="220" 
d="M103 291q25 0 42 -19t17 -46t-17 -46t-42 -19t-42 19t-17 46t17 46t42 19z" />
    <glyph glyph-name="cedilla" unicode="&#xb8;" horiz-adv-x="272" 
d="M238 -118q-2 -22 -9.5 -38t-13.5 -24.5t-22.5 -14.5t-23 -7.5t-29 -3.5t-26.5 -3q-49 0 -90 25l22 52q34 -24 54 -24q5 0 13.5 2t19.5 11.5t11 23.5q0 22 -69 22h-11l42 109h57l-22 -54q43 0 70 -19t27 -57z" />
    <glyph glyph-name="uni00B9" unicode="&#xb9;" horiz-adv-x="244" 
d="M224 262h-196v51q5 0 13 0.5t12.5 1t9.5 1.5t7.5 3.5t2.5 7.5v240q0 14 -7 14q-3 0 -8.5 -2.5t-13.5 -7t-14 -7.5v51l113 56l32 -6v-334q0 -15 49 -18v-51z" />
    <glyph glyph-name="ordmasculine" unicode="&#xba;" horiz-adv-x="365" 
d="M329 537q0 -70 -43 -111t-107 -41q-68 0 -106.5 38t-38.5 104q0 77 48.5 110.5t113.5 33.5q52 0 92.5 -35.5t40.5 -98.5zM187 445q43 0 49 56v8q0 40 -16.5 70t-41.5 30q-20 0 -31.5 -12t-13.5 -21.5t-2 -18.5q0 -42 14.5 -77t41.5 -35z" />
    <glyph glyph-name="guillemotright" unicode="&#xbb;" horiz-adv-x="450" 
d="M373 290l68 -69l-40 -38q-50 -42 -151 -139q-8 -11 -22 -11q-26 0 -26 25q0 5 29 47.5t58 82.5l29 41q-114 145 -117 163q0 26 25 26q8 0 71.5 -55t75.5 -73zM226 261q35 -33 41 -40l-42 -38q-12 -11 -58.5 -56t-75.5 -69.5t-39 -24.5q-25 0 -25 25q0 8 43 67t73 96
q-29 35 -72 95.5t-45 75.5q0 24 26 26q2 0 23 -20t64.5 -60t86.5 -77z" />
    <glyph glyph-name="onequarter" unicode="&#xbc;" horiz-adv-x="701" 
d="M544 165v140l-93 -140h93zM688 83h-51v-84h-93v84h-171v70l197 261h67v-249h51v-82zM228 256h-210v51q28 2 38 4.5t10 10.5v246q0 17 8 18q-5 -1 -54 -21v53l121 53l34 -3v-342q0 -18 10 -21q20 2 43 2v-51zM619 671l-435 -686h-76l436 686h75z" />
    <glyph glyph-name="onehalf" unicode="&#xbd;" horiz-adv-x="735" 
d="M587 671l-435 -686h-73l437 686h71zM228 255h-208v49q45 1 51 9q-5 5 -5 9v246q0 17 4 18q-2 -1 -50 -21v53l121 53l34 -3v-342q0 -14 53 -22v-49zM724 97l-43 -98h-262v41l97 106q63 85 68 123q0 21 -16.5 38.5t-37.5 17.5t-40.5 -19t-33.5 -51l-45 26q22 69 55.5 102.5
t96.5 33.5q60 0 100.5 -29.5t40.5 -83.5q0 -63 -65 -138l-87 -80h91q16 0 29 8q0 3 10 26z" />
    <glyph glyph-name="threequarters" unicode="&#xbe;" horiz-adv-x="716" 
d="M92 432v59q85 36 85 66q0 15 -11 23t-26 8q-9 0 -17.5 -2.5t-13.5 -4.5t-13.5 -9.5t-11 -10t-12.5 -14.5t-12 -14l-44 28q38 64 65 84t81 26q51 0 85.5 -27t34.5 -65q0 -32 -49 -73q72 -31 72 -112q0 -63 -54 -105.5t-145 -42.5q-89 9 -92 63q0 43 33 51l3 -1
q20 0 56 -18t43 -18q19 0 33.5 13.5t14.5 37.5q0 32 -29 49.5t-52 17.5q-17 0 -24 -9zM633 671l-434 -686h-76l435 686h75zM558 165v130l-93 -130h93zM702 83h-49v-84h-95v84h-170v70l197 261h68v-249h49v-82z" />
    <glyph glyph-name="questiondown" unicode="&#xbf;" horiz-adv-x="448" 
d="M323 -106q0 5 -18.5 27t-18.5 38q0 20 3.5 31.5t13 16.5t15.5 6t23 2q59 0 59 -73q0 -150 -185 -154q-67 3 -122 60q-35 49 -35 101q0 82 73 168q15 18 31.5 54t32.5 79.5t20 51.5h41q-6 -104 -27 -156q0 -1 -8 -18t-9.5 -21t-8.5 -20.5t-9 -23t-7.5 -21t-7.5 -23.5
t-5 -22t-4 -23.5t-1 -21.5q0 -38 21 -70t63 -32q22 0 42 11.5t28 32.5zM299 403q0 -29 -17.5 -50t-48.5 -21q-27 0 -45.5 19.5t-18.5 51.5q0 53 64 63q23 0 44.5 -18t21.5 -45z" />
    <glyph glyph-name="Agrave" unicode="&#xc0;" horiz-adv-x="688" 
d="M154 72q0 -25 63 -25v-47h-216v47q36 0 52 18q30 52 63 131l156 368l-28 58l116 51l241 -551q25 -53 38.5 -64t46.5 -11v-47h-272v47q58 0 66 20q0 13 -19 53l-36 87h-223q-2 -5 -14 -38t-23 -63.5t-11 -33.5zM313 495q-4 -9 -43.5 -111t-44.5 -114h180q-2 5 -46 112
t-46 113zM424 688h-51l-149 94q-36 22 -36 56q5 44 52 47q58 -46 184 -197z" />
    <glyph glyph-name="Aacute" unicode="&#xc1;" horiz-adv-x="688" 
d="M154 72q0 -25 63 -25v-47h-216v47q36 0 52 18q30 52 63 131l156 368l-28 58l116 51l241 -551q25 -53 38.5 -64t46.5 -11v-47h-272v47q58 0 66 20q0 13 -19 53l-36 87h-223q-2 -5 -14 -38t-23 -63.5t-11 -33.5zM313 495q-4 -9 -43.5 -111t-44.5 -114h180q-2 5 -46 112
t-46 113zM500 837q0 -29 -39 -55l-149 -91h-68l154 168q26 26 50 26q46 0 52 -48z" />
    <glyph glyph-name="Acircumflex" unicode="&#xc2;" horiz-adv-x="688" 
d="M154 72q0 -25 63 -25v-47h-216v47q36 0 52 18q30 52 63 131l156 368l-28 58l116 51l241 -551q25 -53 38.5 -64t46.5 -11v-47h-272v47q58 0 66 20q0 13 -19 53l-36 87h-223q-2 -5 -14 -38t-23 -63.5t-11 -33.5zM313 495q-4 -9 -43.5 -111t-44.5 -114h180q-2 5 -46 112
t-46 113zM227 692h-59l133 189h75l133 -189h-63l-111 103q-1 0 -54 -51.5t-54 -51.5z" />
    <glyph glyph-name="Atilde" unicode="&#xc3;" horiz-adv-x="688" 
d="M154 72q0 -25 63 -25v-47h-216v47q36 0 52 18q30 52 63 131l156 368l-28 58l116 51l241 -551q25 -53 38.5 -64t46.5 -11v-47h-272v47q58 0 66 20q0 13 -19 53l-36 87h-223q-2 -5 -14 -38t-23 -63.5t-11 -33.5zM313 495q-4 -9 -43.5 -111t-44.5 -114h180q-2 5 -46 112
t-46 113zM259 759q-19 0 -33 -42h-57q29 110 87 120l122 -22q27 -15 43 -15q19 0 43 45h54q-19 -74 -44.5 -101t-74.5 -27q-13 0 -64 16t-76 26z" />
    <glyph glyph-name="Adieresis" unicode="&#xc4;" horiz-adv-x="688" 
d="M154 72q0 -25 63 -25v-47h-216v47q36 0 52 18q30 52 63 131l156 368l-28 58l116 51l241 -551q25 -53 38.5 -64t46.5 -11v-47h-272v47q58 0 66 20q0 13 -19 53l-36 87h-223q-2 -5 -14 -38t-23 -63.5t-11 -33.5zM313 495q-4 -9 -43.5 -111t-44.5 -114h180q-2 5 -46 112
t-46 113zM307 767q0 -63 -64 -63q-29 0 -46.5 18.5t-17.5 45.5q0 24 19 43t45 19q22 0 43 -17.5t21 -45.5zM496 767q0 -63 -67 -63q-29 0 -45 18t-16 46q0 24 16.5 43t44.5 19q26 0 46.5 -19t20.5 -44z" />
    <glyph glyph-name="Aring" unicode="&#xc5;" horiz-adv-x="688" 
d="M154 72q0 -25 63 -25v-47h-216v47q36 0 52 18q30 52 63 131l156 368l-28 58l116 51l241 -551q25 -53 38.5 -64t46.5 -11v-47h-272v47q58 0 66 20q0 13 -19 53l-36 87h-223q-2 -5 -14 -38t-23 -63.5t-11 -33.5zM313 495q-4 -9 -43.5 -111t-44.5 -114h180q-2 5 -46 112
t-46 113zM379 796q0 20 -13 34t-30 14t-32.5 -14t-15.5 -33q0 -17 14 -31t32 -14q45 0 45 44zM438 796q0 -50 -33 -80t-71 -30q-51 0 -80.5 31t-29.5 80q0 52 33 83t77 31q49 -4 76 -34.5t28 -80.5z" />
    <glyph glyph-name="Ccedilla" unicode="&#xc7;" horiz-adv-x="644" 
d="M424 -108q0 -52 -40 -77.5t-103 -25.5q-42 0 -77 28l24 58q41 -15 68 -15q32 0 38 21l-1 3q-1 3 -5.5 7.5t-13 9.5t-26.5 8t-43 3l35 81q-115 19 -184.5 109.5t-69.5 221.5q0 165 93 255.5t237 95.5q69 0 144 -22q13 -8 30 -8q19 0 26 30h55v-245h-50q-26 89 -65.5 132
t-121.5 43q-99 0 -152.5 -76t-53.5 -191q0 -132 57.5 -205.5t150.5 -73.5q54 0 99 19.5t117 80.5l36 -35q-9 -12 -20 -24.5t-36.5 -35t-52.5 -38.5t-68 -28.5t-83 -12.5q-20 0 -29 1l-8 -19q33 0 63 -24.5t30 -50.5z" />
    <glyph glyph-name="Egrave" unicode="&#xc8;" horiz-adv-x="611" 
d="M400 691h-64l-146 91q-38 26 -38 56q2 21 15 34t35 13l49 -28zM360 312h-134v-240q11 -6 82 -6h26q96 0 135 22.5t76 98.5h55l-48 -187h-535v47q50 2 64 13.5t14 37.5v447q0 44 -17 58t-61 14v45h531v-165h-48q-13 68 -34.5 83t-97.5 15h-128q-11 0 -14 -3v-211h129
q49 0 63.5 13.5t27.5 75.5h49v-247h-48q-18 65 -28.5 77t-58.5 12z" />
    <glyph glyph-name="Eacute" unicode="&#xc9;" horiz-adv-x="611" 
d="M360 312h-134v-240q11 -6 82 -6h26q96 0 135 22.5t76 98.5h55l-48 -187h-535v47q50 2 64 13.5t14 37.5v447q0 44 -17 58t-61 14v45h531v-165h-48q-13 68 -34.5 83t-97.5 15h-128q-11 0 -14 -3v-211h129q49 0 63.5 13.5t27.5 75.5h49v-247h-48q-18 65 -28.5 77t-58.5 12z
M468 837q0 -30 -38 -55l-149 -91h-66l153 168q26 26 48 26q47 0 52 -48z" />
    <glyph glyph-name="Ecircumflex" unicode="&#xca;" horiz-adv-x="611" 
d="M360 312h-134v-240q11 -6 82 -6h26q96 0 135 22.5t76 98.5h55l-48 -187h-535v47q50 2 64 13.5t14 37.5v447q0 44 -17 58t-61 14v45h531v-165h-48q-13 68 -34.5 83t-97.5 15h-128q-11 0 -14 -3v-211h129q49 0 63.5 13.5t27.5 75.5h49v-247h-48q-18 65 -28.5 77t-58.5 12z
M477 692h-61l-108 92q-75 -62 -107 -92h-61l131 189h74z" />
    <glyph glyph-name="Edieresis" unicode="&#xcb;" horiz-adv-x="611" 
d="M360 312h-134v-240q11 -6 82 -6h26q96 0 135 22.5t76 98.5h55l-48 -187h-535v47q50 2 64 13.5t14 37.5v447q0 44 -17 58t-61 14v45h531v-165h-48q-13 68 -34.5 83t-97.5 15h-128q-11 0 -14 -3v-211h129q49 0 63.5 13.5t27.5 75.5h49v-247h-48q-18 65 -28.5 77t-58.5 12z
M459 767q0 -32 -16.5 -47.5t-42.5 -15.5q-25 0 -42.5 17.5t-17.5 46.5q0 25 17.5 43.5t42.5 18.5q22 0 40.5 -18.5t18.5 -44.5zM277 767q0 -31 -17.5 -47t-44.5 -16q-28 0 -46 17t-18 47q0 25 19 43.5t45 18.5q22 0 42 -18.5t20 -44.5z" />
    <glyph glyph-name="Igrave" unicode="&#xcc;" horiz-adv-x="332" 
d="M16 660h302v-44q-57 -2 -72.5 -12.5t-15.5 -60.5v-425q0 -48 17 -59.5t71 -11.5v-47h-302v47q52 1 70 14t18 57v425q0 43 -20 57t-68 16v44zM260 691h-68l-143 91q-35 22 -35 56q2 21 15 34t33 13q19 0 39 -26z" />
    <glyph glyph-name="Iacute" unicode="&#xcd;" horiz-adv-x="331" 
d="M16 660h302v-44q-57 -2 -72.5 -12.5t-15.5 -60.5v-425q0 -48 17 -59.5t71 -11.5v-47h-302v47q52 1 70 14t18 57v425q0 43 -20 57t-68 16v44zM318 837q0 -34 -34 -55q-86 -49 -141 -91h-64l143 166q29 28 50 28q44 0 46 -48z" />
    <glyph glyph-name="Icircumflex" unicode="&#xce;" horiz-adv-x="331" 
d="M16 660h302v-44q-57 -2 -72.5 -12.5t-15.5 -60.5v-425q0 -48 17 -59.5t71 -11.5v-47h-302v47q52 1 70 14t18 57v425q0 43 -20 57t-68 16v44zM329 692h-57l-107 92q-18 -21 -57.5 -53.5t-46.5 -38.5h-59l129 189h68z" />
    <glyph glyph-name="Idieresis" unicode="&#xcf;" horiz-adv-x="333" 
d="M16 660h302v-44q-57 -2 -72.5 -12.5t-15.5 -60.5v-425q0 -48 17 -59.5t71 -11.5v-47h-302v47q52 1 70 14t18 57v425q0 43 -20 57t-68 16v44zM140 767q0 -32 -18 -47.5t-46 -15.5q-24 0 -42 18t-18 46q0 26 18 44t42 18t44 -18t20 -45zM317 767q0 -63 -59 -63
q-23 0 -42.5 18t-19.5 46q0 26 18.5 44t43.5 18q23 0 41 -19t18 -44z" />
    <glyph glyph-name="Eth" unicode="&#xd0;" horiz-adv-x="708" 
d="M306 259h-76v-169q0 -23 6 -23q41 0 71.5 2.5t69.5 10.5t66 25.5t51.5 45t37 72t12.5 103.5q0 114 -82.5 203t-175.5 89q-55 0 -56 -43v-227h76v-89zM20 615v45h269q186 0 290.5 -87.5t104.5 -238.5q-5 -71 -31.5 -137t-74.5 -113q-96 -84 -275 -84h-283v47q53 4 66.5 14
t13.5 40v158h-53v89h53v195q0 43 -18.5 57.5t-61.5 14.5z" />
    <glyph glyph-name="Ntilde" unicode="&#xd1;" horiz-adv-x="709" 
d="M480 845h54q-18 -74 -43.5 -100.5t-75.5 -26.5q-14 0 -65.5 15t-74.5 26q-17 0 -33 -41h-54q9 52 28 76.5t56 41.5q2 2 8 2q19 0 87 -18t71 -18q7 0 21.5 14.5t20.5 28.5zM704 621q-60 -5 -76 -24.5t-16 -85.5v-523h-36l-402 524v-357q0 -36 4.5 -57.5t17.5 -32
t27.5 -13.5t42.5 -4v-47h-252v47q64 4 76.5 21t12.5 86v423q-9 11 -13.5 15.5t-9.5 10t-9 7.5t-7.5 4.5t-9 2.5t-9 1t-14 1t-17.5 1v44h181l347 -457v303q0 25 -2 43t-8 29.5t-11 18.5t-18.5 11t-22.5 5t-30 3v44h254v-44z" />
    <glyph glyph-name="Ograve" unicode="&#xd2;" horiz-adv-x="700" 
d="M463 568l-2 1q-54 44 -112 44q-49 0 -85 -22.5t-57.5 -62t-31.5 -89t-10 -108.5q2 -54 11.5 -100t29.5 -87.5t56.5 -65t85.5 -23.5q94 0 138 75.5t44 199.5q0 73 -19 138t-48 100zM344 -15q-141 0 -230 102t-89 254q0 154 94 247t230 93q139 0 232 -98.5t93 -253.5
q0 -154 -96 -249t-234 -95zM445 692h-66l-148 91q-37 23 -37 57q7 45 50 45q19 0 48 -25z" />
    <glyph glyph-name="Oacute" unicode="&#xd3;" horiz-adv-x="700" 
d="M463 568l-2 1q-54 44 -112 44q-49 0 -85 -22.5t-57.5 -62t-31.5 -89t-10 -108.5q2 -54 11.5 -100t29.5 -87.5t56.5 -65t85.5 -23.5q94 0 138 75.5t44 199.5q0 73 -19 138t-48 100zM344 -15q-141 0 -230 102t-89 254q0 154 94 247t230 93q139 0 232 -98.5t93 -253.5
q0 -154 -96 -249t-234 -95zM508 838q0 -29 -37 -55q-12 -7 -147 -91h-68l151 168q33 25 50 25q49 0 51 -47z" />
    <glyph glyph-name="Ocircumflex" unicode="&#xd4;" horiz-adv-x="700" 
d="M520 693h-64l-104 93v3q-22 -22 -37 -36t-22 -19.5t-23.5 -18t-28.5 -22.5h-61l132 188h75zM463 568l-2 1q-53 45 -109 45q-65 0 -108.5 -40t-61 -101.5t-17.5 -141.5q2 -54 11.5 -100t29.5 -87t56.5 -65t85.5 -24q94 0 138 75.5t44 199.5q0 73 -19 138.5t-48 99.5z
M344 -15q-141 0 -230 102t-89 254q0 153 95 246.5t232 93.5t229.5 -98.5t92.5 -253.5q0 -154 -96 -249t-234 -95z" />
    <glyph glyph-name="Otilde" unicode="&#xd5;" horiz-adv-x="700" 
d="M460 573q-55 45 -112 45q-94 0 -139 -80t-45 -205q0 -74 17.5 -134.5t60.5 -102.5t105 -42q94 0 138 76.5t44 201.5q0 73 -20 139t-49 102zM673 331q0 -152 -96 -248t-226 -96q-117 0 -210 72q-41 26 -79 113t-38 164q0 159 93.5 254.5t230.5 95.5q139 0 232 -99t93 -256
zM282 848q24 0 79 -21t59 -21q6 0 12 3.5t10 8t12 14.5t15 17h51q-19 -75 -44 -101t-73 -26q-24 0 -82 20q-37 20 -54 20q-21 0 -35 -40h-56q30 126 106 126z" />
    <glyph glyph-name="Odieresis" unicode="&#xd6;" horiz-adv-x="700" 
d="M463 566l-2 1q-51 45 -112 45q-94 0 -139 -79t-45 -203q2 -54 11.5 -100t29.5 -87t56.5 -64.5t85.5 -23.5q94 0 138 75.5t44 198.5q0 73 -19 138.5t-48 98.5zM344 -15q-141 0 -230 102t-89 254q0 153 94 245.5t230 92.5q139 0 232 -98t93 -253q0 -154 -96 -248.5
t-234 -94.5zM320 767q0 -31 -19 -46.5t-47 -15.5q-25 0 -43.5 19.5t-18.5 42.5q0 26 19.5 44.5t42.5 18.5q24 0 45 -18.5t21 -44.5zM507 767q0 -62 -66 -62q-61 0 -61 63q0 26 17 44t44 18q23 0 44.5 -18.5t21.5 -44.5z" />
    <glyph glyph-name="multiply" unicode="&#xd7;" horiz-adv-x="520" 
d="M503 71l-64 -63l-179 181l-180 -181l-63 63l180 182l-180 180l63 64l180 -181q18 18 83 82t98 99l62 -64l-182 -180l31 -31l60.5 -60.5t59 -58.5t31.5 -32z" />
    <glyph glyph-name="Oslash" unicode="&#xd8;" horiz-adv-x="702" 
d="M187 28l-27 -50q-22 -30 -45 -57h-71l88 143q-55 46 -80 102t-25 158q0 164 103 272q110 91 210 91q66 0 172 -53q18 40 61 100h77l-85 -136q110 -108 110 -267q0 -156 -95.5 -254t-231.5 -98q-74 0 -156 42q-3 3 -5 7zM512 527l-277 -432q47 -54 112 -54q84 0 137 86
t53 239q0 99 -25 161zM464 564q-54 57 -120 57q-74 0 -129 -88.5t-55 -217.5q0 -92 32 -164z" />
    <glyph glyph-name="Ugrave" unicode="&#xd9;" horiz-adv-x="700" 
d="M530 253v256q0 69 -15 87.5t-64 21.5v45h242v-45q-27 -3 -38 -5t-24 -7t-17 -17t-6.5 -30.5t-2.5 -49.5v-248q0 -141 -62 -208.5t-196 -67.5q-66 0 -113.5 13t-75 34.5t-43 57.5t-20 71.5t-4.5 87.5v298q0 47 -12.5 59t-70.5 12v45h296v-45q-8 0 -23 -0.5t-20 -1
t-14 -2.5t-12 -6t-7 -12t-5 -20t-1 -29v-306q0 -89 32.5 -134.5t113.5 -45.5q89 0 125.5 42.5t36.5 149.5zM451 692h-56l-149 91q-34 23 -34 57q7 45 47 45q24 0 52 -25z" />
    <glyph glyph-name="Uacute" unicode="&#xda;" horiz-adv-x="700" 
d="M530 253v256q0 71 -16 89t-70 21v44h249v-44q-42 -4 -57 -10t-23 -27.5t-8 -72.5v-248q0 -141 -62 -208.5t-195 -67.5q-56 0 -98 8.5t-70 26t-46 39t-27 53.5t-12.5 63t-3.5 74v298q0 23 -1 35t-9 19t-13 8.5t-25.5 4t-34.5 5.5v44h296v-44q-10 -1 -26.5 -1t-22 -1
t-14.5 -4t-11.5 -10.5t-5 -21t-2.5 -34.5v-306q0 -89 32.5 -134.5t113.5 -45.5q89 0 125.5 42.5t36.5 149.5zM536 838q0 -33 -37 -55l-151 -91h-68l155 168q26 25 50 25q51 0 51 -47z" />
    <glyph glyph-name="Ucircumflex" unicode="&#xdb;" horiz-adv-x="700" 
d="M544 693h-64l-108 91l-2 -1l1 2l-111 -92h-60l134 188h70zM530 253v257q0 70 -16 88t-70 21v45h249v-45q-32 -2 -45.5 -4.5t-25.5 -14t-14.5 -31.5t-2.5 -59v-249q0 -141 -62 -208.5t-196 -67.5q-66 0 -113.5 13t-75 34.5t-43 57.5t-20 71.5t-4.5 87.5v298q0 23 -1 35
t-9 19.5t-12.5 8.5t-25.5 3.5t-35 5.5v45h296v-45h-27q-34 0 -44.5 -11t-10.5 -61v-306q0 -89 32.5 -134.5t115.5 -45.5q88 0 124 42.5t36 149.5z" />
    <glyph glyph-name="Udieresis" unicode="&#xdc;" horiz-adv-x="700" 
d="M530 252v257q0 69 -15.5 87t-70.5 21v45h249v-45q-3 0 -9 -1q-50 -4 -62 -16q-17 -18 -17 -91v-249q0 -140 -62.5 -207.5t-195.5 -67.5q-66 0 -113.5 13t-75 34.5t-43 57.5t-20 71.5t-4.5 87.5v297q0 44 -20 57.5t-63 13.5v45h296v-45h-32q-29 0 -39.5 -12t-10.5 -59
v-305q0 -89 32.5 -134.5t113.5 -45.5q89 0 125.5 42.5t36.5 148.5zM339 767q0 -62 -67 -62q-26 0 -44 18.5t-18 44.5q0 24 18.5 43t43.5 19t46 -18t21 -45zM528 767q0 -62 -68 -62q-26 0 -43.5 17t-17.5 46q0 25 16.5 43.5t44.5 18.5t48 -18.5t20 -44.5z" />
    <glyph glyph-name="Yacute" unicode="&#xdd;" horiz-adv-x="682" 
d="M441 616v46h237v-46q-44 -4 -82 -37q-5 -4 -52 -74.5t-92 -138.5l-44 -68v-180q0 -50 16 -60t80 -10v-48h-317v48q29 0 41.5 1t26.5 8t18.5 22t4.5 42v168q-1 3 -59.5 90t-61.5 91q-76 106 -91 121q-23 23 -59 25h-3v46h293v-46h-37q-26 -3 -26 -15q0 -5 22 -42.5
t65.5 -108t50.5 -82.5q2 5 35 62t65 112t32 57q0 9 -12 12t-29.5 3.5t-21.5 1.5zM531 837q0 -14 -12.5 -29.5t-35 -31.5t-44.5 -29t-51 -30t-44 -26h-69l153 168q29 26 52 26q46 0 51 -48z" />
    <glyph glyph-name="Thorn" unicode="&#xde;" horiz-adv-x="556" 
d="M17 616v44h287v-44q-29 -1 -46.5 -5.5t-25 -15t-9 -20t-1.5 -29.5v-6h58q43 0 86.5 -10.5t83 -31.5t64.5 -59t25 -88q0 -52 -17.5 -90.5t-43.5 -59.5t-64.5 -33.5t-71.5 -16t-73 -3.5q-29 0 -47 5v-35q0 -42 22.5 -57t62.5 -15v-46h-290v46q53 3 64.5 14t11.5 55v431
q0 38 -18.5 53t-57.5 17zM404 345q0 64 -37 93t-119 32h-13q-10 0 -13 -9v-242q97 0 139.5 26.5t42.5 99.5z" />
    <glyph glyph-name="germandbls" unicode="&#xdf;" horiz-adv-x="496" 
d="M305 52q43 0 43 106q0 184 -105 187q-49 2 -49 25q0 21 42 30q32 10 52.5 37.5t21.5 67.5q0 51 -17 83.5t-49 32.5q-30 0 -47 -25t-17 -60v-440q13 45 53 45q18 0 35 -11.5t23 -24.5q1 -11 6 -31.5t8 -21.5zM285 -9q-34 0 -65.5 17.5t-39.5 48.5v-54h-164v42q33 3 43 12
t10 24v363q0 234 182 234q76 0 124.5 -44.5t48.5 -114.5q0 -54 -25.5 -87.5t-84.5 -55.5q154 -44 154 -186q0 -78 -52.5 -138.5t-130.5 -60.5z" />
    <glyph glyph-name="agrave" unicode="&#xe0;" horiz-adv-x="446" 
d="M157 339q0 -53 -57 -53q-52 0 -52 54q0 52 45 85.5t123 33.5q150 0 150 -160v-185q0 -37 10 -37q17 0 55 20v-46q-21 -24 -54.5 -43t-42.5 -19q-25 0 -47 20.5t-22 46.5q-70 -63 -120 -67q-51 0 -84 34.5t-33 82.5q1 28 10.5 48t34.5 36t45.5 25.5t66.5 27.5t74 30v72
q-5 58 -55 62q-26 0 -42.5 -9.5t-16.5 -22.5q0 -9 6 -22t6 -14zM259 114v109q-75 -33 -101 -51t-26 -42q0 -23 15 -37.5t35 -14.5q19 0 46 9.5t31 26.5zM320 499h-45l-145 93q-36 26 -36 56q8 42 52 45q11 -7 40 -38t56 -63t52 -62t26 -31z" />
    <glyph glyph-name="aacute" unicode="&#xe1;" horiz-adv-x="446" 
d="M157 339q0 -53 -57 -53q-52 0 -52 54q0 52 45 85.5t123 33.5q150 0 150 -160v-185q0 -37 10 -37q17 0 55 20v-46q-21 -24 -54.5 -43t-42.5 -19q-25 0 -47 20.5t-22 46.5q-70 -63 -120 -67q-51 0 -84 34.5t-33 82.5q1 28 10.5 48t34.5 36t45.5 25.5t66.5 27.5t74 30v72
q-5 58 -55 62q-26 0 -42.5 -9.5t-16.5 -22.5q0 -9 6 -22t6 -14zM259 114v109q-75 -33 -101 -51t-26 -42q0 -23 15 -37.5t35 -14.5q19 0 46 9.5t31 26.5zM160 503h-65l148 166q28 25 45 25q50 0 50 -47q0 -24 -29.5 -48t-79 -51.5t-69.5 -44.5z" />
    <glyph glyph-name="acircumflex" unicode="&#xe2;" horiz-adv-x="446" 
d="M157 339q0 -53 -57 -53q-52 0 -52 54q0 52 45 85.5t123 33.5q150 0 150 -160v-185q0 -37 10 -37q17 0 55 20v-46q-21 -24 -54.5 -43t-42.5 -19q-25 0 -47 20.5t-22 46.5q-70 -63 -120 -67q-51 0 -84 34.5t-33 82.5q1 28 10.5 48t34.5 36t45.5 25.5t66.5 27.5t74 30v72
q-5 58 -55 62q-26 0 -42.5 -9.5t-16.5 -22.5q0 -9 6 -22t6 -14zM259 114v109q-75 -33 -101 -51t-26 -42q0 -23 15 -37.5t35 -14.5q19 0 46 9.5t31 26.5zM92 508h-42l130 185h70l133 -185h-61l-109 89q-2 -1 -32 -23.5t-59 -44.5t-30 -22v1z" />
    <glyph glyph-name="atilde" unicode="&#xe3;" horiz-adv-x="446" 
d="M157 339q0 -53 -57 -53q-52 0 -52 54q0 52 45 85.5t123 33.5q150 0 150 -160v-185q0 -37 10 -37q17 0 55 20v-46q-21 -24 -54.5 -43t-42.5 -19q-25 0 -47 20.5t-22 46.5q-70 -63 -120 -67q-51 0 -84 34.5t-33 82.5q1 28 10.5 48t34.5 36t45.5 25.5t66.5 27.5t74 30v72
q-5 58 -55 62q-26 0 -42.5 -9.5t-16.5 -22.5q0 -9 6 -22t6 -14zM259 114v109q-75 -33 -101 -51t-26 -42q0 -23 15 -37.5t35 -14.5q19 0 46 9.5t31 26.5zM203 530l-66 17q-23 0 -35 -39h-54q18 41 25.5 57t21 35.5t28 26t37.5 7.5q14 0 72 -22t61 -22q5 0 11 6t16.5 21.5
t12.5 17.5h48q-12 -22 -27 -55t-21.5 -43.5t-22 -19.5t-39.5 -9q-20 3 -37.5 10.5t-30.5 11.5z" />
    <glyph glyph-name="adieresis" unicode="&#xe4;" horiz-adv-x="446" 
d="M157 339q0 -53 -57 -53q-52 0 -52 54q0 52 45 85.5t123 33.5q150 0 150 -160v-185q0 -37 10 -37q17 0 55 20v-46q-21 -24 -54.5 -43t-42.5 -19q-25 0 -47 20.5t-22 46.5q-70 -63 -120 -67q-51 0 -84 34.5t-33 82.5q1 28 10.5 48t34.5 36t45.5 25.5t66.5 27.5t74 30v72
q-5 58 -55 62q-26 0 -42.5 -9.5t-16.5 -22.5q0 -9 6 -22t6 -14zM259 114v109q-75 -33 -101 -51t-26 -42q0 -23 15 -37.5t35 -14.5q19 0 46 9.5t31 26.5zM188 609q0 -26 -14 -44t-45 -18q-28 0 -45.5 16.5t-17.5 46.5q0 29 18 46t45 17q29 0 44 -17.5t15 -46.5zM371 609
q0 -26 -17.5 -44t-48.5 -18q-25 0 -43 21t-18 42q0 26 18 44.5t43 18.5q30 0 48 -18.5t18 -45.5z" />
    <glyph glyph-name="aring" unicode="&#xe5;" horiz-adv-x="446" 
d="M157 339q0 -53 -57 -53q-52 0 -52 54q0 52 45 85.5t123 33.5q150 0 150 -160v-185q0 -37 10 -37q17 0 55 20v-46q-21 -24 -54.5 -43t-42.5 -19q-25 0 -47 20.5t-22 46.5q-70 -63 -120 -67q-51 0 -84 34.5t-33 82.5q1 28 10.5 48t34.5 36t45.5 25.5t66.5 27.5t74 30v72
q-5 58 -55 62q-26 0 -42.5 -9.5t-16.5 -22.5q0 -9 6 -22t6 -14zM259 114v109q-75 -33 -101 -51t-26 -42q0 -23 15 -37.5t35 -14.5q19 0 46 9.5t31 26.5zM208 494q-37 0 -69 29.5t-32 81.5q0 43 30 76t77 33q40 0 74.5 -29t34.5 -79q0 -53 -36.5 -82.5t-78.5 -29.5zM258 604
q0 17 -13.5 31.5t-29.5 14.5q-18 0 -29.5 -12.5t-11.5 -32.5q0 -46 38 -46q46 0 46 45z" />
    <glyph glyph-name="ccedilla" unicode="&#xe7;" horiz-adv-x="432" 
d="M373 125q5 4 12 4q10 0 18 -10t8 -19q-23 -44 -76.5 -72.5t-97.5 -38.5l-6 -21h5q39 0 65.5 -20t26.5 -58q0 -67 -71 -87q-23 -12 -53 -12q-56 0 -100 29l24 55q42 -15 67 -15q23 0 28 4t5 18q0 17 -8.5 22.5t-26.5 5.5q-3 0 -11 -0.5t-12 -0.5q-16 0 -22 5l33 80
q-65 10 -107.5 72.5t-42.5 144.5q0 112 60 180t155 68q68 0 112 -35t44 -78q0 -24 -14.5 -39.5t-43.5 -15.5q-7 0 -13.5 1t-11 2t-9 4.5t-7 5.5t-6 7.5t-5 7.5t-4 10t-3.5 10.5t-3.5 12t-3.5 12.5q-2 9 -3.5 13.5t-4 9t-3 6t-4.5 3.5t-5.5 2t-8 1t-9.5 2q-49 0 -78 -45.5
t-29 -102.5q0 -82 35.5 -139.5t82.5 -57.5q57 0 122 69z" />
    <glyph glyph-name="egrave" unicode="&#xe8;" horiz-adv-x="433" 
d="M211 395q-31 0 -54 -19.5t-29 -58.5h144q20 5 22 21q0 20 -24.5 38.5t-58.5 18.5zM124 260q0 -105 32.5 -145.5t95.5 -40.5q27 0 45 3t36.5 14t24.5 16t30 26q8 0 15.5 -10.5t7.5 -18.5q-25 -49 -72.5 -82t-96.5 -33q-92 0 -152 67t-60 160q0 111 61 177.5t146 66.5
q60 0 111.5 -39t51.5 -104q-2 -21 -10.5 -39t-19.5 -18h-246zM333 507h-60l-139 87q-34 25 -34 55q7 44 47 44q7 0 84.5 -79.5t101.5 -106.5z" />
    <glyph glyph-name="eacute" unicode="&#xe9;" horiz-adv-x="433" 
d="M211 395q-31 0 -54 -19.5t-29 -58.5h144q20 5 22 21q0 20 -24.5 38.5t-58.5 18.5zM124 260q0 -105 32.5 -145.5t95.5 -40.5q27 0 45 3t36.5 14t24.5 16t30 26q8 0 15.5 -10.5t7.5 -18.5q-25 -49 -72.5 -82t-96.5 -33q-92 0 -152 67t-60 160q0 111 61 177.5t146 66.5
q60 0 111.5 -39t51.5 -104q-2 -21 -10.5 -39t-19.5 -18h-246zM171 503h-63l145 166q30 25 47 25q48 0 48 -47q0 -31 -50 -52q-3 0 -64 -45.5t-63 -46.5z" />
    <glyph glyph-name="ecircumflex" unicode="&#xea;" horiz-adv-x="433" 
d="M211 395q-31 0 -54 -19.5t-29 -58.5h144q20 5 22 21q0 20 -24.5 38.5t-58.5 18.5zM124 260q0 -105 32.5 -145.5t95.5 -40.5q27 0 45 3t36.5 14t24.5 16t30 26q8 0 15.5 -10.5t7.5 -18.5q-25 -49 -72.5 -82t-96.5 -33q-92 0 -152 67t-60 160q0 111 61 177.5t146 66.5
q60 0 111.5 -39t51.5 -104q-2 -21 -10.5 -39t-19.5 -18h-246zM115 507h-51l129 186h69l132 -186h-61l-107 90q-2 -1 -29.5 -23.5t-54 -44.5t-27.5 -22z" />
    <glyph glyph-name="edieresis" unicode="&#xeb;" horiz-adv-x="433" 
d="M211 395q-31 0 -54 -19.5t-29 -58.5h144q20 5 22 21q0 20 -24.5 38.5t-58.5 18.5zM124 260q0 -105 32.5 -145.5t95.5 -40.5q27 0 45 3t36.5 14t24.5 16t30 26q8 0 15.5 -10.5t7.5 -18.5q-25 -49 -72.5 -82t-96.5 -33q-92 0 -152 67t-60 160q0 111 61 177.5t146 66.5
q60 0 111.5 -39t51.5 -104q-2 -21 -10.5 -39t-19.5 -18h-246zM200 609q0 -27 -19 -44.5t-45 -17.5q-22 0 -40.5 19t-18.5 44q0 30 17 46.5t42 16.5q28 0 46 -17t18 -47zM381 609q0 -24 -19 -43t-45 -19q-20 0 -40 20t-20 43q0 25 18 44t42 19q26 0 45 -18t19 -46z" />
    <glyph glyph-name="igrave" unicode="&#xec;" horiz-adv-x="273" 
d="M24 370v41l156 54l16 -13v-342q0 -16 0.5 -26.5t4 -17.5t5 -11t9 -6.5t11 -3.5t15.5 -1.5t18 -1.5v-42h-238v42q47 1 58 9.5t11 38.5v240q0 38 -9 42zM264 500h-60l-143 91q-33 25 -33 57q7 44 47 45q23 0 47 -27z" />
    <glyph glyph-name="iacute" unicode="&#xed;" horiz-adv-x="272" 
d="M91 501h-62l142 166q27 27 45 27q43 0 48 -47q0 -14 -13 -29t-35 -25q-10 0 -125 -92zM24 370v41l156 54l16 -13v-342q0 -15 0.5 -26t4 -18l5.5 -11t9 -6.5t10.5 -3.5t15.5 -1.5t17 -1.5v-42h-237v42q47 1 58 9.5t11 38.5v240q0 38 -9 42z" />
    <glyph glyph-name="icircumflex" unicode="&#xee;" horiz-adv-x="276" 
d="M-14 506l126 187h70l130 -187h-60l-107 90q-4 -1 -33 -23.5t-57 -44.5l-28 -22h-41zM24 370v42l159 54l15 -14v-341q0 -12 0.5 -21t2.5 -16t3 -12t5.5 -8t6.5 -5t9 -3t10 -1.5t13 -1t14 -0.5v-43h-241v43q48 0 59 8.5t11 38.5v241q0 37 -9 41z" />
    <glyph glyph-name="idieresis" unicode="&#xef;" horiz-adv-x="273" 
d="M24 370v41l156 54l16 -14v-341q0 -15 1 -26t4 -18t5 -11t9.5 -6.5t11 -3.5t15.5 -1.5t17 -1.5v-42h-238v42q46 1 57.5 9t11.5 35v244q0 38 -9 42zM120 609q0 -26 -16.5 -44t-47.5 -18q-56 0 -56 63q0 29 15 46t41 17q27 0 45.5 -18.5t18.5 -45.5zM296 609q0 -28 -16 -45
t-48 -17q-22 0 -40 19.5t-18 43.5q0 25 17.5 44t40.5 19q30 0 47 -17.5t17 -46.5z" />
    <glyph glyph-name="eth" unicode="&#xf0;" horiz-adv-x="502" 
d="M352 206q0 87 -32.5 145t-83.5 58q-43 0 -66.5 -43.5t-23.5 -109.5q0 -78 30 -138.5t84 -66.5q34 0 55.5 26t29 59t7.5 70zM468 286q-1 -121 -59.5 -209t-163.5 -88q-93 0 -153.5 67.5t-60.5 169.5q0 110 59.5 175t149.5 65q38 0 101 -50q-10 51 -75 126l-113 -63l-52 54
l110 53q-54 34 -128 49l57 39h1q5 0 42 -9.5t71.5 -19t34.5 -10.5q1 2 45.5 24t45.5 23l48 -49l-82 -47q30 -30 76 -131t46 -169z" />
    <glyph glyph-name="ntilde" unicode="&#xf1;" horiz-adv-x="508" 
d="M313 507q-21 0 -77 19l-56 20q-23 0 -37 -39h-57q14 54 41 86t62 40q12 -7 75 -25t72 -18q8 0 20.5 15t19.5 30h52q-17 -76 -43 -102t-72 -26zM492 0h-222v43q33 3 44 16t11 49v200q0 75 -50 75q-17 0 -30.5 -5t-18.5 -8t-16.5 -16t-13.5 -15v-263q0 -21 13 -27t43 -6
v-43h-225v43q37 2 46 12t9 43v237q-3 39 -10 44q-2 2 -6 2q-26 0 -39 -10v51q17 6 65.5 21t71.5 24l24 -6v-63q62 69 122 69t93.5 -40t33.5 -118v-220q0 -28 10 -35.5t45 -10.5v-43z" />
    <glyph glyph-name="ograve" unicode="&#xf2;" 
d="M249 464q93 0 156.5 -72t63.5 -175q0 -101 -63 -165.5t-157 -64.5t-157 64.5t-63 165.5q0 102 64 174.5t156 72.5zM245 408q-44 0 -74 -57.5t-30 -128.5q0 -69 31.5 -122.5t76.5 -53.5q44 0 71.5 53t27.5 123q0 71 -29.5 128.5t-73.5 57.5zM371 502h-63l-144 90
q-36 23 -36 55q7 46 48 46q21 0 49 -25q39 -46 146 -166z" />
    <glyph glyph-name="oacute" unicode="&#xf3;" 
d="M192 503h-62l145 166q30 25 47 25q45 0 50 -47q0 -29 -52 -52q-2 0 -32.5 -22t-62.5 -45.5t-33 -24.5zM245 408q-44 0 -74 -57.5t-30 -128.5q0 -69 31.5 -122.5t76.5 -53.5q44 0 71.5 53t27.5 123q0 71 -29.5 128.5t-73.5 57.5zM249 464q93 0 156.5 -72t63.5 -175
q0 -101 -63 -165.5t-157 -64.5t-157 64.5t-63 165.5q0 102 64 174.5t156 72.5z" />
    <glyph glyph-name="ocircumflex" unicode="&#xf4;" 
d="M128 507l-1 1h-43l131 185h69l132 -185h-61l-109 89q-3 -1 -32 -23.5t-58 -44.5zM245 409q-44 0 -74 -58t-30 -128q0 -69 31.5 -123t76.5 -54q44 0 71.5 53t27.5 124t-29.5 128.5t-73.5 57.5zM249 465q93 0 156.5 -72t63.5 -175q0 -102 -63 -166.5t-157 -64.5t-157 65
t-63 166q0 102 64 174.5t156 72.5z" />
    <glyph glyph-name="otilde" unicode="&#xf5;" 
d="M245 409q-44 0 -74 -57.5t-30 -128.5q0 -69 31.5 -123t76.5 -54q44 0 71.5 53t27.5 124t-29.5 128.5t-73.5 57.5zM249 466q92 0 156 -72.5t64 -175.5q0 -102 -63 -166.5t-157 -64.5t-157 65t-63 166q0 102 64 175t156 73zM417 635q-17 -71 -44 -98.5t-69 -27.5
q-122 38 -132 38q-23 0 -37 -38h-53q22 106 85 118q1 0 77 -18t81 -18q3 0 6 3t6 8t5 10t5 12t5 11q2 2 19 2z" />
    <glyph glyph-name="odieresis" unicode="&#xf6;" 
d="M249 464q93 0 156.5 -72t63.5 -175q0 -101 -63 -165.5t-157 -64.5t-157 64.5t-63 165.5q0 102 64 174.5t156 72.5zM245 408q-44 0 -74 -57.5t-30 -128.5q0 -69 31.5 -122.5t76.5 -53.5q44 0 71.5 53t27.5 123q0 71 -29.5 128.5t-73.5 57.5zM222 609q0 -27 -19.5 -44
t-45.5 -17q-22 0 -41.5 19.5t-19.5 42.5q0 28 17.5 45.5t43.5 17.5q25 0 45 -18t20 -46zM404 609q0 -25 -19.5 -43t-45.5 -18q-25 0 -43 20.5t-18 42.5q0 25 19.5 43.5t41.5 18.5q26 0 45.5 -18.5t19.5 -45.5z" />
    <glyph glyph-name="divide" unicode="&#xf7;" horiz-adv-x="525" 
d="M331 59q0 -28 -22.5 -49t-46.5 -21q-28 0 -48 20.5t-20 49.5t20.5 48.5t48.5 19.5q27 0 47.5 -20.5t20.5 -47.5zM511 208h-497v89h497v-89zM331 445q0 -25 -22 -45.5t-47 -20.5q-27 0 -47.5 18t-20.5 48q4 70 69 70q29 0 48.5 -20.5t19.5 -49.5z" />
    <glyph glyph-name="oslash" unicode="&#xf8;" 
d="M380 549h60l-59 -127q38 -30 62.5 -79t24.5 -109q0 -106 -65 -179t-149 -73q-44 0 -86 21q-1 -3 -2 -4.5t-2.5 -4t-5 -10t-8.5 -17.5t-16 -30.5t-24 -46.5h-60l66 143q-84 74 -84 193q0 114 60.5 176.5t155.5 62.5q38 0 78 -13q4 4 27.5 48.5t26.5 48.5zM352 204
q0 69 -21 132l-129 -268q28 -22 58 -22q27 0 46 14.5t28.5 39.5t13.5 50.5t4 53.5zM290 387q-26 20 -52 20q-46 0 -68.5 -40t-22.5 -92q0 -81 21 -151z" />
    <glyph glyph-name="ugrave" unicode="&#xf9;" 
d="M321 -11v78q-23 -43 -51.5 -60.5t-70.5 -17.5q-56 0 -92.5 37.5t-36.5 101.5v237q0 28 -12 38t-43 12v36h167v-320q0 -36 10 -45t39 -9q82 0 82 66v219q0 32 -13 40t-52 10v39h175v-336q0 -23 6 -29.5t22 -6.5l30 1v-43q-15 -5 -50.5 -14.5t-64.5 -18t-45 -15.5zM380 501
h-64l-147 91q-37 22 -37 56q7 45 50 45q21 0 50 -25q76 -91 148 -167z" />
    <glyph glyph-name="uacute" unicode="&#xfa;" 
d="M198 502h-64l148 167q28 25 42 25q51 0 56 -47q0 -29 -52 -52q-2 0 -32.5 -22t-63.5 -46t-34 -25zM321 -11v78q-23 -43 -51.5 -60.5t-70.5 -17.5q-56 0 -92.5 37.5t-36.5 101.5v237q0 28 -12 38t-43 12v36h167v-320q0 -36 10 -45t39 -9q82 0 82 66v219q0 32 -13 40
t-52 10v39h175v-336q0 -23 6 -29.5t22 -6.5l30 1v-43q-15 -5 -50.5 -14.5t-64.5 -18t-45 -15.5z" />
    <glyph glyph-name="ucircumflex" unicode="&#xfb;" 
d="M321 -11v78q-23 -43 -51.5 -60.5t-70.5 -17.5q-56 0 -92.5 37.5t-36.5 101.5v238q0 27 -12 37t-43 12v37h167v-321q0 -36 10 -45t39 -9q31 0 56.5 14.5t25.5 51.5v220q0 31 -13 39t-52 10v40h175v-337q0 -23 6 -29.5t22 -6.5l30 1v-43q-15 -5 -50.5 -14.5t-64.5 -18
t-45 -15.5zM132 508h-43l131 185h71l133 -185h-62l-110 89q-3 -1 -32.5 -23.5t-58 -44.5t-29.5 -22v1z" />
    <glyph glyph-name="udieresis" unicode="&#xfc;" 
d="M321 -11v78q-23 -43 -51.5 -60.5t-70.5 -17.5q-56 0 -92.5 37.5t-36.5 101.5v237q0 28 -11.5 37.5t-43.5 11.5v37h167v-320q0 -36 10 -45t39 -9q82 0 82 66v219q0 32 -12.5 39.5t-52.5 9.5v40h175v-336q0 -23 6 -29.5t22 -6.5l30 1v-44q-145 -41 -160 -47zM228 609
q0 -27 -19.5 -44.5t-47.5 -17.5q-21 0 -41 20t-20 43q0 28 17.5 45.5t43.5 17.5t46.5 -17.5t20.5 -46.5zM412 609q0 -25 -19.5 -43.5t-46.5 -18.5q-19 0 -40 20t-21 43q0 26 19 44.5t42 18.5q27 0 46.5 -18.5t19.5 -45.5z" />
    <glyph glyph-name="yacute" unicode="&#xfd;" horiz-adv-x="468" 
d="M133 -149q14 0 48 71.5t34 119.5q0 50 -37 128.5t-128 214.5q-13 20 -47 27v37h219v-39q-38 -4 -50 -16q2 -3 4.5 -13.5t3.5 -13.5l90 -220q78 241 78 253q0 10 -42 10v39h153v-39q-28 -4 -40 -23q-19 -47 -73.5 -200t-70.5 -202q-90 -235 -191 -235q-37 0 -60.5 18.5
t-23.5 51.5q0 26 15.5 42t40.5 16q12 0 40 -13.5t37 -13.5zM180 500h-64l148 168q31 26 48 26q47 0 50 -48q0 -29 -52 -53q-3 0 -33.5 -22t-63 -46t-33.5 -25z" />
    <glyph glyph-name="thorn" unicode="&#xfe;" horiz-adv-x="486" 
d="M273 368q-2 0 -9.5 0.5t-12.5 0.5q-62 0 -90 -44v-233q0 -17 31 -30.5t52 -13.5q33 0 55 27t30.5 61.5t8.5 71.5q0 43 -5.5 74.5t-13 47.5t-17 25t-15.5 11t-11 2h-3zM451 246q0 -133 -48 -192.5t-126 -59.5q-54 0 -116 26v-168q0 -38 12.5 -47.5t69.5 -10.5v-44h-252v44
q40 2 50 12t10 39v732q0 35 -31 35q-13 0 -25 -4v48q65 17 150 44l16 -12v-291q54 67 118 67q89 0 138 -82l16 -34q18 -46 18 -102z" />
    <glyph glyph-name="ydieresis" unicode="&#xff;" horiz-adv-x="469" 
d="M133 -149q14 0 48 71.5t34 119.5q0 50 -37 128.5t-128 214.5q-13 20 -47 27v37h219v-39q-38 -4 -50 -16q2 -3 4.5 -13.5t3.5 -13.5l90 -220q78 241 78 253q0 10 -42 10v39h153v-39q-28 -4 -40 -23q-19 -47 -73.5 -200t-70.5 -202q-90 -235 -191 -235q-37 0 -60.5 18.5
t-23.5 51.5q0 26 15.5 42t40.5 16q12 0 40 -13.5t37 -13.5zM395 609q0 -27 -19.5 -44.5t-47.5 -17.5q-20 0 -40.5 19t-20.5 44t18.5 44t42.5 19q27 0 47 -18.5t20 -45.5zM210 609q0 -28 -20 -45t-49 -17q-20 0 -39 19.5t-19 43.5q0 28 16.5 45.5t41.5 17.5q28 0 48.5 -18
t20.5 -46z" />
    <glyph glyph-name="dotlessi" unicode="&#x131;" horiz-adv-x="275" 
d="M24 365v40l158 54l15 -14v-336q0 -15 1 -26t4.5 -18l5.5 -11t9 -6.5t10.5 -3.5t15.5 -1.5t17 -1.5v-41h-239v41q48 1 59 10.5t11 40.5v234q0 36 -9 41z" />
    <glyph glyph-name="Lslash" unicode="&#x141;" horiz-adv-x="611" 
d="M292 337l-59 -32v-214q0 -16 11.5 -20t52.5 -4h65q99 0 153 50q13 13 40 76h53l-52 -193h-532v46q54 4 67 17.5t13 48.5v145l-71 -36v84l71 42v196q0 45 -17 59t-63 14v44h294v-44q-56 -4 -68 -12q-17 -14 -17 -61v-154l59 38v-90z" />
    <glyph glyph-name="lslash" unicode="&#x142;" horiz-adv-x="300" 
d="M272 357l-69 -35v-230q0 -30 11 -38t46 -11q6 -1 10 -1v-42h-242v42q47 3 59.5 13t12.5 32v197l-74 -32v73l74 32v212q0 48 -32 48q-6 0 -20 -2.5t-21 -2.5v44q101 23 157 44l19 -6v-299l69 35v-73z" />
    <glyph glyph-name="Scaron" unicode="&#x160;" horiz-adv-x="496" 
d="M376 881h49l-133 -187h-73l-127 187h59l104 -92q2 1 15 12t29 24t33 26t29.5 22t14.5 9v-1zM472 177q0 -88 -65.5 -140t-142.5 -52q-49 0 -82.5 9t-49 18t-21.5 9q-4 0 -8.5 -9t-4.5 -23h-48l-26 233h44q35 -94 74 -130t103 -36q37 0 69 26t32 64q0 36 -31 68t-75 59.5
t-88.5 57.5t-75.5 74.5t-31 97.5q0 79 54 129t123 50q43 0 70 -4.5t35 -10.5t16.5 -10.5t19.5 -4.5q13 0 17 30h46l22 -235h-50q-19 79 -47 107l-9 11q-38 45 -102 47q-32 0 -55.5 -20t-23.5 -52q0 -23 18.5 -50t47.5 -49q13 -8 46.5 -28t55 -34t51.5 -38t48 -46t31 -53.5
t13 -64.5z" />
    <glyph glyph-name="scaron" unicode="&#x161;" horiz-adv-x="372" 
d="M291 669h61l-130 -187h-70l-124 187h56l103 -92q11 10 51 45t53 47zM180 468q36 0 61 -9l12 -4t9.5 -3.5t5.5 -1.5q1 0 8 7h35v-150h-41q-14 53 -33 81t-54 28q-51 0 -51 -50q0 -42 28 -59l98 -51q36 -23 61 -61t25 -65q0 -61 -47.5 -101t-96.5 -40q-32 0 -65 9.5
t-43 9.5t-16 -9h-34v177h42q15 -78 33 -104t71 -26q25 0 41.5 12.5t16.5 36.5q0 28 -30 52t-59 34q-115 68 -115 154q0 68 41 100.5t97 32.5z" />
    <glyph glyph-name="Ydieresis" unicode="&#x178;" horiz-adv-x="679" 
d="M512 767q0 -63 -68 -63q-43 0 -56 38q8 10 8 26q0 28 13.5 45t34.5 17q25 0 46.5 -18.5t21.5 -44.5zM321 767q0 -63 -65 -63q-27 0 -44.5 17t-17.5 47q0 22 18 42t44 20q27 0 46 -18t19 -45zM396 297v-179q0 -43 19.5 -57t84.5 -14v-47h-316v47q62 1 83 17q8 11 8 65v160
q-16 22 -71.5 101.5t-98.5 141t-50 66.5q-24 16 -55 17v46h294v-46h-38q-25 -3 -25 -15q0 -8 26 -51t62.5 -99.5t49.5 -81.5q1 2 62 104t62 104q1 4 1 10q0 29 -48 29h-8v46h237v-46q-42 -4 -83 -36q-9 -8 -58 -78.5t-94 -136.5z" />
    <glyph glyph-name="Zcaron" unicode="&#x17d;" horiz-adv-x="611" 
d="M415 881h61l-132 -189h-75l-131 189h62l107 -93q10 9 56.5 49t51.5 44zM596 196l-26 -196h-558v37l404 564h-184q-57 0 -82.5 -10t-38 -33.5t-27.5 -84.5h-50l20 192h522v-35l-400 -566h220q40 0 67.5 9t44 30t25 40t18.5 53h45z" />
    <glyph glyph-name="zcaron" unicode="&#x17e;" horiz-adv-x="434" 
d="M408 155l-16 -155h-372v37l236 363h-104q-37 0 -48 -11l-18 -74h-36v140h343v-32l-240 -368h108q60 0 75.5 17.5t27.5 90.5zM379 669l-130 -188h-73l-128 188h59l107 -93q14 11 29 24.5t37 33.5t40 35h59z" />
    <glyph glyph-name="longs" unicode="&#x17f;" horiz-adv-x="379" 
d="M256 571v-463q0 -38 16 -52t60 -14h6v-42h-263v42q51 4 62.5 14.5t11.5 46.5v293h-73l73 55q2 113 22 149q17 37 61.5 68.5t86.5 31.5q47 0 81.5 -26t34.5 -50t-13.5 -40.5t-38.5 -16.5q-16 0 -30.5 13t-23.5 28.5t-19 28.5t-17 14q-37 0 -37 -80z" />
    <glyph glyph-name="florin" unicode="&#x192;" horiz-adv-x="388" 
d="M386 601q0 -25 -14 -42t-39 -17q-19 0 -36.5 20.5t-31 41.5t-22.5 22q-39 0 -39 -80v-97h112v-55h-111v-285q0 -208 -190 -318v113q29 3 56.5 39t27.5 89v362h-75v55h75q1 90 20 126q19 38 63 70t87 32q45 0 81 -26.5t36 -49.5z" />
    <glyph glyph-name="circumflex" unicode="&#x2c6;" horiz-adv-x="375" 
d="M66 518h-42l128 175h68l130 -175h-60l-106 85q-3 -1 -32.5 -22.5t-57.5 -42.5z" />
    <glyph glyph-name="caron" unicode="&#x2c7;" horiz-adv-x="363" 
d="M344 669l-128 -175h-71l-127 175h58l106 -86q17 12 53 42.5t52 43.5h57z" />
    <glyph glyph-name="uni02C9" unicode="&#x2c9;" horiz-adv-x="352" 
d="M300 585h-249v75h249v-75z" />
    <glyph glyph-name="breve" unicode="&#x2d8;" horiz-adv-x="318" 
d="M283 654q-16 -168 -124 -168q-119 0 -120 168l41 3q8 -43 27 -63.5t53 -20.5q32 0 49 17.5t33 66.5z" />
    <glyph glyph-name="dotaccent" unicode="&#x2d9;" horiz-adv-x="196" 
d="M149 626q0 -28 -16 -44.5t-40 -16.5q-25 0 -39 16t-14 42q0 23 16.5 39t36.5 16q56 0 56 -52z" />
    <glyph glyph-name="ring" unicode="&#x2da;" horiz-adv-x="284" 
d="M140 711q44 -1 72.5 -27.5t29.5 -76.5q0 -49 -34 -76.5t-73 -27.5q-41 0 -68 30.5t-27 74.5q0 41 28 72t72 31zM181 607q0 16 -12.5 29.5t-27.5 13.5q-38 0 -38 -42t37 -42q41 0 41 41z" />
    <glyph glyph-name="ogonek" unicode="&#x2db;" horiz-adv-x="244" 
d="M185 -57l30 -28q-8 -46 -36 -68.5t-59 -22.5q-29 0 -56.5 26t-27.5 62q0 43 49 91h54q-35 -39 -35 -74q0 -11 6 -23t15 -12q15 0 32.5 14t27.5 35z" />
    <glyph glyph-name="tilde" unicode="&#x2dc;" horiz-adv-x="389" 
d="M176 540l-64 15q-22 0 -36 -35h-52q14 31 20 42.5t16.5 29.5t19.5 24t22 12t31 7q13 0 71 -20.5t61 -20.5t7 2.5t8.5 7.5t8 9.5t9.5 11.5t8 10h52q-12 -19 -24 -42t-17.5 -33.5t-15.5 -21.5t-23 -14.5t-34 -3.5q-19 2 -36.5 9.5t-31.5 10.5z" />
    <glyph glyph-name="hungarumlaut" unicode="&#x2dd;" horiz-adv-x="465" 
d="M261 515h-63l145 154q31 25 47 25q49 0 49 -45q0 -27 -50 -50q-3 0 -33.5 -20t-62 -42t-32.5 -22zM83 515h-64l145 154q31 25 47 25q49 0 49 -45q0 -28 -50 -50q-3 0 -33.5 -20t-61.5 -42t-32 -22z" />
    <glyph glyph-name="Delta" unicode="&#x394;" horiz-adv-x="524" 
d="M384 62l-160 454l-158 -454h318zM516 0h-508v35l224 621l51 14l233 -635v-35z" />
    <glyph glyph-name="Delta" unicode="&#x2206;" horiz-adv-x="524" 
d="M384 62l-160 454l-158 -454h318zM516 0h-508v35l224 621l51 14l233 -635v-35z" />
    <glyph glyph-name="Omega" unicode="&#x3a9;" horiz-adv-x="635" 
d="M616 166l-24 -166h-227l-8 25l14 28q14 28 17.5 35.5t16.5 36t17.5 43.5t14 43.5t13.5 49.5t7.5 48t3.5 53q0 138 -40 204t-105 66q-142 0 -142 -271q0 -62 19 -131.5t36 -107.5t47 -97l-8 -25h-227l-21 166l26 1q15 -45 28 -58.5t42 -13.5h84q-30 25 -50 45t-45.5 54.5
t-39 79t-13.5 95.5q0 137 74.5 219.5t192.5 82.5q119 0 191.5 -79.5t72.5 -214.5q0 -86 -42 -151.5t-112 -130.5h93q28 0 40 13t26 59z" />
    <glyph glyph-name="Omega" unicode="&#x2126;" horiz-adv-x="635" 
d="M616 166l-24 -166h-227l-8 25l14 28q14 28 17.5 35.5t16.5 36t17.5 43.5t14 43.5t13.5 49.5t7.5 48t3.5 53q0 138 -40 204t-105 66q-142 0 -142 -271q0 -62 19 -131.5t36 -107.5t47 -97l-8 -25h-227l-21 166l26 1q15 -45 28 -58.5t42 -13.5h84q-30 25 -50 45t-45.5 54.5
t-39 79t-13.5 95.5q0 137 74.5 219.5t192.5 82.5q119 0 191.5 -79.5t72.5 -214.5q0 -86 -42 -151.5t-112 -130.5h93q28 0 40 13t26 59z" />
    <glyph glyph-name="pi" unicode="&#x3c0;" horiz-adv-x="504" 
d="M459 477l23 -10q-3 -32 -13.5 -68.5t-20.5 -49.5q-16 -6 -56 -6q-4 -45 -4 -143q0 -79 7 -107.5t29 -28.5q15 0 38 21l11 -28q-16 -31 -45 -50t-58 -19q-89 0 -89 130q0 78 9 227q-106 2 -115 2v-12q0 -100 -12 -178.5t-23 -109t-21 -42.5q-33 -14 -57 -17l-7 22
q41 63 60.5 160t19.5 179q-37 0 -59.5 -9t-51.5 -32l-14 30q1 1 9 14.5t9.5 15.5t9.5 14t11.5 15t12 12.5t15 12.5t16.5 9t19.5 8t22 4t26.5 2q32 0 117 -1.5t127 -1.5q20 0 31.5 7t22.5 28z" />
    <glyph glyph-name="uni2000" unicode="&#x2000;" 
 />
    <glyph glyph-name="uni2001" unicode="&#x2001;" horiz-adv-x="1000" 
 />
    <glyph glyph-name="uni2002" unicode="&#x2002;" 
 />
    <glyph glyph-name="uni2003" unicode="&#x2003;" horiz-adv-x="1000" 
 />
    <glyph glyph-name="uni2004" unicode="&#x2004;" horiz-adv-x="333" 
 />
    <glyph glyph-name="uni2005" unicode="&#x2005;" horiz-adv-x="250" 
 />
    <glyph glyph-name="uni2006" unicode="&#x2006;" horiz-adv-x="166" 
 />
    <glyph glyph-name="uni2007" unicode="&#x2007;" horiz-adv-x="601" 
 />
    <glyph glyph-name="uni2008" unicode="&#x2008;" horiz-adv-x="230" 
 />
    <glyph glyph-name="uni2009" unicode="&#x2009;" horiz-adv-x="100" 
 />
    <glyph glyph-name="uni200A" unicode="&#x200a;" horiz-adv-x="10" 
 />
    <glyph glyph-name="uni2010" unicode="&#x2010;" horiz-adv-x="352" 
d="M51 188v75h249v-75h-249z" />
    <glyph glyph-name="uni2011" unicode="&#x2011;" horiz-adv-x="352" 
d="M51 188v75h249v-75h-249z" />
    <glyph glyph-name="figuredash" unicode="&#x2012;" horiz-adv-x="601" 
d="M51 188v75h498v-75h-498z" />
    <glyph glyph-name="endash" unicode="&#x2013;" 
d="M51 188v75h397v-75h-397z" />
    <glyph glyph-name="emdash" unicode="&#x2014;" horiz-adv-x="1000" 
d="M51 188v75h897v-75h-897z" />
    <glyph glyph-name="afii00208" unicode="&#x2015;" horiz-adv-x="2000" 
d="M51 188v75h1897v-75h-1897z" />
    <glyph glyph-name="uni2016" unicode="&#x2016;" horiz-adv-x="352" 
d="M300 -15h-73v686h73v-686zM124 -15h-73v686h73v-686z" />
    <glyph glyph-name="quoteleft" unicode="&#x2018;" horiz-adv-x="219" 
d="M117 550q40 0 52.5 -13.5t12.5 -48.5q0 -31 -19.5 -48t-45.5 -17q-35 0 -59.5 30.5t-24.5 72.5q0 50 38 89t81 59l16 -41q-70 -44 -70 -83h19z" />
    <glyph glyph-name="quoteright" unicode="&#x2019;" horiz-adv-x="216" 
d="M94 541q-25 0 -43.5 16.5t-18.5 46.5q0 29 19 48t43 19q39 0 62.5 -27.5t23.5 -68.5q0 -49 -38.5 -95t-77.5 -60l-17 38q78 47 79 85q-2 -4 -24 -4q-6 0 -8 2z" />
    <glyph glyph-name="quotesinglbase" unicode="&#x201a;" horiz-adv-x="212" 
d="M64 -141l-17 40q71 45 71 81h-2q-18 0 -34.5 3.5t-33 19t-16.5 41.5q0 32 19 49.5t45 17.5q33 0 58 -28t25 -67q0 -87 -115 -157z" />
    <glyph glyph-name="uni201B" unicode="&#x201b;" horiz-adv-x="242" 
d="M145 541q-2 -2 -8 -2q-22 0 -24 4q1 -38 79 -85l-17 -38q-39 14 -77.5 60t-38.5 95q0 41 23.5 68.5t62.5 27.5q24 0 43 -19t19 -48q0 -30 -18.5 -46.5t-43.5 -16.5z" />
    <glyph glyph-name="quotedblleft" unicode="&#x201c;" horiz-adv-x="441" 
d="M337 552q38 0 53 -15.5t15 -48.5q0 -30 -19.5 -47.5t-48.5 -17.5q-89 0 -89 104q0 14 2.5 26.5t8 23.5t10.5 20t15.5 18t16 14.5t18.5 13.5t17.5 11t19 11t16.5 9l19 -40q-79 -46 -79 -83q2 0 13 0.5t12 0.5zM127 552q38 0 53 -15t15 -49q0 -30 -19.5 -47.5t-48.5 -17.5
q-44 0 -69.5 33.5t-25.5 74.5q0 26 11 48t34.5 40.5t37 27t38.5 22.5q6 4 9 5l19 -40q-80 -48 -80 -83q5 1 26 1z" />
    <glyph glyph-name="quotedblright" unicode="&#x201d;" horiz-adv-x="436" 
d="M101 541q-68 0 -68 63q0 67 68 67q39 0 63.5 -25.5t24.5 -70.5q0 -55 -39.5 -97t-85.5 -58l-17 38q78 44 78 83h-24zM311 541q-68 0 -68 63q0 67 68 67q41 0 65 -27.5t24 -68.5q0 -56 -39.5 -97t-86.5 -58l-18 38q80 47 80 83h-25z" />
    <glyph glyph-name="quotedblbase" unicode="&#x201e;" horiz-adv-x="434" 
d="M281 -136l-25 36q77 46 77 81h-12q-78 0 -78 74q0 28 20 42t49 14q37 0 63.5 -25.5t26.5 -69.5q0 -23 -23.5 -54.5t-43 -49.5t-54.5 -48zM48 -100q79 46 79 81q-51 0 -73 16.5t-22 56.5q0 25 18 41t52 16q39 0 64 -25.5t25 -69.5q0 -33 -35.5 -82.5t-71.5 -73.5z" />
    <glyph glyph-name="uni201F" unicode="&#x201f;" horiz-adv-x="490" 
d="M386 541h-24q0 -38 79 -83l-17 -38q-47 16 -86.5 58t-39.5 97q0 45 24.5 70.5t63.5 25.5q68 0 68 -67q0 -63 -68 -63zM177 541h-26q0 -37 81 -83l-19 -38q-46 17 -85.5 58t-39.5 97q0 42 23.5 69t65.5 27q68 0 68 -67q0 -63 -68 -63z" />
    <glyph glyph-name="dagger" unicode="&#x2020;" horiz-adv-x="385" 
d="M342 379q-34 0 -74 16.5t-55 18.5q0 -116 43 -159q-38 -99 -38 -271v-130h-51v130q0 127 -41 271q19 17 28.5 45t11 49t1.5 57v8q-15 -2 -55 -18.5t-57 -16.5q-55 0 -55 56q0 42 32 53q48 0 72 -7q36 -25 63 -26q-2 25 -18.5 77t-16.5 78q0 16 22.5 38.5t29.5 22.5
q25 0 45.5 -17t20.5 -44q0 -20 -17.5 -74.5t-19.5 -80.5q33 2 65 25q1 0 1.5 1.5t2.5 4t7 4.5t15.5 3.5t25.5 1.5q20 0 36 -17.5t16 -42.5q0 -45 -40 -56z" />
    <glyph glyph-name="daggerdbl" unicode="&#x2021;" horiz-adv-x="409" 
d="M228 457q25 0 55.5 19.5t59.5 19.5q20 0 36 -17.5t16 -41.5q0 -25 -13 -41t-34 -16q-30 0 -66 16t-54 19l4 -55q7 -63 33 -100q-39 -50 -39 -154v-2q12 2 54.5 19.5t61.5 17.5q51 0 51 -59q0 -24 -14 -39t-38 -15q-18 0 -60 16t-55 17q0 -59 26 -99q8 -32 8 -51
q0 -25 -15 -43t-43 -18q-21 0 -39.5 16.5t-18.5 44.5q0 19 16.5 61.5t18.5 88.5q-17 -1 -58.5 -17t-56.5 -16q-52 0 -52 55q0 47 39 58h13q17 0 59.5 -17.5t55.5 -19.5q-3 2 -3 8q0 106 -37 146q38 49 40 157q-14 -2 -54 -18.5t-56 -16.5q-52 0 -52 57q0 26 12 40.5t25 16.5
l12 2q17 0 56.5 -19t56.5 -20q0 39 -17.5 90t-17.5 64q0 23 16.5 41.5t43.5 18.5q24 0 41 -16.5t17 -43.5q0 -15 -16.5 -69.5t-17.5 -84.5z" />
    <glyph glyph-name="bullet" unicode="&#x2022;" horiz-adv-x="339" 
d="M304 326q0 -62 -42.5 -99t-93.5 -37q-54 0 -95 41t-41 98q0 64 41 99.5t95 35.5q59 0 97.5 -39t38.5 -99z" />
    <glyph glyph-name="uni2023" unicode="&#x2023;" horiz-adv-x="384" 
d="M50 75v400l284 -200z" />
    <glyph glyph-name="onedotenleader" unicode="&#x2024;" horiz-adv-x="230" 
d="M46 53q0 25 18.5 45.5t48.5 20.5q26 0 46 -18.5t20 -46.5q0 -25 -19 -46t-48 -21q-26 0 -46 19t-20 47z" />
    <glyph glyph-name="twodotenleader" unicode="&#x2025;" horiz-adv-x="460" 
d="M276 53q0 25 18.5 45.5t48.5 20.5q26 0 46 -18.5t20 -46.5q0 -25 -19 -46t-48 -21q-26 0 -46 19t-20 47zM46 53q0 25 18.5 45.5t48.5 20.5q26 0 46 -18.5t20 -46.5q0 -25 -19 -46t-48 -21q-26 0 -46 19t-20 47z" />
    <glyph glyph-name="ellipsis" unicode="&#x2026;" horiz-adv-x="690" 
d="M506 53q0 25 18.5 45.5t48.5 20.5q26 0 46 -18.5t20 -46.5q0 -25 -19 -46t-48 -21q-26 0 -46 19t-20 47zM276 53q0 25 18.5 45.5t48.5 20.5q26 0 46 -18.5t20 -46.5q0 -25 -19 -46t-48 -21q-26 0 -46 19t-20 47zM46 53q0 25 18.5 45.5t48.5 20.5q26 0 46 -18.5t20 -46.5
q0 -25 -19 -46t-48 -21q-26 0 -46 19t-20 47z" />
    <glyph glyph-name="perthousand" unicode="&#x2030;" horiz-adv-x="998" 
d="M326 629q22 -9 58 -9q13 0 22.5 2t16.5 4t18 10t17.5 14t24.5 22t31 27h69l-419 -714h-73l357 601q-31 -34 -68 -34q-28 0 -67 15q6 -9 6 -24q0 -79 -52.5 -156.5t-122.5 -77.5q-57 0 -92.5 44.5t-35.5 102.5q0 85 64 153t140 68q0 -1 52.5 -24.5t53.5 -23.5zM196 606
q-41 -28 -62.5 -92.5t-21.5 -98.5q0 -46 42 -46q19 1 34 16t26 42.5t18 50.5t15 57.5t11 46.5q-1 1 -16 6.5t-30 11.5t-16 6zM540 289q-43 0 -73.5 -51.5t-30.5 -119.5q0 -17 12.5 -46.5t25.5 -29.5q32 0 58.5 31t39 71t12.5 76q0 23 -13.5 46t-29.5 23h-1zM641 220
q0 -86 -54 -163t-119 -77q-57 0 -95 46t-38 104q0 78 62.5 146.5t134.5 68.5q109 0 109 -125zM885 289q-35 0 -71 -57.5t-36 -110.5q0 -27 11.5 -52.5t27.5 -26.5q43 0 75.5 57.5t32.5 120.5q0 27 -10.5 48t-29.5 21zM982 220q0 -91 -53.5 -165.5t-118.5 -74.5
q-59 0 -95.5 46t-36.5 105q0 80 62.5 147t131.5 67q50 0 80 -32t30 -93z" />
    <glyph glyph-name="guilsinglleft" unicode="&#x2039;" horiz-adv-x="261" 
d="M118 233q37 -46 64.5 -86.5t38.5 -61.5t11 -27q0 -25 -23 -25q-2 0 -52.5 47t-100.5 94l-50 47q191 194 203 197q25 0 25 -25q0 -7 -21 -35.5t-52.5 -69t-42.5 -55.5z" />
    <glyph glyph-name="guilsinglright" unicode="&#x203a;" horiz-adv-x="263" 
d="M52 33q-24 0 -24 25q0 26 112 165q-27 33 -68.5 94.5t-43.5 74.5q0 26 23 26t50 -44q3 -2 78 -73.5t76 -72.5q0 -4 -99 -99.5t-104 -95.5z" />
    <glyph glyph-name="fraction" unicode="&#x2044;" horiz-adv-x="308" 
d="M305 660l-213 -686h-88l214 686h87z" />
    <glyph glyph-name="Euro" unicode="&#x20ac;" horiz-adv-x="530" 
d="M500 151v-73q-72 -93 -180 -93q-84 0 -152.5 65t-81.5 181h-79l39 66h35v33h-74l39 67h39q13 107 79 189.5t155 82.5q23 0 45 -6t33 -11.5t39 -20.5q3 0 8 38h42l14 -240h-40q-4 48 -31 105q-6 11 -12 20t-10 16t-9.5 12t-8 9t-9 7t-8.5 4.5t-10.5 3.5t-10 2.5t-13 2
t-14.5 2.5q-108 0 -128 -216h213l-40 -67h-175q-2 -6 -2 -19q0 -8 2 -14h151l-36 -66h-112q12 -87 52 -137.5t104 -50.5q42 0 81 28.5t66 79.5z" />
    <glyph glyph-name="afii61289" unicode="&#x2113;" horiz-adv-x="367" 
d="M168 461v-107q74 102 74 223q0 42 -9 72t-28 30q-22 0 -29.5 -46.5t-7.5 -171.5zM343 141l19 -23q-61 -132 -162 -132q-68 0 -97 40q-34 42 -34 152v52l-52 -39l-11 32l62 53v126q0 107 9.5 160.5t37.5 92.5q42 62 97 62q45 0 68.5 -40.5t23.5 -98.5q0 -79 -33.5 -143
t-102.5 -136v-74q0 -88 18 -126t58 -38q51 0 99 80z" />
    <glyph glyph-name="afii61352" unicode="&#x2116;" horiz-adv-x="999" 
d="M819 466q63 0 106 -50t43 -121q0 -70 -42.5 -115t-106.5 -45t-106.5 45t-42.5 115q0 71 43 121t106 50zM816 427q-29 0 -49.5 -40t-20.5 -88q0 -49 21 -86t52 -37q30 0 48.5 37t18.5 86t-20 88.5t-50 39.5zM705 617q-59 -5 -75 -24.5t-16 -85.5v-519h-36l-402 520v-354
q0 -47 10 -70t27.5 -29.5t54.5 -7.5v-46h-252v46q61 4 74.5 20.5t13.5 71.5v435q-30 43 -83 43h-5v43h180l348 -453v300q0 38 -4.5 59.5t-19 32t-26 13t-42.5 5.5v43h253v-43z" />
    <glyph glyph-name="trademark" unicode="&#x2122;" horiz-adv-x="953" 
d="M654 250h-28l-122 270v-175q0 -26 11.5 -35.5t40.5 -12.5v-44h-153v44q31 4 39.5 13.5t8.5 34.5v227q-25 36 -65 40v45h138l139 -278l143 278h122v-45q-28 -3 -40 -11.5t-12 -27.5v-242q0 -23 5.5 -26.5t39.5 -7.5v-44h-191v44q7 1 20.5 2t15.5 1.5t7.5 4.5t6 10.5
t0.5 19.5v188q-7 -16 -64 -139t-62 -134zM376 545h-47q-9 32 -22.5 49.5t-26.5 17.5h-35v-277q0 -5 -0.5 -12t-0.5 -9q0 -9 8 -11.5t41 -5.5v-44h-192v44q33 4 40 7.5t7 19.5v288h-32q-16 0 -32.5 -20t-17.5 -47h-46v112h356v-112z" />
    <glyph glyph-name="estimated" unicode="&#x212e;" horiz-adv-x="645" 
d="M520 342v188q0 14 -7 22q-79 97 -185 97t-185 -100q-7 -8 -7 -23v-184q0 -6 4 -6h377q3 0 3 6zM632 318h-492q-4 0 -4 -4v-187q0 -12 6 -21q78 -101 186 -101q117 0 196 113h44q-41 -61 -104.5 -96.5t-135.5 -35.5q-126 0 -215 100t-89 241q0 142 89 242t215 100
q129 0 216.5 -102.5t87.5 -248.5z" />
    <glyph glyph-name="partialdiff" unicode="&#x2202;" horiz-adv-x="454" 
d="M244 371h-1q-54 -2 -82 -54q-35 -66 -35 -180q0 -51 17 -81.5t49 -30.5q90 0 126 284q-10 24 -30 43t-44 19zM215 421h1q31 0 61.5 -16.5t47.5 -46.5q8 58 8 125q0 47 -9.5 89t-36 75.5t-66.5 33.5q-57 0 -129 -72q-11 0 -25 25.5t-14 48.5q0 22 42 38.5t90 16.5
q62 0 110.5 -36.5t75 -93.5t40 -116.5t13.5 -115.5q0 -94 -22.5 -179t-78 -148t-135.5 -63q-76 0 -121.5 55.5t-45.5 147.5q0 107 56.5 169.5t137.5 62.5z" />
    <glyph glyph-name="product" unicode="&#x220f;" horiz-adv-x="594" 
d="M584 674v-34q-54 -4 -66 -18t-12 -68v-506q0 -59 12 -73.5t66 -19.5v-34h-254v34q49 4 58.5 17.5t9.5 75.5v548q0 23 -5.5 28.5t-24.5 5.5h-143q-19 0 -24 -5.5t-5 -26.5v-550q0 -60 9 -74.5t54 -18.5v-34h-247v34q52 5 64 20t12 73v506q0 54 -12.5 68t-67.5 18v34h576z
" />
    <glyph glyph-name="summation" unicode="&#x2211;" horiz-adv-x="480" 
d="M468 134l-41 -220h-412v35l185 311l-180 379v35h406l10 -181l-28 -9q-11 67 -33 112q-11 22 -27 29.5t-61 7.5h-136l140 -294l-187 -319h211q58 0 76.5 17.5t48.5 106.5z" />
    <glyph glyph-name="minus" unicode="&#x2212;" horiz-adv-x="413" 
d="M362 267h-311v62h311v-62z" />
    <glyph glyph-name="uni2215" unicode="&#x2215;" horiz-adv-x="308" 
d="M305 660l-213 -686h-88l214 686h87z" />
    <glyph glyph-name="uni2219" unicode="&#x2219;" horiz-adv-x="253" 
d="M118 291q28 0 48 -19t20 -46t-20 -46t-48 -19t-48 19t-20 46t20 46t48 19z" />
    <glyph glyph-name="radical" unicode="&#x221a;" horiz-adv-x="424" 
d="M436 843l-145 -989l-26 -14l-184 522l-73 -44l-11 41l154 90l129 -387h3l113 792z" />
    <glyph glyph-name="infinity" unicode="&#x221e;" horiz-adv-x="615" 
d="M449 368h-1q-13 0 -25.5 -5.5t-26 -19.5t-19 -21t-20.5 -28.5t-16 -22.5q36 -56 60 -77.5t51 -21.5q31 0 50 30t19 65q0 45 -20 73t-52 28zM167 172h1q16 0 31 8t29.5 24t23.5 28t23 33q-20 36 -31.5 53t-33.5 33.5t-46 16.5q-32 0 -51.5 -28t-19.5 -73q0 -40 21 -67.5
t53 -27.5zM581 274v-1q0 -79 -38.5 -126.5t-90.5 -47.5q-78 0 -145 112q-36 -55 -69.5 -83.5t-77.5 -28.5q-52 0 -90 47.5t-38 121.5q0 75 39 123.5t97 48.5q42 0 76 -28t68 -81q43 61 67 80q35 29 75 29q54 0 90.5 -46t36.5 -120z" />
    <glyph glyph-name="integral" unicode="&#x222b;" horiz-adv-x="252" 
d="M124 -8l-17 383q-2 28 -2 78q0 85 9.5 150t24 102.5t35 61.5t39 32t38.5 8q23 0 42 -15.5t19 -40.5q0 -28 -13.5 -43.5t-31.5 -15.5q-17 0 -29 32t-19 32q-25 0 -25 -104q0 -29 1 -46l15 -363q2 -56 2 -79q0 -194 -42 -282t-107 -88q-26 0 -44 17t-18 41q0 25 17.5 43.5
t37.5 18.5q15 0 25.5 -34.5t18.5 -34.5q24 0 24 103v44z" />
    <glyph glyph-name="approxequal" unicode="&#x2248;" horiz-adv-x="465" 
d="M316 103q-39 0 -89 36q-51 35 -75 35q-26 0 -44 -17.5t-40 -53.5l-40 50q19 42 54.5 70.5t72.5 28.5q46 0 89 -35q2 -1 11 -8t11.5 -9t10.5 -6.5t12.5 -6.5t11 -3.5t13.5 -1.5q23 0 40.5 16.5t38.5 53.5l40 -50q-49 -99 -117 -99zM155 440q42 0 87 -35q2 -2 9.5 -7.5
t10 -7t9 -6t10.5 -6t10 -4t12 -3.5t12 -1q22 0 40 17t38 53l40 -50q-50 -100 -117 -100q-40 0 -88 36q-50 36 -77 36q-24 0 -43 -18.5t-40 -52.5l-40 50q19 43 54 71t73 28z" />
    <glyph glyph-name="notequal" unicode="&#x2260;" horiz-adv-x="433" 
d="M328 495l-32 -84h113v-78h-139l-47 -130h186v-78h-213l-42 -115l-50 28l32 87h-112v78h138l47 130h-185v78h212l40 113z" />
    <glyph glyph-name="lessequal" unicode="&#x2264;" horiz-adv-x="438" 
d="M406 -9h-385v80h385v-80zM404 106l-380 217v84l380 216v-87l-314 -169v-2l314 -171v-88z" />
    <glyph glyph-name="greaterequal" unicode="&#x2265;" horiz-adv-x="436" 
d="M412 -9h-381v80h381v-80zM33 623l380 -217v-83l-380 -217v88l314 170v2l-314 170v87z" />
    <glyph glyph-name="lozenge" unicode="&#x25ca;" horiz-adv-x="437" 
d="M355 319l-135 317h-3l-136 -316l136 -319h3zM428 319l-172 -393h-76l-172 393l174 396h74z" />
    <glyph glyph-name="c_t" unicode="&#xe6a4;" horiz-adv-x="826" 
d="M364 546q0 69 53.5 111.5t107.5 42.5q73 0 121 -40t50 -101v-12l-1 3v-101h88v-57h-88v-262q0 -57 32 -57q27 0 51 31l31 -21q-52 -94 -125 -94q-44 0 -68.5 35.5t-24.5 103.5v264h-37q-13 5 -13 23q0 16 19 30h1q11 0 20 4t18 16t13.5 18.5t15.5 26.5t14 26q1 3 1 11
q0 5 -0.5 12t-1 11.5t-0.5 5.5q0 36 -34.5 58t-66.5 22q-38 0 -77 -34t-39 -65v-1q0 -12 6.5 -31.5t6.5 -27.5q0 -14 -13 -23h-2q-2 -1 -4.5 -1.5t-5.5 -0.5q-48 0 -48 74zM347 75q30 0 58.5 14.5t47 29t24.5 14.5q10 0 18 -10.5t8 -18.5q-25 -48 -83 -81.5t-107 -33.5
q-41 0 -83 26t-73.5 79.5t-33.5 121.5q0 99 61 174t149 75q66 0 113.5 -37.5t47.5 -79.5q-2 -32 -15 -42t-44 -12q-20 1 -36.5 19t-22.5 35l-6 18q-16 31 -27 35l-10 1q-49 0 -78.5 -44.5t-29.5 -100.5q0 -74 29.5 -128t92.5 -54z" />
    <glyph glyph-name="s_p" unicode="&#xe6a5;" horiz-adv-x="946" 
d="M715 371q-32 -4 -48 -13.5t-32 -36.5v-231q0 -17 31 -31t52 -14q48 0 71 49.5t23 109.5q0 76 -27.5 121.5t-69.5 45.5zM636 513l-1 -60v-62q53 68 118 68q78 -4 125.5 -62.5t47.5 -154.5q0 -109 -62 -183t-149 -74q-53 0 -81 31l1 -164q0 -39 12.5 -48.5t69.5 -10.5v-43
h-253v42q39 2 50 11.5t11 41.5v482q0 44 -32 44q-12 0 -25 -4v40q51 2 81.5 34t32.5 79v37q0 45 -34.5 72t-66.5 27q-38 0 -77 -34t-39 -65v-1q0 -12 6.5 -31.5t6.5 -27.5q0 -14 -13 -23h-2q-2 -1 -5 -1.5t-6 -0.5q-47 0 -47 74q0 69 53.5 111.5t107.5 42.5q77 0 123 -47
t47 -140zM447 127q0 -60 -46.5 -99t-95.5 -39q-28 0 -64.5 9.5t-42.5 9.5q-10 0 -16 -9h-32v174h41q15 -73 35 -100.5t67 -27.5q25 0 41 12.5t16 35.5q0 28 -29 51t-59 34q-116 65 -116 151q0 65 42 97t98 32q44 0 62.5 -8t20.5 -8q3 1 12 7h33v-148h-40q-14 55 -33 81
t-55 26q-49 0 -49 -50q0 -39 28 -57l97 -49q85 -53 85 -125z" />
    <glyph glyph-name="longs_t" unicode="&#xfb05;" horiz-adv-x="651" 
d="M278 571v-463q0 -38 16 -52t60 -14h6v-42h-263v42q51 4 63 15t12 46v293h-74l74 55q2 115 21 149q20 42 60.5 71t103.5 29q47 0 81.5 -26t34.5 -50t-13.5 -40.5t-38.5 -16.5q-16 0 -30.5 13t-23.5 28.5t-19 28.5t-17 14q-21 0 -37 -21.5t-16 -58.5zM493 575q27 0 27 -28
v-98h88v-57h-88v-262q0 -57 32 -57q27 0 51 31l31 -21q-52 -94 -126 -94q-44 0 -68 35.5t-24 103.5v264h-37q-13 5 -13 23q0 16 19 30h1q22 0 37.5 19t34 55t35.5 56z" />
    <glyph glyph-name="s_t" unicode="&#xfb06;" horiz-adv-x="740" 
d="M425 127q0 -60 -46.5 -99t-95.5 -39q-28 0 -64.5 9.5t-42.5 9.5q-10 0 -16 -9h-32v174h41q15 -73 35 -100.5t67 -27.5q25 0 41 12.5t16 35.5q0 28 -29 51t-59 34q-116 65 -116 151q0 65 42 97t98 32q44 0 62.5 -8t20.5 -8q3 1 12 7h33v-148h-40q-14 55 -33 81t-55 26
q-49 0 -49 -50q0 -39 28 -57l97 -49q85 -53 85 -125zM283 546q0 69 53.5 111.5t107.5 42.5q73 0 120.5 -40t49.5 -101v-12l-1 3v-101h88v-57h-88v-262q0 -57 32 -57q27 0 51 31l32 -21q-52 -94 -126 -94q-44 0 -68.5 35.5t-24.5 103.5v264h-37q-12 5 -12 23q0 16 19 30h1
q11 0 20 4t17.5 15.5t13.5 19t15 26.5t14 26q1 3 1 11q0 5 -0.5 12t-0.5 11.5v5.5q0 36 -34.5 58t-66.5 22q-38 0 -77 -34t-39 -65v-1q0 -12 6.5 -31.5t6.5 -27.5q0 -14 -13 -23h-2q-2 -1 -5 -1.5t-6 -0.5q-47 0 -47 74z" />
    </font>
</defs>
</svg>
