<?xml version="1.0" standalone="no"?>
<!DOCTYPE svg PUBLIC "-//W3C//DTD SVG 1.1//EN" "http://www.w3.org/Graphics/SVG/1.1/DTD/svg11.dtd" >
<svg xmlns="http://www.w3.org/2000/svg" xmlns:xlink="http://www.w3.org/1999/xlink" version="1.1">
<metadata>
Created by FontForge 20170731 at Tue Feb 28 14:07:05 2012
 By Aleksey,,,
Copyright (c) Arkandis Digital Foundry under the GNU General Public License V2 and later, with font exception.
</metadata>
<defs>
<font id="TribunADFStd-Regular" horiz-adv-x="528" >
  <font-face 
    font-family="Tribun ADF Std"
    font-weight="400"
    font-stretch="normal"
    units-per-em="1000"
    panose-1="2 4 5 3 8 5 5 2 2 3"
    ascent="750"
    descent="-250"
    x-height="449"
    cap-height="660"
    bbox="-97 -250 1941 911"
    underline-thickness="50"
    underline-position="-200"
    unicode-range="U+0020-FB06"
  />
<missing-glyph horiz-adv-x="500" 
d="M0 0v700h500v-700h-500zM250 395l170 255h-340zM280 350l170 -255v510zM80 50h340l-170 255zM50 605v-510l170 255z" />
    <glyph glyph-name="AE" unicode="AE" horiz-adv-x="969" 
d="M702 320h-156v-259q17 -12 107 -12h66q55 0 78 6.5t52 24.5q35 20 75 96h34l-49 -176h-537v32q55 0 68 7.5t13 43.5v130h-218q-3 -5 -25.5 -41t-43.5 -69.5t-22 -36.5t-1 -9q0 -25 57 -25v-32h-199v32q21 0 32 2t24.5 14.5t21 24t32 47.5t47.5 68l230 406q-35 33 -35 53
q0 13 19 13h530v-151h-27q-16 70 -42 86t-114 16h-142q-19 0 -31 -10v-229h158q61 0 80.5 15t30.5 77h28v-236h-27q-13 49 -33 79zM261 261h192l-3 314q-24 -24 -88.5 -134.5t-100.5 -179.5z" />
    <glyph glyph-name="ae" unicode="ae" horiz-adv-x="672" 
d="M154 336q-11 -33 -45 -38q-30 0 -39 11.5t-9 39.5q0 41 31 67.5t65.5 34.5t70.5 8q30 0 51 -5t32 -11t37 -23q65 39 122 39q66 -1 114 -34.5t49 -103.5v-7q0 -19 -6.5 -31.5t-15.5 -12.5h-246v-23q0 -197 128 -197h3q14 0 26 1t24.5 6t19 6.5t21 11t17.5 11.5t20.5 15
t20.5 15q3 0 6 -6t3 -10q-27 -49 -76.5 -80t-98.5 -31q-105 0 -161 71q-1 0 -1 1q-34 -25 -53 -37.5t-48 -23.5t-58 -11q-56 0 -87.5 31t-31.5 84q0 17 5 31t17.5 26t25 21t37 19.5t43.5 18t54 20.5t60 23v142q-20 20 -63 20q-24 0 -53 -13t-29 -31q0 -9 4.5 -20t9.5 -18z
M299 97q-16 39 -16 79v44q-12 -5 -45 -17t-45 -18t-31 -17t-26 -23.5t-8 -28.5q0 -28 20.5 -47t49.5 -19q63 0 101 47zM494 310q16 0 28.5 8.5t12.5 22.5q0 34 -24 55.5t-54 24.5q-83 0 -89 -111h126z" />
    <glyph glyph-name="OE" unicode="OE" horiz-adv-x="944" 
d="M360 666q19 0 87 -3t91 -3h340v-149h-29q-11 70 -43 86t-128 16h-109q-10 -8 -10 -16v-227h106q46 0 73 5t40 19t17 27.5t7 43.5h23v-239h-23q-10 59 -29.5 77.5t-70.5 18.5h-143v-235q0 -23 12.5 -30t47.5 -7l126 1q61 0 104 48q9 13 26.5 39.5t24.5 36.5h31l-49 -175
h-365q-45 0 -83.5 -2t-60 -3.5t-26.5 -1.5q-59 0 -112.5 19t-98.5 57t-72 104t-27 151q0 184 82.5 260.5t240.5 81.5zM455 523q0 21 -5.5 38t-14.5 27t-20 17t-22 9.5t-20 4t-15 1.5h-6q-197 -8 -197 -296q0 -131 49.5 -206t144.5 -75q18 0 31.5 0.5t24 3.5t17.5 4t12.5 7.5
t8 9t5 13t3 14t2 18.5t2.5 21v389z" />
    <glyph glyph-name="oe" unicode="oe" horiz-adv-x="828" 
d="M592 414q-93 0 -109 -102h194q17 11 17 28q0 26 -31 49.5t-71 24.5zM771 270h-290q6 -96 15 -126q26 -89 124 -89h16q46 0 76 11.5t80 45.5q4 0 10.5 -4t6.5 -8q-26 -48 -80 -79t-105 -32h-3q-58 0 -112 26t-77 69q-29 -43 -76 -69t-91 -26q-97 0 -159.5 68.5
t-62.5 165.5q0 115 63.5 176t159.5 61q55 0 101.5 -24.5t66.5 -68.5q43 46 86.5 69t102.5 23q62 0 113.5 -35t52.5 -103q-2 -51 -18 -51zM270 423q-54 0 -94 -64.5t-40 -138.5q0 -72 40 -131.5t94 -59.5q55 0 95 59t40 132q0 74 -40.5 138.5t-94.5 64.5z" />
    <glyph glyph-name="f_j" unicode="fj" horiz-adv-x="590" 
d="M349 408h-150v-301q0 -24 4 -38.5t8.5 -22.5t19.5 -12t25.5 -4.5t38.5 -1.5v-28h-269v28q49 2 67.5 16t18.5 63v301h-85v41h85q0 110 23 153q19 35 65 66.5t93 31.5q61 0 120.5 -19t59.5 -48q0 -20 -11 -33.5t-30 -13.5q-22 0 -73.5 37.5t-68.5 38.5q-33 0 -62 -22.5
t-29 -61.5v-129h132q6 0 31 -0.5t42 -0.5q71 0 108 11l5 -7v-483q0 -219 -173 -219q-43 0 -71 16t-28 43q0 20 12 32.5t33 12.5q25 0 46 -36q21 -23 45 -23q31 0 39.5 30.5t8.5 98.5v370q0 4 0.5 10t0.5 9q0 41 -18 64t-63 31z" />
    <glyph glyph-name="f_f_j" unicode="ffj" horiz-adv-x="854" 
d="M191 408v-301q0 -20 1.5 -33t8 -22t10.5 -13t19 -6.5t24 -3t33 -1.5v-28h-269v28q3 0 7 -0.5t6 -0.5q45 0 58.5 17t13.5 63v301h-84v41h84q0 98 24 143q19 37 64 67.5t89 30.5q49 0 81 -20t32 -47q0 -20 -11 -33.5t-30 -13.5q-22 0 -53.5 37.5t-48.5 38.5q-59 0 -59 -84
v-119h224q0 108 24 153q18 35 64.5 66.5t92.5 31.5q62 0 121.5 -19t59.5 -48q0 -20 -11 -33.5t-30 -13.5q-23 0 -74 37.5t-68 38.5q-33 0 -62 -22.5t-29 -61.5v-129h132q6 0 30.5 -0.5t41.5 -0.5q71 0 108 11l6 -7v-483q0 -219 -174 -219q-42 0 -70 16t-28 43q0 20 12 32.5
t33 12.5q24 0 45 -36q23 -23 46 -23q30 0 39 31t9 98v370q0 4 0.5 10t0.5 9q0 41 -18 64t-63 31h-150v-301q0 -24 4 -38.5t8.5 -22.5t19.5 -12t25.5 -4.5t38.5 -1.5v-28h-269v28q48 2 66.5 16t18.5 63v301h-224z" />
    <glyph glyph-name="f_f" unicode="ff" horiz-adv-x="713" 
d="M706 633q0 -20 -11 -33.5t-30 -13.5q-22 0 -53.5 37.5t-48.5 38.5q-59 0 -59 -84v-129h128v-41h-128v-301q0 -20 1.5 -33t8 -22t10.5 -13t19 -6.5t24 -3t33 -1.5v-28h-269v28q50 0 67.5 13.5t17.5 53.5v313h-225v-301q0 -20 1.5 -33t8 -22t10.5 -13t19 -6.5t24 -3
t33 -1.5v-28h-269v28q3 0 7 -0.5t6 -0.5q45 0 58.5 17t13.5 63v301h-84v41h84q0 98 24 143q19 37 64 67.5t89 30.5q49 0 81 -20t32 -47q0 -20 -11 -33.5t-30 -13.5q-22 0 -53.5 37.5t-48.5 38.5q-59 0 -59 -84v-119h225q0 108 24 153q19 37 64 67.5t89 30.5q49 0 81 -20
t32 -47z" />
    <glyph glyph-name="f_i" unicode="fi" horiz-adv-x="599" 
d="M340 408h-141v-301q0 -24 4 -38.5t8.5 -22.5t19.5 -12t25.5 -4.5t38.5 -1.5v-28h-269v28q50 2 66.5 15.5t19.5 63.5v301h-85v41h85q0 110 23 153q53 98 198 98q50 0 82 -20t32 -47q0 -20 -11 -33.5t-30 -13.5q-18 0 -36 18.5t-35 37.5t-32 20q-46 -2 -75 -23t-29 -61
v-129l232 -1l75 11l6 -8v-346q0 -12 1 -20.5t1 -16t3.5 -12.5t4 -9t6.5 -7t7 -4.5t10.5 -3t11.5 -1.5t14.5 -1.5t16.5 -1.5v-28h-248v28q48 0 66.5 15.5t18.5 61.5v226q0 77 -85 77z" />
    <glyph glyph-name="f_l" unicode="fl" horiz-adv-x="646" 
d="M135 602q21 39 66.5 68.5t86.5 29.5q30 0 63.5 -12t42.5 -26v-1q75 15 157 39l8 -2v-612q0 -36 13.5 -44.5t63.5 -13.5v-28h-247v28q48 0 65.5 11t17.5 50v487q0 36 -11.5 44.5t-56.5 8.5q-1 -19 -12.5 -31t-31.5 -12q-22 0 -53 37.5t-49 38.5q-59 0 -59 -84v-129h128
v-41h-128v-301q0 -24 4 -38.5t8.5 -22.5t19.5 -12t25.5 -4.5t38.5 -1.5v-28h-269v28q54 1 70 16.5t16 62.5v301h-85v41h85q0 110 23 153z" />
    <glyph glyph-name="f_f_i" unicode="ffi" horiz-adv-x="863" 
d="M393 623q0 -20 -11 -33.5t-30 -13.5q-22 0 -53.5 37.5t-48.5 38.5q-59 0 -59 -84v-119h208q0 108 24 153q19 36 67 67t93 31q52 0 92 -20.5t40 -46.5q0 -20 -10.5 -33.5t-30.5 -13.5q-22 0 -62.5 37.5t-58.5 38.5q-30 0 -48 -21.5t-18 -62.5v-129h249l44 10l5 -8v-346
q0 -12 1 -20.5t1 -16t3.5 -12.5t4 -9t6.5 -7t7.5 -4.5t10.5 -3t11 -1.5t14.5 -1.5t16.5 -1.5v-28h-248v28q6 -1 16 -1q35 0 50.5 16t18.5 62v226q0 16 -2 26.5t-9 23.5t-24 20t-44 7h-132v-301q0 -24 4 -38.5t8.5 -22.5t19.5 -12t25.5 -4.5t38.5 -1.5v-28h-269v28
q49 0 66.5 13.5t18.5 65.5v301h-208v-301q0 -20 1.5 -33t8 -22t10.5 -13t19 -6.5t24 -3t33 -1.5v-28h-270v28q7 -1 19 -1q36 0 51.5 16.5t15.5 63.5v301h-84v41h84q0 98 24 143q19 37 64 67.5t89 30.5q49 0 81 -20t32 -47z" />
    <glyph glyph-name="f_f_l" unicode="ffl" horiz-adv-x="912" 
d="M446 612q21 39 66.5 68.5t86.5 29.5q29 0 61 -12t41 -26v-1q38 8 74 22t46 17l7 -2v-622q0 -36 13.5 -44.5t63.5 -13.5v-28h-246v28q45 0 63 11.5t19 49.5v497q0 35 -6.5 44t-23.5 9q-2 -43 -39 -43q-18 0 -36 18.5t-35 37.5t-32 20q-58 0 -58 -84v-107h127v-41h-127
v-333q0 -20 1.5 -33t8 -22t10.5 -13t19 -6.5t24 -3t33 -1.5v-28h-270v28q3 0 8 -0.5t8 -0.5q40 0 55 17.5t15 66.5v297h-232v-301q0 -20 1.5 -33t8 -22t10.5 -13t19 -6.5t24 -3t33 -1.5v-28h-269v28q50 0 67.5 13t17.5 66v301h-84v41h84q0 91 33 153q19 37 64 67.5t89 30.5
q49 0 81 -20t32 -47q0 -20 -10.5 -33.5t-30.5 -13.5q-22 0 -53 37.5t-49 38.5q-29 0 -48 -28.5t-20 -71.5v-113h232q0 120 23 163z" />
    <glyph glyph-name=".notdef" horiz-adv-x="500" 
d="M0 0v700h500v-700h-500zM250 395l170 255h-340zM280 350l170 -255v510zM80 50h340l-170 255zM50 605v-510l170 255z" />
    <glyph glyph-name=".null" horiz-adv-x="0" 
 />
    <glyph glyph-name="nonmarkingreturn" horiz-adv-x="333" 
 />
    <glyph glyph-name="space" unicode=" " horiz-adv-x="285" 
 />
    <glyph glyph-name="exclam" unicode="!" horiz-adv-x="275" 
d="M86 589q0 31 17.5 53.5t38.5 28.5q55 0 55 -85q-2 -17 -24 -208t-24 -206h-19q-44 390 -44 417zM85 56q0 25 15.5 42.5t36.5 17.5q22 0 36.5 -18t14.5 -42q0 -26 -15.5 -43t-35.5 -17q-22 0 -37 18t-15 42z" />
    <glyph glyph-name="quotedbl" unicode="&#x22;" horiz-adv-x="403" 
d="M119 421h-30q-38 170 -38 205q0 21 16.5 33t38.5 12q16 0 30.5 -8t14.5 -20q0 -11 -16 -115.5t-16 -106.5zM325 421h-32q-37 173 -37 205q0 21 16.5 33t37.5 12q15 0 30.5 -8t15.5 -21t-15.5 -116t-15.5 -105z" />
    <glyph glyph-name="numbersign" unicode="#" horiz-adv-x="541" 
d="M355 395h-133q-2 -5 -12 -59.5t-11 -59.5h134q1 5 11 59.5t11 59.5zM357 0h-62l29 210h-132l-35 -210h-64l34 210h-110v66h120q1 5 6 31.5t10 56t5 31.5h-112v64h118q3 3 10.5 47.5t16 96.5t8.5 54h63l-33 -198h132q6 10 30 198h64l-29 -198h101v-64h-107l-22 -119h103
v-66h-110q-19 -77 -34 -210z" />
    <glyph glyph-name="dollar" unicode="$" horiz-adv-x="482" 
d="M222 414v208q-103 -23 -103 -94q0 -33 20.5 -55t82.5 -59zM377 132q0 20 -1.5 33.5t-9 27t-11.5 20t-23.5 21t-28.5 20.5t-41 27v-242q55 11 83 33t32 60zM427 276q33 -37 33 -105q0 -48 -25 -84t-61 -53.5t-65 -25.5t-47 -8v-71l-40 -12v83q-47 2 -101 17t-88 37v133h18
q34 -148 171 -148v264q-180 110 -180 202q0 59 44 104t136 49v68l40 15v-82q118 -14 165 -55v-117h-19q-20 99 -102 132q-4 1 -11.5 1.5t-17.5 1t-15 0.5v-231q33 -18 74 -46.5t66 -48.5z" />
    <glyph glyph-name="percent" unicode="%" horiz-adv-x="780" 
d="M755 304q4 -21 4 -46q0 -95 -62.5 -176.5t-148.5 -81.5q-60 0 -91 36.5t-31 94.5q0 100 72 171t167 71q70 0 90 -69zM665 92q57 74 65 148q-4 94 -68 94q-51 0 -102 -62.5t-53 -141.5q0 -91 56 -91q38 0 102 53zM165 551q-72 -101 -72 -155q0 -45 49 -67q67 8 110 43
t58.5 77.5t15.5 92.5q0 25 -4 42q-33 16 -65 16q-57 0 -92 -49zM575 671h47l-402 -685h-59l359 603q-62 -22 -101 -22t-63 6v-33q0 -93 -62.5 -175.5t-146.5 -82.5q-54 0 -89.5 39t-35.5 91q0 88 74 166.5t155 78.5q9 0 65 -26q54 -27 100 -27q62 0 159 67z" />
    <glyph glyph-name="ampersand" unicode="&#x26;" horiz-adv-x="759" 
d="M737 124l20 -18q-28 -56 -69.5 -88t-90.5 -32q-36 0 -84.5 24.5t-87.5 60.5q-121 -85 -214 -85q-41 0 -75 14t-54.5 33.5t-34.5 42.5t-19.5 40t-5.5 26q0 45 15.5 81.5t46.5 63.5t58.5 44t68.5 39l12 6q-35 87 -35 139q0 62 44 109t117 47q57 0 97.5 -35t40.5 -90
q0 -54 -40 -93t-116 -76q66 -118 130 -189q97 118 97 168q0 39 -69 39v32h227v-32q-60 -4 -69 -17l-56 -81q-45 -75 -103 -146q75 -84 158 -84q15 2 48 18t43 39zM173 75q41 -25 80 -25q56 0 141 59q-36 39 -84 108.5t-70 113.5q-121 -68 -121 -153q0 -55 54 -103zM313 421
q49 25 80.5 58.5t31.5 64.5q0 84 -73 84q-38 0 -61 -21t-23 -64q0 -49 45 -122z" />
    <glyph glyph-name="quotesingle" unicode="'" horiz-adv-x="182" 
d="M106 421h-21q-33 168 -33 205q0 22 13.5 33.5t32.5 11.5q10 0 24 -8t14 -21q0 -11 -15 -115t-15 -106z" />
    <glyph glyph-name="parenleft" unicode="(" horiz-adv-x="308" 
d="M141 551q38 42 150 121l11 -26q-113 -88 -145.5 -161.5t-32.5 -229.5q0 -145 34 -232t134 -167q1 -2 5 -4.5t5 -3.5l-16 -24q-63 23 -124.5 107t-95.5 174.5t-34 146.5q0 155 109 299z" />
    <glyph glyph-name="parenright" unicode=")" horiz-adv-x="307" 
d="M21 -176l-11 27q74 57 110.5 104t53 113.5t16.5 175.5q0 154 -43 244.5t-137 159.5l16 26q31 0 90.5 -68t110.5 -172t52 -187q0 -63 -7 -112t-24 -88.5t-35 -67.5t-52 -57t-62.5 -48.5t-77.5 -49.5z" />
    <glyph glyph-name="asterisk" unicode="*" horiz-adv-x="415" 
d="M220 439q0 -35 13 -80.5t13 -54.5q0 -46 -39 -46q-35 0 -35 44q0 8 14 60t14 74q0 4 -6 4q-1 0 -1 -1q-24 -13 -47 -29q-1 -1 -7.5 -9.5t-10.5 -12.5t-11.5 -12t-13 -13t-12.5 -10t-13.5 -7.5t-12.5 -2.5q-29 4 -34 39q0 19 16 32.5t35.5 19.5t52 15.5t48.5 15.5
q-21 13 -61 24t-64.5 23t-26.5 35q0 13 10 27t21 14q21 0 48 -34q72 -68 79 -68q4 0 4 7q0 20 -9.5 71.5t-9.5 67.5q0 18 11 28.5t25 10.5q27 0 38 -26l-2 2v-4q0 -27 -12.5 -76.5t-13.5 -63.5q1 -2 3 -7t3 -7q19 12 46 38t47.5 44.5t31.5 18.5q34 0 34 -44q0 -32 -28 -43
q-103 -26 -126 -40q41 -24 97 -30q6 -2 19 -6t17.5 -6t11 -7.5t8.5 -13.5t2 -21q0 -33 -32 -38q-17 0 -63.5 43t-70.5 55z" />
    <glyph glyph-name="plus" unicode="+" horiz-adv-x="549" 
d="M537 214h-226v-214h-71v214h-224v77h224v214h71v-214h226v-77z" />
    <glyph glyph-name="comma" unicode="," horiz-adv-x="229" 
d="M71 -141l-11 31q86 56 86 104q0 2 -8 5t-15 3q-13 0 -17 -8q-23 0 -43 14.5t-20 41.5q0 61 63 61q33 0 58 -27.5t25 -63.5q0 -56 -36.5 -98t-81.5 -63z" />
    <glyph glyph-name="hyphen" unicode="-" horiz-adv-x="381" 
d="M322 188h-258v75h258v-75z" />
    <glyph glyph-name="period" unicode="." horiz-adv-x="240" 
d="M118 119q25 0 45.5 -19t20.5 -47q0 -25 -19 -45.5t-47 -20.5q-25 0 -45.5 19t-20.5 47q0 27 20 46.5t46 19.5z" />
    <glyph glyph-name="slash" unicode="/" horiz-adv-x="326" 
d="M321 671l-238 -686h-75l238 686h75z" />
    <glyph glyph-name="zero" unicode="0" horiz-adv-x="610" 
d="M541 326q0 -60 -13 -118t-39.5 -109t-73 -82.5t-107.5 -31.5q-60 0 -107 31.5t-74 83t-40.5 111t-13.5 122.5q0 89 24.5 163.5t80.5 124.5t134 50q59 0 105 -33t72 -86t39 -111t13 -115zM310 634q-56 0 -92.5 -77t-44.5 -199v-12q0 -36 4 -78.5t16 -103t42 -100t73 -39.5
q133 0 133 299q-6 302 -131 310z" />
    <glyph glyph-name="one" unicode="1" horiz-adv-x="363" 
d="M339 0h-290v28q61 2 80 14t19 54v444q0 38 -32 38q-5 0 -76 -25v28l188 90l9 -2v-593q0 -29 17.5 -38t84.5 -10v-28z" />
    <glyph glyph-name="two" unicode="2" horiz-adv-x="543" 
d="M314 242q-15 -14 -87.5 -84.5t-75.5 -73.5h240q18 0 30.5 2.5t22 10t14 13t14.5 20t16 22.5l18 -9l-58 -143h-405v19l185 185q57 61 93.5 129.5t38.5 120.5q0 78 -33 118t-83 40q-51 0 -99.5 -38.5t-75.5 -109.5h-26q14 59 38 100.5t56 62.5t59 30t63 14q78 -2 134 -52.5
t56 -125.5q0 -54 -36 -121t-99 -130z" />
    <glyph glyph-name="three" unicode="3" horiz-adv-x="508" 
d="M410 533q0 -32 -26.5 -71t-59.5 -64q121 -59 121 -180q0 -78 -43.5 -132.5t-105 -77.5t-132.5 -23q-28 0 -52 4.5t-44.5 18t-20.5 35.5q0 43 35 43q20 0 71.5 -26t82.5 -26q59 0 97.5 41t38.5 98q0 35 -11 68t-42 60.5t-77 27.5q-29 0 -86 -30v47q27 9 61 26.5t55 30
t24 15.5q33 32 33 76t-28.5 74t-86.5 30q-96 0 -148 -98l-23 1q16 78 74.5 124t132.5 46q70 0 115 -36t45 -102z" />
    <glyph glyph-name="four" unicode="4" horiz-adv-x="548" 
d="M513 163h-103v-163h-84v163h-290v71l325 437h49v-434h103v-74zM87 237h237v311z" />
    <glyph glyph-name="five" unicode="5" horiz-adv-x="516" 
d="M453 683q8 -4 12 -7l-45 -93q-4 -13 -22 -13h-204l-38 -72q53 -9 94 -21.5t88 -37t76 -67t34 -99.5q0 -74 -21 -129t-51 -84.5t-71.5 -47.5t-72.5 -22.5t-64 -4.5q-58 0 -92.5 17.5t-34.5 50.5q0 18 11.5 29t32.5 11q20 0 77 -29t72 -29q60 0 101.5 49t41.5 110
t-46 110.5t-106 73t-116 23.5q-27 0 -53 -10l133 269h216l23 12q23 11 25 11z" />
    <glyph glyph-name="six" unicode="6" horiz-adv-x="570" 
d="M306 25q40 2 75 47t36 113q0 40 -14.5 85.5t-49 82.5t-79.5 37q-43 0 -87 -25q-11 -9 -17.5 -58t-6.5 -89q0 -16 6.5 -40.5t21 -56.5t45 -59t70.5 -37zM491 679v-28q-244 -35 -300 -240q66 38 139 38q85 0 133 -69t48 -162q0 -100 -60 -166t-138 -66q-64 0 -113 24.5
t-73.5 56.5t-39.5 72.5t-18.5 64.5t-3.5 41q0 102 41.5 187.5t106.5 137.5t137.5 80.5t140.5 28.5z" />
    <glyph glyph-name="seven" unicode="7" horiz-adv-x="517" 
d="M52 494l-23 14l61 152h386v-24l-215 -607l23 -28h-100l207 574h-221q-36 -1 -60 -14.5t-33.5 -26t-24.5 -40.5z" />
    <glyph glyph-name="eight" unicode="8" horiz-adv-x="541" 
d="M234 302q-83 -80 -83 -157q0 -59 40 -88.5t94 -29.5t82.5 28t30.5 71q0 31 -41 75t-80.5 72.5t-42.5 28.5zM320 365q90 -63 123.5 -108t33.5 -97q0 -74 -54.5 -124.5t-150.5 -50.5q-197 0 -197 169q0 31 9.5 56t32.5 48t38.5 35.5t48.5 35.5q-5 4 -22 17.5t-20.5 16.5
l-17.5 15t-17 16t-13 15t-12.5 17t-8 17t-7 20.5t-3.5 21.5t-2 26q0 55 32.5 93t75.5 52.5t90 14.5q70 0 122.5 -40t52.5 -103q0 -23 -6.5 -43t-12.5 -32t-24 -27.5t-26 -21t-33.5 -20.5t-31.5 -19zM268 632q-48 0 -79 -28t-31 -62q0 -26 42 -72t86 -79l11 7q85 53 85 131
q0 38 -30.5 70.5t-83.5 32.5z" />
    <glyph glyph-name="nine" unicode="9" horiz-adv-x="568" 
d="M91 -23l-2 33q244 39 307 256q-86 -48 -147 -48q-87 0 -136 62.5t-49 153.5q0 105 61 171t153 66q96 0 162 -78t66 -202q0 -94 -35 -172t-94 -128t-132 -79t-154 -35zM158 467q0 -79 35 -137t93 -58q55 0 104 34q15 13 15 58q0 137 -31.5 202.5t-104.5 65.5
q-111 0 -111 -165z" />
    <glyph glyph-name="colon" unicode=":" horiz-adv-x="239" 
d="M120 472q26 0 45.5 -18t19.5 -45q0 -25 -19 -45t-46 -20q-26 0 -46 18.5t-20 45.5t19.5 45.5t46.5 18.5zM115 115q25 0 45.5 -19t20.5 -47q0 -25 -19 -45.5t-47 -20.5q-25 0 -45.5 19t-20.5 47q0 27 20 46.5t46 19.5z" />
    <glyph glyph-name="semicolon" unicode=";" horiz-adv-x="243" 
d="M117 469q28 0 48 -21t20 -46q0 -28 -21.5 -48.5t-47.5 -20.5q-28 0 -47.5 21t-19.5 47q0 29 21 48.5t47 19.5zM57 -110q92 58 92 99q0 13 -12 13q-6 0 -17 -4l-10 -4q-62 7 -70 57q0 29 23 44.5t47 15.5q36 0 58 -26t22 -65q-1 -26 -8.5 -47.5t-22.5 -39t-25.5 -27.5
t-32.5 -26t-29 -21z" />
    <glyph glyph-name="less" unicode="&#x3c;" horiz-adv-x="576" 
d="M545 71v-85l-526 228v77l526 227v-85l-424 -180z" />
    <glyph glyph-name="equal" unicode="=" horiz-adv-x="645" 
d="M585 310h-521v78h521v-78zM585 117h-521v74h521v-74z" />
    <glyph glyph-name="greater" unicode="&#x3e;" horiz-adv-x="576" 
d="M34 433v85l527 -227v-77l-527 -228v85l423 182q-19 8 -114.5 48t-185 78.5t-123.5 53.5z" />
    <glyph glyph-name="question" unicode="?" horiz-adv-x="453" 
d="M275 50q0 -58 -56 -58q-54 0 -54 57q0 30 16 44.5t40 14.5q21 0 37.5 -17t16.5 -41zM402 514q0 -45 -34 -104.5t-77.5 -128.5t-58.5 -120h-23q1 35 21.5 99.5t40.5 107.5q37 81 37 151q0 48 -33.5 79.5t-77.5 31.5q-32 0 -65 -14.5t-33 -41.5q0 -6 21 -33t21 -38
q0 -6 -0.5 -11t-1 -8.5t-3 -7t-3 -5.5t-4.5 -4.5t-5 -3t-6.5 -2.5t-6 -2t-7.5 -2t-8 -2q-50 0 -50 70t52.5 108t116.5 38q74 0 130.5 -40.5t56.5 -116.5z" />
    <glyph glyph-name="at" unicode="@" horiz-adv-x="694" 
d="M449 421q-15 36 -52 36q-53 0 -83 -58t-30 -128q0 -36 16.5 -58t40.5 -22q35 0 64 50q1 1 22 89.5t22 90.5zM561 82l11 -36q-116 -61 -202 -61q-145 0 -242.5 97t-98.5 240q4 153 105.5 251t231.5 98q73 0 138.5 -31t113 -99.5t53.5 -161.5q0 -88 -50 -163.5t-121 -75.5
q-12 0 -23 2.5t-19 7t-15.5 10t-12 11t-9 11.5t-7 10.5t-4.5 7.5l-1 4q-48 -58 -111 -63q-39 0 -59.5 34t-20.5 81q0 79 55 165t126 86q11 0 25 -7.5t23 -15.5l9 -7q18 14 19 17h69q-65 -269 -65 -273q0 -37 34 -37q51 0 86 63t35 122q0 112 -83.5 186t-182.5 74
q-87 0 -148.5 -45.5t-88 -113.5t-26.5 -151q0 -121 77.5 -202t196.5 -81q66 0 182 46z" />
    <glyph glyph-name="A" unicode="A" horiz-adv-x="720" 
d="M329 511q-8 -19 -56 -125t-57 -123h229q-2 4 -57.5 122.5t-58.5 125.5zM136 66q0 -34 74 -34v-32h-208v32q42 0 61.5 24.5t66.5 131.5l170 382l-36 52l107 51l257 -561q29 -52 45 -66t50 -14v-32h-270v32q30 0 50.5 8.5t24.5 18.5q0 18 -21 61l-45 93h-265
q-2 -5 -17.5 -41.5t-29.5 -69.5t-14 -36z" />
    <glyph glyph-name="B" unicode="B" horiz-adv-x="645" 
d="M18 660h292q271 0 271 -171q0 -109 -121 -142q65 -16 111.5 -57t46.5 -108q0 -78 -61 -128t-170 -54h-369v32q68 0 84 15t16 65v437q-2 43 -26 61t-74 20v30zM249 51l41 -2q106 0 157 31.5t51 100.5q0 37 -25.5 68t-63.5 51q-62 19 -182 19v-236q0 -7 5.5 -15t11.5 -12z
M476 484q0 68 -48.5 98t-148.5 30h-33q-19 0 -19 -21v-221h97q71 0 111.5 31.5t40.5 82.5z" />
    <glyph glyph-name="C" unicode="C" horiz-adv-x="690" 
d="M654 675v-234h-29q-31 94 -78 138.5t-141 44.5q-119 0 -183.5 -81.5t-64.5 -204.5q0 -145 65 -222.5t161 -77.5q137 0 241 87q5 4 13 11l8 7l23 -26q-52 -64 -128.5 -98t-156.5 -34q-155 0 -251 89.5t-96 249.5q0 165 98 255.5t251 95.5q52 0 115 -18t75 -18q31 0 42 36
h36z" />
    <glyph glyph-name="D" unicode="D" horiz-adv-x="747" 
d="M19 630v30h282q195 0 306 -88t111 -238q-24 -334 -402 -334h-297v32q52 3 72 21t20 59v437q0 45 -21.5 63t-70.5 18zM475 88q57 36 91 99t34 139q0 125 -91.5 213.5t-209.5 88.5q-78 0 -79 -46v-499q0 -32 24 -32q37 0 65 0.5t50 3t34 3.5t27 6t18.5 6t18.5 9t18 9z" />
    <glyph glyph-name="E" unicode="E" horiz-adv-x="642" 
d="M19 660h556v-151h-26q-16 70 -42.5 86t-114.5 16h-142q-18 0 -30 -10v-229h170q52 0 73.5 18.5t24.5 73.5h29v-236h-28q-2 23 -5.5 37t-14 28.5t-32 21.5t-54.5 7l-163 -2v-259q16 -12 107 -12h28q110 0 155.5 23.5t87.5 103.5h34l-49 -176h-564v32q57 3 74 16.5t17 63.5
v437q0 49 -19.5 65t-71.5 16v30z" />
    <glyph glyph-name="F" unicode="F" horiz-adv-x="599" 
d="M575 660v-151h-26q-16 70 -42.5 86t-114.5 16h-143q-17 0 -29 -10v-229h149q62 0 83.5 18t26.5 74h29v-236h-29q-2 54 -28 73t-82 19h-149v-216q0 -45 18 -57.5t74 -14.5v-32h-293v32q59 0 75 18t16 73v426q0 51 -19.5 66t-71.5 15v30h556z" />
    <glyph glyph-name="G" unicode="G" horiz-adv-x="751" 
d="M386 675q66 0 127 -16.5t67 -16.5q10 0 23.5 13t18.5 20h36v-221h-27q-6 58 -80.5 114t-144.5 56h-3q-48 0 -88 -15.5t-66.5 -41t-46 -55.5t-29.5 -62.5t-15 -58t-5 -45.5q0 -144 70 -226.5t205 -82.5q49 0 94 16.5t45 33.5v162q0 48 -15 62t-79 19v30h270v-30
q-47 -4 -61 -17.5t-14 -53.5v-200q-32 -29 -118 -51.5t-144 -22.5q-158 0 -264 89.5t-106 249.5q0 156 99.5 253.5t250.5 97.5z" />
    <glyph glyph-name="H" unicode="H" horiz-adv-x="747" 
d="M732 660v-30q-64 -4 -79.5 -15.5t-15.5 -65.5v-437q0 -48 17 -62.5t78 -17.5v-32h-295v32q56 2 74.5 18.5t18.5 72.5v186h-312v-197q0 -49 14.5 -62.5t77.5 -17.5v-32h-292v32q60 3 76 18.5t16 72.5v440q0 39 -15.5 53t-76.5 14v30h292v-30q-59 -3 -71 -11
q-21 -14 -21 -70v-185h312v185q0 52 -17 65t-76 16v30h295z" />
    <glyph glyph-name="I" unicode="I" horiz-adv-x="340" 
d="M327 660v-30q-66 -2 -84.5 -14t-18.5 -67v-437q0 -50 20.5 -65t82.5 -15v-32h-313v32h6q54 0 76 17t22 60v440q0 28 -7.5 45.5t-24.5 24.5t-31.5 9t-40.5 2v30h313z" />
    <glyph glyph-name="J" unicode="J" horiz-adv-x="392" 
d="M62 117q19 0 32.5 -12.5t19 -27.5t13.5 -28t18 -14q22 0 29.5 13t7.5 44v457q0 54 -16.5 66t-80.5 15v30h301v-30q-61 -4 -74 -11q-21 -12 -21 -52v-382q0 -93 -47.5 -146.5t-129.5 -53.5q-47 0 -74.5 20.5t-27.5 58.5q0 23 12.5 38t37.5 15z" />
    <glyph glyph-name="K" unicode="K" horiz-adv-x="734" 
d="M687 660v-30q-65 -5 -97 -24q0 -1 -126.5 -114t-131.5 -117l239 -243q61 -62 91 -81t75 -19v-32h-320v32h30q43 0 43 16q0 24 -47 74.5t-116 112t-80 73.5l-28 -17v-179q0 -50 15 -64.5t78 -15.5v-32h-293v32q62 3 77.5 16.5t15.5 53.5v447q0 51 -19.5 64.5t-73.5 16.5
v30h295v-30q-85 0 -95 -63v-205l185 149q78 73 78 95q0 24 -55 24h-15v30h275z" />
    <glyph glyph-name="L" unicode="L" horiz-adv-x="639" 
d="M634 182l-54 -182h-561v32q59 3 75 17.5t16 47.5v452q0 49 -19.5 65t-71.5 16v30h296v-30q-62 -4 -75 -13q-20 -13 -20 -68v-464q0 -21 15.5 -28t70.5 -7h71q115 0 180 52q14 15 42 80h35z" />
    <glyph glyph-name="M" unicode="M" horiz-adv-x="919" 
d="M812 549v-437q0 -48 16.5 -63.5t75.5 -16.5v-32h-292v32q53 0 73.5 18t20.5 65v427l-265 -542h-14l-260 519v-370q0 -40 4.5 -63t17.5 -34.5t29 -15t47 -4.5v-32h-248v32q70 3 86 24t16 93v400q0 14 -0.5 25t-4 19.5t-4.5 14t-8.5 9.5t-9.5 6t-14 3.5l-16 2t-20.5 1
t-22.5 0.5v30h208l242 -485q1 1 58.5 119t111.5 234t54 132h211v-30h-6q-5 -1 -13 -2.5t-17.5 -4.5t-19.5 -8.5t-18 -14t-13 -21.5t-5 -30z" />
    <glyph glyph-name="N" unicode="N" horiz-adv-x="750" 
d="M745 630q-65 -5 -84 -26t-19 -93v-523h-15l-460 535v-374q0 -53 10.5 -77.5t29 -31.5t59.5 -8v-32h-248v32q70 4 85.5 22.5t15.5 77.5v452q-24 46 -98 46h-3v30h177l400 -468v319q0 40 -4.5 63t-19 34.5t-29 15t-47.5 6.5v30h250v-30z" />
    <glyph glyph-name="O" unicode="O" horiz-adv-x="750" 
d="M377 675q145 0 243 -97.5t98 -251.5q0 -153 -101 -247t-245 -94q-88 0 -154.5 30t-105 80.5t-57.5 111.5t-19 130q0 153 99 245.5t242 92.5zM377 628q-114 0 -168 -84t-54 -216q2 -57 13.5 -106.5t35.5 -93t68 -69t104 -25.5q113 0 166.5 80.5t53.5 212.5
q-1 301 -214 301h-5z" />
    <glyph glyph-name="P" unicode="P" horiz-adv-x="585" 
d="M216 588v-246l25 -5t32 -4q181 0 181 138q0 141 -207 141q-6 -1 -13.5 -7t-12.5 -11t-5 -6zM19 660h276q48 0 91.5 -8t86.5 -26.5t68.5 -56.5t25.5 -92q0 -61 -27.5 -102.5t-74 -60.5t-89 -26t-91.5 -7q-13 0 -38.5 4t-30.5 5v-178q0 -55 18.5 -67.5t78.5 -12.5v-32h-294
v32q50 0 69.5 17.5t19.5 73.5v426q0 24 -1.5 37t-10 21t-14 10t-27.5 6t-36 7v30z" />
    <glyph glyph-name="Q" unicode="Q" horiz-adv-x="750" 
d="M379 628q-115 0 -170 -81.5t-55 -211.5t56 -215.5t166 -85.5q220 0 220 299q0 59 -10 108t-33 93t-67.5 69t-106.5 25zM649 -134q45 -10 83 -11v-28q-33 -1 -46 -1q-242 0 -360 121l-57 53v-1q-128 57 -179 128.5t-54 200.5q0 158 97.5 252.5t242.5 94.5
q146 0 243.5 -99.5t97.5 -244.5q0 -67 -18.5 -118.5t-46.5 -79.5t-61 -49.5t-61 -32.5t-46.5 -24t-18.5 -28q0 -1 7.5 -12t24 -29t37 -36t51.5 -34t64 -22z" />
    <glyph glyph-name="R" unicode="R" horiz-adv-x="689" 
d="M218 585v-237q30 0 49 1.5t51 5t53 12.5t42.5 23.5t32.5 38.5t11 55q0 128 -190 128q-31 0 -49 -27zM388 312q27 -32 60.5 -73.5t49.5 -60.5t41.5 -47t56.5 -56l94 -43v-32h-169l-249 302q-4 -2 -32 -2h-22v-188q0 -49 16 -64t76 -16v-32h-291v32q23 2 31 2.5t21.5 2.5
t17 6t9.5 9.5t7 16t2 22.5t1 32v426q0 45 -18.5 61.5t-70.5 19.5v30h289q49 0 92 -8t84 -26.5t65.5 -55t24.5 -88.5q0 -34 -12 -61t-28.5 -43t-45 -30t-48.5 -21t-52 -15z" />
    <glyph glyph-name="S" unicode="S" 
d="M284 -15q-53 0 -108.5 18t-62.5 18q-12 0 -20 -9t-8 -26h-28l-26 222h25q40 -98 86.5 -136t121.5 -38q61 0 93 32t32 78q0 41 -34 75t-82.5 60t-97.5 54t-83 71t-34 97q0 77 54.5 125.5t125.5 48.5q48 0 78 -5t39 -11.5t18.5 -11.5t21.5 -5q27 0 31 33h27l23 -222h-31
q-47 170 -187 170q-59 0 -79.5 -23.5t-20.5 -75.5q0 -34 144 -133q103 -61 133 -87q62 -55 62 -134q0 -86 -67 -135.5t-146 -49.5z" />
    <glyph glyph-name="T" unicode="T" horiz-adv-x="641" 
d="M506 607h-132v-495q0 -27 1.5 -38t11 -22.5t29.5 -15t57 -4.5v-32h-305v32q67 3 82 16t15 58v501l-111 1q-25 -1 -42 -7.5t-27 -21.5t-15 -26.5t-11.5 -35t-10.5 -34.5h-23v177h595v-177h-30q-16 59 -34.5 91.5t-49.5 32.5z" />
    <glyph glyph-name="U" unicode="U" horiz-adv-x="737" 
d="M585 248v263q0 72 -18 94t-80 25v30h245v-30q-67 -6 -84 -24.5t-17 -94.5v-255q0 -140 -63 -205.5t-201 -65.5q-262 0 -262 259v305q0 26 -1.5 39.5t-10 21.5t-14.5 9.5t-29.5 4.5t-40.5 6v30h297v-30q-10 -1 -27 -1t-23 -0.5t-16.5 -3t-13.5 -7.5t-7.5 -14t-5.5 -22
t-1 -33v-313q0 -103 41.5 -149t136.5 -46h4q114 0 152.5 44t38.5 163z" />
    <glyph glyph-name="V" unicode="V" horiz-adv-x="714" 
d="M202 604q0 -2 45.5 -98t96 -202.5t58.5 -123.5l152 347q18 49 18 69q0 34 -71 34h-6v30h217v-30q-41 0 -55.5 -12.5t-42.5 -74.5l-198 -477q-6 -38 -28 -78h-20l-258 544q-29 60 -48.5 78.5t-59.5 19.5v30h276v-30q-76 -10 -76 -26z" />
    <glyph glyph-name="W" unicode="W" horiz-adv-x="968" 
d="M327 -12h-17l-200 531q-29 64 -50.5 87.5t-56.5 23.5v30h258v-30q-54 -2 -69 -17q5 -65 56 -186t102 -219q4 10 49.5 129.5t54.5 136.5q-58 133 -75 146q-17 9 -57 10v30h281v-30q-77 -1 -82 -27q0 -3 38.5 -94.5t79.5 -190.5t46 -114q15 34 80.5 207t65.5 184
q0 7 -2 12.5t-7 9t-9.5 5.5t-12.5 3.5t-13 2t-14.5 1.5t-13.5 1v30h207v-30q-42 -6 -55 -16.5t-24 -41.5q-183 -466 -217 -584h-20l-165 407q-8 -24 -76.5 -200.5t-81.5 -206.5z" />
    <glyph glyph-name="X" unicode="X" horiz-adv-x="736" 
d="M614 99q28 -33 52.5 -47.5t64.5 -19.5v-32h-311v32q79 7 79 23q-3 7 -76.5 112.5t-77.5 110.5q-175 -182 -175 -218q-1 -2 -1 -5q0 -23 83 -23v-32h-246v32q44 2 62 17q34 28 72.5 69t102.5 115.5t78 90.5q-33 44 -123.5 158.5t-102.5 126.5q-33 21 -77 21v30h317v-30
h-31q-48 0 -48 -24q7 -14 64.5 -97.5t68.5 -96.5q31 35 93.5 110.5t62.5 82.5q0 13 -15.5 19t-58.5 6v30h251v-30q-55 -1 -93 -26q-8 -5 -61 -64.5t-102 -115.5l-50 -57q12 -19 61.5 -86t92.5 -125z" />
    <glyph glyph-name="Y" unicode="Y" horiz-adv-x="712" 
d="M56 613q-20 16 -55 17v30h292v-30q-21 0 -47 -6t-26 -18q0 -13 72 -114t100 -135q1 3 42.5 58.5t80 114t38.5 74.5q0 4 -15 9t-35 10.5t-24 6.5v30h232v-30q-24 -2 -40.5 -5t-25 -7t-11.5 -7t-6.5 -9t-5.5 -8l-211 -294v-188q0 -51 19 -65.5t90 -14.5v-32h-320v32
q56 0 80.5 17.5t24.5 73.5v168q-6 8 -77.5 102.5t-117.5 154.5t-54 65z" />
    <glyph glyph-name="Z" unicode="Z" horiz-adv-x="649" 
d="M629 184l-25 -184h-588v25l446 586h-219q-110 0 -143 -37q-14 -21 -30 -92h-31l20 178h548v-23l-442 -587h259q85 0 117.5 24t63.5 110h24z" />
    <glyph glyph-name="bracketleft" unicode="[" horiz-adv-x="292" 
d="M284 -153h-220v810h220v-35h-93q-43 -8 -48 -38v-653q0 -47 51 -47h90v-37z" />
    <glyph glyph-name="backslash" unicode="\" horiz-adv-x="328" 
d="M323 -15h-76l-237 686h74z" />
    <glyph glyph-name="bracketright" unicode="]" horiz-adv-x="290" 
d="M231 -153h-220v37h95q45 6 46 39v652q0 47 -49 47h-92v35h220v-810z" />
    <glyph glyph-name="asciicircum" unicode="^" horiz-adv-x="480" 
d="M93 291h-76l192 366h64l193 -366h-75l-150 271q-11 -19 -72.5 -133t-75.5 -138z" />
    <glyph glyph-name="underscore" unicode="_" horiz-adv-x="560" 
d="M569 -121h-574v60h574v-60z" />
    <glyph glyph-name="grave" unicode="`" horiz-adv-x="297" 
d="M274 514h-50l-158 94q-30 22 -30 48q4 37 37 37q11 0 201 -179z" />
    <glyph glyph-name="a" unicode="a" horiz-adv-x="478" 
d="M295 107v120q-110 -47 -140 -66t-30 -41q0 -33 22 -47t46 -14q26 0 60.5 12.5t41.5 35.5zM150 344q0 -45 -49 -45q-41 0 -41 46q0 49 47 81.5t124 32.5q78 0 114.5 -35t36.5 -124v-192q0 -26 5 -38t23 -12t49 23v-35q-21 -23 -53.5 -40t-41.5 -17q-25 0 -47 20.5
t-22 46.5q-90 -63 -148 -67q-48 0 -78.5 32.5t-30.5 78.5q0 13 2.5 23t9 19.5t13 17t20.5 16t25.5 15t34.5 16.5t41.5 17.5t51.5 21.5t59 25v79q-6 71 -77 76q-33 0 -57.5 -14.5t-24.5 -28.5q0 -10 7 -25z" />
    <glyph glyph-name="b" unicode="b" horiz-adv-x="515" 
d="M385 197q0 85 -36 138t-94 53q-41 0 -72 -20t-31 -50v-245q0 -13 33 -26t67 -13q60 0 96.5 42t36.5 121zM235 -11q-36 0 -68.5 11.5t-51.5 23t-23 11.5q-7 0 -13.5 -8.5t-10.5 -17.5t-5 -9v585q-2 41 -60 41h-7v38q40 5 147 36l9 -2v-305q54 66 142 66q73 0 128 -59
t55 -157q0 -107 -70.5 -180.5t-171.5 -73.5z" />
    <glyph glyph-name="c" unicode="c" horiz-adv-x="457" 
d="M319 376v4q0 41 -55 41h-3q-64 0 -102.5 -50.5t-38.5 -113.5q0 -82 37.5 -141.5t118.5 -59.5q20 0 38 3.5t29.5 7t26.5 11.5t20.5 11.5t20 14t16.5 12.5q3 0 6 -6t3 -10q-26 -47 -87 -79t-112 -32q-68 0 -130.5 62.5t-66.5 162.5q0 100 64.5 175.5t156.5 75.5
q68 0 116 -35t48 -77q-3 -27 -13.5 -35.5t-35.5 -10.5q-18 1 -32 18.5t-20 34.5z" />
    <glyph glyph-name="d" unicode="d" horiz-adv-x="538" 
d="M362 105v224q0 37 -32 65t-72 28q-52 0 -89 -46.5t-37 -128.5q0 -75 36 -134.5t106 -59.5h4q41 0 70 24q14 19 14 28zM442 700l8 -2v-580q0 -31 10 -41.5t37 -10.5q13 0 26 1v-25l-155 -53l-6 10v51q-63 -61 -141 -61q-69 0 -124 57t-55 155q0 105 62.5 181.5t151.5 76.5
q50 0 106 -54l3 173q0 22 -12 34t-24.5 14t-34.5 3v29q64 10 148 42z" />
    <glyph glyph-name="e" unicode="e" horiz-adv-x="465" 
d="M405 270h-287q0 -214 162 -214q34 0 59 7t39 16t46 33q4 0 9 -4t5 -8q-27 -47 -73.5 -79t-90.5 -32q-96 0 -164 67t-68 158q0 115 60 180t157 65q69 0 121.5 -39t52.5 -109q0 -41 -28 -41zM228 414q-41 0 -70.5 -25.5t-37.5 -76.5h181q29 9 29 30q0 30 -29.5 51t-72.5 21
z" />
    <glyph glyph-name="f" unicode="f" horiz-adv-x="339" 
d="M402 633q0 -20 -11 -33.5t-31 -13.5q-22 0 -53 37.5t-49 38.5q-59 0 -59 -84v-129h128v-41h-128v-301q0 -24 4 -38.5t8.5 -22.5t19.5 -12t25.5 -4.5t38.5 -1.5v-28h-269v28q49 2 67.5 16t18.5 63v301h-85v41h85q0 110 23 153q21 39 56.5 68t80.5 29q55 0 92.5 -18
t37.5 -48z" />
    <glyph glyph-name="g" unicode="g" horiz-adv-x="480" 
d="M132 327v-8q0 -69 28 -106.5t77 -37.5q38 2 54.5 22.5t21.5 63.5q0 32 -10 68.5t-35.5 67t-60.5 30.5q-27 -1 -51 -30t-24 -56v-14zM181 -250q-72 0 -124 29.5t-52 76.5q0 22 28 57t64 64q-23 1 -35 17.5t-12 35.5q0 54 86 125q-51 25 -70 61.5t-19 89.5q0 73 53.5 116
t117.5 43q16 0 54 -11.5t52 -11.5q7 -2 17.5 -6.5t20.5 -4.5q53 5 69 41l30 -39q-34 -49 -82 -53q13 -36 13 -78q0 -77 -46 -121t-112 -44q-11 0 -61 5q-13 -6 -36.5 -30t-23.5 -41q0 -11 18 -15.5t61 -6.5l132 -6q58 -3 91.5 -39.5t33.5 -90.5q0 -90 -64 -126.5t-184 -36.5
h-20zM218 -184q94 0 146.5 24.5t52.5 61.5q0 27 -38 41t-75 14q-114 0 -180 14l-8 -8q-7 -8 -15 -18t-17 -22.5t-15 -26t-6 -23.5q0 -57 155 -57z" />
    <glyph glyph-name="h" unicode="h" 
d="M19 626v32q91 17 147 42l8 -4v-310q67 73 149 73q126 0 126 -158v-196q0 -49 10 -60t55 -17v-28h-221v28q45 4 57.5 19t12.5 58v195q0 96 -76 96q-48 0 -102 -47q-7 -3 -11 -11v-239q0 -43 13.5 -57t55.5 -14v-28h-225v28q47 7 56.5 17.5t9.5 50.5v9l1 471q0 47 -66 50z
" />
    <glyph glyph-name="i" unicode="i" horiz-adv-x="280" 
d="M195 626q0 -28 -16 -44.5t-40 -16.5t-37.5 16t-13.5 42q0 23 15.5 39t35.5 16q55 -4 56 -52zM24 380v27l163 53l6 -9v-346q0 -12 1 -20.5t1 -16t3.5 -12.5t4 -9t6.5 -7t7.5 -4.5t10.5 -3t11 -1.5t14.5 -1.5t16.5 -1.5v-28h-248v28q41 0 63 14.5t22 57.5v231
q0 24 -11.5 38.5t-31.5 16.5z" />
    <glyph glyph-name="j" unicode="j" horiz-adv-x="246" 
d="M183 624q0 -59 -52 -59q-23 0 -38 16.5t-15 41.5q0 24 16 39.5t37 15.5q28 -2 38.5 -13.5t13.5 -40.5zM174 -31q0 -219 -176 -219q-41 0 -68 16t-27 43q0 20 12 32.5t33 12.5q27 0 50 -36h-3q20 -23 43 -23q31 0 39.5 30.5t8.5 98.5v377q0 78 -29 84h-9q-15 0 -43 -5v28
l41 13q1 0 123 38l5 -7v-483z" />
    <glyph glyph-name="k" unicode="k" horiz-adv-x="538" 
d="M14 629v29l34 7q76 19 126 35l8 -2v-424q162 130 162 139q0 13 -51 13v23h213v-24h-9q-31 0 -52 -7q-20 -6 -79 -48t-113 -91q7 -9 24 -30.5t22.5 -29t19 -24t21.5 -25.5t20.5 -23t25.5 -27.5t29 -29.5q21 -25 53.5 -43.5t63.5 -18.5v-28h-229v28h20q9 0 15.5 5.5
t6.5 10.5l-163 191v-165q0 -24 15.5 -32t61.5 -11v-27h-245v28q47 0 62 9t15 47v492q-1 31 -19.5 42t-54.5 11h-3z" />
    <glyph glyph-name="l" unicode="l" horiz-adv-x="270" 
d="M11 629v29q95 21 164 42l8 -2v-612q0 -36 13.5 -44.5t63.5 -13.5v-28h-247v28h5q41 0 59 13.5t19 47.5v487q-1 34 -22 43.5t-63 9.5z" />
    <glyph glyph-name="m" unicode="m" horiz-adv-x="825" 
d="M812 28v-28h-229v28q46 6 56.5 16t10.5 39v215q0 58 -19 79t-56 21q-61 0 -110 -56v-244q0 -41 14.5 -54.5t58.5 -15.5v-28h-236v28q48 2 61 12.5t13 34.5v228q0 95 -69 95q-85 0 -121 -52v-276q0 -27 14.5 -33.5t58.5 -8.5v-28h-233v28q46 1 59.5 12t13.5 31v264
q0 26 -9 42t-24 16q-7 0 -24 -5l-17 -5q1 1 4 3v30q92 25 142 43l12 -2v-66q38 27 57 38.5t46 20.5t56 9q81 0 111 -78q78 78 165 78q119 0 119 -178v-206q0 -47 75 -47z" />
    <glyph glyph-name="n" unicode="n" horiz-adv-x="529" 
d="M516 0h-217v28q38 4 51.5 20t13.5 54v205q0 88 -74 88q-22 0 -39.5 -5.5t-25.5 -11t-21.5 -17.5t-19.5 -17v-274q0 -10 3 -17.5t6 -11.5t11 -6.5t12.5 -3.5t17 -1.5t17.5 -1.5v-28h-221v28q42 4 54 16.5t12 47.5v243q0 9 0.5 20t0.5 13q0 12 -4 15t-23 10l-43 -11v35
q114 33 142 42l14 -2v-68q77 70 146 70q34 0 58.5 -14t33.5 -27.5t13 -27.5q16 -23 16 -82v-225q0 -30 13 -39.5t53 -15.5v-28z" />
    <glyph glyph-name="o" unicode="o" 
d="M266 460q90 0 158.5 -70.5t68.5 -165.5q0 -94 -68.5 -164.5t-158.5 -70.5q-89 0 -157.5 70.5t-68.5 164.5q0 95 68.5 165.5t157.5 70.5zM265 423q-54 0 -94 -64.5t-40 -138.5q0 -73 39.5 -132t94.5 -59q54 0 94 59.5t40 131.5q0 74 -40 138.5t-94 64.5z" />
    <glyph glyph-name="p" unicode="p" horiz-adv-x="529" 
d="M490 247q0 -126 -74 -197v1q-62 -62 -143 -62q-43 1 -103 36v-179q0 -44 13 -55t79 -12v-29h-255v28q49 3 61 16t12 45v495q0 55 -43 55q-15 0 -27 -5v25q67 19 150 50l10 -2v-68q63 70 145 70q79 -4 127 -60.5t48 -151.5zM273 391q-41 -5 -61.5 -16.5t-41.5 -43.5v-241
q0 -22 39.5 -39t66.5 -17q43 0 72.5 29.5t40.5 67t11 77.5q0 70 -34.5 126.5t-92.5 56.5z" />
    <glyph glyph-name="q" unicode="q" horiz-adv-x="519" 
d="M525 -250h-247v28q56 4 73 16.5t17 51.5v211q-68 -68 -160 -68q-78 0 -121.5 66t-43.5 150q0 111 65 183t164 72q52 0 119 -31l51 27h16v-627q0 -29 11 -37t56 -17v-25zM368 129v201q0 93 -93 93q-73 0 -107 -54t-34 -128q0 -82 32 -130.5t101 -48.5q41 0 71 15t30 52z
" />
    <glyph glyph-name="r" unicode="r" horiz-adv-x="386" 
d="M175 459l11 -2v-78q32 41 58.5 60.5t62.5 19.5q52 0 60 -56q0 -29 -16.5 -62.5t-33.5 -35.5v6q0 25 -20 51t-37 26q-30 0 -52 -30.5t-22 -57.5v-208q0 -40 19 -51t71 -13v-28h-251v28q4 1 15 2.5t14.5 2t12 3t11.5 4.5t8.5 6.5t7 9.5t3.5 12.5t2 17.5v245q0 23 -9 38
t-23 17l-42 -6v27q4 0 41.5 13t73.5 26z" />
    <glyph glyph-name="s" unicode="s" horiz-adv-x="398" 
d="M363 122q0 -58 -48 -95.5t-98 -37.5q-32 0 -74.5 9.5t-49.5 9.5q-15 0 -25 -12h-16v165h23q20 -78 44.5 -107t83.5 -29q36 0 60 16t24 45q0 23 -22 45.5t-45 34.5t-46 20q-122 66 -122 147q0 64 43 95.5t100 31.5q30 0 49.5 -3t25.5 -7t12 -7t12 -3q1 0 6 3.5t9 5.5h20
v-142h-21q-19 60 -42.5 89t-69.5 29q-76 0 -76 -61q0 -37 43 -57l112 -64q88 -53 88 -121z" />
    <glyph glyph-name="t" unicode="t" horiz-adv-x="309" 
d="M159 575q8 0 8 -19v-107h105v-41h-105v-285q0 -70 53 -70q34 0 63 33l15 -14q-53 -83 -127 -83q-45 0 -69 33.5t-24 98.5v287h-54q-2 2 -2 13q0 13 13 23q26 0 47 26t40.5 60t36.5 45z" />
    <glyph glyph-name="u" unicode="u" horiz-adv-x="526" 
d="M355 -11v77l-39 -32v1q-43 -46 -109 -46q-53 0 -88.5 36.5t-35.5 97.5v245q0 33 -13.5 44.5t-51.5 13.5v23h154v-323q0 -29 19.5 -48t52.5 -19q24 0 46.5 6t42.5 24.5t20 48.5v227q0 35 -15 45.5t-61 12.5v26h163v-339q0 -46 40 -46l26 1v-29q-17 -6 -74 -22.5t-77 -24.5
z" />
    <glyph glyph-name="v" unicode="v" horiz-adv-x="484" 
d="M273 134q19 44 35.5 83.5t27 63t19 43.5t13 30.5t8 18t4 12t1 7.5t0.5 8q0 21 -51 25v24h148v-24q-7 -1 -13 -2t-11.5 -4.5t-9.5 -5.5t-8 -8t-6 -8.5t-6 -10.5t-5 -10.5t-5.5 -13t-5.5 -12.5l-130 -311q-20 -54 -29 -54q-7 0 -75.5 152t-76.5 176q-7 13 -15 30
t-11.5 24.5t-9.5 18.5t-8.5 14.5t-7 9.5t-8 7.5t-9 3.5t-11 2.5t-14.5 1.5v24h204v-24q-48 -2 -48 -29q0 -5 1 -8q0 -4 56 -126t57 -128z" />
    <glyph glyph-name="w" unicode="w" horiz-adv-x="716" 
d="M153 371l105 -229q7 13 23.5 40.5t24.5 41t18.5 36.5t17.5 46q-7 12 -19 39.5t-22 48.5t-16 24q-2 0 -15.5 3t-14.5 4v24h211v-24q-69 0 -74 -15q0 -11 119 -276q4 10 31 67t51 109.5t24 57.5q0 48 -43 57v24h130v-24q-12 -4 -19 -11t-14.5 -23t-7.5 -17q-6 -13 -83 -185
t-90 -204q-7 17 -59.5 131.5t-59.5 132.5q-11 -19 -143 -264q-12 32 -84 196t-80 184q-5 8 -11.5 20t-9.5 16l-7.5 10t-8 8t-9 3.5t-13.5 2.5v24h193v-24q-20 -3 -27.5 -4.5t-15.5 -7.5t-8 -16q0 -13 6 -26z" />
    <glyph glyph-name="x" unicode="x" horiz-adv-x="501" 
d="M208 231l-95 137q-28 38 -44 47.5t-45 9.5v24h217v-24q-47 -2 -47 -15q0 -11 15.5 -36t31 -44.5t17.5 -20.5q67 90 67 101q0 15 -40 15v24h163v-24q-53 -1 -82 -40q-69 -92 -84 -115q7 -11 65.5 -97t63.5 -93q40 -52 85 -52v-28h-209v28q40 1 40 16q0 6 -98 142
q-74 -97 -102 -147q0 -11 43 -11v-28h-153v28q43 5 55 18q100 132 136 185z" />
    <glyph glyph-name="y" unicode="y" horiz-adv-x="488" 
d="M176 -117q22 34 42 78t20 74q0 54 -41.5 137.5t-141.5 225.5q-13 20 -52 28v23h214v-24q-46 -7 -60 -23q11 -30 28 -68t30.5 -64.5t36.5 -71t33 -63.5q99 253 100 258v5q0 27 -47 27v24h142v-24q-24 -4 -40 -31v2q-4 -11 -45.5 -118.5t-78.5 -202.5l-36 -95q0 1 -1 4
q-46 -112 -100.5 -173t-111.5 -61q-33 0 -53.5 14.5t-20.5 43.5q0 20 12 34.5t31 14.5q13 0 44 -14.5t43 -14.5q7 0 20 14t23 28z" />
    <glyph glyph-name="z" unicode="z" horiz-adv-x="465" 
d="M445 148l-48 -148h-372v25l266 385h-133q-18 0 -29 -0.5t-19.5 -4t-12.5 -6t-8 -11.5t-5 -15.5t-4.5 -22t-6.5 -27.5h-17v126h361v-21l-274 -387h138q29 0 45 2t27.5 4t19.5 13t12 17.5t14 30.5t18 40h28z" />
    <glyph glyph-name="braceleft" unicode="{" horiz-adv-x="269" 
d="M167 123v-164q0 -51 20.5 -76t73.5 -39v-21q-79 1 -124 22q-4 3 -11 9.5t-21 37.5t-18 73v174q0 49 -20 71t-66 34v11q53 15 69.5 37t16.5 67v176q0 76 33.5 105.5t119.5 34.5h21v-23q-57 -12 -75.5 -39t-18.5 -73v-166q0 -49 -81 -124q10 0 45.5 -54.5t35.5 -72.5z" />
    <glyph glyph-name="bar" unicode="|" horiz-adv-x="193" 
d="M135 -15h-71v686h71v-686z" />
    <glyph glyph-name="braceright" unicode="}" horiz-adv-x="281" 
d="M183 534v-175q0 -52 19 -71.5t87 -38.5q-69 -21 -87.5 -44t-18.5 -66v-175q0 -78 -33 -107t-119 -34h-19v22q55 12 74.5 39.5t19.5 74.5v164q0 57 18.5 84t61.5 42q-47 15 -63.5 39.5t-16.5 85.5v166q0 53 -22 75.5t-72 35.5v24q83 -1 117 -20q54 -38 54 -121z" />
    <glyph glyph-name="asciitilde" unicode="~" horiz-adv-x="543" 
d="M408 176q-30 0 -112 38.5t-116 38.5q-18 0 -45.5 -16t-45.5 -42l-56 34q66 93 162 93q30 -1 100 -34.5t85 -33.5q2 -1 7 -1q16 0 36.5 21t29.5 35l59 -36q-4 -7 -15 -24t-15.5 -23.5t-14 -18.5t-17 -17t-18 -9.5t-21.5 -4.5h-3z" />
    <glyph glyph-name="uni00A0" unicode="&#xa0;" horiz-adv-x="285" 
 />
    <glyph glyph-name="exclamdown" unicode="&#xa1;" horiz-adv-x="275" 
d="M195 413q0 -29 -17 -45t-43 -16t-39 18.5t-13 47.5q0 22 14.5 35.5t33.5 13.5q20 0 42 -14.5t22 -39.5zM193 -131q0 -34 -16 -57.5t-42 -23.5q-52 0 -52 83l45 416h19q46 -383 46 -418z" />
    <glyph glyph-name="cent" unicode="&#xa2;" horiz-adv-x="449" 
d="M152 -120l-61 -15l55 151q-116 57 -116 202q0 110 64 175.5t163 65.5q16 0 49 -5q3 6 6.5 10.5t6 7.5t6.5 15.5t8 34.5v6q0 9 -5.5 24t-5.5 23l77 24l-54 -157q73 -27 73 -86q0 -3 -0.5 -7t-4 -14.5t-7.5 -19t-12.5 -15t-18.5 -6.5q-12 0 -19.5 6t-20 23t-22.5 27
q-16 -40 -48 -132t-51 -137q1 0 9.5 -4.5t23 -9.5t30.5 -5q67 0 142 93l19 -20q-27 -55 -91.5 -98.5t-127.5 -43.5q-21 0 -37 4zM293 414q-14 5 -29 5q-76 0 -116 -44.5t-40 -114.5q0 -47 17.5 -98.5t49.5 -56.5z" />
    <glyph glyph-name="sterling" unicode="&#xa3;" 
d="M425 517q-8 0 -16.5 3t-18 18.5t-9.5 41.5v6q0 10 -1.5 16t-6.5 12.5t-17.5 11t-32.5 7.5q-27 0 -46 -7.5t-29 -17.5t-15 -28t-6 -31.5t-1 -35.5q0 -61 13 -138h129v-57h-124l-26 -200q22 -8 76 -35.5t77 -27.5q37 0 63.5 9.5t38.5 23.5t18.5 28t10.5 23.5t9 9.5
q8 0 8 -10q0 -62 -45 -95t-132 -51q-34 0 -61.5 9.5t-37.5 16.5t-46 34q-59 -61 -103 -61q-25 0 -38.5 2t-20.5 12t-8 16.5t-3 27.5q-1 7 -1 10q0 33 27 55.5t66 22.5q21 0 48 -5q5 4 5 11q0 30 -25 174h-110v57h109q-5 53 -5 61q0 107 52 171t149 64q45 0 90 -27t45 -71
q0 -21 -15 -38.5t-34 -17.5zM158 78q0 6 -56 13q-50 0 -50 -29q0 -30 40 -30q26 0 46 16.5t20 29.5z" />
    <glyph glyph-name="currency" unicode="&#xa4;" horiz-adv-x="553" 
d="M279 468q-59 0 -97.5 -44t-38.5 -102q0 -46 38.5 -91t96.5 -45q55 0 97.5 41.5t42.5 100.5q0 56 -42 98t-97 42zM530 111l-42 -53l-87 95q-61 -40 -119 -40q-57 0 -122 39q-52 -65 -82 -95l-53 55l91 92q-38 65 -38 127q0 61 37 117l-90 99l49 52l87 -93q64 39 126 39
q58 0 110 -38l91 91l42 -52l-85 -97q35 -62 35 -121q0 -61 -37 -123q74 -77 87 -94z" />
    <glyph glyph-name="yen" unicode="&#xa5;" horiz-adv-x="583" 
d="M370 355h146v-50h-175l-4 -5v-73h179v-49h-179v-66q0 -49 16.5 -64.5t67.5 -15.5v-32h-256v32q55 0 68.5 17.5t13.5 73.5v55h-180v49h180q0 12 -0.5 35.5t-0.5 36.5l-9 6h-170v50h144q-11 17 -52.5 84.5t-75 119.5t-41.5 57q-22 14 -44 14v27h251v-27q-64 -4 -66 -26
q0 -22 14 -43q3 -6 60 -101t60 -103q16 28 73 133.5t57 111.5t-2 10.5t-7 7.5t-9.5 4.5t-12 2.5t-12.5 1.5t-13.5 1t-12.5 0.5v27h204v-26q-54 -10 -102 -70q-1 -2 -54.5 -103.5t-55.5 -102.5z" />
    <glyph glyph-name="brokenbar" unicode="&#xa6;" horiz-adv-x="193" 
d="M135 391h-71v280h71v-280zM135 -15h-71v282h71v-282z" />
    <glyph glyph-name="section" unicode="&#xa7;" horiz-adv-x="416" 
d="M392 245q0 -55 -32 -89.5t-88 -34.5h-7q52 -41 70 -66t18 -71q0 -65 -46.5 -97t-103.5 -32q-43 0 -93.5 29t-50.5 74q0 27 16.5 43.5t40.5 16.5q49 0 49 -48q0 -24 -19 -43v1q-14 -9 -14 -11q0 -5 2.5 -9t7.5 -7t9.5 -4.5t13.5 -3t13 -2.5t13.5 -2t11.5 -1q33 0 61 19
t28 48q-2 50 -29 87t-64.5 60.5t-75 46t-65.5 57t-31 79.5q0 60 37 91t91 31q-57 48 -68 64q-21 28 -21 75q0 54 38.5 89.5t105.5 35.5q53 0 93 -27.5t40 -75.5q0 -19 -3.5 -30.5t-13.5 -16.5t-15.5 -6t-22.5 -3q-16 0 -31.5 13t-15.5 32q0 4 1 8t1.5 7t3 7t3.5 6t5.5 7
t5.5 6.5t6.5 7.5t6.5 7q0 27 -60 27q-41 0 -62.5 -23t-21.5 -48q0 -1 0.5 -3.5t0.5 -3.5v-2q0 -22 27 -46.5t142 -110.5q92 -71 92 -158zM338 213q0 34 -58 87v-1q-37 34 -76 56t-61 22q-24 0 -43 -20.5t-19 -43.5q0 -34 41 -77q2 -2 7 -2q88 -74 137 -80q27 0 49.5 17.5
t22.5 41.5z" />
    <glyph glyph-name="dieresis" unicode="&#xa8;" horiz-adv-x="414" 
d="M361 618q0 -23 -16 -38t-38 -15q-16 0 -33 16.5t-17 37.5t15.5 37.5t34.5 16.5q23 0 38.5 -15t15.5 -40zM156 618q0 -24 -16 -38.5t-38 -14.5q-17 0 -33.5 17t-16.5 37q0 23 15 38.5t35 15.5q26 0 40 -14.5t14 -40.5z" />
    <glyph glyph-name="copyright" unicode="&#xa9;" horiz-adv-x="709" 
d="M682 326q0 -148 -101.5 -243.5t-232.5 -97.5q-86 0 -160.5 41t-122.5 120t-51 180q2 90 33 159t81.5 108t107 58.5t116.5 19.5h2q88 0 153.5 -29t102 -79t54 -109t18.5 -128zM628 328q0 81 -23.5 140t-64 90.5t-86.5 46t-99 14.5q-73 0 -130.5 -28t-90 -72t-49 -92
t-16.5 -95q0 -65 21.5 -118t53 -84.5t71.5 -53t73 -29.5t60 -8q116 0 198 85.5t82 203.5zM516 252l-22 -82q-3 -12 -38.5 -29t-71.5 -17q-91 0 -156 56t-65 148q0 52 19 92.5t50.5 64t68 35.5t76.5 12q5 0 13 -1t28.5 -4t36 -7.5t28.5 -13t13 -19.5v-74h-19q-15 87 -103 87
q-71 0 -103.5 -47.5t-32.5 -118.5q0 -83 38 -123.5t99 -40.5q49 0 74.5 20t43.5 62h23z" />
    <glyph glyph-name="ordfeminine" unicode="&#xaa;" horiz-adv-x="352" 
d="M201 467v69q-56 -23 -73.5 -35t-17.5 -26q0 -13 13 -24t31 -11q2 0 5 1l10.5 3.5t15.5 4.5v-1q16 12 16 19zM200 572v24q0 36 -34 36q-30 0 -44 -12q0 -40 -5 -49t-28 -9q-29 0 -33 25q2 3 5.5 9t15 20.5t24 25.5t31 20t36.5 9q109 0 109 -101v-113q4 -22 9 -26
q16 2 34 17v-31q-37 -32 -61 -32q-36 0 -45 35q-4 2 -4 3q-50 -39 -103 -39q-23 0 -42.5 17.5t-19.5 49.5q0 20 10 37t20 27t37.5 22.5t39.5 17t48 17.5z" />
    <glyph glyph-name="guillemotleft" unicode="&#xab;" horiz-adv-x="475" 
d="M208 221q172 144 179 155q25 37 47 42q9 0 10 -16q0 -21 -59 -91q0 -1 -44 -45l-44 -45q42 0 92 -65.5t53 -107.5q0 -15 -8 -15q-9 8 -114 95.5t-112 92.5zM13 221q168 148 175 155q27 37 47 42q11 0 12 -16q0 -19 -60 -91q0 -1 -35 -47l-35 -45q43 0 71.5 -20.5t39 -53
t14 -53t3.5 -39.5v-5q0 -15 -10 -15q-4 0 -59.5 47t-109.5 94z" />
    <glyph glyph-name="logicalnot" unicode="&#xac;" horiz-adv-x="608" 
d="M548 105h-71v205h-450v78h521v-283z" />
    <glyph glyph-name="uni00AD" unicode="&#xad;" horiz-adv-x="381" 
d="M322 188h-258v75h258v-75z" />
    <glyph glyph-name="registered" unicode="&#xae;" horiz-adv-x="709" 
d="M682 321q0 -98 -50 -177t-125.5 -119t-158.5 -40q-86 0 -160.5 41t-122.5 120t-51 180q0 149 100.5 245t233.5 100q134 0 234 -101.5t100 -248.5zM513 560q-78 59 -165 59q-119 -3 -191.5 -80t-87.5 -213q3 -64 25 -116.5t52.5 -83.5t67.5 -52t66.5 -29t51.5 -8
q117 0 206 82t90 203q-1 75 -24.5 130.5t-90.5 107.5zM412 397v21q0 70 -71 70h-38v-152h42q47 0 67 61zM459 242q41 -53 70 -76v-17h-63q-13 0 -54.5 56t-66.5 102h-42v-92v-15t1.5 -10.5t2 -6.5t6 -3t8 -2t12.5 -1t17 -2v-26h-160v26q36 3 42.5 6t6.5 21v247q0 13 -1 19.5
t-2 11.5t-5.5 6.5t-8 2t-14 1.5t-18.5 2v27h174q50 0 80.5 -25t30.5 -71q0 -72 -71 -106q50 -62 55 -75z" />
    <glyph glyph-name="macron" unicode="&#xaf;" horiz-adv-x="447" 
d="M387 535h-323v62h323v-62z" />
    <glyph glyph-name="degree" unicode="&#xb0;" horiz-adv-x="385" 
d="M344 526q0 -66 -47.5 -106t-104.5 -40q-63 0 -104.5 43t-41.5 104q0 66 46.5 105t102.5 39q61 0 105 -43t44 -102zM301 527q0 42 -33.5 71t-72.5 29q-41 0 -73.5 -31.5t-32.5 -68.5q0 -43 31 -72t73 -29q46 0 77 29t31 72z" />
    <glyph glyph-name="plusminus" unicode="&#xb1;" horiz-adv-x="572" 
d="M548 275h-225v-156h-71v156h-225v75h225v213h71v-213h225v-75zM548 0h-521v75h521v-75z" />
    <glyph glyph-name="uni00B2" unicode="&#xb2;" horiz-adv-x="368" 
d="M181 366q-5 -7 -16 -15t-15 -13h118q28 0 45 14q1 2 2 7t2 7l23 -11l-41 -93h-262v31l104 107q74 74 82 131q0 21 -22 43.5t-53 22.5q-27 0 -51.5 -19.5t-37.5 -49.5l-29 18q23 63 56 94t94 31q60 0 99 -30t39 -82q0 -14 -5 -29t-10.5 -26.5t-17.5 -28t-19 -25t-23 -25
t-21 -21.5t-22.5 -21t-18.5 -17z" />
    <glyph glyph-name="uni00B3" unicode="&#xb3;" horiz-adv-x="351" 
d="M71 559l-6 -13l-29 22q47 103 139 103q46 0 79.5 -22.5t33.5 -64.5q0 -33 -51 -77q79 -35 79 -112q0 -60 -54 -100t-145 -40q-80 7 -86 54q0 42 36 42q15 0 49 -19.5t46 -19.5q28 0 49 18t21 44q0 34 -31 55t-61 21l-14 -2q-13 -2 -15 -3v43l27.5 10t44 25.5t27.5 37.5
q0 51 -38 51q-18 0 -43 -13t-41 -27z" />
    <glyph glyph-name="acute" unicode="&#xb4;" horiz-adv-x="294" 
d="M78 515h-50l158 154q28 25 41 25q37 0 37 -38q0 -26 -30 -47q-4 0 -40.5 -22.5t-75.5 -47t-40 -24.5z" />
    <glyph glyph-name="uni00B5" unicode="&#xb5;" horiz-adv-x="544" 
d="M452 449v-354q0 -57 34 -57q17 0 54 32v-20q-16 -22 -51 -42t-48 -20q-31 0 -54.5 17t-23.5 57v2q-68 -75 -139 -75q-67 0 -117 59q4 -18 13.5 -60t15.5 -73t6 -47q0 -80 -49 -80q-24 0 -35 21t-11 52q0 22 11.5 104.5t11.5 94.5v389h93v-302q0 -12 1.5 -22t2.5 -18
t5 -14t5.5 -10t8.5 -7.5t9 -5t12 -3t12 -2t14 -1.5t15 -1q69 0 113 59v327h91z" />
    <glyph glyph-name="paragraph" unicode="&#xb6;" 
d="M224 301v324q-62 -6 -91 -39.5t-29 -111.5q0 -95 26.5 -129t93.5 -44zM25 470q0 48 12.5 82.5t32 54.5t49.5 31.5t58.5 15t65.5 3.5h273v-30q-59 -4 -71 -12q-20 -13 -20 -70v-641q0 -51 13.5 -63t61.5 -16q10 -1 16 -2v-34h-163v836h-56v-836h-163v34q49 1 69.5 20
t20.5 68v355q-199 4 -199 204z" />
    <glyph glyph-name="periodcentered" unicode="&#xb7;" horiz-adv-x="216" 
d="M167 253q0 -27 -19.5 -43.5t-44.5 -16.5q-24 0 -41 17t-17 43q0 29 16.5 44t42.5 15q27 0 45 -16t18 -43z" />
    <glyph glyph-name="cedilla" unicode="&#xb8;" horiz-adv-x="286" 
d="M246 -122q-2 -21 -9 -36.5t-14 -23.5t-23.5 -13.5t-24.5 -7t-30 -3.5t-28 -3q-50 0 -89 19l17 41q44 -15 69 -15q6 0 14.5 1.5t19 5t17.5 12t7 20.5q0 32 -92 32h-5l43 105h43l-26 -62h22q39 0 64 -19t25 -53z" />
    <glyph glyph-name="uni00B9" unicode="&#xb9;" horiz-adv-x="260" 
d="M237 262h-200v38h16.5t16 0.5t12 2.5t9.5 6.5t3 12.5v251q0 23 -8 23q-11 0 -48 -17v38l122 54l18 -3v-342q0 -14 13.5 -19t45.5 -7v-38z" />
    <glyph glyph-name="ordmasculine" unicode="&#xba;" horiz-adv-x="392" 
d="M203 428q34 0 55 20.5t21 58.5q0 48 -24 84t-62 36q-24 0 -40.5 -8.5t-22.5 -21.5t-8 -21.5t-2 -15.5q0 -51 21.5 -91.5t61.5 -40.5zM350 538q0 -71 -44.5 -112t-111.5 -41q-70 0 -109 38.5t-39 103.5q0 77 50 110.5t118 33.5q53 0 94.5 -35.5t41.5 -97.5z" />
    <glyph glyph-name="guillemotright" unicode="&#xbb;" horiz-adv-x="478" 
d="M232 254q4 -4 18 -15.5t20 -17.5l-39 -32l-173 -150q-8 -6 -12 -6q-10 0 -10 15q0 9 50.5 74t80.5 99q-32 35 -81 100t-51 81q0 15 11 16q2 0 24.5 -21t69.5 -63t92 -80zM395 286l71 -65l-210 -179q-6 -9 -12 -9q-11 0 -11 15q0 5 33 50.5t66 87.5l33 43
q-38 43 -84 101.5t-49 71.5q0 15 11 16q8 0 73 -56t79 -76z" />
    <glyph glyph-name="onequarter" unicode="&#xbc;" horiz-adv-x="742" 
d="M728 86h-56v-86h-76v86h-184v59l208 262h52v-252h56v-69zM596 155v150l-131 -150h131zM651 671l-470 -686h-58l473 686h55zM224 262h-202v38q34 2 46 6.5t12 15.5v251q0 23 -9 23q-5 0 -47 -17v38l122 54l18 -3v-342q0 -15 13.5 -19.5t46.5 -6.5v-38z" />
    <glyph glyph-name="onehalf" unicode="&#xbd;" horiz-adv-x="778" 
d="M765 90l-39 -90h-262v29l102 106q77 92 82 131q0 25 -21.5 46.5t-52.5 21.5q-25 0 -49.5 -19t-40.5 -52l-27 20q22 64 55 94.5t95 30.5q57 0 96.5 -29t39.5 -79q0 -64 -65 -129l-102 -97h118q20 0 30 5.5t20 24.5zM617 671l-469 -686h-57l475 686h51zM225 262h-201v38
q35 2 45.5 6.5t10.5 15.5v251q0 23 -8 23q-5 0 -48 -17v38l122 54l18 -3v-342q0 -15 13 -19.5t48 -6.5v-38z" />
    <glyph glyph-name="threequarters" unicode="&#xbe;" horiz-adv-x="758" 
d="M744 86h-54v-86h-78v86h-184v59l209 262h53v-252h54v-69zM612 155v150l-74 -78l-58 -72h132zM667 671l-470 -686h-60l475 686h55zM20 309q0 16 4.5 25.5t8 11t12.5 4.5q20 0 57.5 -19t47.5 -19q30 0 51 17t21 45q0 36 -38.5 58t-65.5 22q-15 0 -20 -9v43q99 37 99 72
q0 22 -17 33t-39 11q-21 0 -39 -9.5t-24 -15.5t-29 -31l-28 20q37 60 64 78.5t80 24.5q46 0 79 -26t33 -61q0 -36 -53 -77q80 -32 80 -112q0 -61 -54 -100.5t-146 -39.5q-81 7 -84 54z" />
    <glyph glyph-name="questiondown" unicode="&#xbf;" horiz-adv-x="450" 
d="M293 412q0 -26 -15 -43.5t-42 -17.5q-22 0 -38.5 17t-16.5 44q0 45 56 54q20 0 38 -15t18 -39zM90 -154q-36 48 -36 97q0 80 78 167q17 19 35 56.5t35 81.5t21 52h25q-3 -87 -34 -148q-65 -135 -65 -206q0 -45 29 -81.5t82 -36.5q31 0 58.5 15t39.5 41q0 7 -21 34t-21 35
q0 17 2.5 26.5t10 13.5t12.5 5t19 2q49 0 49 -64q0 -68 -46 -107t-140 -41q-29 0 -71 18t-62 40z" />
    <glyph glyph-name="Agrave" unicode="&#xc0;" horiz-adv-x="720" 
d="M136 66q0 -34 74 -34v-32h-208v32q42 0 61.5 24.5t66.5 131.5l170 382l-36 52l107 51l257 -561q29 -52 45 -66t50 -14v-32h-270v32q30 0 50.5 8.5t24.5 18.5q0 18 -21 61l-45 93h-265q-2 -5 -17.5 -41.5t-29.5 -69.5t-14 -36zM329 511q-8 -19 -56 -125t-57 -123h229
q-2 4 -57.5 122.5t-58.5 125.5zM450 706h-51l-159 94q-31 20 -31 48q4 34 36 37q18 -12 44 -33t52.5 -45t48.5 -44t40.5 -38t19.5 -19z" />
    <glyph glyph-name="Aacute" unicode="&#xc1;" horiz-adv-x="720" 
d="M514 847q0 -27 -32 -47l-158 -94h-53l162 155q24 24 43 24q35 0 38 -38zM329 511q-8 -19 -56 -125t-57 -123h229q-2 4 -57.5 122.5t-58.5 125.5zM136 66q0 -34 74 -34v-32h-208v32q42 0 61.5 24.5t66.5 131.5l170 382l-36 52l107 51l257 -561q29 -52 45 -66t50 -14v-32
h-270v32q30 0 50.5 8.5t24.5 18.5q0 18 -21 61l-45 93h-265q-2 -5 -17.5 -41.5t-29.5 -69.5t-14 -36z" />
    <glyph glyph-name="Acircumflex" unicode="&#xc2;" horiz-adv-x="720" 
d="M233 706h-46l136 175h67l136 -175h-45l-122 108zM329 511q-8 -19 -56 -125t-57 -123h229q-2 4 -57.5 122.5t-58.5 125.5zM136 66q0 -34 74 -34v-32h-208v32q42 0 61.5 24.5t66.5 131.5l170 382l-36 52l107 51l257 -561q29 -52 45 -66t50 -14v-32h-270v32q30 0 50.5 8.5
t24.5 18.5q0 18 -21 61l-45 93h-265q-2 -5 -17.5 -41.5t-29.5 -69.5t-14 -36z" />
    <glyph glyph-name="Atilde" unicode="&#xc3;" horiz-adv-x="720" 
d="M136 66q0 -34 74 -34v-32h-208v32q42 0 61.5 24.5t66.5 131.5l214 485h26l258 -561q29 -52 45 -66t50 -14v-32h-270v32q75 0 75 27q0 19 -21 61l-45 93h-265q-2 -5 -17.5 -41.5t-29.5 -69.5t-14 -36zM329 511q-1 -2 -19 -45t-34.5 -81t-34.5 -76t-25 -46h229
q-2 4 -57.5 122.5t-58.5 125.5zM273 775q-30 0 -50 -44h-37q30 100 94 109q39 -7 77 -18t60 -18.5t30 -7.5q22 0 56 49h35q-17 -64 -44 -89t-71 -25q-14 0 -68.5 16.5t-81.5 27.5z" />
    <glyph glyph-name="Adieresis" unicode="&#xc4;" horiz-adv-x="720" 
d="M329 511q-8 -19 -56 -125t-57 -123h229q-2 4 -57.5 122.5t-58.5 125.5zM136 66q0 -34 74 -34v-32h-208v32q42 0 61.5 24.5t66.5 131.5l170 382l-36 52l107 51l257 -561q29 -52 45 -66t50 -14v-32h-270v32q30 0 50.5 8.5t24.5 18.5q0 18 -21 61l-45 93h-265
q-2 -5 -17.5 -41.5t-29.5 -69.5t-14 -36zM511 776q0 -24 -14 -38.5t-41 -14.5q-22 0 -35 15.5t-13 38.5q0 21 13 37t35 16q21 0 38 -16.5t17 -37.5zM304 776q0 -23 -13.5 -38t-38.5 -15q-23 0 -37.5 16t-14.5 38q0 21 15.5 37t36.5 16q18 0 35 -15t17 -39z" />
    <glyph glyph-name="Aring" unicode="&#xc5;" horiz-adv-x="720" 
d="M456 805q0 -46 -32.5 -74t-72.5 -28q-48 0 -75 28.5t-27 74.5q0 48 30.5 76.5t71.5 28.5q50 -4 77 -32t28 -74zM419 805q0 25 -19.5 42t-46.5 17q-25 0 -47.5 -17t-22.5 -41q0 -22 20.5 -40t47.5 -18q68 0 68 57zM329 511q-8 -19 -56 -125t-57 -123h229q-2 4 -57.5 122.5
t-58.5 125.5zM136 66q0 -34 74 -34v-32h-208v32q42 0 61.5 24.5t66.5 131.5l170 382l-36 52l107 51l257 -561q29 -52 45 -66t50 -14v-32h-270v32q30 0 50.5 8.5t24.5 18.5q0 18 -21 61l-51 93h-259q-2 -5 -17.5 -41.5t-29.5 -69.5t-14 -36z" />
    <glyph glyph-name="Ccedilla" unicode="&#xc7;" horiz-adv-x="689" 
d="M385 675q66 0 125.5 -16.5t67.5 -16.5q29 0 39 33h37v-234h-30q-31 94 -77.5 138.5t-141.5 44.5q-119 0 -183.5 -81.5t-64.5 -204.5q0 -141 69 -219t180 -78q60 0 109 20t130 82l23 -26q-13 -15 -31 -31.5t-53.5 -42.5t-86 -42t-105.5 -16q-23 0 -35 1l-16 -36
q33 0 65.5 -24.5t43.5 -47.5q0 -47 -40 -68t-102 -21q-41 0 -75 18l17 44q41 -15 67 -15q25 0 41.5 9.5t16.5 27.5q0 19 -20.5 26.5t-76.5 7.5l39 82q-127 19 -204 111t-77 224q0 165 98 255.5t251 95.5z" />
    <glyph glyph-name="Egrave" unicode="&#xc8;" horiz-adv-x="643" 
d="M19 660h556v-151h-26q-16 70 -42.5 86t-114.5 16h-142q-18 0 -30 -10v-229h170q52 0 73.5 18.5t24.5 73.5h29v-236h-28q-2 23 -5.5 37t-14 28.5t-32 21.5t-54.5 7l-163 -2v-259q16 -12 107 -12h28q110 0 155.5 23.5t87.5 103.5h34l-49 -176h-564v32q57 3 74 16.5t17 63.5
v437q0 49 -19.5 65t-71.5 16v30zM409 706h-48l-156 94q-33 22 -33 48q5 37 36 37q20 0 41 -26z" />
    <glyph glyph-name="Eacute" unicode="&#xc9;" horiz-adv-x="643" 
d="M19 660h556v-151h-26q-16 70 -42.5 86t-114.5 16h-142q-18 0 -30 -10v-229h170q52 0 73.5 18.5t24.5 73.5h29v-236h-28q-2 23 -5.5 37t-14 28.5t-32 21.5t-54.5 7l-163 -2v-259q16 -12 107 -12h28q110 0 155.5 23.5t87.5 103.5h34l-49 -176h-564v32q57 3 74 16.5t17 63.5
v437q0 49 -19.5 65t-71.5 16v30zM483 847q0 -28 -32 -47l-158 -94h-52l159 155v-1q25 25 45 25q35 0 38 -38z" />
    <glyph glyph-name="Ecircumflex" unicode="&#xca;" horiz-adv-x="643" 
d="M19 660h556v-151h-26q-16 70 -42.5 86t-114.5 16h-142q-18 0 -30 -10v-229h170q52 0 73.5 18.5t24.5 73.5h29v-236h-28q-2 23 -5.5 37t-14 28.5t-32 21.5t-54.5 7l-163 -2v-259q16 -12 107 -12h28q110 0 155.5 23.5t87.5 103.5h34l-49 -176h-564v32q57 3 74 16.5t17 63.5
v437q0 49 -19.5 65t-71.5 16v30zM496 706h-45l-124 97l-126 -97h-44l136 175h66z" />
    <glyph glyph-name="Edieresis" unicode="&#xcb;" horiz-adv-x="643" 
d="M19 660h556v-151h-26q-16 70 -42.5 86t-114.5 16h-142q-18 0 -30 -10v-229h170q49 0 69 18.5t23 73.5h35v-236h-28q-2 23 -5.5 37t-14 28.5t-32 21.5t-54.5 7l-163 -2v-259q16 -12 107 -12h28q110 0 155.5 23.5t87.5 103.5h34l-49 -176h-564v32q57 3 74 16.5t17 63.5v437
q0 49 -19.5 65t-71.5 16v30zM482 776q0 -53 -55 -53q-20 0 -34 15t-14 39q0 22 14 37.5t34 15.5q21 0 38 -15.5t17 -38.5zM274 776q0 -26 -14.5 -39.5t-36.5 -13.5q-21 0 -36.5 14.5t-15.5 39.5q0 22 15.5 37.5t36.5 15.5q19 0 35 -15.5t16 -38.5z" />
    <glyph glyph-name="Igrave" unicode="&#xcc;" horiz-adv-x="343" 
d="M263 706h-54l-158 94q-31 20 -31 48q3 35 37 37q21 0 47 -24zM17 630v30h313v-30q-66 -2 -84.5 -14t-18.5 -67v-437q0 -50 20.5 -65t82.5 -15v-32h-313v32q72 0 87 18h4q13 18 13 62v441q0 40 -26 57.5t-78 19.5z" />
    <glyph glyph-name="Iacute" unicode="&#xcd;" horiz-adv-x="343" 
d="M330 847q0 -30 -29 -47q-75 -40 -158 -94h-50l158 153q28 26 45 26q32 0 34 -38zM17 630v30h313v-30q-26 -1 -36.5 -1.5t-25.5 -3t-19.5 -7t-10.5 -14t-7.5 -22.5t-1.5 -33v-437q0 -48 26 -67v1q20 -14 75 -14v-32h-313v32q76 0 91 18q13 18 13 62v437q-1 45 -27 62
t-77 19z" />
    <glyph glyph-name="Icircumflex" unicode="&#xce;" horiz-adv-x="342" 
d="M344 706h-43l-128 97q-17 -16 -38.5 -32.5t-47.5 -35.5t-39 -29h-43l138 175h62zM17 630v30h313v-30q-66 -2 -84.5 -14t-18.5 -67v-437q0 -50 20.5 -65t82.5 -15v-32h-313v32h9q49 0 72 16.5t23 63.5v441q0 45 -28 61t-76 16z" />
    <glyph glyph-name="Idieresis" unicode="&#xcf;" horiz-adv-x="342" 
d="M329 776q0 -53 -51 -53q-20 0 -36.5 15.5t-16.5 38.5t16 38t37 15q20 0 35.5 -16t15.5 -38zM124 776q0 -53 -54 -53q-20 0 -36.5 15.5t-16.5 38.5q0 22 16.5 37.5t36.5 15.5q21 0 37.5 -15.5t16.5 -38.5zM17 630v30h312v-30q-65 -2 -83.5 -14t-18.5 -67v-437
q0 -50 20 -65t82 -15v-32h-312v32h5q46 0 72 17.5t27 62.5v437q0 51 -23.5 66t-80.5 15z" />
    <glyph glyph-name="Eth" unicode="&#xd0;" horiz-adv-x="750" 
d="M23 630v30h282q195 0 306 -88t111 -238q-12 -155 -109 -248q-102 -86 -293 -86h-297v32q59 4 75.5 14.5t16.5 35.5q0 4 -1 14t-1 16v153h-61v75h61v209q0 45 -21 63t-69 18zM310 265h-86v-182q0 -32 24 -32q37 0 65 0.5t50 3t34 3.5t27 6t18.5 6t18.5 9t18 9q57 36 91 99
t34 139q0 147 -120 239q-18 23 -74.5 43t-106.5 20q-78 0 -79 -46v-242h86v-75z" />
    <glyph glyph-name="Ntilde" unicode="&#xd1;" horiz-adv-x="750" 
d="M745 630q-65 -5 -84 -26t-19 -93v-523h-15l-460 535v-374q0 -53 10.5 -77.5t29 -31.5t59.5 -8v-32h-248v32q70 4 85.5 22.5t15.5 77.5v452q-12 13 -16.5 18t-13 11.5t-10 8t-11 4t-11.5 2.5t-17 1t-22 1v30h177l400 -468v319q0 40 -4.5 63t-19 34.5t-29 15t-47.5 6.5v30
h250v-30zM523 845h36q-18 -64 -45 -89t-71 -25q-14 0 -68.5 16.5t-80.5 27.5q-30 0 -50 -44h-36q12 48 33 71t63 38q0 3 4 3q19 0 88 -23.5t72 -23.5q10 0 27.5 16.5t27.5 32.5z" />
    <glyph glyph-name="Ograve" unicode="&#xd2;" horiz-adv-x="750" 
d="M465 706h-51l-159 94q-31 20 -31 48q5 36 37 37q17 0 41 -24zM372 -15q-143 0 -239.5 98t-96.5 254q0 153 99 245.5t242 92.5q145 0 243 -97.5t98 -251.5q0 -153 -101 -247t-245 -94zM515 578l-9 3v-1q-59 48 -129 48q-114 0 -168 -84t-54 -216q2 -57 13.5 -106.5
t35.5 -93t68 -69t104 -25.5q113 0 166.5 80.5t53.5 212.5q0 78 -22.5 146.5t-58.5 104.5z" />
    <glyph glyph-name="Oacute" unicode="&#xd3;" horiz-adv-x="750" 
d="M534 847q0 -25 -32 -47q-35 -19 -158 -94h-53l157 154v-1q31 26 49 26q35 0 37 -38zM372 -15q-143 0 -239.5 98t-96.5 254q0 153 99 245.5t242 92.5q145 0 243 -97.5t98 -251.5q0 -153 -101 -247t-245 -94zM515 578l-9 3v-1q-59 48 -129 48q-114 0 -168 -84t-54 -216
q2 -57 13.5 -106.5t35.5 -93t68 -69t104 -25.5q113 0 166.5 80.5t53.5 212.5q0 78 -22.5 146.5t-58.5 104.5z" />
    <glyph glyph-name="Ocircumflex" unicode="&#xd4;" horiz-adv-x="750" 
d="M549 706h-46l-127 97q0 -1 -1 -1q-25 -23 -41.5 -36.5t-24 -19t-26 -18.5t-31.5 -22h-44l136 175h67zM372 -15q-143 0 -239.5 98t-96.5 254q0 153 98.5 245.5t241.5 92.5q146 0 244 -97.5t98 -251.5q0 -153 -101 -247t-245 -94zM515 578l-9 3v-1q-60 48 -130 48
q-58 0 -102 -24t-69.5 -66t-37.5 -94.5t-12 -115.5q2 -57 13.5 -106.5t35.5 -93t68 -69t103 -25.5q77 0 128 40.5t72 104t21 148.5q0 78 -22.5 146.5t-58.5 104.5z" />
    <glyph glyph-name="Otilde" unicode="&#xd5;" horiz-adv-x="748" 
d="M436 731q-30 0 -81.5 22t-69.5 22q-29 0 -49 -44h-37q32 100 98 109q6 7 15 7q17 0 74 -26t69 -26q8 0 15 4t12 8.5t15.5 17t18.5 20.5h35q-17 -64 -44 -89t-71 -25zM716 326q0 -150 -101.5 -245t-237.5 -95q-122 0 -221 73q-42 25 -81 110.5t-39 161.5q0 157 97.5 250.5
t242.5 93.5t242.5 -97.5t97.5 -251.5zM509 581q-63 47 -133 47q-78 0 -129.5 -42.5t-72.5 -107.5t-21 -150q0 -78 21 -142t72.5 -108t127.5 -44q113 0 166.5 80.5t53.5 212.5q0 77 -24.5 145.5t-60.5 108.5z" />
    <glyph glyph-name="Odieresis" unicode="&#xd6;" horiz-adv-x="750" 
d="M372 -15q-143 0 -239.5 98t-96.5 254q0 153 99 245.5t242 92.5q145 0 243 -97.5t98 -251.5q0 -153 -101 -247t-245 -94zM515 578l-9 3v-1q-59 48 -129 48q-114 0 -168 -84t-54 -216q2 -57 13.5 -106.5t35.5 -93t68 -69t104 -25.5q113 0 166.5 80.5t53.5 212.5
q0 78 -22.5 146.5t-58.5 104.5zM533 776q0 -53 -54 -53q-50 0 -50 54q0 21 14.5 37t35.5 16q18 0 36 -16.5t18 -37.5zM326 776q0 -26 -15.5 -39.5t-38.5 -13.5q-20 0 -35 17.5t-15 36.5q0 21 15.5 37t34.5 16q18 0 36 -16.5t18 -37.5z" />
    <glyph glyph-name="multiply" unicode="&#xd7;" horiz-adv-x="557" 
d="M534 63l-52 -55l-201 189q-73 -65 -115.5 -106.5t-86.5 -82.5l-52 55l201 190l-201 188l52 56l202 -189q9 8 87.5 80t115.5 109l50 -56l-203 -188q182 -166 203 -190z" />
    <glyph glyph-name="Oslash" unicode="&#xd8;" horiz-adv-x="752" 
d="M522 571q-69 57 -152 57q-88 0 -151 -80.5t-63 -212.5q0 -108 46 -192zM561 542l-329 -452q63 -55 144 -55q54 0 103.5 28t81.5 82q36 78 36 202q0 120 -36 195zM376 -15q-52 0 -107.5 18t-71.5 31l-45 -54l-42 -59h-55l100 141q-61 47 -89 103.5t-28 158.5
q0 163 107 268q118 91 225 91q71 0 191 -54q19 31 73 105h60l-96 -133q121 -111 121 -270q0 -153 -100.5 -249.5t-242.5 -96.5z" />
    <glyph glyph-name="Ugrave" unicode="&#xd9;" horiz-adv-x="737" 
d="M484 706h-60l-159 94q-27 16 -27 48q3 36 33 37q20 0 44 -24zM585 248v263q0 72 -19 94t-82 25v30h248v-30q-68 -6 -78 -19q-23 -23 -23 -100v-255q0 -140 -63 -205.5t-201 -65.5q-85 0 -139 18t-80 56t-34.5 79.5t-8.5 105.5v305q0 51 -22 65v-1q-2 1 -5.5 3.5t-5 3.5
t-5.5 3t-7 2.5t-8 1.5t-11 1.5t-14 1t-18 0.5v30h297v-30q-67 -4 -69 -6q-25 -26 -25 -75v-313q0 -97 39 -146t139 -49q117 2 156 44.5t39 162.5z" />
    <glyph glyph-name="Uacute" unicode="&#xda;" horiz-adv-x="737" 
d="M556 847q0 -26 -32 -47l-158 -94h-54l162 155q24 24 44 24q38 0 38 -38zM585 248v263q0 72 -18 94t-80 25v30h245v-30q-68 -6 -78 -19q-23 -23 -23 -100v-255q0 -140 -63.5 -205.5t-201.5 -65.5q-84 0 -138 18t-80 56t-34.5 79.5t-8.5 105.5v305q0 26 -1.5 39.5t-10 21.5
t-14.5 9.5t-29.5 4.5t-40.5 6v30h297v-30q-67 -4 -69 -6q-25 -26 -25 -75v-313q0 -97 39 -146t139 -49q114 1 154.5 43.5t40.5 163.5z" />
    <glyph glyph-name="Ucircumflex" unicode="&#xdb;" horiz-adv-x="737" 
d="M585 248v263q0 72 -18 94t-80 25v30h245v-30q-68 -6 -78 -19q-23 -23 -23 -100v-255q0 -140 -63 -205.5t-201 -65.5q-85 0 -139 18t-80 56t-34.5 79.5t-8.5 105.5v305q0 26 -1.5 39.5t-10 21.5t-14.5 9.5t-29.5 4.5t-40.5 6v30h297v-30q-67 -4 -69 -6q-25 -26 -25 -75
v-313q0 -98 39.5 -146.5t140.5 -48.5q113 1 153 42.5t40 164.5zM397 800l-5 2l-127 -96h-41l136 175h62l142 -175h-46z" />
    <glyph glyph-name="Udieresis" unicode="&#xdc;" horiz-adv-x="737" 
d="M547 776q0 -24 -14 -38.5t-42 -14.5q-22 0 -35.5 15t-13.5 39q0 23 12.5 38t36.5 15q21 0 38.5 -16.5t17.5 -37.5zM339 776q0 -53 -55 -53q-19 0 -33.5 16t-14.5 38q0 20 14 36.5t34 16.5t37.5 -15.5t17.5 -38.5zM585 248v263q0 72 -18 94t-80 25v30h245v-30
q-68 -6 -78 -19q-23 -23 -23 -100v-255q0 -140 -63 -205.5t-201 -65.5q-85 0 -139 18t-80 56t-34.5 79.5t-8.5 105.5v305q0 51 -23 66t-73 15v30h297v-30q-67 -4 -69 -6q-25 -26 -25 -75v-313q0 -97 39 -146t139 -49q64 1 101.5 11t58.5 36t28 61.5t7 98.5z" />
    <glyph glyph-name="Yacute" unicode="&#xdd;" horiz-adv-x="716" 
d="M550 847q0 -27 -33 -47l-158 -94h-54l163 155q24 24 45 24q34 0 37 -38zM484 630v30h232v-30q-45 -4 -83 -37v1l-217 -294v-188q0 -51 19 -65.5t90 -14.5v-32h-320v32q62 1 83 17v-1q22 13 22 75v168q-168 237 -212 287t-94 52v30h294v-30h-28q-45 -3 -45 -24
q0 -8 28.5 -49.5t77.5 -109t65 -90.5q2 5 42.5 66t79.5 120t39 61q0 26 -73 26z" />
    <glyph glyph-name="Thorn" unicode="&#xde;" horiz-adv-x="586" 
d="M454 345q0 69 -47 103t-145 37h-15q-23 0 -31 -15v-261q14 -2 36 -2q104 0 153 31.5t49 106.5zM19 630v30h291v-30q-60 -3 -77 -18.5t-17 -48.5v-28h81q46 0 90.5 -10t86 -30.5t67.5 -57.5t26 -86q0 -51 -18.5 -88t-45.5 -57.5t-67.5 -32t-74.5 -15t-76 -3.5t-69 3v-46
q0 -55 18.5 -67.5t78.5 -12.5v-32h-294v32q49 2 69 21.5t20 69.5v426q0 23 -1.5 35t-9.5 20t-14 10t-27 6.5t-37 9.5z" />
    <glyph glyph-name="germandbls" unicode="&#xdf;" horiz-adv-x="526" 
d="M327 32q35 0 55.5 33.5t20.5 94.5q0 184 -145 187q-35 2 -35 23q0 16 32 21q41 12 68 42.5t28 76.5q0 57 -24.5 94t-67.5 37q-41 0 -64 -29t-23 -70v-542h-153v28q40 3 52 15t12 30v374q0 118 45.5 174.5t138.5 56.5q77 0 126 -43t49 -110q0 -54 -27 -86t-96 -64
q37 -8 63 -18.5t53.5 -31t42 -56t14.5 -84.5q0 -77 -53.5 -135.5t-133.5 -58.5q-37 0 -68.5 20t-31.5 56q0 23 12 39t33 16q13 0 26.5 -9t16.5 -20q1 -2 4 -10.5t6 -16t7 -16t8.5 -13.5t8.5 -5z" />
    <glyph glyph-name="agrave" unicode="&#xe0;" horiz-adv-x="478" 
d="M295 107v120q-110 -47 -140 -66t-30 -41q0 -33 22 -47t46 -14q26 0 60.5 12.5t41.5 35.5zM150 344q0 -45 -49 -45q-41 0 -41 46q0 49 47 81.5t124 32.5q78 0 114.5 -35t36.5 -124v-192q0 -26 5 -38t23 -12t49 23v-35q-21 -23 -53.5 -40t-41.5 -17q-25 0 -47 20.5
t-22 46.5q-90 -63 -148 -67q-48 0 -78.5 32.5t-30.5 78.5q0 13 2.5 23t9 19.5t13 17t20.5 16t25.5 15t34.5 16.5t41.5 17.5t51.5 21.5t59 25v79q-6 71 -77 76q-31 0 -54.5 -14.5t-23.5 -28.5q0 -10 5 -25zM344 514h-43l-161 94q-27 22 -27 48q3 34 35 37q13 -8 45 -36
t61.5 -56.5l59 -57t30.5 -29.5z" />
    <glyph glyph-name="aacute" unicode="&#xe1;" horiz-adv-x="478" 
d="M162 515h-49l158 154q24 24 42 25q36 0 36 -38q0 -21 -32 -44.5t-83 -51.5t-72 -45zM295 107v120q-110 -47 -140 -66t-30 -41q0 -33 22 -47t46 -14q26 0 60.5 12.5t41.5 35.5zM150 344q0 -45 -49 -45q-41 0 -41 46q0 49 47 81.5t124 32.5q78 0 114.5 -35t36.5 -124v-192
q0 -26 5 -38t23 -12t49 23v-35q-21 -23 -53.5 -40t-41.5 -17q-25 0 -47 20.5t-22 46.5q-90 -63 -148 -67q-48 0 -78.5 32.5t-30.5 78.5q0 13 2.5 23t9 19.5t13 17t20.5 16t25.5 15t34.5 16.5t41.5 17.5t51.5 21.5t59 25v79q-6 71 -77 76q-33 0 -57.5 -14.5t-24.5 -28.5
q0 -10 7 -25z" />
    <glyph glyph-name="acircumflex" unicode="&#xe2;" horiz-adv-x="478" 
d="M105 518h-43l136 175h64l139 -175h-46l-125 97q-3 -1 -63 -49t-62 -48zM295 107v120q-110 -47 -140 -66t-30 -41q0 -33 22 -47t46 -14q26 0 60.5 12.5t41.5 35.5zM150 344q0 -45 -49 -45q-41 0 -41 46q0 49 47 81.5t124 32.5q78 0 114.5 -35t36.5 -124v-192q0 -26 5 -38
t23 -12t49 23v-35q-21 -23 -53.5 -40t-41.5 -17q-25 0 -47 20.5t-22 46.5q-90 -63 -148 -67q-48 0 -78.5 32.5t-30.5 78.5q0 13 2.5 23t9 19.5t13 17t20.5 16t25.5 15t34.5 16.5t41.5 17.5t51.5 21.5t59 25v79q-6 71 -77 76q-33 0 -57.5 -14.5t-24.5 -28.5q0 -10 7 -25z" />
    <glyph glyph-name="atilde" unicode="&#xe3;" horiz-adv-x="478" 
d="M220 545l-75 17q-33 0 -53 -42h-34l20.5 41t16 27.5t20 23.5t21.5 11t31 7q16 0 81.5 -23t68.5 -23q4 0 9.5 3t11 9.5t10.5 12t12 14t10 12.5h38q-11 -19 -23.5 -42t-18 -33.5t-15.5 -21.5t-23 -14.5t-34 -3.5q-9 1 -19.5 4.5t-26 10t-28.5 10.5zM295 107v120
q-110 -47 -140 -66t-30 -41q0 -33 22 -47t46 -14q26 0 60.5 12.5t41.5 35.5zM150 344q0 -45 -49 -45q-41 0 -41 46q0 49 47 81.5t124 32.5q78 0 114.5 -35t36.5 -124v-192q0 -18 1.5 -27t7.5 -16t17 -7q19 0 51 23v-35q-21 -23 -53.5 -40t-41.5 -17q-25 0 -47 20.5t-22 46.5
q-90 -63 -148 -67q-48 0 -78.5 32.5t-30.5 78.5q0 13 2.5 23t9 19.5t13 17t20.5 16t25.5 15t34.5 16.5t41.5 17.5t51.5 21.5t59 25v79q-6 71 -77 76q-33 0 -57.5 -14.5t-24.5 -28.5q0 -10 7 -25z" />
    <glyph glyph-name="adieresis" unicode="&#xe4;" horiz-adv-x="478" 
d="M295 107v120q-110 -47 -140 -66t-30 -41q0 -33 22 -47t46 -14q26 0 60.5 12.5t41.5 35.5zM150 344q0 -45 -49 -45q-41 0 -41 46q0 49 47 81.5t124 32.5q78 0 114.5 -35t36.5 -124v-192q0 -26 5 -38t23 -12t49 23v-35q-21 -23 -53.5 -40t-41.5 -17q-25 0 -47 20.5
t-22 46.5q-90 -63 -148 -67q-48 0 -78.5 32.5t-30.5 78.5q0 13 2.5 23t9 19.5t13 17t20.5 16t25.5 15t34.5 16.5t41.5 17.5t51.5 21.5t59 25v79q-6 71 -77 76q-33 0 -57.5 -14.5t-24.5 -28.5q0 -10 7 -25zM386 618q0 -22 -14.5 -37.5t-40.5 -15.5q-19 0 -34 17.5t-15 36.5
q0 21 14.5 37.5t34.5 16.5q24 0 39.5 -15.5t15.5 -39.5zM181 618q0 -22 -14 -37.5t-41 -15.5q-22 0 -35 14.5t-13 39.5q0 24 13.5 39t34.5 15q24 0 39.5 -15.5t15.5 -39.5z" />
    <glyph glyph-name="aring" unicode="&#xe5;" horiz-adv-x="478" 
d="M295 611q0 22 -20.5 40.5t-44.5 18.5q-29 0 -47 -16.5t-18 -41.5q0 -27 17 -42.5t45 -15.5t48 13.5t20 43.5zM141 556q-14 24 -14 56q0 41 28 71.5t74 30.5q43 0 73 -30t30 -73q0 -46 -34.5 -75.5t-76.5 -29.5q-47 0 -80 50zM295 107v120q-110 -47 -140 -66t-30 -41
q0 -33 22 -47t46 -14q26 0 60.5 12.5t41.5 35.5zM150 344q0 -45 -49 -45q-41 0 -41 46q0 49 47 81.5t124 32.5q78 0 114.5 -35t36.5 -124v-192q0 -26 5 -38t23 -12t49 23v-35q-21 -23 -53.5 -40t-41.5 -17q-25 0 -47 20.5t-22 46.5q-90 -63 -148 -67q-48 0 -78.5 32.5
t-30.5 78.5q0 13 2.5 23t9 19.5t13 17t20.5 16t25.5 15t34.5 16.5t41.5 17.5t51.5 21.5t59 25v79q-6 71 -77 76q-33 0 -57.5 -14.5t-24.5 -28.5q0 -10 7 -25z" />
    <glyph glyph-name="ccedilla" unicode="&#xe7;" horiz-adv-x="459" 
d="M269 51q14 0 30.5 3.5t31.5 9.5t29.5 13t26.5 13.5t21 12.5t14 9l5 4q4 0 7.5 -6t3.5 -10q-24 -43 -81.5 -71.5t-104.5 -38.5l-17 -40h21q38 0 62.5 -18t24.5 -54q0 -40 -31 -63.5t-89 -23.5t-98 19l18 41q41 -15 67 -15q38 0 47 6t9 25q0 22 -10.5 28.5t-33.5 6.5
q-4 0 -12.5 -0.5t-12.5 -0.5q-16 0 -23 6l36 85q-76 11 -122 73t-46 148q0 110 63.5 178t162.5 68q67 0 113 -32t46 -74q0 -20 -12 -33t-36 -13q-7 0 -13 1t-10.5 3.5t-8 4.5t-6.5 6.5l-5 7.5t-4.5 10t-3.5 10.5t-3.5 12.5t-3.5 13q-3 9 -5.5 14.5t-4.5 10.5t-5.5 7.5
t-4.5 4.5t-6.5 3.5t-7.5 2t-11 1t-13 1.5q-64 0 -103 -50.5t-39 -113.5q0 -87 44.5 -146.5t103.5 -59.5z" />
    <glyph glyph-name="egrave" unicode="&#xe8;" horiz-adv-x="465" 
d="M359 520h-50l-158 94q-30 22 -30 48q4 37 37 37q11 0 201 -179zM405 270h-287q0 -214 162 -214q34 0 59 7t39 16t46 33q4 0 9 -4t5 -8q-27 -47 -73.5 -79t-90.5 -32q-96 0 -164 67t-68 158q0 115 60 180t157 65q69 0 121.5 -39t52.5 -109q0 -41 -28 -41zM228 414
q-41 0 -70.5 -25.5t-37.5 -76.5h181q29 9 29 30q0 30 -29.5 51t-72.5 21z" />
    <glyph glyph-name="eacute" unicode="&#xe9;" horiz-adv-x="465" 
d="M172 520h-50l158 154q28 25 41 25q37 0 37 -38q0 -26 -30 -47q-4 0 -40.5 -22.5t-75.5 -47t-40 -24.5zM405 270h-287q0 -214 162 -214q34 0 59 7t39 16t46 33q4 0 9 -4t5 -8q-27 -47 -73.5 -79t-90.5 -32q-96 0 -164 67t-68 158q0 115 60 180t157 65q69 0 121.5 -39
t52.5 -109q0 -41 -28 -41zM228 414q-41 0 -70.5 -25.5t-37.5 -76.5h181q29 9 29 30q0 30 -29.5 51t-72.5 21z" />
    <glyph glyph-name="ecircumflex" unicode="&#xea;" horiz-adv-x="465" 
d="M114 520h-42l136 175h62l138 -175h-44l-124 97q-3 -1 -34.5 -25.5t-61 -48t-30.5 -23.5zM405 270h-287q0 -214 162 -214q34 0 59 7t39 16t46 33q4 0 9 -4t5 -8q-27 -47 -73.5 -79t-90.5 -32q-96 0 -164 67t-68 158q0 115 60 180t157 65q69 0 121.5 -39t52.5 -109
q0 -41 -28 -41zM228 414q-41 0 -70.5 -25.5t-37.5 -76.5h181q29 9 29 30q0 30 -29.5 51t-72.5 21z" />
    <glyph glyph-name="edieresis" unicode="&#xeb;" horiz-adv-x="465" 
d="M394 573q0 -23 -16 -38t-38 -15q-16 0 -33 16.5t-17 37.5t15.5 37.5t34.5 16.5q23 0 38.5 -15t15.5 -40zM190 573q0 -24 -16.5 -38.5t-37.5 -14.5q-17 0 -33.5 17t-16.5 37q0 23 15 38.5t35 15.5q25 0 39.5 -14.5t14.5 -40.5zM405 270h-287q0 -214 162 -214q34 0 59 7
t39 16t46 33q4 0 9 -4t5 -8q-27 -47 -73.5 -79t-90.5 -32q-96 0 -164 67t-68 158q0 115 60 180t157 65q69 0 121.5 -39t52.5 -109q0 -41 -28 -41zM228 414q-41 0 -70.5 -25.5t-37.5 -76.5h181q29 9 29 30q0 30 -29.5 51t-72.5 21z" />
    <glyph glyph-name="igrave" unicode="&#xec;" horiz-adv-x="279" 
d="M272 514h-49l-158 94q-31 22 -31 48q5 37 36 37q18 0 42 -25zM24 380v27l163 53l6 -9v-346q0 -12 1 -20.5t1 -16t3.5 -12.5t4 -9t6.5 -7t7.5 -4.5t10.5 -3t11 -1.5t14.5 -1.5t16.5 -1.5v-28h-248v28q48 0 66 15t19 62v226q0 50 -28 54z" />
    <glyph glyph-name="iacute" unicode="&#xed;" horiz-adv-x="279" 
d="M86 515h-50l158 154q21 24 41 25q16 0 26.5 -10t10.5 -28q0 -26 -30 -47q-4 0 -40.5 -22.5t-75.5 -47t-40 -24.5zM24 380v27l163 53l6 -9v-346q0 -12 1 -20.5t1 -16t3.5 -12.5t4 -9t6.5 -7t7.5 -4.5t10.5 -3t11 -1.5t14.5 -1.5t16.5 -1.5v-28h-248v28q23 1 34.5 3t25.5 9
t19.5 23t5.5 42v226q0 50 -28 54z" />
    <glyph glyph-name="icircumflex" unicode="&#xee;" horiz-adv-x="280" 
d="M27 518h-43l136 175h64l139 -175h-46l-125 97q-4 -2 -64 -49.5t-61 -47.5zM24 380v27l163 53l6 -9v-346q0 -12 1 -20.5t1 -16t3.5 -12.5t4 -9t6.5 -7t7.5 -4.5t10.5 -3t11 -1.5t14.5 -1.5t16.5 -1.5v-28h-248v28q23 0 36 2t26 9t18 23t5 43v226q0 50 -28 54z" />
    <glyph glyph-name="idieresis" unicode="&#xef;" horiz-adv-x="279" 
d="M308 618q0 -23 -14.5 -38t-41.5 -15q-18 0 -33 17t-15 37q0 21 14.5 37.5t33.5 16.5q25 0 40.5 -15.5t15.5 -39.5zM103 618q0 -22 -14 -37.5t-41 -15.5q-22 0 -34.5 14.5t-12.5 39.5q0 24 13.5 39t33.5 15q23 0 39 -15.5t16 -39.5zM24 380v27l163 53l6 -9v-346
q0 -12 1 -20.5t1 -16t3.5 -12.5t4 -9t6.5 -7t7.5 -4.5t10.5 -3t11 -1.5t14.5 -1.5t16.5 -1.5v-28h-248v28q47 0 65.5 15.5t19.5 61.5v226q0 50 -28 54z" />
    <glyph glyph-name="eth" unicode="&#xf0;" horiz-adv-x="540" 
d="M498 284q-1 -120 -61.5 -207.5t-170.5 -87.5q-96 0 -159.5 66.5t-63.5 166.5q0 107 62.5 172t155.5 65q47 0 125 -50q-7 32 -35.5 75.5t-57.5 74.5l-128 -65l-42 43l123 57q-64 38 -144 52l57 32q5 0 43.5 -11t74.5 -22t36 -12q0 1 25.5 12.5t51.5 23.5t28 13l36 -38
l-92 -49q34 -31 85 -135.5t51 -175.5zM405 201q0 124 -71 189v-1q-36 33 -77 33q-56 0 -88.5 -48t-32.5 -122q0 -84 38.5 -149.5t107.5 -71.5q45 0 74.5 28.5t39 64t9.5 77.5z" />
    <glyph glyph-name="ntilde" unicode="&#xf1;" horiz-adv-x="529" 
d="M516 0h-217v28q38 4 51.5 20t13.5 54v205q0 88 -74 88q-22 0 -39.5 -5.5t-25.5 -11t-21.5 -17.5t-19.5 -17v-274q0 -10 3 -17.5t6 -11.5t11 -6.5t12.5 -3.5t17 -1.5t17.5 -1.5v-28h-221v28q42 4 54 16.5t12 47.5v243q0 41 -4.5 47.5t-32.5 10.5q-22 0 -32 -11v35
q114 33 142 42l14 -2v-68q77 70 146 70q58 0 89.5 -38.5t31.5 -112.5v-225q0 -30 13 -39.5t53 -15.5v-28zM332 520q-19 0 -77.5 21t-69.5 21q-33 0 -51 -42h-38q26 96 96 109q13 -7 84 -26t81 -19q23 0 54 51h33q-17 -66 -43 -90.5t-69 -24.5z" />
    <glyph glyph-name="ograve" unicode="&#xf2;" 
d="M386 514h-48l-158 94q-31 19 -31 48q5 36 37 37q18 0 42 -25zM266 460q90 0 158.5 -70.5t68.5 -165.5q0 -94 -68.5 -164.5t-158.5 -70.5q-89 0 -157.5 70.5t-68.5 164.5q0 95 68.5 165.5t157.5 70.5zM265 423q-54 0 -94 -64.5t-40 -138.5q0 -73 39.5 -132t94.5 -59
q54 0 94 59.5t40 131.5q0 74 -40 138.5t-94 64.5z" />
    <glyph glyph-name="oacute" unicode="&#xf3;" 
d="M200 515h-50l158 154q28 25 41 25q37 0 37 -38q0 -26 -29 -47q-4 0 -41 -22t-76 -47zM266 460q90 0 158.5 -70.5t68.5 -165.5q0 -94 -68.5 -164.5t-158.5 -70.5q-89 0 -157.5 70.5t-68.5 164.5q0 95 68.5 165.5t157.5 70.5zM265 423q-54 0 -94 -64.5t-40 -138.5
q0 -73 39.5 -132t94.5 -59q54 0 94 59.5t40 131.5q0 74 -40 138.5t-94 64.5z" />
    <glyph glyph-name="ocircumflex" unicode="&#xf4;" 
d="M142 518h-43l137 175h62l139 -175h-45l-126 97q-4 -2 -63.5 -49.5t-60.5 -47.5zM266 460q90 0 158.5 -70.5t68.5 -165.5q0 -94 -68.5 -164.5t-158.5 -70.5q-89 0 -157.5 70.5t-68.5 164.5q0 95 68.5 165.5t157.5 70.5zM265 423q-54 0 -94 -64.5t-40 -138.5
q0 -73 39.5 -132t94.5 -59q54 0 94 59.5t40 131.5q0 74 -40 138.5t-94 64.5z" />
    <glyph glyph-name="otilde" unicode="&#xf5;" 
d="M266 460q90 0 158.5 -70.5t68.5 -165.5q0 -94 -68.5 -164.5t-158.5 -70.5q-89 0 -157.5 70.5t-68.5 164.5q0 95 68.5 165.5t157.5 70.5zM265 423q-54 0 -94 -64.5t-40 -138.5q0 -73 39.5 -132t94.5 -59q54 0 94 59.5t40 131.5q0 74 -40 138.5t-94 64.5zM442 635
q-29 -115 -111 -115q-143 42 -151 42q-32 0 -52 -42h-34q25 98 94 109q2 0 81 -22.5t84 -22.5q11 0 26 26.5t29 26.5z" />
    <glyph glyph-name="odieresis" unicode="&#xf6;" 
d="M266 460q90 0 158.5 -70.5t68.5 -165.5q0 -94 -68.5 -164.5t-158.5 -70.5q-89 0 -157.5 70.5t-68.5 164.5q0 95 68.5 165.5t157.5 70.5zM265 423q-54 0 -94 -64.5t-40 -138.5q0 -73 39.5 -132t94.5 -59q54 0 94 59.5t40 131.5q0 74 -40 138.5t-94 64.5zM423 618
q0 -22 -16.5 -37.5t-38.5 -15.5q-19 0 -34.5 19t-15.5 37q0 21 16 36.5t34 15.5q22 0 38.5 -16t16.5 -39zM218 618q0 -23 -16 -38t-39 -15q-17 0 -33 17t-16 37q0 24 14 39t35 15t38 -15.5t17 -39.5z" />
    <glyph glyph-name="divide" unicode="&#xf7;" horiz-adv-x="564" 
d="M341 452q0 -22 -18.5 -39.5t-39.5 -17.5q-22 0 -39.5 15.5t-17.5 41.5q4 63 58 63q25 0 41 -18t16 -45zM544 214h-521v77h521v-77zM341 50q0 -25 -18.5 -43t-39.5 -18q-23 0 -40 17.5t-17 43.5q0 25 17.5 42.5t40.5 17.5q24 0 40.5 -18t16.5 -42z" />
    <glyph glyph-name="oslash" unicode="&#xf8;" horiz-adv-x="537" 
d="M335 393q-37 29 -78 29q-45 -3 -83 -49.5t-38 -97.5q0 -126 42 -165zM404 219q0 42 -10 68.5t-32 61.5l-164 -286l4 -6q5 -6 6 -6.5t5.5 -4.5t7.5 -5t9.5 -3.5t13 -3.5t16.5 -2t22 -1q122 2 122 168v20zM425 549h45l-69 -125q43 -30 70 -79.5t27 -110.5q0 -105 -68 -175
t-160 -70q-50 0 -98 20l-68 -119h-43l78 140q-96 77 -96 196q0 111 63.5 172t162.5 61q49 0 92 -14q5 5 32.5 52.5t31.5 51.5z" />
    <glyph glyph-name="ugrave" unicode="&#xf9;" horiz-adv-x="525" 
d="M390 514h-48l-159 94q-30 19 -30 48q5 36 36 37q20 0 42 -25zM506 36q-4 -2 -19.5 -5t-48.5 -13t-75 -27l-7 2v73l-45 -32q-41 -45 -104 -45q-61 0 -92.5 39.5t-31.5 94.5v245q0 33 -13.5 44.5t-51.5 13.5v23h154v-323q0 -33 19.5 -50t52.5 -17q24 0 46.5 6t42.5 24.5
t20 48.5v227q0 35 -15 45.5t-61 12.5v26h163v-339q0 -31 14 -40t46 -9h6v-25z" />
    <glyph glyph-name="uacute" unicode="&#xfa;" horiz-adv-x="525" 
d="M203 515h-49l158 154q30 25 43 25q35 0 35 -38q0 -26 -30 -47q-3 0 -40.5 -22.5t-75.5 -46.5t-41 -25zM506 36q-4 -2 -19.5 -5t-48.5 -13t-75 -27l-8 2v73l-44 -32q-41 -45 -104 -45q-61 0 -92.5 39.5t-31.5 94.5v245q0 33 -13.5 44.5t-51.5 13.5v23h154v-323
q0 -33 19.5 -50t52.5 -17q24 0 46.5 6t42.5 24.5t20 48.5v227q0 35 -15 45.5t-61 12.5v26h163v-339q0 -31 14 -40t46 -9h6v-25z" />
    <glyph glyph-name="ucircumflex" unicode="&#xfb;" horiz-adv-x="525" 
d="M506 36q-4 -2 -19.5 -5t-48.5 -13t-75 -27l-7 2v73l-45 -32q-41 -45 -104 -45q-61 0 -92.5 39.5t-31.5 94.5v245q0 33 -13.5 44.5t-51.5 13.5v23h154v-323q0 -33 19.5 -50t52.5 -17q24 0 46.5 6t42.5 24.5t20 48.5v227q0 35 -15 45.5t-61 12.5v26h163v-339q0 -31 14 -40
t46 -9h6v-25zM146 518h-43l136 175h63l139 -175h-46l-126 97q-2 -1 -32.5 -25.5t-60 -48t-30.5 -23.5z" />
    <glyph glyph-name="udieresis" unicode="&#xfc;" horiz-adv-x="525" 
d="M427 618q0 -22 -16.5 -37.5t-38.5 -15.5q-16 0 -33 16.5t-17 37.5t15.5 37.5t34.5 16.5q22 0 38.5 -16t16.5 -39zM222 618q0 -23 -16 -38t-39 -15q-18 0 -34 17t-16 37q0 24 14.5 39t35.5 15t38 -15.5t17 -39.5zM506 36q-4 -2 -19.5 -5t-48.5 -13t-75 -27l-7 2v73
l-45 -32q-41 -45 -104 -45q-61 0 -92.5 39.5t-31.5 94.5v245q0 33 -13.5 44.5t-51.5 13.5v23h154v-323q0 -33 19.5 -50t52.5 -17q24 0 46.5 6t42.5 24.5t20 48.5v227q0 35 -15 45.5t-61 12.5v26h163v-339q0 -31 14 -40t46 -9h6v-25z" />
    <glyph glyph-name="yacute" unicode="&#xfd;" horiz-adv-x="488" 
d="M176 -117q22 34 42 78t20 74q0 54 -41.5 137.5t-141.5 225.5q-13 20 -52 28v23h214v-24q-46 -7 -60 -23q11 -30 28 -68t30.5 -64.5t36.5 -71t33 -63.5q99 253 100 258v5q0 27 -47 27v24h142v-24q-24 -4 -40 -31v2q-4 -11 -45.5 -118.5t-78.5 -202.5l-36 -95q0 1 -1 4
q-46 -112 -100.5 -173t-111.5 -61q-33 0 -53.5 14.5t-20.5 43.5q0 20 12 34.5t31 14.5q13 0 44 -14.5t43 -14.5q7 0 20 14t23 28zM182 515h-50l158 154q28 25 41 25q38 0 38 -38q0 -26 -30 -47q-4 0 -41 -22t-76 -47z" />
    <glyph glyph-name="thorn" unicode="&#xfe;" horiz-adv-x="517" 
d="M475 247q0 -130 -52.5 -188.5t-136.5 -58.5q-64 0 -131 25v-179q0 -44 13 -55t78 -12v-29h-253v29q47 3 59.5 14.5t12.5 36.5v755q0 46 -42 46q-11 0 -26 -5v32q84 18 151 42l7 -7v-303q65 69 145 69q85 0 130 -62t45 -150zM295 383q-12 2 -28 2q-77 0 -112 -54v-241
q0 -22 39.5 -39t66.5 -17q43 0 72.5 29.5t40.5 67t11 77.5q0 48 -8.5 83.5t-19 52.5t-25 26.5t-22 11t-14.5 1.5h-1z" />
    <glyph glyph-name="ydieresis" unicode="&#xff;" horiz-adv-x="488" 
d="M176 -117q22 34 42 78t20 74q0 54 -41.5 137.5t-141.5 225.5q-13 20 -52 28v23h214v-24q-46 -7 -60 -23q11 -30 28 -68t30.5 -64.5t36.5 -71t33 -63.5q99 253 100 258v5q0 27 -47 27v24h142v-24q-24 -4 -40 -31v2q-4 -11 -45.5 -118.5t-78.5 -202.5l-36 -95q0 1 -1 4
q-46 -112 -100.5 -173t-111.5 -61q-33 0 -53.5 14.5t-20.5 43.5q0 20 12 34.5t31 14.5q13 0 44 -14.5t43 -14.5q7 0 20 14t23 28zM405 618q0 -22 -16.5 -37.5t-38.5 -15.5q-16 0 -32.5 16.5t-16.5 37.5t15.5 37.5t33.5 16.5q22 0 38.5 -16t16.5 -39zM200 618q0 -23 -16 -38
t-39 -15q-17 0 -33 17t-16 37q0 24 14 39t35 15t38 -15.5t17 -39.5z" />
    <glyph glyph-name="dotlessi" unicode="&#x131;" horiz-adv-x="280" 
d="M24 380v27l163 52l6 -8v-346q0 -12 1 -20.5t1 -16t3.5 -12.5t4 -9t6.5 -7t7.5 -4.5t10.5 -3t11 -1.5t14.5 -1.5t16.5 -1.5v-28h-248v28q62 3 73 17q12 17 12 60v226q0 50 -28 54z" />
    <glyph glyph-name="Lslash" unicode="&#x141;" horiz-adv-x="648" 
d="M297 343l-68 -38v-220q0 -21 15 -28t70 -7h72q115 0 180 52q14 15 42 80h34l-53 -182h-561v32q59 3 74 17.5t15 47.5v167l-80 -36v77l80 36v208q0 49 -19 65t-70 16v30h296v-30q-62 -4 -75 -13q-20 -13 -20 -68v-167l68 38v-77z" />
    <glyph glyph-name="lslash" unicode="&#x142;" horiz-adv-x="311" 
d="M283 365l-80 -36v-243q0 -36 13.5 -44.5t62.5 -13.5v-28h-246v28q23 1 38 4.5t29 17.5t14 39v204l-86 -33v60l86 33v223q-1 28 -20 41.5t-47 13.5q-7 0 -17 -2v29q98 21 165 42l8 -2v-309l80 36v-60z" />
    <glyph glyph-name="Scaron" unicode="&#x160;" 
d="M395 881h52l-137 -175h-69l-132 175h43l123 -99q2 2 31.5 28t57 49t31.5 23v-1zM394 137q0 39 -34.5 73.5t-84 62.5t-99 58t-84 73.5t-34.5 96.5q0 77 54.5 125.5t125.5 48.5q48 0 78 -5t39 -11.5t18.5 -11.5t21.5 -5q27 0 31 33h27l23 -222h-31q-47 170 -187 170
q-44 0 -75.5 -23t-31.5 -61q0 -25 23.5 -55.5t59.5 -54.5q13 -7 49.5 -27.5t59 -33.5t55 -37t51.5 -46t33.5 -52.5t14.5 -62.5q0 -86 -67 -135.5t-146 -49.5q-54 0 -91.5 9t-55 18t-24.5 9q-12 0 -20 -9t-8 -26h-28l-26 222h25q40 -98 86.5 -136t121.5 -38q47 0 88.5 29.5
t41.5 73.5z" />
    <glyph glyph-name="scaron" unicode="&#x161;" horiz-adv-x="398" 
d="M196 460q29 0 61 -10t39 -10l2 2q3 1 6.5 3.5t5.5 3.5h20v-142h-21q-18 58 -42 88t-68 30q-78 0 -78 -61q0 -38 43 -57l111 -64q37 -22 63 -58.5t26 -62.5q0 -58 -48 -95.5t-98 -37.5q-36 0 -74 9.5t-50 9.5q-13 0 -25 -12h-16v165h22q18 -82 39.5 -109t88.5 -27
q37 0 61 16t24 45q0 23 -22 45.5t-45 34.5t-46 20q-122 66 -122 147q0 64 42.5 95.5t100.5 31.5zM329 669h44l-137 -175h-65l-134 175h42l124 -99q19 16 68.5 54.5t57.5 44.5z" />
    <glyph glyph-name="Ydieresis" unicode="&#x178;" horiz-adv-x="712" 
d="M527 776q0 -24 -14.5 -38.5t-40.5 -14.5t-42 15.5t-16 38.5q0 20 17.5 36.5t40.5 16.5q21 0 38 -15t17 -39zM320 776q0 -24 -14 -38.5t-40 -14.5q-22 0 -35.5 14t-13.5 40q0 18 15 35.5t34 17.5q21 0 37.5 -15t16.5 -39zM414 300v-188q0 -51 18.5 -65.5t87.5 -14.5v-32
h-320v32q59 0 81.5 15.5t23.5 75.5v168q-6 8 -77.5 102.5t-117.5 154.5t-54 65q-21 16 -55 17v30h292v-30h-27q-46 -3 -46 -24q3 -19 19 -39l153 -210q0 1 75 110t76 110q10 22 10 27q0 26 -74 26v30h232v-30q-45 -4 -83 -37v1q-10 -8 -63.5 -81.5t-102.5 -142.5z" />
    <glyph glyph-name="Zcaron" unicode="&#x17d;" horiz-adv-x="649" 
d="M629 184l-25 -184h-588v25l446 586h-219q-35 0 -56 -0.5t-39 -5.5t-25.5 -7.5t-16.5 -16.5t-11.5 -22t-10.5 -34t-14 -43h-31l20 178h548v-23l-442 -587h259q49 0 81 8.5t51.5 29.5t28.5 40.5t20 55.5h24zM450 881h46l-138 -175h-66l-136 175h45l125 -99q9 6 65 51.5
t59 47.5z" />
    <glyph glyph-name="zcaron" unicode="&#x17e;" horiz-adv-x="462" 
d="M396 669l-136 -175h-67l-136 175h45l125 -99q16 11 34 25t45 36t47 38h43zM431 144l-14 -144h-392v25l266 385h-133q-18 0 -29 -0.5t-19.5 -4t-12.5 -6t-8 -11.5t-5 -15.5t-4.5 -22t-6.5 -27.5h-17v126h358v-21l-271 -387h138q27 0 42 0.5t28.5 4t18 6t11 13.5t8 18.5
t7.5 28.5t11 38z" />
    <glyph glyph-name="longs" unicode="&#x17f;" horiz-adv-x="339" 
d="M199 578v-471q0 -24 4 -38.5t8.5 -22.5t19.5 -12t25.5 -4.5t38.5 -1.5v-28h-269v28q49 2 67.5 16t18.5 63v301h-84l84 41q0 110 23 153q21 39 56.5 68t80.5 29q55 0 92.5 -18t37.5 -48q0 -20 -11 -33.5t-31 -13.5q-22 0 -53 37.5t-49 38.5q-59 0 -59 -84z" />
    <glyph glyph-name="florin" unicode="&#x192;" horiz-adv-x="406" 
d="M405 611q0 -20 -11 -33.5t-30 -13.5q-22 0 -53.5 37.5t-48.5 38.5q-61 0 -61 -84v-107h130v-41h-128v-301q0 -39 -11 -91t-38 -86q-22 -35 -45 -56.5t-63 -50.5l-28 -32v100q34 3 65.5 41.5t31.5 95.5v380h-84v41h84q0 86 24 131q19 37 64 67.5t89 30.5q49 0 81 -20
t32 -47z" />
    <glyph glyph-name="circumflex" unicode="&#x2c6;" horiz-adv-x="402" 
d="M78 518h-43l136 175h62l139 -175h-45l-124 97q-3 -1 -34 -25.5t-60.5 -48t-30.5 -23.5z" />
    <glyph glyph-name="caron" unicode="&#x2c7;" horiz-adv-x="388" 
d="M366 669l-136 -175h-67l-136 175h45l125 -99q16 11 34 25t45 36t47 38h43z" />
    <glyph glyph-name="uni02C9" unicode="&#x2c9;" horiz-adv-x="381" 
d="M321 585h-258v75h258v-75z" />
    <glyph glyph-name="breve" unicode="&#x2d8;" horiz-adv-x="343" 
d="M301 656q-16 -170 -128 -170q-57 0 -89.5 41.5t-33.5 128.5l21 1q11 -50 35 -73t69 -23q41 0 62.5 20t41.5 76z" />
    <glyph glyph-name="dotaccent" unicode="&#x2d9;" horiz-adv-x="213" 
d="M161 626q0 -28 -16 -44.5t-40 -16.5t-37.5 16t-13.5 42q0 23 15.5 39t35.5 16q55 -4 56 -52z" />
    <glyph glyph-name="ring" unicode="&#x2da;" horiz-adv-x="305" 
d="M220 611q0 22 -21 40.5t-45 18.5q-29 0 -47 -16.5t-18 -41.5q0 -27 17 -42.5t45 -15.5t48.5 13.5t20.5 43.5zM153 714q43 0 73 -30t30 -73q0 -46 -34.5 -75.5t-76.5 -29.5t-68 32t-26 74q0 41 28 71.5t74 30.5z" />
    <glyph glyph-name="ogonek" unicode="&#x2db;" horiz-adv-x="261" 
d="M214 -67l16 -22q-8 -44 -37.5 -65.5t-61.5 -21.5q-28 0 -55 25.5t-27 60.5q0 46 47 93h41q-42 -37 -42 -74q0 -16 12 -33t32 -17q19 0 41.5 15t33.5 39z" />
    <glyph glyph-name="tilde" unicode="&#x2dc;" horiz-adv-x="428" 
d="M203 545l-75 17q-34 0 -53 -42h-34l20.5 41t16 27.5t20 23.5t21.5 11t31 7q16 0 81.5 -23t68.5 -23q4 0 9.5 3t11 9.5t10.5 12t12 14t10 12.5h36q-11 -19 -23 -42t-17.5 -33.5t-15.5 -21.5t-23 -14.5t-33 -3.5q-11 0 -24 4.5t-29 11.5t-21 9z" />
    <glyph glyph-name="hungarumlaut" unicode="&#x2dd;" horiz-adv-x="496" 
d="M78 515h-50l158 154q28 25 41 25q37 0 37 -38q0 -26 -30 -47q-4 0 -40.5 -22.5t-75.5 -47t-40 -24.5zM280 515h-51l158 154q28 25 41 25q37 0 37 -38q0 -26 -29 -47q-6 0 -71.5 -41t-84.5 -53z" />
    <glyph glyph-name="Delta" unicode="&#x394;" horiz-adv-x="565" 
d="M556 0h-544v28l249 630l39 12l256 -642v-28zM444 51l-194 486l-190 -486h384z" />
    <glyph glyph-name="Delta" unicode="&#x2206;" horiz-adv-x="565" 
d="M556 0h-544v28l249 630l39 12l256 -642v-28zM444 51l-194 486l-190 -486h384z" />
    <glyph glyph-name="Omega" unicode="&#x3a9;" horiz-adv-x="691" 
d="M669 149l-24 -149h-232l-5 21q4 7 22.5 40.5t28 51t25.5 53.5t24 62.5t15 62.5t7 69q0 144 -52 211t-132 67q-82 0 -131 -67t-49 -212q0 -47 9.5 -92.5t33.5 -97.5t34.5 -72.5t41.5 -75.5l-6 -21h-230l-23 149l19 1q16 -46 31.5 -59.5t48.5 -13.5h103q-32 25 -54.5 47
t-50.5 58.5t-43 83.5t-15 100q0 137 80.5 221t203.5 84q126 0 203.5 -80t77.5 -217q0 -47 -14.5 -91t-42 -82.5t-51.5 -64.5t-59 -59h110q33 0 47 13t29 60z" />
    <glyph glyph-name="Omega" unicode="&#x2126;" horiz-adv-x="691" 
d="M669 149l-24 -149h-232l-5 21q4 7 22.5 40.5t28 51t25.5 53.5t24 62.5t15 62.5t7 69q0 144 -52 211t-132 67q-82 0 -131 -67t-49 -212q0 -47 9.5 -92.5t33.5 -97.5t34.5 -72.5t41.5 -75.5l-6 -21h-230l-23 149l19 1q16 -46 31.5 -59.5t48.5 -13.5h103q-32 25 -54.5 47
t-50.5 58.5t-43 83.5t-15 100q0 137 80.5 221t203.5 84q126 0 203.5 -80t77.5 -217q0 -47 -14.5 -91t-42 -82.5t-51.5 -64.5t-59 -59h110q33 0 47 13t29 60z" />
    <glyph glyph-name="pi" unicode="&#x3c0;" horiz-adv-x="543" 
d="M499 464l18 -9q-11 -69 -35 -99q-19 -5 -63 -5q-7 -44 -7 -159v-54q0 -86 46 -86q19 0 45 26l9 -23q-18 -31 -45.5 -49t-55.5 -18q-85 0 -85 126q0 77 9 239q-122 2 -152 2v-15q0 -100 -13 -179.5t-25.5 -111.5t-22.5 -44q-29 -14 -53 -17l-4 19q45 61 66.5 161.5
t21.5 188.5q-44 0 -69 -9.5t-58 -33.5l-10 24q1 2 9 12.5t10 13.5t10 12.5t12 13t13 11.5t15.5 11t17 8.5t20.5 7.5t23 4t27 2q34 0 125.5 -2t140.5 -2q23 0 35.5 6.5t24.5 27.5z" />
    <glyph glyph-name="uni2000" unicode="&#x2000;" horiz-adv-x="500" 
 />
    <glyph glyph-name="uni2001" unicode="&#x2001;" horiz-adv-x="1000" 
 />
    <glyph glyph-name="uni2002" unicode="&#x2002;" horiz-adv-x="500" 
 />
    <glyph glyph-name="uni2003" unicode="&#x2003;" horiz-adv-x="1000" 
 />
    <glyph glyph-name="uni2004" unicode="&#x2004;" horiz-adv-x="333" 
 />
    <glyph glyph-name="uni2005" unicode="&#x2005;" horiz-adv-x="250" 
 />
    <glyph glyph-name="uni2006" unicode="&#x2006;" horiz-adv-x="166" 
 />
    <glyph glyph-name="uni2007" unicode="&#x2007;" horiz-adv-x="610" 
 />
    <glyph glyph-name="uni2008" unicode="&#x2008;" horiz-adv-x="218" 
 />
    <glyph glyph-name="uni2009" unicode="&#x2009;" horiz-adv-x="100" 
 />
    <glyph glyph-name="uni200A" unicode="&#x200a;" horiz-adv-x="10" 
 />
    <glyph glyph-name="uni2010" unicode="&#x2010;" horiz-adv-x="381" 
d="M64 188v75h258v-75h-258z" />
    <glyph glyph-name="uni2011" unicode="&#x2011;" horiz-adv-x="381" 
d="M64 188v75h258v-75h-258z" />
    <glyph glyph-name="figuredash" unicode="&#x2012;" horiz-adv-x="610" 
d="M64 188v75h487v-75h-487z" />
    <glyph glyph-name="endash" unicode="&#x2013;" horiz-adv-x="500" 
d="M64 188v75h377v-75h-377z" />
    <glyph glyph-name="emdash" unicode="&#x2014;" horiz-adv-x="1000" 
d="M64 188v75h877v-75h-877z" />
    <glyph glyph-name="afii00208" unicode="&#x2015;" horiz-adv-x="2000" 
d="M64 188v75h1877v-75h-1877z" />
    <glyph glyph-name="uni2016" unicode="&#x2016;" horiz-adv-x="386" 
d="M328 -15h-71v686h71v-686zM135 -15h-71v686h71v-686z" />
    <glyph glyph-name="quoteleft" unicode="&#x2018;" horiz-adv-x="236" 
d="M132 541q38 0 50.5 -13t12.5 -45q0 -29 -18.5 -44.5t-44.5 -15.5q-37 0 -61.5 30.5t-24.5 71.5q0 51 39 90t84 59l10 -30q-84 -55 -84 -103h37z" />
    <glyph glyph-name="quoteright" unicode="&#x2019;" horiz-adv-x="230" 
d="M104 552q-25 0 -43.5 15t-18.5 42t19 44.5t43 17.5q38 0 61 -27t23 -67q0 -50 -39.5 -96.5t-78.5 -60.5l-11 28q85 57 85 102h-28q-10 0 -12 2z" />
    <glyph glyph-name="quotesinglbase" unicode="&#x201a;" horiz-adv-x="228" 
d="M70 -141l-11 31q85 57 85 99q-102 0 -102 61q0 30 18 45.5t43 15.5q34 0 59.5 -26.5t25.5 -64.5q0 -88 -118 -161z" />
    <glyph glyph-name="uni201B" unicode="&#x201b;" horiz-adv-x="230" 
d="M125 552q-2 -2 -11 -2h-27q0 -45 84 -102l-11 -28q-39 14 -78.5 60.5t-39.5 96.5q0 40 22.5 67t60.5 27q24 0 43.5 -17.5t19.5 -44.5t-19 -42t-44 -15z" />
    <glyph glyph-name="quotedblleft" unicode="&#x201c;" horiz-adv-x="475" 
d="M134 541q33 0 46.5 -14t13.5 -44q0 -28 -17.5 -44t-42.5 -16q-43 0 -66 33.5t-23 73.5q0 26 12 49.5t30 39.5t37 29t36 22l8 4l11 -30q-88 -58 -88 -100q13 -3 43 -3zM374 541q32 0 45.5 -14.5t13.5 -43.5q0 -27 -17.5 -43.5t-41.5 -16.5q-43 0 -63.5 28t-20.5 74
q0 16 3.5 30.5t7.5 25t14.5 22.5t15.5 18t19.5 16.5t18 13t20.5 13t18 10.5l11 -30q-87 -57 -87 -100h7q5 0 20 -1.5t16 -1.5z" />
    <glyph glyph-name="quotedblright" unicode="&#x201d;" horiz-adv-x="470" 
d="M106 552q-60 0 -60 57q0 62 60 62q36 0 58.5 -25.5t22.5 -69.5q0 -55 -37 -97.5t-80 -58.5l-9 28q86 56 86 102q-4 2 -41 2zM346 552q-61 0 -61 57q0 62 61 62q38 0 59.5 -26.5t21.5 -67.5q0 -57 -37 -98.5t-80 -58.5l-11 28q88 58 88 102h-11q-30 0 -30 2z" />
    <glyph glyph-name="quotedblbase" unicode="&#x201e;" horiz-adv-x="466" 
d="M60 -110q86 55 86 95q-10 12 -26 12q-8 0 -16 -3q-60 0 -60 64q0 24 15 38.5t45 14.5q35 0 59 -24t24 -67q0 -34 -37.5 -85t-75.5 -75l-1 -1q-4 0 -7 7.5t-4 15.5zM300 -110q86 55 86 95q-10 12 -26 12q-8 0 -17 -3q-59 0 -59 64q0 24 15 38.5t44 14.5q35 0 59.5 -24.5
t24.5 -66.5q0 -34 -38 -85t-76 -75v-1q-4 0 -7 7.5t-4 15.5z" />
    <glyph glyph-name="uni201F" unicode="&#x201f;" horiz-adv-x="470" 
d="M367 552q-36 0 -42 -2q0 -46 87 -102l-9 -28q-43 16 -80 58.5t-37 97.5q0 44 22 69.5t59 25.5q60 0 60 -62q0 -57 -60 -57zM125 552q0 -2 -29 -2h-10q0 -44 88 -102l-11 -28q-43 17 -80 58.5t-37 98.5q0 41 21 67.5t58 26.5q63 0 63 -62q0 -57 -63 -57z" />
    <glyph glyph-name="dagger" unicode="&#x2020;" horiz-adv-x="404" 
d="M251 620q0 -20 -17.5 -64t-17.5 -101q9 0 58.5 17.5t85.5 18.5q16 0 29 -14.5t13 -35.5q0 -36 -32 -46q-22 0 -80.5 15.5t-73.5 17.5q0 -128 42 -173q-42 -105 -42 -275v-126h-26v126q0 59 -13 138t-31 137q20 19 30.5 49t12 53.5t1.5 62.5v8q-20 -2 -72.5 -17.5
t-69.5 -15.5q-43 0 -43 46q0 38 27 47q29 0 83 -16t75 -17l-25 116q-12 29 -12 49q0 16 13 33.5t28 17.5h1q21 0 38.5 -14t17.5 -37z" />
    <glyph glyph-name="daggerdbl" unicode="&#x2021;" horiz-adv-x="431" 
d="M166 -98q0 18 18 59t18 95v8q-24 -1 -76.5 -16.5t-67.5 -15.5q-17 0 -28.5 12.5t-11.5 33.5q0 49 40 49q17 0 70.5 -16t73.5 -18q0 3 -0.5 23.5t-2 35.5t-5 36t-12 39t-21.5 31q19 24 28.5 53.5t11 50.5t1.5 58v8q-19 -2 -70.5 -17.5t-68.5 -15.5q-43 0 -43 46q0 15 2 24
t9.5 14.5t11 6.5t18.5 5q16 0 66.5 -17.5t74.5 -18.5q0 44 -17.5 99.5t-17.5 65.5q0 20 14 35.5t36 15.5q19 0 33 -14.5t14 -36.5q-2 -43 -18 -90t-16 -75q10 0 61.5 18t80.5 18h2q16 0 28.5 -14.5t12.5 -35.5q0 -46 -39 -46q-20 0 -66.5 14.5t-79.5 18.5v-11
q0 -47 12 -90.5t26 -66.5q-40 -49 -40 -151v-16q16 2 70.5 18t74.5 16q40 0 40 -50q0 -20 -11 -32.5t-30 -12.5q-23 1 -71 16.5t-73 15.5q0 -58 17 -97.5t17 -64.5q0 -21 -12.5 -36.5t-34.5 -15.5q-17 0 -33 14t-16 38z" />
    <glyph glyph-name="bullet" unicode="&#x2022;" horiz-adv-x="356" 
d="M316 325q0 -62 -43.5 -98.5t-95.5 -36.5q-56 0 -98 41t-42 98q0 64 42 99.5t97 35.5q60 0 100 -39.5t40 -99.5z" />
    <glyph glyph-name="uni2023" unicode="&#x2023;" horiz-adv-x="384" 
d="M50 75v400l284 -200z" />
    <glyph glyph-name="onedotenleader" unicode="&#x2024;" horiz-adv-x="240" 
d="M118 119q25 0 45.5 -19t20.5 -47q0 -25 -19 -45.5t-47 -20.5q-25 0 -45.5 19t-20.5 47q0 27 20 46.5t46 19.5z" />
    <glyph glyph-name="twodotenleader" unicode="&#x2025;" horiz-adv-x="436" 
d="M336 119q25 0 45.5 -19t20.5 -47q0 -25 -19 -45.5t-47 -20.5q-25 0 -45.5 19t-20.5 47q0 27 20 46.5t46 19.5zM118 119q25 0 45.5 -19t20.5 -47q0 -25 -19 -45.5t-47 -20.5q-25 0 -45.5 19t-20.5 47q0 27 20 46.5t46 19.5z" />
    <glyph glyph-name="ellipsis" unicode="&#x2026;" horiz-adv-x="654" 
d="M554 119q25 0 45.5 -19t20.5 -47q0 -25 -19 -45.5t-47 -20.5q-25 0 -45.5 19t-20.5 47q0 27 20 46.5t46 19.5zM336 119q25 0 45.5 -19t20.5 -47q0 -25 -19 -45.5t-47 -20.5q-25 0 -45.5 19t-20.5 47q0 27 20 46.5t46 19.5zM118 119q25 0 45.5 -19t20.5 -47
q0 -25 -19 -45.5t-47 -20.5q-25 0 -45.5 19t-20.5 47q0 27 20 46.5t46 19.5z" />
    <glyph glyph-name="perthousand" unicode="&#x2030;" horiz-adv-x="1063" 
d="M1044 214q0 -89 -52.5 -161.5t-116.5 -72.5q-57 0 -91.5 43.5t-34.5 99.5q0 77 62 143t132 66q101 0 101 -118zM822 110q0 -50 18.5 -70t41.5 -20q52 0 94.5 63t42.5 131q0 32 -16 57t-47 25q-66 -3 -100 -60t-34 -121v-5zM671 214q0 -84 -53.5 -159t-116.5 -75
q-54 0 -90.5 43.5t-36.5 98.5q0 75 62 142.5t135 67.5q100 0 100 -118zM582 296q-27 0 -51 -21q-53 -50 -67.5 -80.5t-14.5 -93.5v-22q0 -18 18 -38.5t40 -20.5q59 0 99.5 65t40.5 132q0 33 -18.5 55.5t-46.5 23.5zM200 621q-41 -25 -71 -78.5t-30 -117.5q0 -69 58 -69
q24 1 43 17.5t33 46t22.5 55t19 62.5t14.5 50q-4 6 -89 34zM343 625q28 -10 69 -10q11 0 20 1t15.5 2t15.5 5.5t13.5 7t16 11.5t17 14t22.5 20t26 23h52l-450 -718h-56l388 617q-43 -31 -91 -31q-42 0 -82 11v-33q0 -77 -52 -153t-121 -76q-54 0 -88 42.5t-34 97.5
q0 82 61.5 148.5t135.5 66.5q1 -1 61 -23.5t61 -22.5z" />
    <glyph glyph-name="guilsinglleft" unicode="&#x2039;" horiz-adv-x="276" 
d="M108 233q4 -7 40 -50t66.5 -83.5t30.5 -51.5q0 -15 -9 -15l-223 188q209 194 223 197q9 0 10 -16q0 -7 -24 -36.5t-63.5 -74.5t-50.5 -58z" />
    <glyph glyph-name="guilsinglright" unicode="&#x203a;" horiz-adv-x="280" 
d="M47 33q-11 0 -11 15q0 11 13 29.5t73 89.5q44 55 45 56q-31 35 -80 100t-51 79q0 15 10 16q18 0 42 -39q4 -4 91 -80t90 -78q0 -4 -108.5 -96t-113.5 -92z" />
    <glyph glyph-name="fraction" unicode="&#x2044;" horiz-adv-x="326" 
d="M323 660l-246 -710h-73l244 710h75z" />
    <glyph glyph-name="Euro" unicode="&#x20ac;" horiz-adv-x="561" 
d="M530 138v-59q-73 -93 -185 -93q-88 0 -161.5 68t-87.5 185h-84l36 52h44v49h-80l36 52h47q14 109 83 192.5t163 83.5q26 0 49 -6.5t34.5 -12.5t42.5 -23q14 2 23 43h24l16 -229h-21q-5 48 -30 105q-36 53 -54.5 65t-63.5 18q-2 1 -3 1h-3t-3.5 0.5t-3.5 0.5
q-42 0 -73 -24t-47.5 -64t-24.5 -75.5t-11 -74.5h233l-36 -52h-198v-49h164l-32 -52h-130q13 -97 58.5 -153t120.5 -56q95 0 158 108z" />
    <glyph glyph-name="afii61289" unicode="&#x2113;" horiz-adv-x="383" 
d="M363 123l14 -19q-59 -117 -162 -117q-70 0 -101.5 38t-31.5 144v68l-60 -42l-8 27l69 55v125q0 113 10.5 165t39.5 90q38 51 89 51q43 0 65 -38t22 -94q0 -79 -36 -144.5t-107 -136.5v-81q0 -91 22 -128.5t68 -37.5q59 0 107 75zM166 460v-117q97 108 97 231
q0 44 -12 72.5t-36 28.5q-29 0 -39 -46.5t-10 -168.5z" />
    <glyph glyph-name="afii61352" unicode="&#x2116;" horiz-adv-x="1029" 
d="M745 630q-65 -5 -84 -26t-19 -93v-523h-15l-460 535v-374q0 -53 10.5 -77.5t29 -31.5t59.5 -8v-32h-248v32q70 4 85.5 22.5t15.5 77.5v452q-24 46 -98 46h-3v30h177l400 -468v319q0 40 -4.5 63t-19 34.5t-29 15t-47.5 6.5v30h250v-30zM846 463q60 0 106 -52.5t46 -122.5
q0 -69 -46 -121.5t-106 -52.5t-106 52t-46 122t46 122.5t106 52.5zM845 436q-38 0 -65.5 -48t-27.5 -103q0 -54 27.5 -97.5t65.5 -43.5q37 0 65 43.5t28 97.5q0 55 -28 103t-65 48z" />
    <glyph glyph-name="trademark" unicode="&#x2122;" horiz-adv-x="814" 
d="M317 625h-17q-17 52 -50 52h-41v-224q0 -5 -0.5 -11t-0.5 -7q0 -9 7 -11.5t35 -4.5v-24h-134v24q28 3 34 6t6 15v237h-39q-17 0 -33 -14.5t-18 -37.5h-15v74h266v-74zM548 394h-8l-115 212v-145q0 -23 8 -31t32 -11v-24h-102v24q26 3 34 11.5t8 30.5v180q-18 33 -56 36
v22h93l121 -220l125 220h79v-22q-45 -5 -45 -38v-186q0 -23 5 -27t36 -7v-24h-133v24q6 1 13.5 1t10.5 0.5t6.5 2t4.5 5t2 9.5t1 16v155z" />
    <glyph glyph-name="estimated" unicode="&#x212e;" horiz-adv-x="754" 
d="M738 318h-574q-10 0 -10 -4v-187q0 -12 9 -21q93 -101 223 -101q140 0 232 113h45q-48 -61 -121 -96.5t-157 -35.5q-146 0 -249 100t-103 241q0 142 103 242t249 100t249.5 -100t103.5 -242v-9zM616 342v188q0 14 -9 22q-94 97 -221 97q-129 0 -222 -100q-10 -9 -10 -23
v-184q0 -6 10 -6h444q8 0 8 6z" />
    <glyph glyph-name="partialdiff" unicode="&#x2202;" horiz-adv-x="490" 
d="M203 737q117 0 183 -105t66 -256q0 -69 -14 -134.5t-41.5 -124t-76.5 -94.5t-113 -36q-80 0 -128 53.5t-48 143.5q0 104 61 168.5t148 64.5h1q35 0 71.5 -17.5t57.5 -49.5q1 7 6.5 44.5t5.5 58.5q0 38 -5.5 74t-20 75t-46 62.5t-75.5 23.5q-67 0 -140 -63
q-9 0 -18.5 19.5t-9.5 38.5q0 21 45 37.5t91 16.5zM264 374q-42 0 -72 -21.5t-45.5 -58t-22 -75t-6.5 -81.5q0 -52 24 -85t66 -33q35 0 63 26t46 70t29.5 90t18.5 100q-11 24 -38.5 46t-61.5 22h-1z" />
    <glyph glyph-name="product" unicode="&#x220f;" horiz-adv-x="648" 
d="M632 667v-28q-62 -5 -75.5 -17t-13.5 -58v-533q0 -52 13.5 -65.5t73.5 -18.5v-28h-253v28q56 5 68 17.5t12 66.5v567q0 22 -7.5 27.5t-32.5 5.5h-185q-24 0 -30.5 -5.5t-6.5 -24.5v-570q0 -53 10 -66t63 -18v-28h-247v28q59 5 73 18.5t14 65.5v533q0 47 -14 59t-76 16v28
h614z" />
    <glyph glyph-name="summation" unicode="&#x2211;" horiz-adv-x="521" 
d="M506 112l-42 -198h-443v27l214 324l-208 374v28h436q5 -93 11 -166l-20 -7q-14 67 -34 105q-12 20 -30.5 26.5t-72.5 6.5h-178l169 -303l-211 -329h248q37 0 52.5 2t32.5 15t27 34.5t27 68.5z" />
    <glyph glyph-name="minus" unicode="&#x2212;" horiz-adv-x="447" 
d="M387 267h-323v62h323v-62z" />
    <glyph glyph-name="uni2215" unicode="&#x2215;" horiz-adv-x="326" 
d="M323 660l-238 -686h-75l238 686h75z" />
    <glyph glyph-name="uni2219" unicode="&#x2219;" horiz-adv-x="196" 
d="M151 253q0 -27 -16.5 -43.5t-38.5 -16.5q-20 0 -34.5 17t-14.5 43q0 29 14 44t36 15q23 0 38.5 -16t15.5 -43z" />
    <glyph glyph-name="radical" unicode="&#x221a;" horiz-adv-x="466" 
d="M477 846l-161 -990l-17 -12l-207 527l-83 -43l-8 35l150 79l155 -411h8l129 825z" />
    <glyph glyph-name="infinity" unicode="&#x221e;" horiz-adv-x="699" 
d="M656 274v-1q0 -73 -41.5 -118t-97.5 -45q-42 0 -81 25.5t-85 86.5q-42 -54 -80.5 -83t-88.5 -29q-56 0 -96.5 45t-40.5 114q0 70 41 115.5t102 45.5q48 0 88 -28.5t80 -81.5q2 3 13.5 16t15 17.5t14.5 16t17 16.5t17 14t19.5 12.5t20 8.5t23 7t24.5 2q59 0 97.5 -43
t38.5 -113zM188 170h2q26 0 54 18t40.5 31.5t40.5 46.5q-20 27 -30.5 40t-29.5 31.5t-38.5 26.5t-41.5 8q-41 0 -66.5 -30t-25.5 -74q0 -41 27 -69.5t68 -28.5zM517 372h-1q-14 0 -29 -5.5t-25.5 -11.5t-25.5 -20.5t-20.5 -20.5t-20 -23.5t-15.5 -18.5q45 -57 74.5 -79.5
t64.5 -22.5q40 0 64.5 30.5t24.5 67.5q0 47 -25.5 75.5t-65.5 28.5z" />
    <glyph glyph-name="integral" unicode="&#x222b;" horiz-adv-x="262" 
d="M140 6l-19 389q-2 27 -2 76q0 187 42.5 262.5t105.5 75.5q21 0 39 -13t18 -36t-12 -36t-29 -13q-14 0 -22 13.5t-14 26.5t-14 13q-40 0 -40 -117q0 -26 1 -41l17 -365q0 -14 0.5 -42t1.5 -41q0 -131 -22.5 -213.5t-54.5 -112.5t-74 -30q-24 0 -40.5 15t-16.5 36t15 36.5
t34 15.5q14 0 26 -28.5t21 -28.5q40 0 40 118q0 26 -1 40z" />
    <glyph glyph-name="approxequal" unicode="&#x2248;" horiz-adv-x="513" 
d="M171 425q42 0 96 -35q1 -1 10 -6.5t11 -6.5t10 -5.5t11 -5.5t10 -4t11.5 -4t11 -2t12.5 -1q48 0 88 70l33 -38q-50 -96 -121 -96q-42 0 -98 36q-2 1 -9.5 5.5l-10 6t-9 5t-10 5t-9.5 4.5t-10 4l-10 2.5t-11 2t-11 0.5q-48 0 -93 -70l-33 38q21 43 56 69t75 26zM354 116
q-38 0 -98 36q-60 35 -90 35q-29 0 -49.5 -18t-43.5 -52l-33 38q21 42 56 68.5t75 26.5q46 0 102 -35q2 -1 8 -5t7.5 -5.5t7 -5t8 -5t7.5 -4l8 -4t8 -3t9 -2.5t8.5 -1.5t9.5 -0.5q26 0 45.5 17t42.5 54l33 -39q-50 -95 -121 -95z" />
    <glyph glyph-name="notequal" unicode="&#x2260;" horiz-adv-x="480" 
d="M355 487l-38 -89h134v-63h-157l-58 -134h215v-63h-238l-47 -113l-41 22l37 91h-130v63h154l57 134h-211v63h235l47 111z" />
    <glyph glyph-name="lessequal" unicode="&#x2264;" horiz-adv-x="483" 
d="M445 97l-413 215v68l413 214v-73l-358 -174v-2l358 -175v-73zM448 -4h-420v64h420v-64z" />
    <glyph glyph-name="greaterequal" unicode="&#x2265;" horiz-adv-x="481" 
d="M41 594l414 -215v-68l-414 -214v73l359 175v2l-359 174v73zM455 -4h-417v64h417v-64z" />
    <glyph glyph-name="lozenge" unicode="&#x25ca;" horiz-adv-x="469" 
d="M457 319l-188 -390h-65l-188 390l190 392h63zM398 319l-156 325h-10l-158 -324l158 -326h9z" />
    <glyph glyph-name="c_t" unicode="&#xe6a4;" horiz-adv-x="810" 
d="M320 556q0 65 56.5 104.5t115.5 39.5q67 0 116 -38.5t49 -106.5l-1 -106h106v-41h-106v-285q0 -70 54 -70q34 0 62 33l16 -14q-53 -83 -131 -83q-89 0 -89 132v287h-54q-2 2 -2 13q0 13 13 23q9 0 16.5 2t15 8l12.5 10t12.5 14t10.5 14.5t11.5 17.5t10.5 16q-1 11 -1 27
v3q0 41 -40 70.5t-81 29.5q-45 0 -87 -23.5t-42 -58.5v-3q0 -11 5 -37t5 -37q0 -21 -9 -23h-4q-9 0 -24 6q-16 14 -16 76zM319 376v4q0 19 -11.5 30t-43.5 11h-3q-64 0 -102.5 -50.5t-38.5 -113.5q0 -82 37.5 -141.5t118.5 -59.5q20 0 38 3.5t29.5 7t26.5 11.5t20.5 11.5
t20 14t16.5 12.5q3 0 6 -6t3 -10q-26 -47 -87 -79t-112 -32q-68 0 -130.5 62.5t-66.5 162.5q0 100 64.5 175.5t156.5 75.5q68 0 116 -35t48 -77q-3 -27 -13.5 -35.5t-35.5 -10.5q-18 1 -32 18.5t-20 34.5z" />
    <glyph glyph-name="s_p" unicode="&#xe6a5;" horiz-adv-x="920" 
d="M680 390q-41 -5 -62 -16.5t-42 -43.5v-241q0 -22 40 -39t67 -17q43 0 72.5 29.5t40.5 67t11 77.5q0 70 -34.5 126.5t-92.5 56.5zM274 474q-24 0 -32 16.5t-8 54.5v11q1 65 57 104.5t115 39.5q90 -2 130 -51.5t40 -147.5v-112q65 70 146 70q79 -4 127 -60.5t48 -151.5
q0 -126 -74 -197v1q-62 -62 -143 -62q-42 1 -104 36v-179q0 -25 1.5 -34.5t11 -18.5t27 -11t53.5 -3v-29h-255v28q49 3 61 16t12 45v495q0 55 -43 55q-14 0 -27 -5v25q3 1 28 5.5t38.5 9t27.5 19t14 36.5v29q-3 48 -14.5 79.5t-30.5 45.5t-35.5 18.5t-38.5 4.5
q-44 0 -85 -23.5t-41 -58.5v-3q0 -11 3.5 -37.5t3.5 -36.5q0 -20 -9 -23h-4zM363 122q0 -58 -48 -95.5t-98 -37.5q-32 0 -74.5 9.5t-49.5 9.5q-15 0 -25 -12h-16v165h23q20 -78 44.5 -107t83.5 -29q33 0 55 16t22 45q0 34 -35 60.5t-71 39.5q-122 66 -122 147q0 64 43 95.5
t100 31.5q30 0 49.5 -3t25.5 -7t12 -7t12 -3q1 0 6 3.5t9 5.5h20v-142h-21q-19 60 -42.5 89t-69.5 29q-76 0 -76 -61q0 -37 43 -57l112 -64q88 -53 88 -121z" />
    <glyph glyph-name="longs_t" unicode="&#xfb05;" horiz-adv-x="653" 
d="M199 578v-471q0 -24 4 -38.5t8.5 -22.5t19.5 -12t25.5 -4.5t38.5 -1.5v-28h-269v28q49 2 67.5 16t18.5 63v301h-84l84 41q0 110 23 153q21 39 56.5 68t80.5 29q55 0 92.5 -18t37.5 -48q0 -20 -11 -33.5t-31 -13.5q-22 0 -53 37.5t-49 38.5q-59 0 -59 -84zM491 575
q7 0 7 -19v-107h106v-41h-106v-285q0 -70 54 -70q35 0 62 33l16 -14q-53 -83 -128 -83q-92 0 -92 132v287h-54q-2 2 -2 13q0 13 13 23q26 0 47 26t40.5 60t36.5 45z" />
    <glyph glyph-name="s_t" unicode="&#xfb06;" horiz-adv-x="713" 
d="M363 122q0 -58 -48 -95.5t-98 -37.5q-32 0 -74.5 9.5t-49.5 9.5q-15 0 -25 -12h-16v165h23q20 -78 44.5 -107t83.5 -29q33 0 55 16t22 45q0 34 -35 60.5t-71 39.5q-122 66 -122 147q0 64 43 95.5t100 31.5q30 0 49.5 -3t25.5 -7t12 -7t12 -3q1 0 6 3.5t9 5.5h20v-142h-21
q-19 60 -42.5 89t-69.5 29q-76 0 -76 -61q0 -37 43 -57l112 -64q88 -53 88 -121zM234 556q0 65 56 104.5t116 39.5q66 0 115.5 -39t49.5 -106l-1 -106h105v-41h-105v-285q0 -70 54 -70q34 0 62 33l15 -14q-51 -83 -130 -83q-90 0 -90 132v287h-54q-1 2 -1 13q0 14 13 23
q6 0 11.5 1.5t10.5 3.5t10.5 6t9 7t8.5 9t8 9.5t8 11.5t7 11t7.5 12t7.5 11q-1 11 -1 27v3q0 41 -39.5 70.5t-80.5 29.5q-44 0 -85 -23.5t-41 -58.5v-3q0 -11 3.5 -37.5t3.5 -36.5q0 -20 -9 -23h-4q-3 0 -10.5 3.5t-11.5 5.5q-18 15 -18 73z" />
    <glyph glyph-name="swash" horiz-adv-x="712" 
d="M560 498q-1 0 -7 -2t-13 -4.5t-11 -3.5q0 11 -1.5 38.5t-1.5 29.5q0 41 -39 70.5t-80 29.5q-43 0 -86.5 -32t-43.5 -68q0 -4 -10 -19t-10 -20q-2 5 -12 17.5t-10 21.5q0 65 56 104.5t116 39.5q62 0 112.5 -43.5t50.5 -101.5q0 -4 -5 -29t-5 -28z" />
    </font>
</defs>
</svg>
