<?xml version="1.0" standalone="no"?>
<!DOCTYPE svg PUBLIC "-//W3C//DTD SVG 1.1//EN" "http://www.w3.org/Graphics/SVG/1.1/DTD/svg11.dtd" >
<svg xmlns="http://www.w3.org/2000/svg" xmlns:xlink="http://www.w3.org/1999/xlink" version="1.1">
<metadata>
Created by FontForge 20170731 at Tue Feb 28 14:16:43 2012
 By Aleksey,,,
Copyright (c) Arkandis Digital Foundry under the GNU General Public License V2 and later, with font exception.
</metadata>
<defs>
<font id="TribunADFStd-BoldCondItalic" horiz-adv-x="620" >
  <font-face 
    font-family="Tribun ADF Std Cond"
    font-weight="700"
    font-style="italic"
    font-stretch="condensed"
    units-per-em="1000"
    panose-1="2 4 8 6 8 5 5 9 2 3"
    ascent="750"
    descent="-250"
    x-height="440"
    cap-height="652"
    bbox="-149 -250 2004 899"
    underline-thickness="50"
    underline-position="-200"
    slope="-15"
    unicode-range="U+0020-FB06"
  />
<missing-glyph horiz-adv-x="674" 
d="M174 0v700h500v-700h-500zM424 395l170 255h-340zM454 350l170 -255v510zM254 50h340l-170 255zM224 605v-510l170 255z" />
    <glyph glyph-name="AE" unicode="AE" horiz-adv-x="864" 
d="M529 533l-199 -243h118q63 176 81 243zM884 547q0 5 -0.5 8t-1.5 5t-4.5 4.5t-6.5 4t-10 5.5t-13 8q-16 3 -47 3h-40q-89 0 -95 -20q-8 -29 -18.5 -61t-23 -70t-19.5 -60q36 0 61.5 3.5t40.5 6.5t27.5 14.5t16.5 16.5t15 25.5t16 28.5l42 -8l-81 -248l-43 5l-16 86
q-40 6 -73 6h-24q-18 -56 -38 -117t-28.5 -87.5t-8.5 -29.5q0 -9 29 -9h28q103 0 154 24t111 104l46 -7l-78 -188h-500l2 49q6 1 19.5 2t16.5 1.5t11 2t10 3.5t6.5 5.5t6.5 8.5t4 13l57 154q-13 0 -55.5 -3t-62.5 -3q-13 0 -29 2q-21 -23 -27.5 -30t-15.5 -19.5t-14 -21
t-25.5 -39t-47.5 -70.5q2 -6 26 -6h27v-48h-205l2 48q17 4 32.5 14.5t23.5 19.5t28 32l376 444q24 24 24 36q0 5 -3.5 7.5t-10.5 3.5t-13 1.5t-15 1t-14 0.5l2 43h522l-40 -176l-48 5q12 51 12 66z" />
    <glyph glyph-name="ae" unicode="ae" horiz-adv-x="632" 
d="M364 357q0 17 -6.5 22t-22.5 5h-11q-56 -24 -107.5 -113t-58.5 -162q0 -16 6.5 -26t16.5 -10q30 0 72 46.5t74.5 114.5t36.5 123zM562 390q-36 0 -79.5 -68t-43.5 -84q0 -1 1 -1l4 4q3 4 9 9t11 7q45 15 79.5 49.5t34.5 60.5q0 23 -16 23zM675 359q-3 -57 -63 -98.5
t-192 -76.5q-8 -32 -8 -57q0 -56 46 -56q28 0 55 12t42.5 24.5t46.5 40.5l22 -38q-75 -76 -106 -93t-102 -28q-74 0 -101 67q-4 19 -7 48q-46 -56 -85.5 -86.5t-86.5 -30.5q-91 0 -91 88q0 57 33 134t53 102q43 53 100 91.5t111 38.5q17 0 58 -24l12 20h96l-9 -28
q40 27 84 32q48 0 70 -20.5t22 -61.5z" />
    <glyph glyph-name="OE" unicode="OE" horiz-adv-x="904" 
d="M569 544q0 21 -22 36.5t-56 15.5q-70 0 -117 -43q-64 -52 -113 -158.5t-49 -197.5q0 -71 27 -104t87 -33q51 0 78.5 26.5t55.5 109.5q4 17 5 18l80 253q22 62 24 77zM501 0q-85 0 -139 -4.5t-63 -4.5q-92 0 -158 65t-66 156q0 162 102 286q69 84 151.5 125t160.5 41
q37 0 95 -8l50 -4h365l-37 -174l-42 1v25q0 50 -7 61.5t-43 16.5l-47 2l-90 -2q-13 -1 -17.5 -5.5t-11.5 -19.5l-62 -181q86 0 119 14q34 29 58 77l45 -6l-77 -247l-49 4l9 52q-1 16 -11.5 24t-22 9.5t-41.5 2.5h-45l-72 -222q0 -9 12 -11.5t43 -2.5q97 0 148.5 24
t122.5 107l37 -14l-74 -187h-343z" />
    <glyph glyph-name="oe" unicode="oe" horiz-adv-x="649" 
d="M336 385q-60 0 -119 -95t-59 -181q0 -28 13 -46.5t41 -18.5q32 0 63.5 40t51.5 93t32 100t12 67q0 41 -35 41zM604 364q-2 25 -21 25q-40 0 -85 -50t-58 -114q31 10 46 16t39.5 18.5t37.5 25t25 33.5t16 46zM693 360q-4 -66 -92 -123.5t-162 -57.5h-7q-10 -35 -10 -56
q0 -23 15.5 -41t34.5 -18q22 0 49 12t45.5 24.5t47.5 35.5l34 -29q-131 -120 -216 -120q-65 0 -101 54q-41 -32 -66.5 -43.5t-63.5 -11.5q-64 0 -106 42.5t-42 102.5q0 65 42 136.5t115.5 122.5t152.5 51q37 -4 54 -19t35 -48q47 35 78 49.5t71 14.5q39 0 66 -19.5t27 -49.5
q0 -1 -0.5 -4t-0.5 -5z" />
    <glyph glyph-name="f_j" unicode="fj" horiz-adv-x="601" 
d="M484 371h-152q-10 -30 -55.5 -194t-53.5 -199q-19 -79 -48.5 -128t-58.5 -68.5t-70 -30.5l-8 -1q-36 0 -67.5 19t-32.5 52q1 61 55 61q24 0 37 -13t13 -34q0 -18 -7 -33q48 1 80 138l120 431h-85l10 61h87q49 129 118.5 198.5t141.5 69.5q41 0 68 -19t27 -53
q0 -70 -59 -70q-22 0 -36 18.5t-14 42.5q0 12 5 25q-43 -2 -78.5 -43.5t-52 -84.5t-24.5 -84h133q25 -1 55 -1q21 0 30.5 1t31 5.5t42.5 8.5l22 -5l-169 -528q-27 -77 -74 -119t-96 -44q-41 0 -67.5 20t-26.5 52q0 24 17 42t42 21q43 0 43 -21q0 -8 -7 -25t-7 -23
q0 -8 14 -8q25 0 74 122.5t87 254t38 165.5q0 21 -42 21z" />
    <glyph glyph-name="f_f_j" unicode="ffj" horiz-adv-x="1011" 
d="M731 553q-12 -6 -29 -6h-2q-22 0 -36 18.5t-14 42.5q0 12 5 25q-63 -3 -114 -71.5t-63 -129.5l200 1q30 76 53 120zM759 617l11 9q12 8 31 20.5t42 25t51.5 21t53.5 8.5h6q41 -2 67.5 -20t26.5 -52q0 -70 -59 -70q-22 0 -36 18.5t-14 42.5q0 12 5 25q-62 -3 -109.5 -75
t-60.5 -137h132q25 -1 56 -1q21 0 30.5 1t31 5.5t42.5 8.5l21 -5l-169 -528q-27 -77 -74 -119t-96 -44q-41 0 -67.5 20t-26.5 52q0 24 17 42t42 21q43 0 43 -21q0 -8 -7 -25.5t-7 -22.5q0 -8 14 -8q25 0 74 122.5t87 254t38 165.5q0 21 -42 21h-151q-10 -30 -56 -194.5
t-54 -198.5q-19 -79 -48.5 -128t-58.5 -68.5t-70 -30.5l-8 -1q-36 0 -67.5 19t-32.5 52q1 61 55 61q24 0 37 -13t13 -34q0 -18 -7 -33h1q48 1 80 138l119 431l-199 -1q-2 0 -51 -176.5t-59 -215.5q-28 -97 -77.5 -163t-119.5 -66q-36 0 -65.5 20.5t-29.5 48.5q0 35 13.5 50
t41.5 15q24 0 37 -13t13 -34q0 -18 -7 -33q48 1 80 138l128 429h-85l10 61h87q23 70 57.5 121.5t73.5 80t76.5 42t75.5 13.5q40 0 67 -19t27 -53z" />
    <glyph glyph-name="f_f" unicode="ff" horiz-adv-x="761" 
d="M568 432q30 84 48 122q-11 -7 -30 -7q-22 0 -36 18.5t-14 42.5q0 12 5 25q-63 -3 -114.5 -71.5t-63.5 -129.5h205zM773 432l-10 -61h-111q-3 0 -50 -165.5t-57 -205.5q-70 -250 -198 -250q-35 0 -66.5 23t-31.5 48q0 63 55 63q24 0 37 -13t13 -34q0 -15 -8 -33h1
q48 1 80 138l128 429h-204q-2 0 -51 -167.5t-58 -203.5q-18 -64 -43 -116.5t-67 -93t-89 -40.5q-35 0 -64.5 20.5t-29.5 48.5q0 65 54 65q24 0 37 -13t13 -34q0 -14 -7 -33q50 1 80 138l129 429h-86l11 61h87q47 124 127 190.5t157 66.5q40 0 67 -19t27 -53q0 -3 -0.5 -7.5
t-0.5 -6.5q63 97 152 97q40 0 67 -19t27 -53q0 -70 -59 -70q-22 0 -36 18.5t-14 42.5q0 12 5 25q-15 -1 -28 -6t-23.5 -15.5t-18.5 -20t-15 -27.5t-11.5 -28.5t-9.5 -32t-6.5 -29.5t-5.5 -29t-4 -24h109z" />
    <glyph glyph-name="f_i" unicode="fi" horiz-adv-x="526" 
d="M304 38q0 28 51.5 175t51.5 157h-50q-63 0 -90 1q-1 0 -31 -88t-61 -185t-36 -118q-36 -104 -62 -151.5t-52 -63t-72 -15.5q-34 0 -65.5 24.5t-31.5 48.5q0 61 55 61q24 0 37 -13t13 -34q0 -15 -8 -33h1q29 1 47 27.5t32 110.5l137 429h-85l11 62h87q48 125 124 195.5
t149 70.5q41 0 68 -18.5t27 -53.5q0 -70 -59 -70q-23 0 -37 17.5t-14 39.5q0 13 7 27q-43 -1 -81.5 -40.5t-59 -83.5t-28.5 -81h109q30 -8 50 -8q38 0 81 22l21 -6l-108 -345q0 -1 -2.5 -7t-3.5 -10.5t1 -9.5q19 8 34.5 24.5t41.5 53.5l33 -34q-29 -40 -48.5 -63
t-51.5 -45.5t-62 -22.5q-70 3 -70 53z" />
    <glyph glyph-name="f_l" unicode="fl" horiz-adv-x="573" 
d="M656 686l-179 -583l-8 -41q7 1 15.5 7t18 18t16.5 22t17.5 25.5t15.5 22.5l37 -24q-61 -85 -86 -108q-42 -40 -85 -40q-68 0 -68 51q0 14 10 51q121 386 166 523l4 12q-4 4 -23 7v-3q0 -68 -59 -68q-22 0 -36 17.5t-14 39.5q0 16 7 27q-14 0 -26 -5t-21.5 -11t-18.5 -18
t-15 -21.5t-12.5 -26t-9.5 -26t-7.5 -28.5t-6 -26t-5 -25.5t-4.5 -21.5l109 -1l-10 -61h-111q-96 -294 -114 -371q-63 -250 -190 -250h-5q-45 0 -70 23t-25 48q0 63 55 63q24 0 37 -13t13 -34q0 -15 -8 -33h1q49 1 79 138l130 429h-85l11 61h87q52 136 107 202t123 66
q46 0 72 -22q77 8 152 27z" />
    <glyph glyph-name="f_f_i" unicode="ffi" horiz-adv-x="902" 
d="M571 433q4 12 13 39.5t16.5 49t13.5 33.5q-14 -9 -34 -9q-22 0 -36 19.5t-14 43.5q0 8 4 24q-62 -3 -111 -70.5t-61 -129.5h209zM695 53q0 18 50 162.5t50 154.5h-140q-2 0 -49.5 -161.5t-56.5 -197.5q-31 -127 -82 -194t-116 -67q-35 0 -66.5 23.5t-31.5 49.5
q0 61 55 61q24 0 37 -13t13 -34q0 -14 -7 -33q50 1 80 138l127 428h-208q-2 0 -49.5 -162.5t-56.5 -198.5q-31 -125 -82.5 -192t-115.5 -67q-34 0 -64.5 24.5t-32.5 48.5q1 61 54 61q24 0 37 -13t13 -34q0 -18 -7 -33h1q48 1 80 138l126 428h-85l11 63h87q47 123 125.5 190
t153.5 67q40 0 67 -19t27 -53q0 -4 -0.5 -10t-0.5 -9q31 51 79.5 76t99.5 25q40 0 67 -19t27 -53q0 -70 -59 -70q-22 0 -36 17.5t-14 39.5q0 17 7 28q-101 -3 -142 -210h109q17 -5 48 -5q43 0 83 22l21 -6l-108 -345l-5 -27q19 8 34.5 24.5t41.5 53.5l33 -34
q-29 -40 -48.5 -63t-51.5 -45.5t-62 -22.5q-67 0 -67 68z" />
    <glyph glyph-name="f_f_l" unicode="ffl" horiz-adv-x="952" 
d="M570 433q40 105 48 121q-12 -8 -33 -8q-22 0 -36 18.5t-14 42.5q0 8 4 24q-62 -3 -113 -70t-63 -128h207zM236 0q-66 -250 -197 -250q-35 0 -65.5 22.5t-30.5 49.5q0 62 54 62q24 0 37 -13t13 -34q0 -14 -7 -33q50 1 80 138l134 429h-85l11 62h87q47 123 127 189t156 66
q40 0 67 -19t27 -53q0 -7 -2 -17q64 99 154 99q46 0 72 -22q79 8 152 27l19 -19l-188 -622q5 1 11 4.5t13 10t13 13t14 16.5t13 17t13.5 18t11.5 16l36 -24q-61 -85 -86 -108q-42 -40 -85 -40q-68 0 -68 51q0 18 11 51l161 524l-19 16v-3q0 -68 -59 -68q-22 0 -36 17.5
t-14 39.5q0 17 7 28q-19 -1 -35 -8.5t-28 -23t-20 -30.5t-15 -38.5t-10 -37.5t-8 -38.5t-6 -31.5h110l-11 -62h-111q-8 -27 -36 -115.5t-50.5 -161.5t-27.5 -93q-69 -251 -195 -251q-35 0 -67.5 23.5t-32.5 47.5q0 63 55 63q24 0 37 -13t13 -34q0 -18 -7 -33h1q48 1 80 138
l133 429h-206q-99 -306 -115 -371z" />
    <glyph glyph-name=".notdef" horiz-adv-x="674" 
d="M174 0v700h500v-700h-500zM424 395l170 255h-340zM454 350l170 -255v510zM254 50h340l-170 255zM224 605v-510l170 255z" />
    <glyph glyph-name=".null" horiz-adv-x="0" 
 />
    <glyph glyph-name="nonmarkingreturn" horiz-adv-x="333" 
 />
    <glyph glyph-name="space" unicode=" " horiz-adv-x="280" 
 />
    <glyph glyph-name="exclam" unicode="!" horiz-adv-x="318" 
d="M233 76q0 -27 -26.5 -56.5t-60.5 -29.5q-55 0 -55 60q0 36 29 58t63 22q50 0 50 -54zM391 612q0 -24 -9 -52t-25 -62.5t-56.5 -127.5t-84.5 -203l-42 -1l77 418q11 41 34 64t46 23q60 0 60 -53v-6z" />
    <glyph glyph-name="quotedbl" unicode="&#x22;" horiz-adv-x="356" 
d="M280 619q0 -25 -104 -208l-41 4q19 162 30 200q17 46 71 46q25 0 34.5 -9.5t9.5 -32.5zM449 619q-2 -32 -102 -208l-43 4q21 176 30 200q7 21 27.5 33.5t43.5 12.5q44 0 44 -42z" />
    <glyph glyph-name="numbersign" unicode="#" horiz-adv-x="529" 
d="M405 383h-92q-36 -80 -43 -99h94q15 28 41 99zM612 468l-17 -82h-114q-34 -73 -45 -102h96l-15 -85h-103q-11 -22 -81 -199h-95l85 199l-95 -1q-2 0 -20 -46t-38 -98t-21 -54h-92l83 199h-84l20 85h100q26 43 48 102h-97l26 82h103q5 12 39.5 93.5t44.5 109.5l89 -2
l-80 -201h87l84 203l89 -2l-81 -201h84z" />
    <glyph glyph-name="dollar" unicode="$" horiz-adv-x="472" 
d="M346 607q-52 -3 -77.5 -29t-25.5 -51t17 -50t38 -39zM372 168v8q0 11 -1.5 20t-5.5 18t-6.5 15t-10.5 15.5t-11.5 13.5t-15 15.5l-15.5 15.5q-3 -13 -15.5 -60t-27.5 -102t-19 -71q123 21 128 112zM539 603l-41 -131l-42 2v9q0 28 -11.5 52t-20 32.5t-30.5 28.5
q-4 -13 -16 -59t-22 -82.5t-15 -45.5q58 -51 84 -76.5t36 -45.5q29 -59 29 -110q0 -44 -22 -77.5t-51.5 -51t-69.5 -29t-67 -15t-52 -4.5q-2 -9 -8 -26t-11 -30t-5 -14l-14 -16h-43l26 84q-58 15 -137 71l35 140l40 3q4 -71 24 -106.5t57 -50.5l68 260q-42 30 -80 81.5
t-38 97.5q0 48 21.5 83.5t56 53t69.5 26t71 8.5q3 7 7 22t7.5 25.5t5.5 12.5l50 -1l-22 -64q73 -20 131 -57z" />
    <glyph glyph-name="percent" unicode="%" horiz-adv-x="773" 
d="M744 257v11q0 45 -38 45q-55 0 -96.5 -68t-46.5 -132q0 -49 36 -49q53 0 96 63t49 130zM804 265q-4 -113 -73 -189t-157 -76q-50 0 -82.5 33t-32.5 104q0 103 74 174t157 71q63 0 88.5 -30.5t25.5 -86.5zM391 534q0 9 -4 29q-9 3 -17.5 7t-14 7.5t-9.5 6.5t-6 5l-2 2
q-37 0 -82.5 -74t-48.5 -135q0 -20 10.5 -32.5t25.5 -12.5q47 0 95.5 65.5t52.5 131.5zM697 666l-410 -677h-82l349 569q-32 -14 -69 -14q-13 0 -40 5q3 -12 3 -22q-4 -71 -52 -150q-17 -34 -76 -70.5t-96 -36.5q-57 0 -90.5 40t-33.5 95q0 94 77.5 173t158.5 79
q41 0 69 -18q5 -13 8 -13v1q22 -21 67 -21q60 0 128 45q11 12 24 20z" />
    <glyph glyph-name="ampersand" unicode="&#x26;" horiz-adv-x="679" 
d="M483 557q-4 32 -24 38q-49 -1 -54 -106v-44q23 15 35 25t27 34t16 53zM376 110q-3 6 -13 24t-15.5 31t-18 52.5t-26.5 99.5q-51 -21 -92 -63.5t-43 -80.5q0 -43 26.5 -73t73.5 -30q53 0 108 40zM551 -18q-88 0 -135 71q-73 -43 -111 -58t-78 -15q-77 0 -130 45.5
t-53 113.5q0 80 51 130t201 118v1q0 -1 -1 -1q-2 6 -2 46q0 100 49 164t130 64h3q51 0 79 -25.5t28 -68.5q0 -55 -37.5 -97t-131.5 -88q27 -130 58 -185q61 67 61 105q0 12 -40 12h-7l2 48h204l-1 -45h-2q-53 0 -91 -58q-1 -1 -4 -6.5t-9.5 -15.5t-16 -24t-26 -34.5
t-36.5 -43.5q39 -59 73 -69q41 0 85 31l30 -28q-88 -87 -142 -87z" />
    <glyph glyph-name="quotesingle" unicode="'" horiz-adv-x="192" 
d="M286 620q0 -28 -106 -209l-42 5q6 42 12.5 92t9.5 73.5t7 34.5q6 17 28 30t45 13q16 0 31 -10t15 -29z" />
    <glyph glyph-name="parenleft" unicode="(" horiz-adv-x="256" 
d="M388 631q-113 -105 -170 -248.5t-57 -309.5q0 -28 11.5 -115t24.5 -116l-43 -22q-51 97 -71.5 161t-20.5 159q0 305 290 526z" />
    <glyph glyph-name="parenright" unicode=")" horiz-adv-x="257" 
d="M288 303q-6 -106 -51 -201q-33 -77 -86 -138.5t-151 -139.5l-28 36q61 49 124 164q44 80 70.5 191t26.5 209q0 126 -39 230l45 10q4 -5 10 -15t21 -43.5t27 -69.5t21.5 -90t9.5 -109v-34z" />
    <glyph glyph-name="asterisk" unicode="*" horiz-adv-x="516" 
d="M556 542q0 -28 -22 -39.5t-60 -19t-58 -20.5q20 -13 59 -19.5t60.5 -18.5t21.5 -43q0 -40 -45 -45q-26 0 -67 47q-20 35 -44 56q1 -21 13.5 -68.5t12.5 -59.5q0 -54 -50 -54q-23 0 -36 14.5t-13 37.5q0 14 18.5 61.5t18.5 65.5q0 4 -2 4q-4 0 -12 -9t-14 -18l-6 -9l-8 -9
q-8 -9 -11.5 -12.5t-11.5 -12t-13.5 -12.5t-13.5 -9.5t-15 -8t-13 -2.5q-41 3 -47 46q0 21 23 35t62.5 26t54.5 20q-13 7 -64 16q-36 7 -56 24t-20 40q0 15 14 30.5t31 15.5q30 -2 55 -35q10 -13 21 -27t16 -21t10.5 -13.5t8 -9t4.5 -2.5q3 0 3 7q0 16 -15.5 64t-15.5 68
q0 22 14.5 35t34.5 13q44 0 44 -65q0 -16 -10.5 -56t-11.5 -52q16 12 39 37.5t40 42t29 16.5q47 0 47 -52z" />
    <glyph glyph-name="plus" unicode="+" horiz-adv-x="508" 
d="M548 298v-95h-195v-203h-82v203h-207v96h208v206h82v-207h194z" />
    <glyph glyph-name="comma" unicode="," horiz-adv-x="219" 
d="M188 32q-4 -83 -156 -160l-20 41q78 47 80 71q0 2 -7 9v2q-33 26 -33 51q0 64 68 64q29 0 48.5 -21.5t19.5 -48.5v-8z" />
    <glyph glyph-name="hyphen" unicode="-" horiz-adv-x="340" 
d="M344 260l-22 -73h-239l24 73h237z" />
    <glyph glyph-name="period" unicode="." horiz-adv-x="220" 
d="M186 49q-1 -25 -23 -43.5t-51 -18.5q-20 0 -42.5 18.5t-22.5 39.5q0 27 21.5 45.5t51.5 18.5q27 0 46.5 -15.5t19.5 -38.5v-6z" />
    <glyph glyph-name="slash" unicode="/" horiz-adv-x="368" 
d="M504 656l-403 -672h-104l407 672h100z" />
    <glyph glyph-name="zero" unicode="0" horiz-adv-x="602" 
d="M518 507q0 99 -55 99q-26 0 -53.5 -21t-49.5 -58q-38 -66 -72.5 -162.5t-34.5 -169.5q0 -49 15.5 -82.5t45.5 -33.5q39 0 98 67q42 72 71 169t35 192zM626 417q-2 -49 -18.5 -105.5t-46.5 -113t-68.5 -103t-89.5 -75t-105 -28.5q-78 0 -118 60.5t-40 141.5
q0 110 39.5 212.5t116 176t174.5 88.5q53 0 90 -42.5t51.5 -97.5t14.5 -114z" />
    <glyph glyph-name="one" unicode="1" horiz-adv-x="386" 
d="M447 643q0 -8 -1.5 -15t-3.5 -10l-2 -4l-177 -557q0 -11 42 -11q9 0 21 0.5t13 0.5l-1 -47h-291l3 46q93 5 104 39l157 492q0 19 -22 19q-10 0 -32.5 -4.5t-30.5 -4.5l2 47l153 28q3 1 12.5 2.5t18 3.5t12.5 3q24 0 24 -21q0 -4 -1 -7z" />
    <glyph glyph-name="two" unicode="2" horiz-adv-x="536" 
d="M560 492q-1 -56 -58 -133q-8 -11 -43.5 -46t-77 -75t-53.5 -52q-9 -7 -91 -84h145q36 0 50 10.5t39 57.5l43 -19l-61 -151h-357v41l206 215q56 59 99 119t44 93q0 40 -27 67.5t-70 27.5q-38 0 -73 -24t-55 -66l-49 21q38 91 97.5 134t127.5 43q70 0 117.5 -46.5
t47.5 -117.5q0 -3 -0.5 -8t-0.5 -7z" />
    <glyph glyph-name="three" unicode="3" horiz-adv-x="494" 
d="M122 122q21 0 67.5 -29t78.5 -29q33 0 55.5 28.5t30 59t7.5 57.5q0 36 -12 62.5t-28 39.5t-41.5 20.5t-43.5 9t-42 1.5l3 46q230 43 230 141q0 27 -20 45.5t-45 18.5q-55 0 -104 -66l-39 21q30 57 79 90t101 33q62 0 103.5 -37t41.5 -92v-8q-1 -53 -30.5 -82t-104.5 -60
q63 -48 63 -142q-1 -21 -5.5 -41.5t-12 -38t-15.5 -32.5t-19.5 -28.5t-20 -23.5t-20.5 -20.5t-18 -15.5t-16.5 -12.5t-11.5 -8.5q-66 -36 -153 -36q-56 4 -86 24.5t-32 51.5q1 53 60 53z" />
    <glyph glyph-name="four" unicode="4" horiz-adv-x="544" 
d="M443 495l-239 -235l154 -1zM602 670l-131 -411h84l-20 -94h-95q-26 -67 -53 -165h-107l56 167h-252l29 89l423 414h66z" />
    <glyph glyph-name="five" unicode="5" horiz-adv-x="504" 
d="M584 658l-33 -102h-222l-25 -53q91 -25 132 -60q60 -62 60 -148q0 -133 -101 -225q-94 -80 -242 -80q-36 0 -56 17.5t-29 56.5v3q0 20 19 35t41 17q24 0 51.5 -24.5t62.5 -24.5q61 0 107 59.5t46 125.5q0 39 -20 68t-51.5 43t-54 20t-43.5 8q-16 -2 -20 -2q-8 0 -17 1.5
t-11 1.5q-4 0 -7.5 5t-3.5 8q0 2 4 6t12 13.5t15 21.5l115 209h271z" />
    <glyph glyph-name="six" unicode="6" horiz-adv-x="578" 
d="M458 285q0 45 -22 69.5t-59 24.5q-55 0 -94 -57q-30 -44 -40 -81.5t-10 -92.5q0 -91 69 -91h1q71 0 113 68.5t42 159.5zM354 440q28 7 53 7q76 0 122.5 -44t46.5 -117q0 -117 -80 -205.5t-187 -88.5q-90 0 -135 54.5t-45 142.5q0 95 37 179t96.5 142.5t128.5 97.5t139 56
q43 10 119 16l-3 -45q-161 -24 -292 -195z" />
    <glyph glyph-name="seven" unicode="7" horiz-adv-x="524" 
d="M649 633l-404 -633h-103l366 554h-180q-40 0 -67.5 -16.5t-53.5 -52.5l-39 25l92 151h374z" />
    <glyph glyph-name="eight" unicode="8" horiz-adv-x="564" 
d="M432 168q0 12 -2.5 24t-10 25t-11.5 21t-17.5 23t-17 19t-20.5 21l-18 18q-51 -24 -88 -65t-40 -89q0 -47 26.5 -79.5t67.5 -32.5q40 0 77 34t54 81zM499 521v5q0 40 -22.5 63t-55.5 23q-39 0 -60.5 -24t-24.5 -62q0 -8 1 -15.5t4.5 -15.5t6 -13.5t8.5 -13t9 -11.5
t11 -11.5t10.5 -10t11 -10.5t10.5 -9l23 12q29 15 48 39.5t20 53.5zM599 521q-1 -27 -11.5 -49t-21.5 -35.5t-35.5 -28t-38 -20.5t-43.5 -18q52 -60 69.5 -95.5t17.5 -93.5q-2 -61 -40 -105.5t-87.5 -64t-101.5 -19.5q-85 0 -141.5 46t-56.5 123q0 122 184 203
q-26 34 -35 46.5t-19.5 36.5t-10.5 48q0 48 17 84t46 55t61.5 28t69.5 9q66 0 121.5 -39t55.5 -101v-10z" />
    <glyph glyph-name="nine" unicode="9" horiz-adv-x="578" 
d="M506 504v10q0 47 -19.5 70.5t-50.5 23.5q-54 0 -99 -56.5t-45 -155.5q0 -101 70 -101q129 0 144 209zM610 446q0 -71 -22.5 -134.5t-59 -109.5t-84 -84t-95.5 -62.5t-95.5 -41.5t-82.5 -24.5t-58 -7.5l1 52q90 20 168 73t131 133q-55 -24 -100 -24q-66 0 -103.5 45
t-37.5 123q0 107 80.5 197t177.5 90q79 0 130 -56t51 -143q0 -17 -1 -26z" />
    <glyph glyph-name="colon" unicode=":" horiz-adv-x="236" 
d="M173 60q-1 -34 -21 -53.5t-50 -19.5q-21 0 -44 22t-23 46q0 34 21 53.5t52 19.5q25 0 45 -18t20 -43v-7zM284 371q-2 -33 -21.5 -51.5t-50.5 -18.5q-28 0 -47.5 16t-19.5 45q0 79 73 79q66 0 66 -70z" />
    <glyph glyph-name="semicolon" unicode=";" horiz-adv-x="231" 
d="M178 39q-3 -90 -157 -167l-18 41q65 47 74 60q6 9 6 15q0 15 -12 15q-28 24 -28 54q0 67 67 67q32 0 50 -21.5t18 -54.5v-9zM283 369q-2 -34 -21.5 -53t-50.5 -19q-27 0 -47 18.5t-20 46.5q0 35 20 57t54 22q65 0 65 -72z" />
    <glyph glyph-name="less" unicode="&#x3c;" horiz-adv-x="574" 
d="M583 518v-101l-377 -165q36 -17 121.5 -59.5t160 -79.5t79.5 -40l-5 -87l-494 224v87z" />
    <glyph glyph-name="equal" unicode="=" horiz-adv-x="614" 
d="M605 205v-88h-501v88h501zM604 388v-92h-500v92h500z" />
    <glyph glyph-name="greater" unicode="&#x3e;" horiz-adv-x="571" 
d="M608 297v-87l-517 -224v102l379 164l-365 165l8 101z" />
    <glyph glyph-name="question" unicode="?" horiz-adv-x="418" 
d="M253 58q-1 -23 -23 -47.5t-44 -24.5t-45 22t-23 50q1 27 24 47t47 20t44 -19.5t20 -47.5zM495 521q-1 -49 -30 -88t-109 -98q-74 -62 -86 -78t-38 -90l-46 3q18 99 46 142q35 30 100.5 116.5t65.5 117.5q0 22 -19 38.5t-41 16.5q-21 0 -32.5 -4t-15 -8.5t-8.5 -16.5
l14 -40q-1 -33 -12.5 -43t-41.5 -13q-22 0 -36 17t-14 46q4 52 44 86t109 34q76 0 113.5 -32.5t37.5 -90.5q0 -2 -0.5 -7t-0.5 -8z" />
    <glyph glyph-name="at" unicode="@" horiz-adv-x="744" 
d="M682 101l21 -50q-127 -66 -220 -66q-153 0 -255 97t-104 240q4 154 111.5 251.5t244.5 97.5q57 0 111.5 -18.5t100.5 -53.5t76.5 -92.5t35.5 -128.5q0 -90 -55.5 -166t-134.5 -76q-12 0 -23 2.5t-19.5 6.5t-15.5 9.5t-12 11t-9.5 11.5t-6.5 10t-4 7l-2 4
q-50 -57 -110 -61q-49 0 -73.5 36t-24.5 86t25.5 108.5t73 102t101.5 43.5q15 0 39 -18l21 -19q4 17 5 20h93q-62 -267 -62 -271q0 -25 17 -25q45 0 75 57.5t30 111.5q0 103 -78.5 171.5t-171.5 68.5q-121 0 -184 -84t-63 -205q0 -112 73 -188t185 -76q63 0 189 45zM546 419
q-16 30 -39 30q-39 0 -66 -52.5t-27 -123.5q0 -34 11.5 -54t28.5 -20q27 0 50 51q1 1 21.5 84.5t20.5 84.5z" />
    <glyph glyph-name="A" unicode="A" 
d="M416 279q-2 29 -8 105.5t-8 113.5q-11 -18 -55 -99t-69 -120h140zM624 48l-3 -48h-261l2 48q43 3 57 11t14 22q0 3 -0.5 9.5t-0.5 10.5l-12 109h-187q-21 -34 -46 -84t-25 -62q0 -17 27 -17q4 0 13 0.5t13 0.5l-2 -48h-207l2 48q36 5 52 24q9 10 31.5 43.5t61 93.5
t69 109.5t85 137.5t80.5 130l-8 62l110 18l68 -552q2 -9 5.5 -21.5t4 -16.5t4 -10.5t6 -7.5l10 -4t15 -3.5t22.5 -2.5z" />
    <glyph glyph-name="B" unicode="B" horiz-adv-x="567" 
d="M436 211v12q0 16 -2 27.5t-8.5 20t-9 11.5t-13 10.5t-12.5 8.5q-23 4 -37.5 8t-19.5 5.5t-10 1.5q-8 0 -36 -4l-77 -222q8 -26 41 -26q79 0 131 39t53 108zM506 503q0 23 -7 39.5t-16 24.5t-26.5 12.5t-29.5 5t-34 0.5q-17 0 -17 -9l-68 -200q101 1 147 33.5t51 93.5z
M635 494q-3 -55 -41.5 -92.5t-93.5 -57.5q36 -16 55 -42.5t19 -79.5q0 -93 -72 -157.5t-206 -64.5h-284l1 51q45 5 54 12t25 46q26 85 73 228.5t65 190.5q12 30 12 54q0 2 -5.5 6.5t-23 10.5t-41.5 9l1 44h260q202 0 202 -145v-13z" />
    <glyph glyph-name="C" unicode="C" horiz-adv-x="613" 
d="M723 658l-48 -217l-43 4q-6 74 -36.5 110t-89.5 36q-116 0 -202.5 -110.5t-86.5 -260.5q0 -65 32.5 -110.5t106.5 -45.5q32 0 57 4.5t49.5 18.5t36 22t41.5 33t40 33l42 -27q-85 -90 -148.5 -129t-141.5 -39q-112 0 -183.5 70t-71.5 183q0 114 63.5 215t161.5 159t200 58
q26 -1 77 -12t70 -11t30 19z" />
    <glyph glyph-name="D" unicode="D" horiz-adv-x="689" 
d="M597 405v15q0 51 -15.5 85t-46.5 50.5t-65 23t-82 6.5q-7 0 -13 -12l-159 -491q0 -17 26 -17q83 0 142 21t114 71q35 32 66 109t33 139zM738 381q-4 -79 -34.5 -144t-77.5 -108t-108 -73t-123 -43t-125 -13h-259l1 52q50 6 61 18q38 83 104 260t66 239q0 10 -4.5 17
t-13 10.5t-16 5t-20.5 2.5t-19 2l2 46h280q123 0 204.5 -67.5t81.5 -188.5v-15z" />
    <glyph glyph-name="E" unicode="E" horiz-adv-x="580" 
d="M677 652l-41 -174h-45l1 60q0 32 -32 39t-129 7q-45 0 -56 -4l-71 -206h40l18 3q59 5 77 19.5t49 72.5l45 -8l-83 -248l-51 8q12 48 12 63q0 13 -18.5 20.5t-44.5 7.5h-61l-9 -10l-6 -18q-6 -19 -14.5 -46.5t-17 -57t-15.5 -56t-9 -39.5q5 -18 57 -18q100 0 155 19.5
t90 65.5q6 10 38 47l36 -18l-68 -181h-512l1 49q25 3 36 4.5t20.5 11t11 14t12.5 29.5q19 37 81.5 239t67.5 237q0 2 -4 6t-21 9.5t-45 8.5l1 44h504z" />
    <glyph glyph-name="F" unicode="F" horiz-adv-x="560" 
d="M679 652l-43 -173h-44l-18 100q-3 2 -30 4q-6 -1 -20 -1q-8 0 -42.5 1t-61.5 1h-12q-12 0 -14.5 -0.5t-7.5 -4.5t-14 -8q-47 -148 -65 -197q30 0 39 0.5t31 2.5t31.5 6t25.5 12t28 21t26 31q-3 2 -3 16l47 -7l-91 -250l-43 7q3 14 7.5 28.5t7 22.5t2.5 13q0 7 -4 12.5
t-13 9t-17.5 5.5t-22.5 3t-23.5 1.5t-24.5 1t-22 0.5q-73 -214 -73 -237q0 -14 14 -18.5t51 -6.5l-1 -48h-268l1 48q49 6 63 20q37 66 102 266.5t65 249.5q0 7 -5 11.5t-13.5 6.5t-16.5 3t-19 1.5t-16 1.5l1 44h506z" />
    <glyph glyph-name="G" unicode="G" horiz-adv-x="692" 
d="M757 656l-62 -214l-43 3q-16 151 -142 151q-70 0 -129 -38.5t-94 -97t-54 -122.5t-19 -121q0 -86 47.5 -125t119.5 -39q57 0 98 35v2q28 34 42 69.5t16 55.5t2 54q0 6 -4.5 10t-13.5 6t-17 3t-20.5 1.5t-17.5 1.5l2 43h284l-1 -43q-63 -5 -91 -36q-1 -5 -24.5 -72
t-37.5 -130q-120 -73 -242 -73q-254 0 -280 270v4q4 99 63 194t155.5 155t201.5 60q49 0 83.5 -4.5t47 -10.5t22.5 -10.5t16 -4.5q28 0 52 31z" />
    <glyph glyph-name="H" unicode="H" horiz-adv-x="685" 
d="M740 580q0 -8 -80 -255t-80 -259q0 -7 7 -9l63 -9l-2 -48h-288l1 48q60 6 79 26q6 7 85 231h-238q-14 -40 -43 -130.5t-30 -100.5q0 -26 61 -26h2l-1 -48h-265l1 48q51 6 62 18q24 28 96 237t72 277q0 7 -5 11.5t-14 7t-17.5 4t-19.5 2.5t-16 2l2 45h290l-1 -45
q-65 -7 -85 -37q-9 -14 -26.5 -60.5t-31 -86.5t-13.5 -42h241q54 163 60 199q0 7 -4 12t-11.5 7.5t-14.5 3.5t-17 2t-15 2l2 45h263l-1 -45q-53 -10 -68 -27z" />
    <glyph glyph-name="I" unicode="I" horiz-adv-x="317" 
d="M442 652l-1 -45q-18 -4 -29 -7.5t-18 -5.5t-12 -9t-6.5 -10t-5.5 -15l-6 -18q-27 -60 -89 -249.5t-62 -222.5q0 -7 20.5 -14.5t39.5 -7.5l-2 -48h-260l1 48q48 6 56 17q42 53 98 243.5t74 275.5q-1 11 -21.5 17.5t-39.5 6.5l1 44h262z" />
    <glyph glyph-name="J" unicode="J" horiz-adv-x="427" 
d="M555 624l-1 -14q-9 -3 -31 -8t-24 -6q-36 -71 -114 -293t-101 -255q-60 -68 -136 -68q-57 0 -91 30.5t-34 76.5q0 26 16 44.5t49 22.5q24 -4 37.5 -21.5t15.5 -36t6 -33.5t13 -15q13 0 30 36q65 147 98.5 249t63.5 252q0 2 -4.5 6t-22 9t-43.5 8l2 44h271v-28z" />
    <glyph glyph-name="K" unicode="K" horiz-adv-x="632" 
d="M291 344q-1 0 -20 -60.5t-38 -128.5t-19 -82q0 -9 3.5 -14t11 -7t14 -2.5t18.5 -0.5t19 -1l-3 -48h-266l1 48q52 6 61 16q19 30 40.5 86t42.5 125t36.5 124t31.5 117t18 69q-5 15 -70 22l1 45h287v-45q-5 0 -16.5 -1t-15.5 -1.5t-13 -2.5t-13 -4t-10 -6t-10.5 -9.5
t-8.5 -13.5q-43 -102 -61 -167q10 7 35 23t36 24q46 28 79.5 54t51.5 44t50 53q-2 0 -4.5 1t-5.5 2l-41 3v46h239v-45q-19 -3 -81 -38l-280 -205q43 -74 137 -276q4 -8 10.5 -13.5t15 -10t10.5 -6.5q23 -7 61 -10l-1 -48h-292l1 48h6q24 0 45.5 9.5t21.5 16.5q0 17 -27 80.5
t-57 126.5z" />
    <glyph glyph-name="L" unicode="L" horiz-adv-x="564" 
d="M593 197l-72 -197h-510l1 49q51 6 61 17q37 68 99 264.5t69 251.5q0 6 -5 10.5t-14 7t-16.5 3.5t-19.5 2.5t-15 1.5l1 45h288l-1 -45q-65 -6 -83 -33q-17 -43 -34 -89t-27.5 -77.5t-27.5 -87t-23 -75t-25 -85.5t-23 -79q0 -12 77 -12q90 0 149 23q71 38 103 122z" />
    <glyph glyph-name="M" unicode="M" horiz-adv-x="795" 
d="M919 652l-1 -46q-56 -14 -63 -24q-6 0 -41 -105.5t-73 -228t-40 -128.5q-15 -41 -15 -48q0 -8 3 -11.5t19 -7t51 -5.5l-3 -48h-290l2 48q48 5 66.5 16t31.5 43q63 200 117 356q-67 -96 -148 -206t-128.5 -174.5t-58.5 -82.5l-37 3l-29 461q-109 -317 -116 -391
q0 -25 56 -25h6l-2 -48h-214l1 48q41 3 57 27q29 36 75 167.5t70 217.5t34 127q-1 14 -65 19l2 44h197l31 -439l323 441h182z" />
    <glyph glyph-name="N" unicode="N" horiz-adv-x="654" 
d="M780 652v-45q-37 -8 -64 -33q-16 -16 -201 -590h-43l-183 493q-42 -127 -111 -362q-10 -26 -10 -49q0 -17 63 -17l-2 -48h-217l2 48q41 4 54 19q22 26 54.5 118t70.5 215.5t53 163.5q-14 19 -30 29t-48 13l1 45h179l168 -440q24 91 62 214t45 149q0 31 -60 31l2 46h215z
" />
    <glyph glyph-name="O" unicode="O" horiz-adv-x="667" 
d="M593 473q0 57 -31 90.5t-71 33.5q-90 0 -170 -108q-67 -92 -92 -165.5t-25 -146.5q0 -127 86 -127q43 0 96.5 32t85.5 74q105 134 121 317zM726 415q-11 -108 -79.5 -209.5t-167 -163.5t-194.5 -62q-95 0 -154 66.5t-59 162.5q0 161 121 294q68 75 142 118t169 43
q97 0 160 -62.5t63 -156.5q0 -3 -0.5 -8.5t-0.5 -8.5v-13z" />
    <glyph glyph-name="P" unicode="P" horiz-adv-x="558" 
d="M373 573l-76 -216q3 0 11 -1t11 -1q183 0 192 136q0 54 -26.5 73.5t-80.5 19.5q-26 0 -31 -11zM177 608l2 44h250q92 0 153 -42.5t61 -113.5l-1 -5q-2 -61 -32 -104.5t-76.5 -64.5t-89.5 -29.5t-86 -8.5q-34 0 -79 9q-10 -31 -29.5 -85t-28.5 -83t-9 -45
q0 -13 18.5 -22.5t43.5 -9.5l-2 -48h-263l2 48q49 4 60 15q35 56 85 219t84 298q-4 12 -11.5 18.5t-14 7.5t-18.5 1t-19 1z" />
    <glyph glyph-name="Q" unicode="Q" horiz-adv-x="669" 
d="M302 49q60 0 115 46.5t91.5 114t59 137t25.5 121.5q0 60 -28 93t-73 33q-96 0 -171 -106q-45 -58 -81 -151.5t-36 -163.5q0 -124 98 -124zM726 427q-9 -175 -132.5 -301t-277.5 -144l-25 -3q-19 -19 -23 -22q25 -4 80 -19.5t101 -15.5q124 0 190 75l41 -26
q-52 -67 -76 -85q-35 -26 -86.5 -46t-96.5 -20q-64 0 -101 6.5t-46 14.5t-29 14.5t-54 6.5q-64 0 -119 -30l-21 41q97 66 160 122q-66 23 -102.5 70.5t-36.5 134.5q0 84 37 168.5t96.5 148t138 104t156.5 43.5q94 0 160 -63t66 -161v-13z" />
    <glyph glyph-name="R" unicode="R" horiz-adv-x="595" 
d="M506 499q0 52 -26 70t-90 18q-9 0 -16 -14l-69 -197h31q162 0 170 123zM639 497q0 -62 -55 -109.5t-122 -67.5l-18 -3q10 -62 45.5 -155.5t67.5 -106.5q11 -5 38 -6l-2 -49h-167q-34 71 -104 306q-9 2 -21 2.5t-13 0.5q-20 -57 -34 -101t-18.5 -59.5t-11.5 -48.5t-8 -37
q0 -9 57 -14l-3 -49h-259l1 49q13 2 25.5 3t18.5 2l5 1q74 128 183 533q-10 17 -66 19l2 44h256q79 0 141 -42t62 -112z" />
    <glyph glyph-name="S" unicode="S" horiz-adv-x="465" 
d="M562 663l-52 -218l-44 5q0 98 -14 112v2q-32 33 -89 33q-87 0 -87 -62q0 -32 20 -65.5t48 -64t56 -61.5t48 -67.5t20 -72.5q0 -103 -64.5 -163.5t-155.5 -60.5q-39 0 -72 9t-52 18.5t-24 9.5q-8 0 -12.5 -6t-11.5 -23h-48l49 246l45 -12q-1 -7 -1.5 -17.5t-0.5 -14.5
q0 -59 32.5 -97t83.5 -38q44 0 77.5 31.5t38.5 71.5q0 38 -46.5 101t-93.5 117.5t-48 69.5q-4 14 -4 28q0 94 58.5 141.5t138.5 47.5q30 0 67.5 -11t54.5 -11q12 0 22 10.5t19 13.5z" />
    <glyph glyph-name="T" unicode="T" horiz-adv-x="582" 
d="M706 652l-57 -187l-45 6q6 36 6 56q0 39 -27 49.5t-114 10.5q-4 -14 -41.5 -147.5t-69 -247t-31.5 -118.5q0 -8 6 -13t17 -7.5t20 -3.5t22.5 -1.5t17.5 -0.5l-2 -48h-307l2 48q68 5 84 27q39 51 99 232.5t81 276.5h-63q-58 -5 -84.5 -26t-62.5 -90l-44 10l52 174h541z
" />
    <glyph glyph-name="U" unicode="U" horiz-adv-x="651" 
d="M777 652l-1 -42q-19 -6 -32.5 -13.5t-21.5 -14t-15 -20t-10 -22.5t-10 -31t-12 -36l-92 -269q-42 -121 -110 -172.5t-165 -51.5q-47 0 -95 18.5t-84.5 58t-36.5 90.5q0 53 59.5 220.5t59.5 221.5q0 18 -71 18l2 45h287l-1 -44q-48 -6 -66 -22.5t-41 -75.5
q-109 -328 -110 -359q0 -46 34 -68.5t77 -22.5h27q39 0 62 8.5t46 39.5q36 48 84 169.5t79 302.5q0 5 -2 8.5t-6.5 6.5t-8.5 5t-11.5 3t-11.5 2t-12 2t-10 1l2 44h217z" />
    <glyph glyph-name="V" unicode="V" horiz-adv-x="619" 
d="M748 652v-44q-33 -3 -53 -30q-48 -71 -196.5 -297t-195.5 -301l-40 5l-63 505q-3 15 -6.5 40t-6.5 39t-6 19q-8 10 -13 13t-15.5 4.5t-19.5 4.5l3 42h257l-1 -44q-74 -13 -74 -33q0 -2 1 -6t1 -7l36 -382q20 33 78.5 124.5t99 161.5t64.5 126q-2 8 -58 16l1 44h207z" />
    <glyph glyph-name="W" unicode="W" horiz-adv-x="833" 
d="M614 486q0 -102 10 -266q17 32 76 137.5t87 159.5t28 66q0 13 -21.5 18.5t-37.5 5.5l1 45h205l-2 -42q-22 -10 -33 -16t-20 -16.5t-13 -19t-17.5 -33t-28.5 -49.5l-249 -438q-6 -10 -17.5 -29t-16.5 -29l-43 5l-23 399q-26 -52 -39 -75l-117 -217q-5 -9 -28 -49.5
t-34 -62.5l-41 5l-36 504q-12 89 -15 95q-6 16 -30 20q-3 1 -24 4v44h255l-1 -44q-60 -13 -72 -25l-1 2q0 -14 4 -16l19 -349q17 30 79.5 135t82.5 146q-1 1 -3.5 26t-10.5 37q-4 22 -18 32.5t-53 10.5l2 45h258l-1 -44q-43 -4 -52 -24.5t-9 -97.5z" />
    <glyph glyph-name="X" unicode="X" horiz-adv-x="616" 
d="M395 404q35 42 77.5 84t61 63t20.5 36q0 7 -9.5 11t-27 6t-20.5 3l3 45h228l-1 -45q-63 -22 -115 -76l-175 -192l84 -233q16 -36 31 -44.5t63 -13.5l-3 -48h-289l2 48q15 1 32.5 1.5t23 1t10 5t7.5 14.5q-1 43 -56 170l-134 -147q-16 -14 -17 -31q0 -14 29 -14h30l-2 -48
h-234l2 48q15 2 28 6.5t27.5 14t24.5 17.5t28 26t28.5 30t35 39t40.5 44l87 94l-87 238q-12 26 -31 37.5t-52 11.5l2 46h279l-1 -45q-5 -1 -15.5 -1.5t-18.5 -1.5t-16 -3t-12.5 -6.5t-4.5 -11.5q0 -13 9 -57.5t19 -83.5z" />
    <glyph glyph-name="Y" unicode="Y" horiz-adv-x="550" 
d="M680 652l-2 -43q-30 -14 -77 -65t-211 -246q-87 -221 -90 -221v-4q0 -25 75 -25h21v-48h-303v48q66 5 85 25q8 10 24 53.5t35.5 102t25.5 74.5q-5 22 -16.5 63t-15.5 58q-27 149 -48 167q-21 11 -49 16l2 45h253l-1 -45l-20 -1q-20 -1 -32.5 -5t-12.5 -14q0 -43 42 -211
q43 45 100 117t67 103q0 3 -4.5 4.5t-12.5 2.5t-15.5 1.5t-17.5 1.5t-14 1l3 45h209z" />
    <glyph glyph-name="Z" unicode="Z" horiz-adv-x="581" 
d="M672 617l-468 -550h118q59 0 101.5 10t67.5 30t37.5 36.5t24.5 41.5q0 1 0.5 2t1.5 2t2.5 3t2.5 5l43 -8l-64 -189h-511v38l466 543h-128q-88 0 -127 -20t-71 -87l-43 11l55 167h492v-35z" />
    <glyph glyph-name="bracketleft" unicode="[" horiz-adv-x="282" 
d="M416 656l-12 -56l-68 -4q-22 -1 -29 -15l-183 -651q-2 -5 -2 -10q0 -8 20 -9h6l68 -3l-9 -58h-211l229 806h191z" />
    <glyph glyph-name="backslash" unicode="\" horiz-adv-x="482" 
d="M483 -19h-103l-248 680h97z" />
    <glyph glyph-name="bracketright" unicode="]" horiz-adv-x="286" 
d="M393 656l-226 -806h-196l16 61h70q8 0 13.5 2.5t7.5 5t5 8.5t3 7q6 21 93 331t87 313q0 15 -21 17l-73 5l12 56h209z" />
    <glyph glyph-name="asciicircum" unicode="^" horiz-adv-x="474" 
d="M528 295h-94l-117 243l-141 -243l-96 2l204 364h74z" />
    <glyph glyph-name="underscore" unicode="_" horiz-adv-x="496" 
d="M501 -61l-1 -60h-502v60h503z" />
    <glyph glyph-name="grave" unicode="`" horiz-adv-x="269" 
d="M361 501h-69l-130 90q-22 20 -22 42q0 19 15.5 33t37.5 14q18 0 46 -25z" />
    <glyph glyph-name="a" unicode="a" horiz-adv-x="517" 
d="M506 448l18 -20v-4q-1 -10 -8 -24q-30 -91 -54.5 -174.5t-33.5 -121.5l-10 -37q0 -5 3 -5q3 1 11.5 8.5t20 23t19.5 32.5h64q-70 -76 -105 -106.5t-60 -30.5q-31 0 -44.5 16.5t-13.5 38.5q0 11 6 37q-82 -94 -159 -94q-49 0 -79 33.5t-30 79.5q0 115 89 223
q34 42 98.5 83t115.5 41q53 0 72 -24q0 1 5.5 5.5t5.5 5.5zM392 353v4q0 32 -48 32q-34 0 -95 -74q-47 -65 -59 -91.5t-21 -81.5q-2 -11 -3 -17v-5q0 -46 37 -46q38 0 77 39v-1q41 43 75.5 109.5t36.5 131.5z" />
    <glyph glyph-name="b" unicode="b" horiz-adv-x="491" 
d="M524 334q0 -78 -51 -160t-129 -134.5t-152 -52.5q-54 0 -110 33l-54 -11l198 611h-1q-1 1 -4.5 2.5t-9.5 2.5t-18 2.5t-28 2.5l2 36q13 2 80.5 16.5t84.5 17.5l21 -16l-101 -315q38 45 70.5 63.5t80.5 18.5q49 0 85 -31t36 -86zM409 306v11q0 19 -5 31t-14.5 16.5
t-16.5 5.5t-17 1l-2 -1q-21 0 -52 -28t-61 -74q-25 -43 -49.5 -106t-24.5 -93q0 -19 25 -19q53 0 133 91t84 165z" />
    <glyph glyph-name="c" unicode="c" horiz-adv-x="425" 
d="M472 347v-7q-1 -34 -19.5 -49.5t-41.5 -15.5q-34 0 -34 28q0 11 11 52q0 37 -31 37q-34 0 -95 -47q-48 -46 -74 -98.5t-26 -96.5q0 -36 19 -60.5t55 -30.5q32 0 57.5 12t37 23t39.5 41l43 -25q-54 -61 -84 -85t-52.5 -30t-71.5 -7q-149 0 -149 139q0 120 89.5 212
t219.5 107q39 0 72 -25t35 -74z" />
    <glyph glyph-name="d" unicode="d" horiz-adv-x="514" 
d="M385 355v5q0 35 -25 35q-47 0 -94 -59t-73 -123t-28 -97q0 -21 11.5 -32t27.5 -11q34 0 77 45t73.5 112t30.5 125zM49 105q0 74 35 142.5t86 112.5t104.5 70t93.5 27q18 0 29 -6.5t14.5 -13.5t4.5 -7h1q9 21 23 65.5t24 77.5t10 34q0 3 -1 6t-3.5 5t-4.5 3.5t-6 2.5
t-7.5 1.5t-8.5 1t-8 1t-8.5 1t-7.5 0.5v46q92 6 164 25l9 -6q-171 -578 -180 -621l1 2q5 2 10.5 5t9.5 5.5t9.5 7.5t8.5 8t10 10.5t10 10.5t11 12.5t11 13.5l33 -32q-101 -131 -166 -131h-3q-25 0 -37.5 20.5t-12.5 46.5q0 8 2 20q-40 -45 -71 -65t-75 -20q-51 0 -82.5 35
t-31.5 83z" />
    <glyph glyph-name="e" unicode="e" horiz-adv-x="420" 
d="M461 366q-2 -82 -104 -139q-98 -40 -174 -54q-10 -30 -10 -49q0 -54 67 -54q14 0 31 3t32 8.5t30 11.5t27 12t21 11.5t15 8.5l5 3l17 -16q-78 -79 -114 -97.5t-110 -26.5q-62 0 -100 40t-38 98q0 53 25 117.5t70 110.5q95 93 221 93q90 0 90 -69q0 -2 -0.5 -6t-0.5 -6z
M366 372q0 16 -15 19q-29 0 -64 -35t-53.5 -66t-29.5 -55q41 12 59.5 18t43 17.5t34.5 23.5t17.5 31.5t7.5 46.5z" />
    <glyph glyph-name="f" unicode="f" horiz-adv-x="284" 
d="M173 3q-15 -65 -39 -114.5t-46.5 -74.5t-46.5 -40.5t-37 -19.5t-21 -4q-36 0 -67 19t-33 52q1 61 56 61q24 0 36 -13t12 -34q0 -20 -6 -33h1q47 1 79 138l115 431h-85l10 61h87q53 138 105.5 203t119.5 65q41 0 68 -18.5t27 -53.5q0 -70 -59 -70q-23 0 -36.5 18.5
t-13.5 42.5q0 12 5 25q-25 -1 -43 -13.5t-30 -38.5t-18.5 -46t-15.5 -59t-13 -55h110l-10 -61h-112q-9 -31 -50 -182.5t-49 -185.5z" />
    <glyph glyph-name="g" unicode="g" horiz-adv-x="431" 
d="M334 336q0 48 -34 48q-36 0 -75 -40t-39 -86q0 -26 13 -51t30 -25q35 0 70 45.5t35 108.5zM289 -115q-1 33 -14.5 54t-38.5 29.5t-42.5 10.5t-44.5 2q-22 0 -47.5 -31t-27.5 -56q0 -44 29 -64t69 -20q49 0 82 22.5t35 52.5zM178 90q0 -10 31.5 -20.5t69.5 -22t69.5 -43.5
t31.5 -79q0 -75 -54.5 -125t-160.5 -50q-71 0 -124 30t-53 93q1 59 44.5 92t77.5 34q-31 16 -31 62q0 53 62 91q-25 16 -41.5 43.5t-16.5 57.5q0 69 67.5 131t150.5 62q19 0 37 -3.5t30.5 -9t22 -10.5t14.5 -9l5 -3q31 2 60 37l26 -63q-24 -35 -60 -38q5 -20 5 -41
q0 -72 -64 -128.5t-136 -56.5q-4 0 -14 4.5t-16 4.5q-13 -1 -20 -7.5t-9 -13t-4 -19.5z" />
    <glyph glyph-name="h" unicode="h" horiz-adv-x="505" 
d="M516 119q-58 -80 -90.5 -104.5t-77.5 -24.5q-56 0 -56 40q0 53 44 170.5t48 153.5q3 4 3 6t-7 3q-36 0 -104.5 -76t-101.5 -169l-40 -118h-104l196 620q-1 12 -18 12q-7 0 -22.5 -2.5t-21.5 -2.5l1 45q88 8 167 28l20 -19l-121 -372q63 78 104 109.5t74 31.5
q46 -3 66.5 -25t20.5 -47q0 -6 -1 -9v-1q0 -23 -44.5 -151.5t-45.5 -146.5q0 -8 4 -8q5 0 30 32t44 60z" />
    <glyph glyph-name="i" unicode="i" horiz-adv-x="274" 
d="M55 58q1 18 50.5 161t49.5 152q0 8 -12 8q-7 0 -23 -3t-22 -3h-3l4 44q18 1 42 6t62.5 14t63.5 14l21 -6l-108 -344q0 -3 -3.5 -10.5t-3.5 -11.5q0 -3 2 -5q19 8 34.5 24.5t41.5 52.5l33 -33q-28 -39 -48 -63t-52 -46t-62 -22q-67 0 -67 63v8zM326 578q-2 -29 -20 -47.5
t-45 -18.5q-33 0 -47 22t-14 46q1 34 18.5 52t46.5 18t45 -20.5t16 -51.5z" />
    <glyph glyph-name="j" unicode="j" horiz-adv-x="224" 
d="M281 441l-163 -528q-24 -73 -72.5 -117t-97.5 -46q-41 0 -67.5 20t-26.5 52q0 24 17 42t42 21q43 0 43 -21q0 -8 -7 -25t-7 -23q0 -8 14 -8q24 0 72 122.5t84.5 254t36.5 165.5q0 16 -2.5 21.5t-9.5 5.5q-3 0 -17.5 -3t-26.5 -3q-7 0 -11 1l4 44q14 0 37.5 4.5t65 12.5
t71.5 13zM316 578q-2 -27 -21.5 -47.5t-45.5 -20.5q-30 0 -48.5 19.5t-18.5 46.5q2 32 20 53t47 21h4q63 0 63 -72z" />
    <glyph glyph-name="k" unicode="k" horiz-adv-x="463" 
d="M351 -13q-43 0 -70.5 44.5t-70.5 160.5q-6 -3 -15 -16q-44 -114 -62 -176h-103l195 616q-6 10 -45 10h-19l2 46q80 5 168 28l20 -17l-133 -418q135 104 135 113q0 14 -43 18v40h199v-43q-41 -4 -92 -43q-9 -11 -69.5 -58t-61.5 -48q24 -65 26 -68q46 -100 66 -100
q12 0 21.5 11.5t20 32.5t12.5 24l38 -27q-34 -65 -62 -97.5t-57 -32.5z" />
    <glyph glyph-name="l" unicode="l" horiz-adv-x="269" 
d="M347 681l-187 -617q23 3 88 94l37 -24q-3 -5 -15 -21t-16 -21.5t-15 -20t-16.5 -20t-16 -17t-17.5 -16.5t-17 -12.5t-18.5 -10.5t-19 -5.5t-20.5 -2.5q-67 0 -67 50q0 16 9 52l161 519q-3 18 -56 18v46q82 6 167 28z" />
    <glyph glyph-name="m" unicode="m" horiz-adv-x="730" 
d="M601 360q-43 -5 -92 -74.5t-81 -145.5t-48 -137l-103 1q1 7 1.5 14t0.5 11.5t1 6.5l103 320q0 3 1 4q-42 0 -87.5 -52.5t-72 -106t-41.5 -99.5q-2 -4 -37 -99h-106q2 7 3 12t1.5 9t0.5 5q8 16 56 163.5t53 167.5q0 10 -22 10q-6 0 -19.5 -1t-17.5 -1l1 44q42 4 169 29
l21 -6l-41 -125q106 121 177 131q39 0 54.5 -14.5t15.5 -45.5q0 -26 -10 -57q94 117 168 117q24 0 47 -19t23 -45v-9q-2 -8 -47 -148t-45 -149q21 0 76 76l37 -25l-9 -22q-90 -109 -156 -109q-53 0 -53 58q0 31 15 70l70 225q2 13 -7 16z" />
    <glyph glyph-name="n" unicode="n" horiz-adv-x="518" 
d="M431 441q75 0 75 -65q0 -25 -11 -67l-79 -239q20 0 79 78l36 -34q-66 -79 -96.5 -101.5t-62.5 -22.5q-60 0 -60 69q0 23 16 74l72 210q0 13 -11 13q-40 0 -86.5 -55.5t-74.5 -111t-44 -99.5q-2 -4 -15.5 -35t-20.5 -53l-103 -1l116 351q1 2 0 5t-2 7.5t-1 5.5q0 5 -10 5
q-7 0 -25 -3.5t-23 -3.5l2 44q15 3 47 8.5t46 8t37.5 4.5t45.5 2h15l-42 -121q45 59 88.5 93t91.5 34z" />
    <glyph glyph-name="o" unicode="o" horiz-adv-x="486" 
d="M354 384q-43 0 -90 -52t-75 -115.5t-28 -102.5q0 -25 14.5 -45.5t42.5 -20.5q24 0 55 21.5t45 40.5q28 37 55 100t30 107q0 67 -49 67zM514 298q-3 -75 -50 -148t-117.5 -118t-140.5 -45q-76 0 -114 38t-38 101q0 70 42.5 143t116.5 122.5t155 49.5q62 0 104 -37.5
t42 -94.5v-11z" />
    <glyph glyph-name="p" unicode="p" horiz-adv-x="489" 
d="M400 301q0 62 -45 62q-60 0 -115 -95q-38 -88 -64 -193q-4 -8 -4 -18q0 -22 27 -22q63 0 119.5 76t76.5 165zM519 322q0 -83 -51.5 -165t-125 -131t-138.5 -49q-24 0 -56 13q-53 -180 -53 -185q0 -13 28 -13q5 0 15 0.5t14 0.5l-2 -43h-219l1 44q27 0 39.5 5t16.5 10
t17 30l171 516q-22 24 -56 24q-13 0 -24 -4v44l172 23l12 -12l-15 -53q85 65 148 65q41 0 73.5 -29.5t32.5 -90.5z" />
    <glyph glyph-name="q" unicode="q" horiz-adv-x="479" 
d="M397 343q0 39 -37 39q-41 0 -79 -44q-36 -33 -75 -102t-42 -116q0 -51 32 -51q26 0 65 26q46 41 90.5 118t45.5 130zM537 441l-194 -595q-5 -13 -5 -23q0 -25 35 -25q15 0 23 1l3 -48h-258l2 44q2 0 7 1q20 3 31 5.5t26 13.5t25 29q55 122 89 239q-31 -31 -51 -48.5
t-53 -36.5t-60 -21q-53 0 -81 35t-28 85q0 103 92 216q34 40 99 84.5t119 44.5q47 0 72 -38l3 37h104z" />
    <glyph glyph-name="r" unicode="r" horiz-adv-x="387" 
d="M451 380q0 -1 -1 -7.5t-1.5 -10t-3 -10.5t-5 -11t-7 -10t-10.5 -9.5t-15 -6.5t-19 -4q-33 0 -49 29v3q-26 0 -90.5 -122t-84.5 -182l-11 -39h-104l102 294q13 33 13 60q0 17 -4.5 23t-15.5 6t-29 -7t-20 -7l4 46l51 7q15 2 52.5 9t59.5 10l21 -6l-28 -97l49 63
q47 40 89 40q57 0 57 -61z" />
    <glyph glyph-name="s" unicode="s" horiz-adv-x="368" 
d="M238 98q0 22 -26 61t-52 82.5t-26 75.5q0 65 40.5 95t97.5 30q27 0 87 -15q11 0 21 15h37l-29 -157h-41q-10 98 -68 98q-7 0 -23.5 -8.5t-16.5 -21.5q0 -24 45 -82q60 -90 60 -135q0 -63 -40 -102t-121 -39q-85 12 -98 13q-1 0 -14 -22l-39 5l30 176h39q9 -57 34 -90.5
t55 -33.5q19 0 33.5 13t14.5 42z" />
    <glyph glyph-name="t" unicode="t" horiz-adv-x="296" 
d="M275 370q-19 -55 -57 -173.5t-38 -127.5q0 -2 1 -2q23 10 38.5 25t35.5 50l40 -14q-71 -87 -102.5 -113.5t-65.5 -26.5q-27 0 -44.5 13.5t-17.5 41.5q2 19 15 61l65 193q18 56 20 73h-53q-12 15 -12 20t2 8q-1 2 -1 6q0 13 13 20.5t31 7.5q26 0 64.5 28.5t59.5 70.5
l32 14q19 -9 19 -28q0 -5 -1 -8l-27 -78h70l-11 -61h-76z" />
    <glyph glyph-name="u" unicode="u" horiz-adv-x="502" 
d="M515 123q-71 -90 -96 -111.5t-50 -21.5h-8q-27 0 -45.5 17t-18.5 49q2 28 22 86q-33 -45 -57 -73.5t-62.5 -55t-73.5 -26.5q-62 0 -62 70q0 17 40 157.5t44 151.5q-1 0 -2 -1q-16 8 -50 8l2 43q38 3 156 29l20 -6l-104 -357l-1 -1q0 -1 1.5 -2t3.5 -2l2 -1q34 3 109 110
t130 254h100l-96 -296q-15 -40 -15 -81v-6q0 -6 3 -6q9 0 32.5 29.5t40.5 66.5z" />
    <glyph glyph-name="v" unicode="v" horiz-adv-x="447" 
d="M248 420l12 -92q13 -104 13 -215q61 53 96.5 124.5t37.5 136.5q-43 13 -43 54q0 23 14 39.5t36 16.5h8q22 -2 48.5 -22t26.5 -57q-3 -64 -33.5 -131t-72 -117.5t-84.5 -91.5t-73.5 -63t-37.5 -22q-10 0 -17.5 11.5t-7.5 32.5q0 19 1 50.5t1 45.5q0 50 -8 137t-16 104
q-39 13 -54 13h-15l3 40q10 1 118 27q13 0 29.5 -6.5t17.5 -14.5z" />
    <glyph glyph-name="w" unicode="w" horiz-adv-x="663" 
d="M222 442q24 0 32 -21l7 -60q7 -49 11 -178q24 36 53.5 82.5t46.5 73.5t36 53t33 38t27 12q22 0 23 -30l13 -288q37 47 66 97.5t45.5 86.5t22.5 44q-23 3 -36.5 21.5t-13.5 40.5q0 59 58 67q33 0 55 -16.5t22 -49.5q-6 -53 -64 -156.5t-158 -218.5l-65 -60q-9 0 -18 16.5
t-13 31.5l-7 247q-17 -28 -47.5 -70.5t-49 -70t-18.5 -34.5q0 -2 2 -2q-10 -15 -25.5 -39t-22.5 -34.5t-16 -23t-14 -17t-9 -4.5q-26 0 -29 45l1 102v29q0 204 -26 218l-56 4l4 42l12 2q1 0 23.5 5.5t48 10t46.5 4.5z" />
    <glyph glyph-name="x" unicode="x" horiz-adv-x="476" 
d="M520 389q-2 -54 -49 -54q-19 0 -35 7l-15 8q-21 0 -90 -109l-2 8q0 -25 15.5 -99.5t35.5 -74.5q13 0 24 9.5t25 31.5t15 23l39 -21q-53 -76 -84 -104.5t-56 -28.5q-41 0 -60 50q0 3 -5 22t-11.5 45t-9.5 40q-23 -30 -72 -85q-9 -8 -26.5 -26.5t-26 -25t-24.5 -13.5
t-35 -7q-23 0 -38 16t-15 44q0 22 14.5 35.5t36.5 13.5q19 0 33 -8t20 -8q7 0 25.5 22.5t49 63t50.5 63.5q-5 9 -13 48.5t-16.5 72t-17.5 32.5q-5 0 -15.5 -2.5t-28 -6.5t-31.5 -7l-3 39l136 36h4q8 0 14 -3.5t10.5 -10.5t8 -14.5t6.5 -20t4.5 -22t4 -24.5t4.5 -24
q52 70 87.5 95.5t66.5 25.5q50 0 50 -52z" />
    <glyph glyph-name="y" unicode="y" horiz-adv-x="463" 
d="M508 375q-2 -54 -57 -160t-127.5 -208.5t-150.5 -179.5t-122 -77q-46 0 -64 56q1 29 14.5 43t33.5 14q16 0 41.5 -14t31.5 -14q16 0 76.5 78t63.5 105q0 30 -29 171.5t-56 176.5q-8 8 -51 8q-9 0 -24 -3l3 51q112 15 144 24q23 0 55 -108.5t37 -150.5l6 -66
q101 166 103 214h-5q-21 0 -38 12t-20 39q0 20 5 32.5t17 18t19.5 6.5t26.5 3q38 -10 52.5 -25t14.5 -46z" />
    <glyph glyph-name="z" unicode="z" horiz-adv-x="408" 
d="M434 409l-278 -324q11 -7 57.5 -49.5t94.5 -60.5q8 0 12 1q-18 14 -18 35q0 15 16.5 35t38.5 20q27 0 37 -14t10 -42q-2 -36 -33 -62t-76 -26q-38 0 -110 39q-76 38 -93 38q-16 0 -38 -23l-33 37l292 335h-117q-22 0 -31.5 -6.5t-15.5 -22.5t-11 -23l-39 13l40 131h295
v-31z" />
    <glyph glyph-name="braceleft" unicode="{" horiz-adv-x="294" 
d="M36 -91q0 43 37.5 161.5t37.5 129.5q0 9 -2.5 16t-10.5 13t-12.5 9t-20 10t-21.5 10q79 21 101 55q14 16 26 55l51 173q28 85 69.5 112t150.5 27l-10 -39q-55 -15 -81 -52q-12 -27 -15.5 -35t-10 -26.5t-8.5 -26.5t-13.5 -46t-22.5 -75q0 -54 -74 -122q-9 -5 -16 -6
q25 -22 25 -51q0 -19 -50 -193q-26 -90 -26 -91q0 -13 14.5 -30t30.5 -20l-9 -40q-75 4 -107.5 19t-32.5 63z" />
    <glyph glyph-name="bar" unicode="|" horiz-adv-x="220" 
d="M205 661v-680h-58v680h58z" />
    <glyph glyph-name="braceright" unicode="}" horiz-adv-x="289" 
d="M185 305q0 23 39 150t39 133q0 17 -16 33t-39 16l17 43q67 -2 105 -22.5t38 -58.5v-11q-1 -23 -37 -147q-40 -104 -40 -136q0 -9 1.5 -14.5t6.5 -9.5t8 -6t12.5 -5.5t13.5 -4.5v-22q-57 -18 -78 -49q-21 -39 -43 -123.5t-49.5 -144.5t-74.5 -83q-35 -16 -128 -16l8 43
q55 16 82 52q16 27 71 215q33 108 91 118q-27 25 -27 50z" />
    <glyph glyph-name="asciitilde" unicode="~" horiz-adv-x="508" 
d="M538 273q-56 -66 -73 -76.5t-70 -15.5q-45 0 -114 28t-79 28q-18 0 -33.5 -10t-40.5 -34l-75 41q48 54 75 71t68 17t101.5 -27.5t78.5 -27.5q21 0 36 5.5t21.5 11t15 15.5t11.5 13z" />
    <glyph glyph-name="uni00A0" unicode="&#xa0;" horiz-adv-x="280" 
 />
    <glyph glyph-name="exclamdown" unicode="&#xa1;" horiz-adv-x="315" 
d="M267 292q-46 -169 -86 -364q-5 -27 -13.5 -52t-28.5 -50.5t-44 -25.5q-55 0 -55 57q0 30 17 71t69 148.5t100 222.5zM349 415q0 -42 -22.5 -61.5t-48.5 -19.5q-27 0 -45 20.5t-18 45.5q0 24 21.5 48.5t49.5 24.5q23 0 43 -15.5t20 -42.5z" />
    <glyph glyph-name="cent" unicode="&#xa2;" horiz-adv-x="405" 
d="M289 375q-18 -11 -34.5 -26.5t-40 -44t-37.5 -72.5t-14 -96q0 -36 9 -55zM463 349q-2 -26 -19 -43t-39 -17q-1 0 -3 0.5t-3 0.5h-6q-39 0 -39 49q0 24 10 49q0 1 -4 1q-14 -43 -138 -337q1 0 4.5 -0.5t5.5 -0.5q36 0 64.5 20t66.5 61l41 -25q-30 -37 -52.5 -59t-37 -35
t-38 -19t-34 -7.5t-46.5 -4.5q-9 -19 -25.5 -63.5t-22.5 -58.5h-64l53 133q-46 16 -68.5 43t-22.5 88q0 37 15.5 84t45.5 95t84 86t121 50q4 10 21.5 51t26.5 66l59 -2l-41 -112q86 -16 86 -83q0 -1 -0.5 -5t-0.5 -5z" />
    <glyph glyph-name="sterling" unicode="&#xa3;" horiz-adv-x="473" 
d="M222 300l-112 -1v74h104q6 17 15 45t12 37t9.5 26.5t9.5 24.5t10 19.5t13.5 22.5t16.5 23v2q71 91 163 91q43 0 71.5 -19.5t28.5 -59.5q0 -19 -15.5 -36.5t-34.5 -17.5t-35.5 14.5t-19.5 26.5v1q-9 27 -18 29q-33 -1 -57 -56t-51 -173l113 -1l-12 -72l-118 -1
q-12 -35 -18.5 -54t-11 -33.5t-9.5 -25t-7.5 -16t-10.5 -20t-14 -25.5q86 -26 129 -26q11 0 42 12.5t41 24.5l33 -25q-63 -112 -161 -116q-31 0 -55 7.5t-35.5 15.5t-40.5 30q-53 -55 -96 -55q-37 0 -56.5 18.5t-19.5 50.5q0 40 25 66.5t79 26.5q35 0 65 -9q28 134 28 154z
M78 76q1 -15 13 -24.5t27 -9.5q17 0 31.5 8.5t14.5 23.5v2q-2 26 -52 26q-13 0 -23.5 -6.5t-10.5 -17.5v-2z" />
    <glyph glyph-name="currency" unicode="&#xa4;" horiz-adv-x="578" 
d="M556 120l-57 -62l-91 91q-60 -39 -115 -39t-119 38q-47 -53 -88 -91l-66 63l90 90q-35 64 -35 121q0 59 34 111l-89 96l64 61l91 -89q65 38 123 38t109 -37q21 16 92 87l57 -61l-84 -95q35 -57 35 -114q0 -58 -37 -117q53 -50 86 -91zM410 328q0 52 -38 88t-91 36
q-42 0 -76.5 -38.5t-34.5 -94.5q0 -39 34.5 -78.5t86.5 -39.5q46 0 82.5 37t36.5 90z" />
    <glyph glyph-name="yen" unicode="&#xa5;" horiz-adv-x="558" 
d="M683 649l-2 -45q-36 -14 -57 -39l-176 -203h128l-20 -65h-165l-19 -57h168l-21 -70h-168q-32 -86 -32 -100q0 -7 5 -11.5t16 -6t18.5 -2.5t23 -1h18.5l2 -49h-307l14 50q18 1 32 4.5l24 6t19.5 11.5t14 12.5t11 17.5t8.5 18.5t9 24t9 25.5h-159l23 71h158q18 46 18 57
l-160 -1l21 66h129q-55 214 -68 223q-13 11 -61 18l3 45h256l-3 -45q-8 1 -25 1q-28 0 -48 -5.5t-20 -13.5v-1q51 -155 68 -213l11 15q153 160 156 199q0 8 -63 18l4 45h207z" />
    <glyph glyph-name="brokenbar" unicode="&#xa6;" horiz-adv-x="225" 
d="M208 276v-295h-77v295h77zM207 661l1 -291h-76v291h75z" />
    <glyph glyph-name="section" unicode="&#xa7;" horiz-adv-x="411" 
d="M167 316q0 -52 52 -113.5t90 -61.5q33 0 38 54q0 47 -55.5 112t-94.5 65q-30 0 -30 -56zM476 547q-10 -26 -31.5 -48t-37.5 -22q-11 0 -35 16t-24 40q0 18 5.5 30t12.5 15.5t12.5 7t5.5 7.5q0 10 -37 10q-80 0 -80 -98q0 -24 6 -34q16 -17 46.5 -45.5t53 -50.5t26.5 -27
q37 -54 37 -108q0 -141 -131 -151q35 -54 35 -99q-2 -57 -44.5 -100.5t-116.5 -47.5l-11 -1q-64 0 -101.5 31t-37.5 82q0 82 71 82q58 -7 61 -62l-2 -10t-2.5 -9t-4.5 -8.5t-5 -7t-6.5 -7.5t-6.5 -7t-8.5 -8t-8.5 -8q2 -4 9.5 -5.5t21 -2.5t19.5 -2q37 0 61 22t24 53
q0 27 -40 71l-68 81q-67 84 -67 149q0 54 35 98.5t86 44.5q6 0 18 -2q-36 44 -36 90q0 80 46 117.5t115 37.5q59 0 97 -27t38 -80v-7z" />
    <glyph glyph-name="dieresis" unicode="&#xa8;" horiz-adv-x="392" 
d="M283 598q-2 -26 -18.5 -40t-44.5 -14q-29 0 -46.5 16.5t-17.5 39.5q0 24 20 37.5t48 13.5q25 0 42 -16t17 -37zM473 604q0 -12 -3 -23.5t-19 -24t-43 -12.5q-26 0 -45 17t-19 39q2 23 22 37t47 14q17 0 38.5 -14t21.5 -33z" />
    <glyph glyph-name="copyright" unicode="&#xa9;" horiz-adv-x="756" 
d="M612 545q-73 55 -149 55q-109 -3 -177.5 -77t-72.5 -197q0 -114 74 -190.5t174 -76.5q103 0 178 75t76 188q-1 70 -22 122t-81 101zM799 321q0 -74 -29.5 -138.5t-77 -107t-107.5 -66.5t-122 -24q-87 0 -162 41t-123.5 120t-51.5 180q0 76 29 141t76.5 108.5t108 68.5
t123.5 27q138 0 237 -100t99 -250zM638 262l-17 -82q-2 -15 -42.5 -37.5t-79.5 -22.5q-53 0 -111 29.5t-83 63.5q-36 47 -36 115q0 103 67 156t156 53q5 0 14 -1t31 -5t39 -9t31 -15.5t14 -23.5v-81h-46q-12 83 -86 83q-60 0 -87 -43.5t-27 -107.5q0 -78 32 -116t83 -38
q38 0 61.5 21t40.5 61h46z" />
    <glyph glyph-name="ordfeminine" unicode="&#xaa;" horiz-adv-x="384" 
d="M350 600v9q0 10 -6 10q-28 0 -68.5 -54t-40.5 -87q0 -24 11 -24q18 0 59 54t45 92zM392 464q5 0 44 39l21 -33q-67 -76 -101 -76q-47 0 -50 40q-47 -40 -90 -40q-87 0 -87 80q5 76 87 147q55 50 119 50q30 0 49 -11q1 3 12 8h73q-16 -41 -36.5 -93t-29.5 -76.5t-11 -34.5
z" />
    <glyph glyph-name="guillemotleft" unicode="&#xab;" horiz-adv-x="415" 
d="M316 379q0 -22 -115 -130q-5 -5 -16.5 -15t-20.5 -19q28 -49 46.5 -93.5t18.5 -56.5q0 -29 -24 -29q-4 0 -27.5 28.5t-49 62.5t-47.5 63l-22 30v15l129 96q93 75 106 75q23 0 23 -20q0 -1 -0.5 -3t-0.5 -4zM470 379q-1 -12 -101 -115q-7 -6 -55 -51q4 -9 6 -20l3 2
q62 -114 62 -130q0 -29 -25 -29q-6 0 -29.5 28.5t-48.5 62t-48 64.5l-23 31v13l130 96q12 9 58.5 42t47.5 33q24 0 24 -19q0 -1 -0.5 -4t-0.5 -4z" />
    <glyph glyph-name="logicalnot" unicode="&#xac;" horiz-adv-x="592" 
d="M586 388v-283h-90l10 191h-410v92h490z" />
    <glyph glyph-name="uni00AD" unicode="&#xad;" horiz-adv-x="340" 
d="M344 260l-22 -73h-239l24 73h237z" />
    <glyph glyph-name="registered" unicode="&#xae;" horiz-adv-x="756" 
d="M507 397v19q0 58 -51 58h-21v-129h20q38 0 52 52zM584 252q37 -50 67 -75v-30q63 74 64 175q-1 70 -22 122t-81 101q-73 55 -149 55q-109 -3 -177.5 -77t-72.5 -197q0 -114 74 -190.5t174 -76.5q115 0 189 87h-74q-12 0 -53.5 54.5t-67.5 99.5h-20v-81q0 -6 -0.5 -11.5
t-0.5 -8.5v-3q9 -5 44 -9v-41h-178v41q41 3 44 6q-2 2 -2 26v227q0 10 -1 15.5t-1.5 9.5t-4.5 5.5t-7 2t-12 1t-16 1.5v41h179q56 0 90 -26t34 -75q0 -72 -70 -105q48 -59 51 -64zM799 321q0 -74 -29.5 -138.5t-77 -107t-107.5 -66.5t-122 -24q-87 0 -162 41t-123.5 120
t-51.5 180q0 76 29 141t76.5 108.5t108 68.5t123.5 27q138 0 237 -100t99 -250z" />
    <glyph glyph-name="macron" unicode="&#xaf;" horiz-adv-x="420" 
d="M492 581l-19 -61h-318l19 61h318z" />
    <glyph glyph-name="degree" unicode="&#xb0;" horiz-adv-x="356" 
d="M252 526q0 35 -23.5 59t-51.5 24q-30 0 -53 -26t-23 -57q0 -35 22.5 -58.5t52.5 -23.5q32 0 54 23.5t22 58.5zM321 526q0 -66 -45.5 -106t-100.5 -40q-61 0 -102 42.5t-41 103.5q0 66 45 105.5t100 39.5q59 0 101.5 -43t42.5 -102z" />
    <glyph glyph-name="plusminus" unicode="&#xb1;" horiz-adv-x="569" 
d="M565 93v-93h-500v93h500zM581 357l-2 -95h-207l-8 -146h-83v150h-204v92h217v205h83v-206h204z" />
    <glyph glyph-name="uni00B2" unicode="&#xb2;" horiz-adv-x="331" 
d="M408 560q-1 -15 -14.5 -36.5t-25.5 -35t-37 -38.5t-28 -29l-90 -76h71q18 0 27.5 4t12.5 8t16 24l34 -20l-46 -93h-239v42l135 124q85 73 88 111q0 18 -18.5 30t-44.5 12q-27 0 -46 -13t-19 -41l-46 27q20 51 59.5 81t93.5 30q118 0 118 -96q0 -3 -0.5 -8t-0.5 -7z" />
    <glyph glyph-name="uni00B3" unicode="&#xb3;" horiz-adv-x="316" 
d="M404 582q-2 -28 -22.5 -49t-56.5 -29q33 -19 33 -68q0 -77 -56.5 -126.5t-142.5 -49.5q-43 0 -63 14.5t-20 35.5q0 19 14 34.5t32 15.5q7 0 37 -15.5t38 -15.5q27 0 46.5 19t21.5 46q0 42 -43 64l-58 9v37q137 24 140 71q0 28 -27 28q-37 0 -69 -36l-31 25q19 35 53 57
t70 22q47 0 75.5 -24.5t28.5 -64.5z" />
    <glyph glyph-name="acute" unicode="&#xb4;" horiz-adv-x="295" 
d="M397 634q0 -28 -26 -40l-172 -84h-71l188 165q11 8 25 8q21 0 38 -16t18 -33z" />
    <glyph glyph-name="uni00B5" unicode="&#xb5;" horiz-adv-x="532" 
d="M76 74v-9q12 45 28 94t27 91q24 125 58 178h95l-80 -310q0 -20 13.5 -33t30.5 -13q25 0 53.5 16.5t50.5 41.5q12 44 42 147.5t43 152.5l115 -2l-98 -363q0 -8 8 -8q12 0 65 35l13 -10l-12 -35q-56 -48 -68.5 -54.5t-50.5 -10.5q-39 0 -54 12t-15 36q0 9 1 14
q-76 -64 -130 -64q-55 0 -83 39v-68q-3 -65 -25 -110t-64 -45q-43 0 -43 50q0 31 13.5 70.5t22.5 55.5q1 0 1 1q27 56 43 101z" />
    <glyph glyph-name="paragraph" unicode="&#xb6;" horiz-adv-x="514" 
d="M336 593q-38 -8 -69 -49t-45 -82t-14 -66q0 -40 18 -58v-2q11 -16 28 -19zM647 649l-15 -51q-63 -6 -82 -27q-3 -4 -37.5 -114.5t-73.5 -235t-43 -137.5q-9 -26 -30.5 -75.5t-28.5 -61.5h10q0 -15 70 -15l-9 -52h-174l222 713h-20l-223 -713h-174l15 52q56 5 60 6.5
t22 20.5q28 62 61 174t39 130q-133 11 -133 115q0 72 24.5 128t62 85t75.5 43.5t72 14.5h310z" />
    <glyph glyph-name="periodcentered" unicode="&#xb7;" horiz-adv-x="220" 
d="M166 291q25 0 42 -19t17 -46t-17 -46t-42 -19t-42 19t-17 46t17 46t42 19z" />
    <glyph glyph-name="cedilla" unicode="&#xb8;" horiz-adv-x="288" 
d="M225 -107q0 -47 -36.5 -76t-91.5 -29q-54 0 -113 33l28 50q56 -16 73 -16q52 4 52 19q0 7 -12.5 12.5t-28.5 5.5h-3q-19 0 -33 -7l-26 24l74 99h72l-41 -58q86 -3 86 -57z" />
    <glyph glyph-name="uni00B9" unicode="&#xb9;" horiz-adv-x="246" 
d="M345 648q0 -5 -7 -22q-12 -31 -39.5 -105.5t-49 -135.5t-21.5 -63q4 -12 27 -12h13l-3 -46h-200l3 46q59 7 61 17q58 140 107 249l-4 22q0 8 -12 8q-6 0 -21 -3t-19 -3l3 49q118 20 136 22h5q20 0 21 -23z" />
    <glyph glyph-name="ordmasculine" unicode="&#xba;" horiz-adv-x="367" 
d="M252 453q28 0 51.5 29t34 60t10.5 50v8q0 30 -14 30q-15 0 -38.5 -26.5t-35.5 -49.5q-8 -9 -19.5 -34.5t-11.5 -43.5q0 -23 23 -23zM452 580q-3 -75 -73 -130t-142 -55q-44 0 -75 23t-31 61q0 70 67 131t150 61q46 0 75 -24t29 -61v-6z" />
    <glyph glyph-name="guillemotright" unicode="&#xbb;" horiz-adv-x="411" 
d="M292 232l-2 -23q-37 -25 -95.5 -70t-96.5 -74t-43 -29q-23 0 -23 28q0 29 78 95l74 69l-1 4q-1 3 -2 9t-2 11l-7 -3q-56 114 -56 133q1 24 24 24q25 0 80 -87zM444 227l-2 -7v-10q-15 -10 -73.5 -54t-109.5 -82t-52 -38q-23 0 -23 28q0 30 92 103l7 -8q0 1 12 15t28 31
t25 23q-4 22 -4 31l-16 -10q-57 102 -57 133q0 24 23 24q5 0 23.5 -21.5t41.5 -48t34 -35.5q49 -71 51 -74z" />
    <glyph glyph-name="onequarter" unicode="&#xbc;" horiz-adv-x="719" 
d="M774 415l-82 -244h44l-15 -71h-54q-5 -14 -20 -60l-11 -40h-96l35 100h-160l22 69l275 246h62zM636 275l-109 -103h69q31 74 40 103zM712 667l-482 -675h-86l483 675h85zM234 340l-2 -32q20 -4 37 -4l-2 -46h-202l3 46q53 7 62 16l96 265q4 10 4 11q0 4 -18 4h-28l1 48
l135 23q24 0 24 -19q0 -1 -0.5 -3t-0.5 -3q0 -11 -5 -20q-6 -18 -32.5 -89.5t-48.5 -130.5t-23 -66z" />
    <glyph glyph-name="onehalf" unicode="&#xbd;" horiz-adv-x="744" 
d="M344 646q0 -5 -24.5 -70t-54 -148t-39.5 -124q0 -4 8 -4q6 0 18 2t14 2v-46h-201l3 46q56 7 57 10q3 3 5 6l96 265q3 6 3 10q0 5 -17 5h-29l2 48q122 22 124 22h6l2 1q27 0 27 -20v-5zM696 667l-480 -675h-85l483 675h82zM780 319q0 -33 -19 -65.5t-41 -53t-66 -57.5
t-66 -58h66q28 0 34 4.5t20 32.5l36 -21l-40 -97h-245v43l135 125q14 11 32.5 28.5t41 47.5t22.5 49q0 33 -62 33q-40 0 -86 -46l-34 20q58 114 154 114q58 0 88 -30t30 -69z" />
    <glyph glyph-name="threequarters" unicode="&#xbe;" horiz-adv-x="724" 
d="M639 275l-108 -103h67q4 10 19.5 48.5t21.5 54.5zM779 415l-83 -244h44l-15 -71l-53 -3q-23 -57 -33 -94h-95l34 97h-158l22 69l274 246h63zM390 579q-5 -45 -63 -73l-29 -5q15 -5 31 -27.5t16 -49.5q0 -75 -58 -125t-141 -50q-42 0 -61.5 15t-19.5 37q0 19 12.5 34
t30.5 15q10 0 39 -15.5t37 -15.5q31 0 47.5 20t18.5 48q0 75 -101 75l2 39q136 21 139 72q0 29 -27 29q-36 0 -69 -37l-31 25q19 33 53.5 57t68.5 24q45 0 75.5 -23.5t30.5 -61.5q0 -1 -0.5 -3.5t-0.5 -3.5zM716 667l-481 -675h-86l483 675h84z" />
    <glyph glyph-name="questiondown" unicode="&#xbf;" horiz-adv-x="427" 
d="M348 294q-26 -113 -44 -144q-11 -15 -57.5 -65t-75 -91.5t-28.5 -73.5q0 -51 41 -60q18 1 25 1.5t20 2.5t18 7t5 14l-3 9q-3 10 -6 22.5t-3 20.5q0 46 55 46q30 0 41 -14t11 -46q-3 -55 -43.5 -89t-113.5 -34q-70 0 -109 35.5t-39 98.5q0 53 28 92t114 102
q32 17 53.5 40.5t29.5 38.5t20 48t17 44zM420 406q-2 -29 -23 -50.5t-49 -21.5q-62 0 -62 72q1 28 21 47t46 19q28 0 47.5 -19t19.5 -47z" />
    <glyph glyph-name="Agrave" unicode="&#xc0;" 
d="M416 279q-2 29 -8 105.5t-8 113.5q-11 -18 -55 -99t-69 -120h140zM624 48l-3 -48h-261l2 48q43 3 57 11t14 22q0 3 -0.5 9.5t-0.5 10.5l-12 109h-187q-21 -34 -46 -84t-25 -62q0 -17 27 -17q4 0 13 0.5t13 0.5l-2 -48h-207l2 48q36 5 52 24q9 10 31.5 43.5t61 93.5
t69 109.5t85 137.5t80.5 130l-8 62l110 18l68 -552q2 -9 5.5 -21.5t4 -16.5t4 -10.5t6 -7.5l10 -4t15 -3.5t22.5 -2.5zM572 696l-68 -3l-130 100q-23 27 -23 46q0 21 15.5 37.5t40.5 16.5q17 0 43 -29z" />
    <glyph glyph-name="Aacute" unicode="&#xc1;" 
d="M416 279q-2 29 -8 105.5t-8 113.5q-11 -18 -55 -99t-69 -120h140zM624 48l-3 -48h-261l2 48q43 3 57 11t14 22q0 3 -0.5 9.5t-0.5 10.5l-12 109h-187q-21 -34 -46 -84t-25 -62q0 -17 27 -17q4 0 13 0.5t13 0.5l-2 -48h-207l2 48q36 5 52 24q9 10 31.5 43.5t61 93.5
t69 109.5t85 137.5t80.5 130l-8 62l110 18l68 -552q2 -9 5.5 -21.5t4 -16.5t4 -10.5t6 -7.5l10 -4t15 -3.5t22.5 -2.5zM643 837q0 -30 -27 -44l-174 -96h-67l186 186q13 9 27 9q22 0 38 -16t17 -39z" />
    <glyph glyph-name="Acircumflex" unicode="&#xc2;" 
d="M416 279q-2 29 -8 105.5t-8 113.5q-11 -18 -55 -99t-69 -120h140zM624 48l-3 -48h-261l2 48q43 3 57 11t14 22q0 3 -0.5 9.5t-0.5 10.5l-12 109h-187q-21 -34 -46 -84t-25 -62q0 -17 27 -17q4 0 13 0.5t13 0.5l-2 -48h-207l2 48q36 5 52 24q9 10 31.5 43.5t61 93.5
t69 109.5t85 137.5t80.5 130l-8 62l110 18l68 -552q2 -9 5.5 -21.5t4 -16.5t4 -10.5t6 -7.5l10 -4t15 -3.5t22.5 -2.5zM632 695l-65 -2l-71 92q-24 -17 -36.5 -25.5t-14.5 -9.5l-4 -2t-6 -4t-20 -14.5t-46 -34.5l-74 3l183 192h58z" />
    <glyph glyph-name="Atilde" unicode="&#xc3;" 
d="M416 279q-2 29 -8 105.5t-8 113.5q-11 -18 -55 -99t-69 -120h140zM624 48l-3 -48h-261l2 48q43 3 57 11t14 22q0 3 -0.5 9.5t-0.5 10.5l-12 109h-187q-21 -34 -46 -84t-25 -62q0 -17 27 -17q4 0 13 0.5t13 0.5l-2 -48h-207l2 48q36 5 52 24q9 10 31.5 43.5t61 93.5
t69 109.5t85 137.5t80.5 130l-8 62l110 18l68 -552q2 -9 5.5 -21.5t4 -16.5t4 -10.5t6 -7.5l10 -4t15 -3.5t22.5 -2.5zM551 696q-12 0 -70.5 20t-68.5 20q-26 0 -42 -40h-60q21 73 48.5 103.5t73.5 30.5q26 -3 70 -21.5t66 -18.5q10 0 17.5 3.5t10.5 6.5t12 15.5t13 17.5
l39 -3q-32 -133 -109 -134z" />
    <glyph glyph-name="Adieresis" unicode="&#xc4;" 
d="M416 279q-2 29 -8 105.5t-8 113.5q-11 -18 -55 -99t-69 -120h140zM624 48l-3 -48h-261l2 48q43 3 57 11t14 22q0 3 -0.5 9.5t-0.5 10.5l-12 109h-187q-21 -34 -46 -84t-25 -62q0 -17 27 -17q4 0 13 0.5t13 0.5l-2 -48h-207l2 48q36 5 52 24q9 10 31.5 43.5t61 93.5
t69 109.5t85 137.5t80.5 130l-8 62l110 18l68 -552q2 -9 5.5 -21.5t4 -16.5t4 -10.5t6 -7.5l10 -4t15 -3.5t22.5 -2.5zM452 800q-2 -29 -19.5 -49t-44.5 -20q-29 0 -46 20t-17 51q0 28 21.5 45t47.5 17q27 0 42.5 -18t15.5 -46zM642 809q0 -30 -15 -54t-51 -24
q-26 0 -44 21.5t-18 49.5t20.5 45t48.5 17q21 0 40 -16t19 -39z" />
    <glyph glyph-name="Aring" unicode="&#xc5;" 
d="M416 279q-2 29 -8 105.5t-8 113.5q-11 -18 -55 -99t-69 -120h140zM624 48l-3 -48h-261l2 48q43 3 57 11t14 22q0 3 -0.5 9.5t-0.5 10.5l-12 109h-187q-21 -34 -46 -84t-25 -62q0 -17 27 -17q4 0 13 0.5t13 0.5l-2 -48h-207l2 48q36 5 52 24q9 10 31.5 43.5t61 93.5
t69 109.5t85 137.5t80.5 130l-8 62l110 18l68 -552q2 -9 5.5 -21.5t4 -16.5t4 -10.5t6 -7.5l10 -4t15 -3.5t22.5 -2.5zM524 784q0 19 -13.5 31t-31.5 12q-14 0 -30.5 -13t-16.5 -31q0 -19 12 -30t30 -11t32.5 12.5t17.5 29.5zM592 783q-2 -51 -38 -80t-80 -29q-41 0 -75 31
t-34 72q0 56 36 89t80 33q45 0 78 -31.5t33 -76.5v-8z" />
    <glyph glyph-name="Ccedilla" unicode="&#xc7;" horiz-adv-x="616" 
d="M722 658l-48 -220l-42 2q-6 76 -36.5 113t-90.5 37q-118 0 -203.5 -111t-85.5 -263q0 -68 33 -114t108 -46q57 0 110 29.5t114 85.5l41 -31q-73 -79 -142 -122.5t-142 -43.5q-30 0 -55 6l-7 -13q88 -3 88 -66q-2 -54 -44 -84.5t-87 -30.5h-4q-31 0 -111 33l34 57
q45 -18 72 -18q34 0 34 23q0 9 -6 16t-12 8q-23 0 -40 -10l-27 23l51 82q-72 23 -110 85t-38 141q0 75 39 155t99 141.5t136 101.5t145 40q27 0 81.5 -11.5t71.5 -11.5q19 0 30 20z" />
    <glyph glyph-name="Egrave" unicode="&#xc8;" horiz-adv-x="580" 
d="M677 652l-41 -174h-45l1 60q0 32 -32 39t-129 7q-45 0 -56 -4l-71 -206h40l18 3q59 5 77 19.5t49 72.5l45 -8l-83 -248l-51 8q12 48 12 63q0 13 -18.5 20.5t-44.5 7.5h-61l-9 -10l-6 -18q-6 -19 -14.5 -46.5t-17 -57t-15.5 -56t-9 -39.5q5 -18 57 -18q100 0 155 19.5
t90 65.5q6 10 38 47l36 -18l-68 -181h-512l1 49q25 3 36 4.5t20.5 11t11 14t12.5 29.5q19 37 81.5 239t67.5 237q0 2 -4 6t-21 9.5t-45 8.5l1 44h504zM528 693h-68l-130 100q-22 24 -22 46q0 21 15 37.5t40 16.5q18 0 45 -29z" />
    <glyph glyph-name="Eacute" unicode="&#xc9;" horiz-adv-x="580" 
d="M677 652l-41 -174h-45l1 60q0 32 -32 39t-129 7q-45 0 -56 -4l-71 -206h40l18 3q59 5 77 19.5t49 72.5l45 -8l-83 -248l-51 8q12 48 12 63q0 13 -18.5 20.5t-44.5 7.5h-61l-9 -10l-6 -18q-6 -19 -14.5 -46.5t-17 -57t-15.5 -56t-9 -39.5q5 -18 57 -18q100 0 155 19.5
t90 65.5q6 10 38 47l36 -18l-68 -181h-512l1 49q25 3 36 4.5t20.5 11t11 14t12.5 29.5q19 37 81.5 239t67.5 237q0 2 -4 6t-21 9.5t-45 8.5l1 44h504zM620 836q0 -29 -26 -43l-173 -95h-71l191 187q22 4 27 4q50 0 52 -53z" />
    <glyph glyph-name="Ecircumflex" unicode="&#xca;" horiz-adv-x="580" 
d="M677 652l-41 -174h-45l1 60q0 32 -32 39t-129 7q-45 0 -56 -4l-71 -206h40l18 3q59 5 77 19.5t49 72.5l45 -8l-83 -248l-51 8q12 48 12 63q0 13 -18.5 20.5t-44.5 7.5h-61l-9 -10l-6 -18q-6 -19 -14.5 -46.5t-17 -57t-15.5 -56t-9 -39.5q5 -18 57 -18q100 0 155 19.5
t90 65.5q6 10 38 47l36 -18l-68 -181h-512l1 49q25 3 36 4.5t20.5 11t11 14t12.5 29.5q19 37 81.5 239t67.5 237q0 2 -4 6t-21 9.5t-45 8.5l1 44h504zM619 693h-66l-70 92q-24 -17 -36.5 -25.5t-14.5 -9.5t-4.5 -2t-6.5 -4t-20 -14.5t-46 -34.5l-75 3l184 192h59z" />
    <glyph glyph-name="Edieresis" unicode="&#xcb;" horiz-adv-x="580" 
d="M677 652l-41 -174h-45l1 60q0 32 -32 39t-129 7q-45 0 -56 -4l-71 -206h40l18 3q59 5 77 19.5t49 72.5l45 -8l-83 -248l-51 8q12 48 12 63q0 13 -18.5 20.5t-44.5 7.5h-61l-9 -10l-6 -18q-6 -19 -14.5 -46.5t-17 -57t-15.5 -56t-9 -39.5q5 -18 57 -18q100 0 155 19.5
t90 65.5q6 10 38 47l36 -18l-68 -181h-512l1 49q25 3 36 4.5t20.5 11t11 14t12.5 29.5q19 37 81.5 239t67.5 237q0 2 -4 6t-21 9.5t-45 8.5l1 44h504zM620 800q-1 -32 -20 -50t-46 -18q-26 0 -44 20.5t-18 49.5q1 30 21 46t47 16q18 0 39 -17t21 -40v-7zM429 800
q-1 -30 -19 -49t-45 -19q-61 0 -61 70q1 29 20 45.5t47 16.5q25 0 41.5 -18.5t16.5 -45.5z" />
    <glyph glyph-name="Igrave" unicode="&#xcc;" horiz-adv-x="316" 
d="M442 655l-1 -46q-18 -4 -29 -8t-18 -6t-12 -9t-6 -9t-5.5 -14.5t-6.5 -17.5q-27 -64 -89 -253t-62 -222q0 -6 21 -13.5t39 -7.5l-2 -49h-260l1 49q48 6 56 17q42 52 96.5 237.5t75.5 281.5q-1 11 -22 18t-39 7l1 45h262zM431 696l-69 -3l-130 100q-24 24 -24 51
q0 17 14.5 33t41.5 16q20 0 44 -29z" />
    <glyph glyph-name="Iacute" unicode="&#xcd;" horiz-adv-x="316" 
d="M442 656l-1 -46q-18 -4 -29 -8t-18 -6t-12 -9t-6 -9t-5.5 -15t-6.5 -18q-27 -63 -89 -252.5t-62 -222.5q0 -6 21 -13.5t39 -7.5l-2 -49h-260l1 49q48 6 56 17q42 53 97 241.5t75 278.5q-1 11 -22 18t-39 7l1 45h262zM474 839q0 -28 -29 -44l-172 -95h-70l188 185
q10 8 32 8q32 0 48 -31q3 -21 3 -23z" />
    <glyph glyph-name="Icircumflex" unicode="&#xce;" horiz-adv-x="316" 
d="M442 657l-1 -46q-18 -4 -29.5 -8t-18.5 -6t-12 -9.5t-6.5 -9.5t-6 -15t-6.5 -18q-26 -62 -87.5 -252.5t-61.5 -221.5q0 -7 20.5 -14.5t39.5 -7.5l-2 -49h-260l1 49q48 6 56 17q42 53 98 243.5t74 277.5q-1 11 -22 18t-39 7l1 45h262zM495 695l-65 -2l-68 91
q-25 -19 -72.5 -49.5t-57.5 -39.5l-75 3l184 192h59z" />
    <glyph glyph-name="Idieresis" unicode="&#xcf;" horiz-adv-x="316" 
d="M442 655l-1 -45q-18 -4 -29.5 -8t-18.5 -6.5t-11.5 -8.5t-6 -9.5t-5.5 -14.5t-6 -18q-27 -63 -89 -252.5t-62 -222.5q0 -6 21 -13.5t39 -7.5l-2 -49h-260l1 49q48 6 56 16q42 53 97 242t75 279q-1 11 -22 18t-39 7l1 44h262zM309 800q-1 -29 -18 -49t-45 -20
q-29 0 -46 20t-17 51q0 28 21.5 45t47.5 17q27 0 42 -17.5t15 -46.5zM500 800q-2 -32 -19.5 -50.5t-45.5 -18.5q-26 0 -44.5 21.5t-18.5 49.5t20 45t48 17q22 0 41 -16t19 -39v-9z" />
    <glyph glyph-name="Eth" unicode="&#xd0;" horiz-adv-x="692" 
d="M360 334l-22 -77h-63l-57 -175q0 -17 26 -17q83 0 142.5 21t113.5 71q38 35 69 117t31 146q0 51 -16 85t-46.5 50.5t-65 23t-81.5 6.5q-7 0 -14 -12l-79 -239h62zM740 381q-4 -98 -49 -174t-114 -120t-147 -66t-158 -22l-259 6l2 47q50 6 61 17q1 2 29 68.5t48 119.5h-54
l24 79h57q65 173 65 234q0 13 -8 20t-16 9t-25 4t-24 3l2 44l280 2h3q122 0 202.5 -68t80.5 -188v-15z" />
    <glyph glyph-name="Ntilde" unicode="&#xd1;" horiz-adv-x="654" 
d="M780 652v-45q-37 -8 -64 -33q-16 -16 -201 -590h-43l-183 493q-42 -127 -111 -362q-10 -26 -10 -49q0 -17 63 -17l-2 -48h-217l2 48q41 4 54 19q22 26 54.5 118t70.5 215.5t53 163.5q-14 19 -30 29t-48 13l1 45h179l168 -440q24 91 62 214t45 149q0 31 -60 31l2 46h215z
M454 830q34 0 81 -19.5t57 -19.5q8 0 13.5 1.5t10 6.5t6.5 7.5t7 13t7 13.5l47 -3q-32 -133 -111 -133q-12 0 -68 19.5t-71 19.5q-25 0 -40 -39h-60q22 77 49.5 105t71.5 28z" />
    <glyph glyph-name="Ograve" unicode="&#xd2;" horiz-adv-x="667" 
d="M593 473q0 57 -31 90.5t-71 33.5q-90 0 -170 -108q-67 -92 -92 -165.5t-25 -146.5q0 -127 86 -127q43 0 96.5 32t85.5 74q105 134 121 317zM726 415q-11 -108 -79.5 -209.5t-167 -163.5t-194.5 -62q-95 0 -154 66.5t-59 162.5q0 161 121 294q68 75 142 118t169 43
q97 0 160 -62.5t63 -156.5q0 -3 -0.5 -8.5t-0.5 -8.5v-13zM584 713l-69 -3l-130 93q-22 21 -22 44q0 19 15.5 33.5t37.5 14.5q19 0 46 -26z" />
    <glyph glyph-name="Oacute" unicode="&#xd3;" horiz-adv-x="667" 
d="M593 473q0 57 -31 90.5t-71 33.5q-90 0 -170 -108q-67 -92 -92 -165.5t-25 -146.5q0 -127 86 -127q43 0 96.5 32t85.5 74q105 134 121 317zM726 415q-11 -108 -79.5 -209.5t-167 -163.5t-194.5 -62q-95 0 -154 66.5t-59 162.5q0 161 121 294q68 75 142 118t169 43
q97 0 160 -62.5t63 -156.5q0 -3 -0.5 -8.5t-0.5 -8.5v-13zM615 893q19 0 31 -10t15 -17.5t3 -10.5t0.5 -8.5t0.5 -6.5q0 -30 -28 -45l-173 -95h-69l186 185q11 8 34 8z" />
    <glyph glyph-name="Ocircumflex" unicode="&#xd4;" horiz-adv-x="667" 
d="M593 473q0 57 -31 90.5t-71 33.5q-90 0 -170 -108q-67 -92 -92 -165.5t-25 -146.5q0 -127 86 -127q43 0 96.5 32t85.5 74q105 134 121 317zM726 415q-11 -108 -79.5 -209.5t-167 -163.5t-194.5 -62q-95 0 -154 66.5t-59 162.5q0 161 121 294q68 75 142 118t169 43
q97 0 160 -62.5t63 -156.5q0 -3 -0.5 -8.5t-0.5 -8.5v-13zM648 712l-66 -2l-70 85q-21 -13 -33.5 -21t-15 -9.5t-5.5 -2.5l-3 -2l-8 -5q-8 -5 -21.5 -14.5t-41.5 -28.5l-74 3l183 177h59z" />
    <glyph glyph-name="Otilde" unicode="&#xd5;" horiz-adv-x="667" 
d="M593 473q0 57 -31 90.5t-71 33.5q-90 0 -170 -108q-67 -92 -92 -165.5t-25 -146.5q0 -127 86 -127q43 0 96.5 32t85.5 74q105 134 121 317zM726 415q-11 -108 -79.5 -209.5t-167 -163.5t-194.5 -62q-95 0 -154 66.5t-59 162.5q0 161 121 294q68 75 142 118t169 43
q97 0 160 -62.5t63 -156.5q0 -3 -0.5 -8.5t-0.5 -8.5v-13zM448 831q34 0 81 -19.5t57 -19.5q4 0 7.5 0.5t7 2t5.5 2t4.5 3.5t3.5 4.5t3.5 6t3.5 6t4 8t4 8.5l48 -2q-16 -67 -42 -100t-69 -33q-10 0 -67 19.5t-71 19.5q-27 0 -40 -39h-60q20 77 47 105t73 28z" />
    <glyph glyph-name="Odieresis" unicode="&#xd6;" horiz-adv-x="667" 
d="M593 473q0 57 -31 90.5t-71 33.5q-90 0 -170 -108q-67 -92 -92 -165.5t-25 -146.5q0 -127 86 -127q43 0 96.5 32t85.5 74q105 134 121 317zM726 415q-11 -108 -79.5 -209.5t-167 -163.5t-194.5 -62q-95 0 -154 66.5t-59 162.5q0 161 121 294q68 75 142 118t169 43
q97 0 160 -62.5t63 -156.5q0 -3 -0.5 -8.5t-0.5 -8.5v-13zM468 810q-3 -58 -64 -58q-29 0 -46 17.5t-17 42.5t20 39.5t48 14.5q25 0 42 -17t17 -39zM658 817q0 -65 -65 -65q-26 0 -45 18t-19 42q2 24 22 39t47 15q16 0 38 -15t22 -34z" />
    <glyph glyph-name="multiply" unicode="&#xd7;" horiz-adv-x="576" 
d="M600 426l-193 -181q29 -29 69.5 -71.5t67.5 -70t40 -37.5l-72 -70l-192 194q-22 -23 -91.5 -92.5t-96.5 -95.5l-56 64l191 180l-175 182l72 69l173 -179q27 26 77.5 68t89.5 73t40 32z" />
    <glyph glyph-name="Oslash" unicode="&#xd8;" horiz-adv-x="668" 
d="M592 466v11q0 14 -4 50l-333 -467q20 -13 46 -13q44 0 93.5 33t77.5 73q44 54 80.5 147t39.5 166zM544 588q-26 8 -52 8q-95 0 -171 -105q-74 -102 -103 -224q-16 -53 -16 -98q0 -25 6 -49zM726 427q-6 -134 -115 -278q-67 -77 -154 -124.5t-161 -47.5q-44 0 -88 18
l-77 -97l-78 3l93 132q-34 28 -51 60t-20 56.5t-3 68.5q0 58 21.5 118t53 104.5t56 72.5t41.5 42q144 111 260 111q47 0 88 -17q6 11 23 34.5t25 37.5l82 -3l-70 -105q75 -61 75 -168q0 -3 -0.5 -9t-0.5 -9z" />
    <glyph glyph-name="Ugrave" unicode="&#xd9;" horiz-adv-x="651" 
d="M777 652l-1 -42q-19 -6 -32.5 -13.5t-21.5 -14t-15 -20t-10 -22.5t-10 -31t-12 -36l-92 -269q-42 -121 -110 -172.5t-165 -51.5q-47 0 -95 18.5t-84.5 58t-36.5 90.5q0 53 59.5 220.5t59.5 221.5q0 18 -71 18l2 45h287l-1 -44q-48 -6 -66 -22.5t-41 -75.5
q-109 -328 -110 -359q0 -46 34 -68.5t77 -22.5h27q39 0 62 8.5t46 39.5q36 48 84 169.5t79 302.5q0 5 -2 8.5t-6.5 6.5t-8.5 5t-11.5 3t-11.5 2t-12 2t-10 1l2 44h217zM573 713l-69 -3l-130 93q-22 21 -22 44q0 19 15.5 33.5t37.5 14.5q19 0 46 -26z" />
    <glyph glyph-name="Uacute" unicode="&#xda;" horiz-adv-x="651" 
d="M777 652l-1 -42q-19 -6 -32.5 -13.5t-21.5 -14t-15 -20t-10 -22.5t-10 -31t-12 -36l-92 -269q-42 -121 -110 -172.5t-165 -51.5q-47 0 -95 18.5t-84.5 58t-36.5 90.5q0 53 59.5 220.5t59.5 221.5q0 18 -71 18l2 45h287l-1 -44q-48 -6 -66 -22.5t-41 -75.5
q-109 -328 -110 -359q0 -46 34 -68.5t77 -22.5h27q39 0 62 8.5t46 39.5q36 48 84 169.5t79 302.5q0 5 -2 8.5t-6.5 6.5t-8.5 5t-11.5 3t-11.5 2t-12 2t-10 1l2 44h217zM663 839q0 -31 -27 -44l-172 -95h-70l187 184q12 9 26 9q21 0 37.5 -17t18.5 -37z" />
    <glyph glyph-name="Ucircumflex" unicode="&#xdb;" horiz-adv-x="651" 
d="M777 652l-1 -42q-19 -6 -32.5 -13.5t-21.5 -14t-15 -20t-10 -22.5t-10 -31t-12 -36l-92 -269q-42 -121 -110 -172.5t-165 -51.5q-47 0 -95 18.5t-84.5 58t-36.5 90.5q0 53 59.5 220.5t59.5 221.5q0 18 -71 18l2 45h287l-1 -44q-48 -6 -66 -22.5t-41 -75.5
q-109 -328 -110 -359q0 -46 34 -68.5t77 -22.5h27q39 0 62 8.5t46 39.5q36 48 84 169.5t79 302.5q0 5 -2 8.5t-6.5 6.5t-8.5 5t-11.5 3t-11.5 2t-12 2t-10 1l2 44h217zM638 712l-66 -2l-70 85q-47 -30 -54 -34q-4 -1 -64 -43l-9 -6l-75 3l184 177h58z" />
    <glyph glyph-name="Udieresis" unicode="&#xdc;" horiz-adv-x="651" 
d="M777 652l-1 -42q-19 -6 -32.5 -13.5t-21.5 -14t-15 -20t-10 -22.5t-10 -31t-12 -36l-92 -269q-42 -121 -110 -172.5t-165 -51.5q-47 0 -95 18.5t-84.5 58t-36.5 90.5q0 53 59.5 220.5t59.5 221.5q0 18 -71 18l2 45h287l-1 -44q-48 -6 -66 -22.5t-41 -75.5
q-109 -328 -110 -359q0 -46 34 -68.5t77 -22.5h27q39 0 62 8.5t46 39.5q36 48 84 169.5t79 302.5q0 5 -2 8.5t-6.5 6.5t-8.5 5t-11.5 3t-11.5 2t-12 2t-10 1l2 44h217zM480 801q-1 -29 -19 -49t-45 -20q-28 0 -45.5 20t-17.5 50q0 29 20.5 45.5t48.5 16.5q24 0 41 -18
t17 -45zM671 801q-2 -32 -20.5 -50.5t-46.5 -18.5q-24 0 -42.5 21t-18.5 49q0 29 20.5 45.5t47.5 16.5q18 0 39 -17.5t21 -40.5v-5z" />
    <glyph glyph-name="Yacute" unicode="&#xdd;" horiz-adv-x="550" 
d="M680 652l-2 -43q-30 -14 -77 -65t-211 -246q-87 -221 -90 -221v-4q0 -25 75 -25h21v-48h-303v48q66 5 85 25q8 10 24 53.5t35.5 102t25.5 74.5q-5 22 -16.5 63t-15.5 58q-27 149 -48 167q-21 11 -49 16l2 45h253l-1 -45l-20 -1q-20 -1 -32.5 -5t-12.5 -14q0 -43 42 -211
q43 45 100 117t67 103q0 3 -4.5 4.5t-12.5 2.5t-15.5 1.5t-17.5 1.5t-14 1l3 45h209zM591 845q0 -27 -27 -41l-172 -90h-71l188 173q13 9 26 9q21 0 37.5 -16.5t18.5 -34.5z" />
    <glyph glyph-name="Thorn" unicode="&#xde;" horiz-adv-x="541" 
d="M328 443l-69 -212h29q174 0 181 132q0 52 -27 73.5t-79 21.5q-20 0 -35 -15zM100 83q134 427 141 500q0 13 -63 24v45h254l-1 -45q-44 -6 -52 -19l-23 -64h34q104 0 156.5 -34t52.5 -111q0 -107 -97 -172l-1 1q-29 -18 -46 -26.5t-55 -17t-89 -8.5q-41 0 -71 7
q-6 -15 -15.5 -48t-9.5 -40v-3q0 -24 49 -24h9v-48h-263v48q67 0 90 35z" />
    <glyph glyph-name="germandbls" unicode="&#xdf;" horiz-adv-x="482" 
d="M438 571q0 43 -40 46q-39 0 -80.5 -50.5t-72.5 -138.5h1l-117 -394q-35 -120 -76.5 -176t-117.5 -56q-32 0 -58 16.5t-26 50.5q0 24 24.5 46t34.5 23q50 0 50 -31q0 -5 -9 -50q54 5 91 157l80 301q53 194 120.5 278.5t156.5 84.5q50 0 95 -38.5t49 -94.5l-1 -12
q-5 -105 -129 -154q13 -3 21 -8q41 -30 50.5 -53.5t9.5 -72.5v-6l-1 -1q-4 -63 -30 -114.5t-61.5 -81t-71 -45t-62.5 -15.5q-38 0 -65.5 16.5t-27.5 48.5t12 48t30 16q22 0 41.5 -18t19.5 -40q0 -7 -3 -14q25 6 52 46q14 26 33.5 83.5t19.5 101.5q0 72 -60 73q-38 1 -40 41
q11 26 36 26q59 0 90.5 43t31.5 118z" />
    <glyph glyph-name="agrave" unicode="&#xe0;" horiz-adv-x="517" 
d="M506 451l18 -21v-4q-1 -10 -8 -24q-30 -92 -54.5 -175.5t-33.5 -121.5l-10 -38q0 -5 3 -5q4 1 12 8.5t19.5 23t19.5 33.5h64q-69 -76 -104.5 -107t-60.5 -31q-31 0 -44.5 16.5t-13.5 38.5q0 13 6 37q-82 -94 -159 -94q-49 0 -79 33.5t-30 80.5q0 115 89 224
q34 42 98.5 83.5t115.5 41.5q54 0 72 -25q0 1 5.5 5.5t5.5 5.5zM392 355v5q0 32 -48 32q-36 0 -95 -76q-12 -16 -21.5 -28.5t-17 -25t-12.5 -19.5t-9.5 -19t-6.5 -16t-5 -17.5t-3.5 -17.5t-3.5 -22t-4 -25v-5q0 -47 37 -47t77 40v-1q41 43 75.5 110t36.5 132zM471 498
l-198 89q-23 23 -23 45q0 19 16 33.5t38 14.5q18 0 45 -26z" />
    <glyph glyph-name="aacute" unicode="&#xe1;" horiz-adv-x="517" 
d="M506 451l18 -21v-4q-1 -10 -8 -24q-30 -92 -54.5 -175.5t-33.5 -121.5l-10 -38q0 -5 3 -5q4 1 12 8.5t19.5 23t19.5 33.5h64q-69 -76 -104.5 -107t-60.5 -31q-31 0 -44.5 16.5t-13.5 38.5q0 13 6 37q-82 -94 -159 -94q-49 0 -79 33.5t-30 80.5q0 115 89 224
q34 42 98.5 83.5t115.5 41.5q54 0 72 -25q0 1 5.5 5.5t5.5 5.5zM392 355v5q0 32 -48 32q-36 0 -95 -76q-12 -16 -21.5 -28.5t-17 -25t-12.5 -19.5t-9.5 -19t-6.5 -16t-5 -17.5t-3.5 -17.5t-3.5 -22t-4 -25v-5q0 -47 37 -47t77 40v-1q41 43 75.5 110t36.5 132zM557 627
q0 -31 -27 -45l-171 -92h-71l188 181q12 9 25 9q20 0 37.5 -16.5t18.5 -36.5z" />
    <glyph glyph-name="acircumflex" unicode="&#xe2;" horiz-adv-x="517" 
d="M506 451l18 -21v-4q-1 -10 -8 -24q-30 -92 -54.5 -175.5t-33.5 -121.5l-10 -38q0 -5 3 -5q4 1 12 8.5t19.5 23t19.5 33.5h64q-69 -76 -104.5 -107t-60.5 -31q-31 0 -44.5 16.5t-13.5 38.5q0 13 6 37q-82 -94 -159 -94q-49 0 -79 33.5t-30 80.5q0 115 89 224
q34 42 98.5 83.5t115.5 41.5q54 0 72 -25q0 1 5.5 5.5t5.5 5.5zM392 355v5q0 32 -48 32q-36 0 -95 -76q-12 -16 -21.5 -28.5t-17 -25t-12.5 -19.5t-9.5 -19t-6.5 -16t-5 -17.5t-3.5 -17.5t-3.5 -22t-4 -25v-5q0 -47 37 -47t77 40v-1q41 43 75.5 110t36.5 132zM537 497
l-135 84q-47 -31 -55 -34q-3 -2 -68 -47h-1l-1 -1l-1 -1l-2 -1l-74 4l183 177h58z" />
    <glyph glyph-name="atilde" unicode="&#xe3;" horiz-adv-x="517" 
d="M506 450l18 -20v-4q-1 -10 -8 -24q-30 -92 -54.5 -175.5t-33.5 -121.5l-10 -38q0 -5 3 -5q3 1 11.5 8.5t20 23t19.5 32.5h64q-70 -76 -105 -106.5t-60 -30.5q-31 0 -44.5 16.5t-13.5 38.5q0 13 6 37q-82 -94 -159 -94q-49 0 -79 33.5t-30 80.5q0 117 89 224
q34 41 98.5 82.5t115.5 41.5q53 0 72 -24q0 1 5.5 5.5t5.5 5.5zM392 355v4q0 32 -48 32q-35 0 -95 -75q-48 -65 -59.5 -91.5t-20.5 -82.5q-2 -11 -3 -17v-6q0 -48 34 -48q37 0 80 43v-1q41 44 75 110t37 132zM346 617q35 0 83 -19.5t55 -19.5q19 0 30 19l14 20h47
q-32 -131 -109 -131q-12 0 -69 19t-70 19q-26 0 -43 -38h-60q23 75 50 103t72 28z" />
    <glyph glyph-name="adieresis" unicode="&#xe4;" horiz-adv-x="517" 
d="M506 451l18 -21v-4q-1 -10 -8 -24q-30 -92 -54.5 -175.5t-33.5 -121.5l-10 -38q0 -5 3 -5q4 1 12 8.5t19.5 23t19.5 33.5h64q-69 -76 -104.5 -107t-60.5 -31q-31 0 -44.5 16.5t-13.5 38.5q0 13 6 37q-82 -94 -159 -94q-49 0 -79 33.5t-30 80.5q0 115 89 224
q34 42 98.5 83.5t115.5 41.5q54 0 72 -25q0 1 5.5 5.5t5.5 5.5zM392 355v4q0 32 -48 32q-35 0 -95 -75q-48 -65 -59.5 -91t-20.5 -82q-2 -11 -3 -17v-5q0 -47 37 -47t77 40v-1q41 43 75.5 110t36.5 132zM362 595q-3 -57 -63 -57q-29 0 -46 17t-17 42t20 39.5t48 14.5
q24 0 41 -16.5t17 -39.5zM552 595q-3 -57 -64 -57q-26 0 -45 18t-19 41q2 24 22 39t46 15q17 0 38.5 -15t21.5 -34v-7z" />
    <glyph glyph-name="aring" unicode="&#xe5;" horiz-adv-x="517" 
d="M506 451l18 -21v-4q-1 -11 -8 -23q-30 -92 -54.5 -176t-33.5 -122l-10 -38q0 -5 3 -5q4 1 12 8.5t19.5 23t19.5 33.5h64q-69 -76 -104.5 -107t-60.5 -31q-31 0 -44.5 16.5t-13.5 38.5q0 13 6 37q-82 -94 -159 -94q-49 0 -79 34t-30 80q0 115 89 224q34 42 98.5 83.5
t115.5 41.5q54 0 72 -25q0 1 5.5 5.5t5.5 5.5zM392 355v5q0 32 -48 32q-36 0 -95 -76q-12 -16 -21.5 -28.5t-17 -25t-12.5 -19.5t-9.5 -19t-6.5 -16t-5 -17.5t-3.5 -17.5t-3.5 -22t-4 -25v-5q0 -47 37 -47t77 40v-1q41 43 75.5 110t36.5 132zM441 587q0 17 -12 30t-26 13
q-46 0 -52 -42q0 -41 41 -41q18 0 33.5 11t15.5 29zM508 587q-2 -45 -34 -77.5t-82 -32.5q-43 0 -75.5 29.5t-32.5 69.5q0 48 29 85.5t85 37.5q45 0 77.5 -28.5t32.5 -72.5v-11z" />
    <glyph glyph-name="ccedilla" unicode="&#xe7;" horiz-adv-x="425" 
d="M475 348q-1 -22 -4 -34.5t-12.5 -18.5t-17.5 -7.5t-28 -2.5q-51 3 -54 53q0 7 0.5 12t1.5 8t2 5t2.5 3.5t2.5 1.5h2l2 1l-20 14q-47 0 -89.5 -42t-66.5 -100t-24 -111q0 -47 32 -77q22 -5 38 -5q26 0 49.5 11.5t36 22.5t37.5 37l8 8l40 -23q-106 -126 -213 -126l-19 -15
q97 0 97 -65q0 -44 -32.5 -78.5t-93.5 -34.5q-53 0 -116 35l32 54q39 -18 70 -18t36 21q-1 10 -8.5 16t-17.5 6q-20 0 -35 -9l-26 25l52 79q-82 31 -82 130q0 118 95 219q44 41 100 69t105 28q93 0 118 -92z" />
    <glyph glyph-name="egrave" unicode="&#xe8;" horiz-adv-x="420" 
d="M440 487l-69 -3l-130 98q-22 24 -22 48q0 20 14 35t39 15q19 0 46 -27zM462 368q-3 -82 -104 -140q-107 -41 -174 -54q-10 -30 -10 -49q0 -55 67 -55q14 0 31 3.5t32 8.5t30 11t27 12.5t21 11.5t14 9l6 3l17 -16q-77 -79 -113.5 -98t-110.5 -27q-62 0 -100 40t-38 98
q0 54 25.5 119t69.5 111q96 94 221 94q90 0 90 -70q0 -2 -0.5 -6t-0.5 -6zM367 374q0 19 -15 19q-70 0 -148 -157q41 12 59.5 18.5t43.5 18t35 23.5t17.5 31.5t7.5 46.5z" />
    <glyph glyph-name="eacute" unicode="&#xe9;" horiz-adv-x="420" 
d="M473 680q22 0 36.5 -13.5t14.5 -38.5q0 -30 -28 -46l-172 -92h-71l187 182q11 8 33 8zM462 368q-3 -82 -104 -140q-107 -41 -174 -54q-10 -25 -10 -48q0 -56 67 -56q14 0 31 3.5t32 8.5t30 11t27 12.5t21 11.5t14 9l6 3l17 -16q-77 -79 -113.5 -98t-110.5 -27
q-62 0 -100 40t-38 98q0 54 25.5 119t69.5 111q96 94 221 94q90 0 90 -70q0 -2 -0.5 -6t-0.5 -6zM367 374q0 19 -15 19q-23 0 -47.5 -19t-46 -49.5t-33 -49.5t-21.5 -39q41 12 59.5 18.5t43.5 18t35 23.5t17.5 31.5t7.5 46.5z" />
    <glyph glyph-name="ecircumflex" unicode="&#xea;" horiz-adv-x="420" 
d="M367 374q0 19 -15 19q-70 0 -148 -157q41 12 59.5 18.5t43.5 18t35 23.5t17.5 31.5t7.5 46.5zM462 368q-3 -82 -104 -140q-107 -41 -174 -54q-10 -27 -10 -51q0 -53 67 -53q32 0 72.5 15t64.5 29l24 15l17 -16q-77 -79 -113.5 -98t-110.5 -27q-62 0 -100 40t-38 98
q0 54 25.5 119t69.5 111q96 94 221 94q90 0 90 -70q0 -2 -0.5 -6t-0.5 -6zM506 485l-65 -2l-70 89q-33 -23 -52 -34t-76 -53l-74 3l183 189h59z" />
    <glyph glyph-name="edieresis" unicode="&#xeb;" horiz-adv-x="420" 
d="M462 368q-3 -82 -104 -140q-107 -41 -174 -54q-10 -37 -10 -47q0 -57 67 -57q14 0 31 3t32 8.5t30 11.5t27 12t21 11.5t14 8.5l6 3l17 -15q-77 -79 -113.5 -98t-110.5 -27q-62 0 -100 40t-38 98q0 53 25.5 118t69.5 112q97 94 221 94q90 0 90 -70q0 -2 -0.5 -6t-0.5 -6z
M367 374q0 16 -15 19q-33 0 -67.5 -35.5t-51 -64.5t-29.5 -58q35 11 50.5 16t39.5 14.5t33.5 18t21 21.5t15 30t3.5 39zM512 587q-3 -65 -66 -65q-27 0 -44.5 20t-17.5 47q0 29 20.5 45.5t47.5 16.5q17 0 38.5 -17t21.5 -40v-7zM322 587q-1 -32 -18.5 -48.5t-45.5 -16.5
q-29 0 -46 18.5t-17 48.5q0 28 20.5 45t48.5 17q24 0 41 -18.5t17 -45.5z" />
    <glyph glyph-name="igrave" unicode="&#xec;" horiz-adv-x="274" 
d="M55 58q1 18 50.5 161t49.5 152q0 8 -12 8q-7 0 -23 -3t-22 -3h-3l4 44q18 1 42 6t62.5 14t63.5 14l21 -6l-108 -344q0 -3 -3.5 -11t-3.5 -12q0 -3 2 -5q19 8 34 24.5t42 53.5l33 -33q-28 -39 -48 -63t-52 -46t-62 -22q-67 0 -67 63v8zM357 493l-67 -3l-130 97
q-24 26 -24 51q0 17 14.5 32.5t41.5 15.5q19 0 44 -28z" />
    <glyph glyph-name="iacute" unicode="&#xed;" horiz-adv-x="274" 
d="M55 58q1 18 50.5 161t49.5 152q0 8 -12 8q-7 0 -23 -3t-22 -3h-3l4 44q18 1 42 6t62.5 14t63.5 14l21 -6l-108 -344q0 -3 -3.5 -11t-3.5 -12q0 -3 2 -5q19 8 34 24.5t42 53.5l33 -33q-28 -39 -48 -63t-52 -46t-62 -22q-67 0 -67 63v8zM336 686q23 0 37 -15.5t14 -37.5
q0 -28 -30 -44l-171 -93h-71l189 182q11 8 32 8z" />
    <glyph glyph-name="icircumflex" unicode="&#xee;" horiz-adv-x="274" 
d="M55 58q1 18 50.5 161t49.5 152q0 8 -12 8q-7 0 -23 -3t-22 -3h-3l4 44q18 1 42 6t62.5 14t63.5 14l21 -6l-108 -344q0 -3 -3.5 -11t-3.5 -12q0 -3 2 -5q19 8 34 24.5t42 53.5l33 -33q-28 -39 -48 -63t-52 -46t-62 -22q-67 0 -67 63v8zM394 491l-65 -2l-69 88
q-12 -9 -34 -23.5t-51.5 -34t-43.5 -28.5l-74 3l183 189h59z" />
    <glyph glyph-name="idieresis" unicode="&#xef;" horiz-adv-x="274" 
d="M55 58q1 18 50.5 161t49.5 152q0 8 -12 8q-7 0 -23 -3t-22 -3h-3l4 44q18 1 42 6t62.5 14t63.5 14l21 -6l-108 -344q0 -3 -3.5 -11t-3.5 -12q0 -3 2 -5q19 8 34 24.5t42 53.5l33 -33q-28 -39 -48 -63t-52 -46t-62 -22q-67 0 -67 63v8zM192 593q0 -28 -18 -47t-46 -19
q-57 0 -57 65q0 29 19.5 47t44.5 18q27 0 42 -17.5t15 -46.5zM382 603q0 -31 -15 -53.5t-50 -22.5q-25 0 -39.5 18.5t-14.5 46.5q0 29 17 47t43 18q22 0 40.5 -15.5t18.5 -38.5z" />
    <glyph glyph-name="eth" unicode="&#xf0;" horiz-adv-x="484" 
d="M222 49q62 0 120 97.5t62 176.5v9q0 10 -0.5 17.5t-2 14t-2 10.5t-5 7t-5 5t-7 3.5t-7.5 2t-9.5 2t-10.5 1.5q-38 -1 -84.5 -52t-77 -116.5t-30.5 -108.5q0 -26 15 -47.5t44 -21.5zM554 612l-100 -46q65 -98 65 -185q0 -155 -99 -279q-24 -29 -94 -72t-118 -43
q-77 0 -114.5 38.5t-37.5 103.5q0 113 90 213q39 39 99 74t111 35q30 0 54 -15q-17 55 -42 91l-111 -46l-53 58l113 47q-36 33 -99 57l67 35q49 -12 118 -62q5 3 30 15t46.5 23.5t24.5 15.5z" />
    <glyph glyph-name="ntilde" unicode="&#xf1;" horiz-adv-x="519" 
d="M314 617q37 0 85.5 -17.5t54.5 -17.5t10 0.5t8 2.5t6 3.5t5 6t4.5 7t5 9t5.5 9.5l48 -3q-33 -116 -112 -117q-14 4 -37.5 11.5t-37 11.5t-31 7.5t-31.5 3.5q-26 0 -42 -34h-59q20 64 47 90.5t71 26.5zM162 354q2 2 2 5q0 10 -34 10h-29l2 45q21 3 57 10.5t60 10.5t50 3
q4 0 12 -0.5t12 -0.5l-42 -122q45 59 88 93.5t92 34.5q42 0 58.5 -16t16.5 -45q0 -15 -11 -72l-79 -240q20 0 79 79l36 -34q-66 -80 -96.5 -102.5t-63.5 -22.5q-26 0 -43 17t-17 52q0 20 16 74l52 154l4 7q3 8 7 16t7 18t3 17q0 13 -11 13q-40 0 -86.5 -56t-74.5 -110.5
t-45 -100.5q-2 -5 -15 -36t-20 -53l-103 -1z" />
    <glyph glyph-name="ograve" unicode="&#xf2;" horiz-adv-x="487" 
d="M465 495h-69l-130 93q-22 21 -22 44q0 19 15.5 33.5t37.5 14.5q19 0 46 -26zM355 387q-42 0 -89 -52.5t-75.5 -116.5t-28.5 -105q0 -23 14.5 -44t42.5 -21q24 0 55 22t45 41q28 37 55 99.5t30 108.5q0 68 -49 68zM515 300q-5 -116 -103 -214.5t-205 -98.5
q-77 0 -114.5 38t-37.5 101q0 112 96 215t217 103q63 0 105 -37.5t42 -95.5v-11z" />
    <glyph glyph-name="oacute" unicode="&#xf3;" horiz-adv-x="485" 
d="M403 323q0 71 -49 71q-50 0 -106 -75q-86 -120 -86 -200q0 -27 13.5 -48.5t42.5 -21.5q24 0 55.5 22t44.5 42q29 42 55.5 103.5t29.5 106.5zM514 303q-3 -75 -50 -149.5t-118 -120.5t-140 -46q-76 0 -114 38.5t-38 103.5q0 52 25.5 109t67 104t100.5 78t121 31
q63 0 104.5 -38.5t41.5 -98.5v-11zM500 680q27 0 39 -17t12 -35q0 -30 -29 -45l-171 -93h-71l188 182q11 8 32 8z" />
    <glyph glyph-name="ocircumflex" unicode="&#xf4;" horiz-adv-x="487" 
d="M520 495h-65l-71 85l-127 -83l-74 3l183 177h58zM355 387q-42 0 -88.5 -51.5t-75 -115.5t-28.5 -105q0 -24 13.5 -45.5t42.5 -21.5q24 0 55 22t45 41q28 37 55 99.5t30 108.5q0 68 -49 68zM515 300q-5 -116 -103 -214.5t-205 -98.5q-77 0 -114.5 38t-37.5 101
q0 112 96 215t217 103q63 0 105 -37.5t42 -95.5v-11z" />
    <glyph glyph-name="otilde" unicode="&#xf5;" horiz-adv-x="486" 
d="M355 392q-42 0 -88.5 -52.5t-75 -118t-28.5 -106.5q0 -24 13.5 -45t42.5 -21q24 0 54 22t46 42q28 38 55 101t30 108q0 70 -49 70zM515 302q-5 -116 -103 -215.5t-205 -99.5q-77 0 -114.5 38.5t-37.5 103.5q0 70 41.5 144t115.5 125t156 51q63 0 105 -38t42 -98v-11z
M324 617q35 0 83.5 -19.5t55.5 -19.5q8 0 13.5 1.5t10 6.5t7 8t6.5 12t7 14l48 -3q-34 -131 -110 -131q-13 0 -69 19t-71 19q-26 0 -41 -38h-60q21 71 48.5 101t71.5 30z" />
    <glyph glyph-name="odieresis" unicode="&#xf6;" horiz-adv-x="487" 
d="M404 319q0 67 -49 67q-53 0 -106 -71q-25 -32 -55.5 -91.5t-30.5 -107.5q0 -26 13.5 -47t42.5 -21q24 0 55 22t45 41q28 37 55 99.5t30 108.5zM515 299q-5 -115 -103 -213.5t-205 -98.5q-77 0 -114.5 38t-37.5 101q0 112 96 215t217 103q63 0 105 -38t42 -96v-11z
M355 595q-3 -57 -63 -57q-30 0 -47 17t-17 42t20 39.5t48 14.5q25 0 42 -16.5t17 -39.5zM545 602q0 -64 -65 -64q-26 0 -45 18t-19 41q2 24 22 39t47 15q17 0 38.5 -15t21.5 -34z" />
    <glyph glyph-name="divide" unicode="&#xf7;" horiz-adv-x="538" 
d="M383 63q-1 -30 -23.5 -53t-52.5 -23q-20 0 -42 22t-22 45q0 31 23 53t49 22q24 -1 39.5 -13.5t20 -23.5t8.5 -29zM576 301l-4 -93h-500v93h504zM401 443q-1 -29 -25 -48.5t-51 -19.5q-20 0 -41.5 19.5t-21.5 43.5q0 32 20.5 55t50.5 23t49 -20t19 -53z" />
    <glyph glyph-name="oslash" unicode="&#xf8;" horiz-adv-x="488" 
d="M340 387q-51 -11 -94 -72t-62 -120t-19 -91q0 -24 11 -39zM402 316q0 21 -4 49l-174 -323q37 0 79.5 47.5t70.5 112.5t28 114zM514 295q-5 -129 -137 -256q-57 -56 -154 -56q-19 0 -27 1q-9 -15 -26.5 -44.5t-29.5 -50.5l-13 -21l-63 3l68 128q-30 15 -54.5 51t-24.5 76
q0 105 94 212q117 106 211 106h14q8 15 17 32.5t21 39.5t18 34l63 -3l-58 -118q38 -14 60 -46.5t22 -74.5q0 -2 -0.5 -6.5t-0.5 -6.5z" />
    <glyph glyph-name="ugrave" unicode="&#xf9;" horiz-adv-x="503" 
d="M515 123q-71 -90 -96 -111.5t-50 -21.5h-8q-27 0 -45.5 17t-18.5 49q2 28 22 86q-33 -45 -57 -73.5t-62.5 -55t-73.5 -26.5q-62 0 -62 70q0 17 40 157.5t44 151.5q-1 0 -2 -1q-16 8 -50 8l2 43q38 3 156 29l20 -6l-104 -357l-1 -1q0 -1 1.5 -2t3.5 -2l2 -1q34 3 109 110
t130 254h100l-96 -296q-15 -40 -15 -81v-6q0 -6 3 -6q9 0 32.5 29.5t40.5 66.5zM464 495h-69l-130 93q-22 21 -22 44q0 19 15.5 33.5t37.5 14.5q19 0 46 -26z" />
    <glyph glyph-name="uacute" unicode="&#xfa;" horiz-adv-x="505" 
d="M515 123q-71 -90 -96 -111.5t-50 -21.5h-8q-27 0 -45.5 17t-18.5 49q2 28 22 86q-33 -45 -57 -73.5t-62.5 -55t-73.5 -26.5q-62 0 -62 70q0 17 40 157.5t44 151.5q-1 0 -2 -1q-16 8 -50 8l2 43q38 3 156 29l20 -6l-104 -357l-1 -1q0 -1 1.5 -2t3.5 -2l2 -1q34 3 109 110
t130 254h100l-96 -296q-15 -40 -15 -81v-6q0 -6 3 -6q9 0 32.5 29.5t40.5 66.5zM542 623q0 -28 -27 -43l-172 -92h-71l188 181q13 13 38 15q19 0 32.5 -12.5t13.5 -32.5q0 -11 -2 -16z" />
    <glyph glyph-name="ucircumflex" unicode="&#xfb;" horiz-adv-x="503" 
d="M515 123q-71 -90 -96 -111.5t-50 -21.5h-8q-27 0 -45.5 17t-18.5 49q2 28 22 86q-33 -45 -57 -73.5t-62.5 -55t-73.5 -26.5q-62 0 -62 70q0 17 40 157.5t44 151.5q-1 0 -2 -1q-16 8 -50 8l2 43q38 3 156 29l20 -6l-104 -357l-1 -1q0 -1 1.5 -2t3.5 -2l2 -1q34 3 109 110
t130 254h100l-96 -296q-15 -40 -15 -81v-6q0 -6 3 -6q9 0 32.5 29.5t40.5 66.5zM508 495h-66l-70 85q-21 -13 -33.5 -21t-15 -9.5t-5.5 -3.5l-3 -1l-8 -5q-8 -5 -21.5 -14.5t-41.5 -28.5l-74 3l183 177h59z" />
    <glyph glyph-name="udieresis" unicode="&#xfc;" horiz-adv-x="504" 
d="M515 123q-71 -90 -96 -111.5t-50 -21.5h-8q-27 0 -45.5 17t-18.5 49q2 28 22 86q-33 -45 -57 -73.5t-62.5 -55t-73.5 -26.5q-62 0 -62 70q0 17 40 157.5t44 151.5q-1 0 -2 -1q-16 8 -50 8l2 43q38 3 156 29l20 -6l-104 -357l-1 -1q0 -1 1.5 -2t3.5 -2l2 -1q34 3 109 110
t130 254h100l-96 -296q-15 -40 -15 -81v-6q0 -6 3 -6q9 0 32.5 29.5t40.5 66.5zM540 588q-3 -66 -65 -66q-26 0 -44 20t-18 47q0 28 20 45t47 17q19 0 39.5 -17t20.5 -40v-6zM350 588q-3 -66 -64 -66q-29 0 -45.5 19.5t-16.5 47.5q1 28 20.5 45t47.5 17q25 0 41.5 -17.5
t16.5 -45.5z" />
    <glyph glyph-name="yacute" unicode="&#xfd;" horiz-adv-x="466" 
d="M508 375q-2 -54 -57 -160t-127.5 -208.5t-150.5 -179.5t-122 -77q-46 0 -64 56q1 29 14.5 43t33.5 14q16 0 41.5 -14t31.5 -14q16 0 76.5 78t63.5 105q0 30 -29 171.5t-56 176.5q-8 8 -51 8q-9 0 -24 -3l3 51q112 15 144 24q23 0 55 -108.5t37 -150.5l6 -66
q101 166 103 214h-5q-21 0 -38 12t-20 39q0 20 5 32.5t17 18t19.5 6.5t26.5 3q38 -10 52.5 -25t14.5 -46zM558 625q0 -29 -27 -44l-172 -96h-71l189 187q16 5 32 5q46 0 49 -52z" />
    <glyph glyph-name="thorn" unicode="&#xfe;" horiz-adv-x="474" 
d="M385 305q0 33 -9 47.5t-31 14.5q-24 0 -60.5 -27.5t-58.5 -64.5q-59 -142 -68 -222q0 -17 26 -17q64 0 118 72q35 47 51.5 80.5t20.5 50.5t11 66zM163 675q153 23 162 25l22 -16q-19 -52 -37.5 -113t-32 -112t-18.5 -65q51 52 124 52q61 0 91 -36t30 -92v-11
q-6 -109 -97 -210q-39 -43 -104.5 -81.5t-116.5 -38.5q-10 0 -52 14q-50 -176 -50 -185q0 -12 54 -12v-44h-219l1 46h10q29 0 35.5 6.5t17.5 41.5l237 775q-3 10 -50 10h-9z" />
    <glyph glyph-name="ydieresis" unicode="&#xff;" horiz-adv-x="466" 
d="M508 375q-2 -54 -57 -160t-127.5 -208.5t-150.5 -179.5t-122 -77q-46 0 -64 56q1 29 14.5 43t33.5 14q16 0 41.5 -14t31.5 -14q16 0 76.5 78t63.5 105q0 30 -29 171.5t-56 176.5q-8 8 -51 8q-9 0 -24 -3l3 51q112 15 144 24q23 0 55 -108.5t37 -150.5l6 -66
q101 166 103 214h-5q-21 0 -38 12t-20 39q0 20 5 32.5t17 18t19.5 6.5t26.5 3q38 -10 52.5 -25t14.5 -46zM348 587q-1 -32 -18.5 -49.5t-45.5 -17.5q-30 0 -47 19t-17 49q0 29 21 46t48 17q25 0 42 -18t17 -46zM537 587q-1 -33 -18.5 -50t-46.5 -17q-26 0 -45 21t-19 47
q3 29 22.5 46t47.5 17q18 0 39 -17t21 -40q0 -1 -0.5 -3.5t-0.5 -3.5z" />
    <glyph glyph-name="dotlessi" unicode="&#x131;" horiz-adv-x="276" 
d="M57 58q1 17 50.5 158.5t49.5 152.5q0 8 -12 8q-7 0 -23 -3t-22 -3h-3l4 44q19 1 43.5 6t61 13.5t63.5 13.5l21 -6l-107 -342q0 -1 -3.5 -9.5t-3.5 -12.5q0 -3 1 -4q32 13 76 76l34 -33q-28 -38 -48.5 -62t-52.5 -46t-62 -22q-67 0 -67 63v8z" />
    <glyph glyph-name="Lslash" unicode="&#x141;" horiz-adv-x="569" 
d="M599 197l-72 -197h-511l2 49q51 6 61 17q60 149 85 220l-60 -40l-16 66l105 62q54 160 54 208q0 6 -5 10.5t-14.5 7t-16.5 3.5t-19.5 2.5t-15.5 1.5l2 45h287l-1 -45q-63 -6 -83 -33l-38 -114l68 39l19 -65l-116 -68l-93 -285q1 -12 78 -12q88 0 149 23q71 38 103 122z
" />
    <glyph glyph-name="lslash" unicode="&#x142;" horiz-adv-x="299" 
d="M369 681l-65 -216l44 28l16 -70l-87 -50l-96 -309q7 1 15.5 7t19.5 18.5t18 21t20 26t16 21.5l37 -24q-62 -85 -87 -108q-42 -39 -84 -39q-68 0 -68 53q0 19 10 49l64 201l-42 -27l-16 65l84 54l70 226q3 6 -1 15t-10 7q-2 0 -17 -1.5t-28 -1.5v45q81 6 167 28z" />
    <glyph glyph-name="Scaron" unicode="&#x160;" horiz-adv-x="465" 
d="M528 869l69 -5l-190 -193h-57l-96 193l58 5q4 0 45 -44.5t44 -44.5t27 17.5t56 40.5t44 31zM562 663l-52 -218l-44 5q0 98 -14 112v2q-32 33 -89 33q-87 0 -87 -62q0 -32 20 -65.5t48 -64t56 -61.5t48 -67.5t20 -72.5q0 -103 -64.5 -163.5t-155.5 -60.5q-39 0 -72 9
t-52 18.5t-24 9.5q-8 0 -12.5 -6t-11.5 -23h-48l49 246l45 -12q-1 -7 -1.5 -17.5t-0.5 -14.5q0 -59 32.5 -97t83.5 -38q44 0 77.5 31.5t38.5 71.5q0 38 -46.5 101t-93.5 117.5t-48 69.5q-4 14 -4 28q0 94 58.5 141.5t138.5 47.5q30 0 67.5 -11t54.5 -11q12 0 22 10.5
t19 13.5z" />
    <glyph glyph-name="scaron" unicode="&#x161;" horiz-adv-x="368" 
d="M239 98q0 24 -26 63.5t-52 83t-26 76.5q0 67 40.5 97.5t97.5 30.5q31 0 87 -14q11 0 21 16l37 -2l-29 -160h-41q-10 102 -68 102q-7 0 -23.5 -9.5t-16.5 -22.5q0 -20 26 -58.5t52 -83t26 -79.5q0 -64 -40 -103.5t-120 -39.5q-85 12 -98 13q-1 0 -14 -22l-39 5l30 179h39
q9 -56 33.5 -91t52.5 -35q20 0 35.5 11.5t15.5 42.5zM528 651l-192 -187h-53l-100 187l61 5l81 -95q17 18 64.5 49.5t64.5 45.5z" />
    <glyph glyph-name="Ydieresis" unicode="&#x178;" horiz-adv-x="550" 
d="M680 652l-2 -43q-30 -14 -77 -65t-211 -246q-87 -221 -90 -221v-4q0 -25 75 -25h21v-48h-303v48q66 5 85 25q8 10 24 53.5t35.5 102t25.5 74.5q-5 22 -16.5 63t-15.5 58q-27 149 -48 167q-21 11 -49 16l2 45h253l-1 -45l-20 -1q-20 -1 -32.5 -5t-12.5 -14q0 -43 42 -211
q43 45 100 117t67 103q0 3 -4.5 4.5t-12.5 2.5t-15.5 1.5t-17.5 1.5t-14 1l3 45h209zM397 794q-5 -68 -62 -68q-28 0 -44.5 20t-16.5 50q1 27 20 44t46 17q24 0 40.5 -18.5t16.5 -44.5zM579 794q-3 -68 -63 -68q-26 0 -43.5 21.5t-17.5 48.5q1 26 22 43.5t44 17.5
q18 0 38.5 -16.5t20.5 -39.5q0 -1 -0.5 -3.5t-0.5 -3.5z" />
    <glyph glyph-name="Zcaron" unicode="&#x17d;" horiz-adv-x="581" 
d="M672 622l-468 -557h119q99 0 153 32q16 7 44.5 42t38.5 59l44 -8l-64 -190h-510v38l465 548h-128q-88 0 -127 -22t-71 -88l-43 12l55 164h492v-30zM640 864l-192 -193h-56l-99 193l63 5l81 -96q19 15 68.5 50.5t62.5 45.5z" />
    <glyph glyph-name="zcaron" unicode="&#x17e;" horiz-adv-x="408" 
d="M434 409l-278 -324q11 -7 57.5 -49.5t94.5 -60.5q8 0 12 1q-18 14 -18 35q0 15 16.5 35t38.5 20q27 0 37 -14t10 -42q-2 -36 -33 -62t-76 -26q-38 0 -110 39q-76 38 -93 38q-16 0 -38 -23l-33 37l292 335h-117q-22 0 -31.5 -6.5t-15.5 -22.5t-11 -23l-39 13l40 131h295
v-31zM509 652l-189 -189h-58l-98 189l62 5l94 -114q0 2 63 55.5t69 58.5z" />
    <glyph glyph-name="longs" unicode="&#x17f;" horiz-adv-x="365" 
d="M334 432q-9 -28 -61 -221.5t-61 -232.5q-19 -79 -48.5 -128t-58.5 -68.5t-70 -30.5l-8 -1q-36 0 -67.5 19t-32.5 52q1 61 55 61q24 0 37 -13t13 -34q0 -18 -7 -33h1q29 1 51.5 34t28.5 104l119 431h-85l98 61q52 136 106 202t122 66q40 0 67 -19t27 -53q0 -70 -59 -70
q-22 0 -36 18.5t-14 42.5q0 12 5 25q-41 -2 -70 -37.5t-40.5 -78.5t-11.5 -84v-12z" />
    <glyph glyph-name="florin" unicode="&#x192;" horiz-adv-x="421" 
d="M232 75q-20 -85 -48 -144.5t-56.5 -86t-49.5 -36.5t-39 -10q-16 0 -27 9t-24 31l1 119q53 -57 78 -57q17 0 26.5 20.5t19.5 66.5l102 385h-85l10 60l88 2q49 130 99.5 184.5t120.5 54.5q40 0 67 -19t27 -53q0 -70 -59 -70q-22 0 -36 18.5t-14 42.5q0 12 5 25
q-19 -1 -34.5 -7t-27 -20.5t-18.5 -24.5t-13.5 -33.5t-8.5 -31.5t-7 -35.5t-5 -29.5l109 -3l-10 -60h-111q-3 0 -37 -128.5t-43 -168.5z" />
    <glyph glyph-name="circumflex" unicode="&#x2c6;" horiz-adv-x="376" 
d="M464 501h-66l-70 83l-128 -81l-74 3l183 171h59z" />
    <glyph glyph-name="caron" unicode="&#x2c7;" horiz-adv-x="370" 
d="M491 651l-191 -182h-54l-100 182l61 5l81 -92q5 5 17 11q17 16 57.5 43t54.5 38z" />
    <glyph glyph-name="uni02C9" unicode="&#x2c9;" horiz-adv-x="340" 
d="M338 652l-22 -73h-239l24 73h237z" />
    <glyph glyph-name="breve" unicode="&#x2d8;" horiz-adv-x="332" 
d="M176 651l55 4q-8 -16 -8 -31q0 -24 21.5 -36.5t47.5 -12.5q38 0 58.5 16t44.5 60h37q-47 -142 -155 -142q-43 0 -77 24t-34 70q0 8 10 48z" />
    <glyph glyph-name="dotaccent" unicode="&#x2d9;" horiz-adv-x="184" 
d="M265 581q-1 -28 -19.5 -45.5t-45.5 -17.5q-33 0 -47 21t-14 44q1 33 19 50t46 17q29 0 45 -19.5t16 -49.5z" />
    <glyph glyph-name="ring" unicode="&#x2da;" horiz-adv-x="304" 
d="M318 590q0 16 -11.5 28.5t-26.5 12.5q-46 0 -52 -40q0 -41 41 -41q18 0 33.5 11t15.5 29zM384 590q-2 -43 -33.5 -75.5t-81.5 -32.5q-44 0 -76.5 29t-32.5 68q0 47 29 83.5t86 36.5q45 0 77.5 -28t32.5 -71q0 -1 -0.5 -4.5t-0.5 -5.5z" />
    <glyph glyph-name="ogonek" unicode="&#x2db;" horiz-adv-x="213" 
d="M141 0q-66 -46 -66 -120q0 -43 37 -43q15 0 43 7l5 -15q-34 -28 -80 -28q-28 0 -48 14t-21 45q0 48 28 83.5t69 56.5h33z" />
    <glyph glyph-name="tilde" unicode="&#x2dc;" horiz-adv-x="386" 
d="M248 617q38 0 85 -17t52 -17q6 0 10.5 0.5t8 3t6 3.5t5.5 6t4 6.5t5 8.5t5 9l48 -3q-32 -112 -112 -113q-14 4 -37.5 11.5t-37 11.5t-31 7.5t-31.5 3.5q-26 0 -42 -34h-59q21 62 48.5 87.5t72.5 25.5z" />
    <glyph glyph-name="hungarumlaut" unicode="&#x2dd;" horiz-adv-x="487" 
d="M589 634q0 -28 -26 -40l-172 -84h-71l188 165q11 8 25 8q21 0 38 -16t18 -33zM397 634q0 -28 -26 -40l-172 -84h-71l188 165q11 8 25 8q21 0 38 -16t18 -33z" />
    <glyph glyph-name="Delta" unicode="&#x394;" horiz-adv-x="532" 
d="M408 59l-68 463l-264 -463h332zM522 0h-517l7 33l363 616l52 14l102 -630z" />
    <glyph glyph-name="Delta" unicode="&#x2206;" horiz-adv-x="532" 
d="M408 59l-68 463l-264 -463h332zM522 0h-517l7 33l363 616l52 14l102 -630z" />
    <glyph glyph-name="Omega" unicode="&#x3a9;" horiz-adv-x="648" 
d="M118 297q0 60 23.5 123.5t66 118.5t110 90t145.5 35q101 0 159 -56t58 -155q0 -61 -19 -116t-55.5 -101t-70 -77.5t-80.5 -68.5h95q29 0 44 13.5t40 59.5l27 -1l-60 -162h-230l-3 25q40 51 61 81.5t59 95t57 133.5t19 140q0 77 -30 114t-82 37q-71 0 -125.5 -66
t-84.5 -205q-10 -50 -10 -99q0 -95 47 -231l-12 -25h-232l13 162l26 1q5 -45 16 -59t40 -14h88q-28 27 -46 50t-36 66t-18 91z" />
    <glyph glyph-name="Omega" unicode="&#x2126;" horiz-adv-x="648" 
d="M118 297q0 60 23.5 123.5t66 118.5t110 90t145.5 35q101 0 159 -56t58 -155q0 -61 -19 -116t-55.5 -101t-70 -77.5t-80.5 -68.5h95q29 0 44 13.5t40 59.5l27 -1l-60 -162h-230l-3 25q40 51 61 81.5t59 95t57 133.5t19 140q0 77 -30 114t-82 37q-71 0 -125.5 -66
t-84.5 -205q-10 -50 -10 -99q0 -95 47 -231l-12 -25h-232l13 162l26 1q5 -45 16 -59t40 -14h88q-28 27 -46 50t-36 66t-18 91z" />
    <glyph glyph-name="pi" unicode="&#x3c0;" horiz-adv-x="496" 
d="M292 61q0 54 64 286q-112 2 -122 2l-3 -13q-21 -99 -50 -178t-47 -110t-30 -43q-36 -14 -60 -17l-3 21q55 61 95.5 159.5t59.5 182.5q-38 0 -63.5 -10t-59.5 -33l-8 29q47 56 71 73q45 33 104 33q16 0 56 -0.5t63 -0.5q88 -2 131 -2q37 0 62 36l20 -11q-9 -30 -27.5 -66
t-30.5 -48q-18 -6 -61 -6q-15 -52 -33.5 -138.5t-18.5 -105.5q0 -40 26 -40q19 0 44 22l5 -27q-23 -31 -56 -49.5t-62 -18.5q-66 0 -66 73z" />
    <glyph glyph-name="uni2000" unicode="&#x2000;" horiz-adv-x="500" 
 />
    <glyph glyph-name="uni2001" unicode="&#x2001;" horiz-adv-x="1000" 
 />
    <glyph glyph-name="uni2002" unicode="&#x2002;" horiz-adv-x="500" 
 />
    <glyph glyph-name="uni2003" unicode="&#x2003;" horiz-adv-x="1000" 
 />
    <glyph glyph-name="uni2004" unicode="&#x2004;" horiz-adv-x="333" 
 />
    <glyph glyph-name="uni2005" unicode="&#x2005;" horiz-adv-x="250" 
 />
    <glyph glyph-name="uni2006" unicode="&#x2006;" horiz-adv-x="166" 
 />
    <glyph glyph-name="uni2007" unicode="&#x2007;" horiz-adv-x="602" 
 />
    <glyph glyph-name="uni2008" unicode="&#x2008;" horiz-adv-x="220" 
 />
    <glyph glyph-name="uni2009" unicode="&#x2009;" horiz-adv-x="100" 
 />
    <glyph glyph-name="uni200A" unicode="&#x200a;" horiz-adv-x="10" 
 />
    <glyph glyph-name="uni2010" unicode="&#x2010;" horiz-adv-x="340" 
d="M83 187v73h261v-73h-261z" />
    <glyph glyph-name="uni2011" unicode="&#x2011;" horiz-adv-x="340" 
d="M83 187v73h261v-73h-261z" />
    <glyph glyph-name="figuredash" unicode="&#x2012;" horiz-adv-x="602" 
d="M83 187v73h523v-73h-523z" />
    <glyph glyph-name="endash" unicode="&#x2013;" horiz-adv-x="500" 
d="M83 187v73h421v-73h-421z" />
    <glyph glyph-name="emdash" unicode="&#x2014;" horiz-adv-x="1000" 
d="M83 187v73h921v-73h-921z" />
    <glyph glyph-name="afii00208" unicode="&#x2015;" horiz-adv-x="2000" 
d="M83 187v73h1921v-73h-1921z" />
    <glyph glyph-name="uni2016" unicode="&#x2016;" horiz-adv-x="440" 
d="M425 661v-680h-58v680h58zM205 661v-680h-58v680h58z" />
    <glyph glyph-name="quoteleft" unicode="&#x2018;" horiz-adv-x="212" 
d="M306 624q-74 -47 -74 -73v-8h1q38 -35 38 -57q0 -20 -3.5 -31.5t-16 -17.5t-19 -7t-29.5 -4q-31 0 -50 19.5t-19 48.5q0 96 154 170z" />
    <glyph glyph-name="quoteright" unicode="&#x2019;" horiz-adv-x="208" 
d="M295 580q0 -27 -48.5 -79t-103.5 -78l-21 40q77 46 78 72q0 1 -6 4q-35 34 -35 56q0 35 17 51t38 16q35 0 58.5 -18t23.5 -55q0 -6 -1 -9z" />
    <glyph glyph-name="quotesinglbase" unicode="&#x201a;" horiz-adv-x="219" 
d="M188 32q-1 -83 -156 -160l-20 41q76 47 78 71q0 2 -0.5 5.5t-0.5 4.5q-37 27 -37 53q0 29 19 46t46 17q31 0 51 -22t20 -50v-6z" />
    <glyph glyph-name="uni201B" unicode="&#x201b;" horiz-adv-x="274" 
d="M369 619q0 -35 -24.5 -56.5t-52.5 -21.5q-2 -2 -8 -2q-24 0 -24 4v-7q0 -36 62 -78l-26 -38q-31 12 -57.5 49.5t-26.5 81.5q0 49 31.5 84.5t76.5 35.5q20 0 34.5 -14.5t14.5 -37.5z" />
    <glyph glyph-name="quotedblleft" unicode="&#x201c;" horiz-adv-x="410" 
d="M308 624q-78 -48 -79 -74v-6q42 -35 42 -57q0 -23 -20.5 -42.5t-47.5 -19.5t-48.5 19t-21.5 51q0 92 156 169zM505 623q-76 -47 -76 -77q39 -39 39 -58t-3.5 -31t-14 -17.5t-17.5 -7.5t-24 -4q-5 -1 -7 -1q-29 0 -49.5 17t-20.5 51q0 95 155 168z" />
    <glyph glyph-name="quotedblright" unicode="&#x201d;" horiz-adv-x="417" 
d="M204 537q0 1 -10 8t-19.5 20.5t-9.5 29.5q0 22 3.5 35t14.5 19.5t19 8t29 3.5q28 0 49 -18t21 -50q0 -33 -11 -58t-36.5 -46t-45.5 -33t-60 -32l-22 39q77 43 78 74zM500 592q0 -16 -3 -30.5t-6.5 -26t-12 -23t-14 -18.5t-18.5 -16.5t-18.5 -14t-21.5 -12t-20.5 -10
t-21.5 -10t-20 -8.5l-20 40q76 43 79 74q0 1 -2 2.5t-5 3.5t-5 3q-29 31 -29 51q0 30 19.5 47t49.5 17q27 0 48 -18t21 -51z" />
    <glyph glyph-name="quotedblbase" unicode="&#x201e;" horiz-adv-x="416" 
d="M188 43q0 -50 -37 -89t-120 -80l-17 41q42 27 59.5 41t18.5 28q0 5 -7 10v2q-33 29 -33 51q0 63 68 63q25 0 46.5 -18t21.5 -49zM290 -16q0 1 -10 9.5t-20.5 23.5t-10.5 30q0 63 69 63q31 0 49.5 -19.5t18.5 -59.5q-4 -83 -154 -159l-20 42q76 47 78 70z" />
    <glyph glyph-name="uni201F" unicode="&#x201f;" horiz-adv-x="521" 
d="M618 627q0 -16 -4.5 -33t-25 -35t-54.5 -18h-24q-1 -2 -1 -7q0 -37 61 -76l-24 -38q-37 14 -66.5 48.5t-29.5 79.5q0 49 32 86t80 37q56 0 56 -44zM408 626q0 -40 -22.5 -62.5t-61.5 -22.5h-26v-7q0 -33 64 -76l-27 -38q-37 14 -66.5 47.5t-29.5 79.5q0 50 31.5 87
t81.5 37q56 0 56 -45z" />
    <glyph glyph-name="dagger" unicode="&#x2020;" horiz-adv-x="417" 
d="M312 444l60 18q24 15 64 15q21 0 42.5 -19.5t21.5 -39.5q0 -24 -15 -44t-33 -20q-28 0 -88 30q-14 10 -62 12q-10 -50 -10 -83q0 -41 12 -53q-66 -134 -144 -416h-49l26 114q39 175 39 291v16q58 56 78 133l-69 -21q-24 -10 -43 -10q-55 4 -58 58q3 55 66 55q18 0 60 -14
t56 -15q10 45 10 67q0 11 -4 36t-4 28q0 79 65 79q55 0 55 -52v-9q0 -25 -35.5 -82.5t-40.5 -73.5z" />
    <glyph glyph-name="daggerdbl" unicode="&#x2021;" horiz-adv-x="438" 
d="M238 -7q0 -34 6 -58q0 -32 -17 -54t-45 -22q-56 0 -56 58q0 15 12 41.5t30 59t24 45.5q-6 -1 -25.5 -4t-30.5 -4l-53 -15q-25 0 -42 10t-17 26q0 33 10.5 49.5t37.5 23.5l18 3q27 0 61 -15.5t44 -15.5h13q10 54 10 65q0 7 -10 85q41 40 72 131l-50 -18q-35 -15 -55 -15
q-27 0 -44.5 15.5t-17.5 43.5q0 22 14.5 38t38.5 16q29 0 61 -13l65 -20q12 27 12 71v9q0 26 -2.5 33.5t-2.5 28.5q2 70 64 70q43 0 54 -42l1 -19v-2q0 -21 -35.5 -80t-37.5 -65l55 13q43 16 61 16q26 0 42.5 -13t16.5 -31q0 -58 -52 -68l-16 -1h-2q-11 0 -50.5 15t-52.5 15
h-1l-14 2q-7 -26 -9 -63q0 -32 12 -80q-23 -24 -40 -57t-25.5 -55.5t-10.5 -24.5q11 0 45 15.5t65 15.5q59 0 59 -50q0 -55 -49 -59l-13 -1q-15 0 -56 10.5t-61 11.5q-11 -32 -11 -71z" />
    <glyph glyph-name="bullet" unicode="&#x2022;" horiz-adv-x="362" 
d="M402 326q0 -62 -42.5 -99t-93.5 -37q-54 0 -95 41t-41 98q0 64 41 99.5t95 35.5q59 0 97.5 -39t38.5 -99z" />
    <glyph glyph-name="uni2023" unicode="&#x2023;" horiz-adv-x="384" 
d="M50 75v400l284 -200z" />
    <glyph glyph-name="onedotenleader" unicode="&#x2024;" horiz-adv-x="220" 
d="M186 49q-1 -25 -23 -43.5t-51 -18.5q-20 0 -42.5 18.5t-22.5 39.5q0 27 21.5 45.5t51.5 18.5q27 0 46.5 -15.5t19.5 -38.5v-6z" />
    <glyph glyph-name="twodotenleader" unicode="&#x2025;" horiz-adv-x="440" 
d="M406 49q-1 -25 -23 -43.5t-51 -18.5q-20 0 -42.5 18.5t-22.5 39.5q0 27 21.5 45.5t51.5 18.5q27 0 46.5 -15.5t19.5 -38.5v-6zM186 49q-1 -25 -23 -43.5t-51 -18.5q-20 0 -42.5 18.5t-22.5 39.5q0 27 21.5 45.5t51.5 18.5q27 0 46.5 -15.5t19.5 -38.5v-6z" />
    <glyph glyph-name="ellipsis" unicode="&#x2026;" horiz-adv-x="660" 
d="M626 49q-1 -25 -23 -43.5t-51 -18.5q-20 0 -42.5 18.5t-22.5 39.5q0 27 21.5 45.5t51.5 18.5q27 0 46.5 -15.5t19.5 -38.5v-6zM406 49q-1 -25 -23 -43.5t-51 -18.5q-20 0 -42.5 18.5t-22.5 39.5q0 27 21.5 45.5t51.5 18.5q27 0 46.5 -15.5t19.5 -38.5v-6zM186 49
q-1 -25 -23 -43.5t-51 -18.5q-20 0 -42.5 18.5t-22.5 39.5q0 27 21.5 45.5t51.5 18.5q27 0 46.5 -15.5t19.5 -38.5v-6z" />
    <glyph glyph-name="perthousand" unicode="&#x2030;" horiz-adv-x="1043" 
d="M349 581q-17 9 -29 33l-48 -35q-23 -27 -42.5 -73t-19.5 -82q0 -22 7 -34t31 -21q38 2 73.5 56t40.5 121q0 6 -3 15t-7 15zM461 607q29 0 61 16.5t48.5 30.5t49.5 45l72 -5l-456 -709h-82l373 576q-31 -15 -67 -15q-12 0 -52 10q-2 -48 -23 -104.5t-62.5 -102
t-90.5 -45.5q-54 0 -89 42t-35 96q0 86 65 158t145 72q26 0 37.5 -5t31.5 -23q42 -37 74 -37zM1010 219q0 28 -12.5 46.5t-31.5 18.5q-31 0 -68.5 -65.5t-37.5 -124.5q0 -48 40 -48q31 0 68 53t41 107zM1067 231q0 -88 -57.5 -170t-124.5 -82q-48 0 -86.5 41.5t-38.5 98.5
q0 87 74 170q67 56 132 56q47 0 74 -28.5t27 -85.5zM671 219v7q0 61 -38 78q-31 0 -73.5 -82t-42.5 -137q0 -13 1.5 -21t8 -11.5t9 -4t14.5 -2.5q35 0 64 35h2q51 83 55 138zM724 232q0 -86 -55.5 -169.5t-125.5 -83.5q-23 0 -56.5 19t-45.5 37q-25 38 -25 85q0 86 66 155.5
t142 69.5q100 0 100 -113z" />
    <glyph glyph-name="guilsinglleft" unicode="&#x2039;" horiz-adv-x="262" 
d="M318 379q-1 -14 -153 -166q4 -12 36 -69t32 -77q0 -31 -24 -31q-26 0 -85 93l-67 83l3 23l231 171q27 0 27 -22v-5z" />
    <glyph glyph-name="guilsinglright" unicode="&#x203a;" horiz-adv-x="260" 
d="M292 209q-48 -37 -106 -79.5t-94 -68t-38 -25.5q-22 0 -22 28q2 19 30.5 50t74 69.5t50.5 43.5q-4 9 -7 25l-4 -3q-56 103 -56 133q0 24 24 24q18 0 82 -90q61 -76 66 -84v-23z" />
    <glyph glyph-name="fraction" unicode="&#x2044;" horiz-adv-x="369" 
d="M503 652l-403 -672h-104l406 672h101z" />
    <glyph glyph-name="Euro" unicode="&#x20ac;" horiz-adv-x="571" 
d="M700 683l-68 -227h-44q5 36 5 81q0 91 -56 91q-37 0 -86 -35t-68 -63q-38 -43 -75 -113l210 -3l-48 -73h-197q-1 -5 -6 -24h174l-54 -74h-126l-1 -14v-10q0 -63 22.5 -105t65.5 -42q11 0 23 2.5t26.5 8.5t26 11.5t29 16t27.5 16t30 18.5t28 18l-31 -80q-84 -84 -171 -84
q-90 0 -144 65t-54 162q0 11 1 17h-83l47 74h46q4 12 7 24h-76l60 76h44q49 111 144.5 190t192.5 79h4q20 0 74 -16l33 -11q6 1 23 27z" />
    <glyph glyph-name="afii61289" unicode="&#x2113;" horiz-adv-x="368" 
d="M263 463l-23 -109q132 143 132 280q0 46 -24 46t-41.5 -47t-43.5 -170zM375 146l13 -24q-89 -129 -190 -129q-102 0 -102 103q0 31 12 88l11 52l-63 -41l-4 31l76 54l26 123q22 107 44 161.5t58 94.5q54 59 109 59q34 0 50.5 -24.5t16.5 -63.5q0 -90 -53 -168.5
t-151 -161.5l-16 -73q-12 -54 -12 -89q0 -74 56 -74q53 0 119 82z" />
    <glyph glyph-name="afii61352" unicode="&#x2116;" horiz-adv-x="1222" 
d="M1029 403q-52 0 -104.5 -78.5t-52.5 -128.5q0 -19 11.5 -34.5t34.5 -15.5q19 0 44.5 16.5t36.5 30.5q23 29 45 77t24 82q0 51 -39 51zM1158 337q-3 -88 -82.5 -163t-167.5 -75q-62 0 -92.5 29t-30.5 78q0 85 78 163t177 78q50 0 84 -29t34 -72v-9zM780 652v-45
q-37 -8 -64 -33q-16 -16 -201 -590h-43l-183 493q-42 -127 -111 -362q-10 -26 -10 -49q0 -17 63 -17l-2 -48h-217l2 48q41 4 54 19q22 26 54.5 118t70.5 215.5t53 163.5q-14 19 -30 29t-48 13l1 45h179l168 -440q24 91 62 214t45 149q0 31 -60 31l2 46h215z" />
    <glyph glyph-name="trademark" unicode="&#x2122;" horiz-adv-x="1028" 
d="M816 250h-28l-122 270v-175q0 -26 11.5 -35.5t40.5 -12.5v-44h-153v44q31 4 39.5 13.5t8.5 34.5v227q-25 36 -65 40v45h138l139 -278l143 278h122v-45q-28 -3 -40 -11.5t-12 -27.5v-242q0 -23 5.5 -26.5t39.5 -7.5v-44h-191v44q7 1 20.5 2t15.5 1.5t7.5 4.5t6 10.5
t0.5 19.5v188q-7 -16 -64 -139t-62 -134zM538 545h-47q-9 32 -22.5 49.5t-26.5 17.5h-35v-277q0 -5 -0.5 -12t-0.5 -9q0 -9 8 -11.5t41 -5.5v-44h-192v44q33 4 40 7.5t7 19.5v288h-32q-16 0 -32.5 -20t-17.5 -47h-46v112h356v-112z" />
    <glyph glyph-name="estimated" unicode="&#x212e;" horiz-adv-x="636" 
d="M588 346v185q0 12 -8 22q-78 96 -182 96q-106 0 -184 -99q-7 -8 -7 -23v-181q0 -6 4 -6h373q4 0 4 6zM699 321h-488q-4 0 -4 -4v-184q0 -12 6 -21q77 -100 185 -100q115 0 194 112h43q-41 -60 -104 -95.5t-134 -35.5q-125 0 -213 99t-88 238q0 141 88 240t213 99
t213.5 -99t88.5 -240v-9z" />
    <glyph glyph-name="partialdiff" unicode="&#x2202;" horiz-adv-x="457" 
d="M321 377h-1q-56 0 -97 -54q-32 -41 -55.5 -105t-23.5 -115q0 -71 52 -71q95 0 192 280q-5 24 -22.5 44.5t-44.5 20.5zM303 426h1q34 0 62 -17.5t38 -49.5q44 126 44 203q0 51 -20.5 87.5t-61.5 36.5q-60 0 -146 -73q-9 0 -17.5 17.5t-8.5 38.5q0 19 7 30q74 40 140 40
q87 0 132.5 -66t45.5 -172q0 -50 -13 -114t-41 -133.5t-66.5 -127.5t-94.5 -95.5t-120 -37.5q-62 0 -97 38t-35 105q0 130 80.5 210t170.5 80z" />
    <glyph glyph-name="product" unicode="&#x220f;" horiz-adv-x="724" 
d="M712 668v-33q-54 -4 -66 -17t-12 -64v-511q0 -55 12 -69.5t66 -18.5v-33h-252v33q50 5 60 17.5t10 70.5v548q0 23 -5 28.5t-25 5.5h-156q-19 0 -24 -5t-5 -26v-551q0 -58 9 -71t56 -17v-33h-246v33q52 5 64.5 19t12.5 69v511q0 51 -12.5 64t-67.5 17v33h581z" />
    <glyph glyph-name="summation" unicode="&#x2211;" horiz-adv-x="582" 
d="M584 132l-41 -216h-420v34l189 314l-183 369v35h412q9 -144 11 -180l-27 -8q-13 70 -34 112q-12 22 -27.5 29.5t-61.5 7.5h-147l145 -294l-191 -319h222q32 0 46 2t29 16t24 36t26 72z" />
    <glyph glyph-name="minus" unicode="&#x2212;" horiz-adv-x="421" 
d="M430 288l-17 -58h-320l19 58h318z" />
    <glyph glyph-name="uni2215" unicode="&#x2215;" horiz-adv-x="369" 
d="M503 652l-403 -672h-104l406 672h101z" />
    <glyph glyph-name="uni2219" unicode="&#x2219;" horiz-adv-x="220" 
d="M103 291q25 0 42 -19t17 -46t-17 -46t-42 -19t-42 19t-17 46t17 46t42 19z" />
    <glyph glyph-name="radical" unicode="&#x221a;" horiz-adv-x="432" 
d="M515 839l-147 -978l-24 -15l-188 520l-75 -45l-11 39l153 91l136 -394h1l115 793z" />
    <glyph glyph-name="infinity" unicode="&#x221e;" horiz-adv-x="624" 
d="M508 368q-10 0 -19.5 -3t-19 -10.5t-16.5 -13.5t-16.5 -18.5t-14 -18.5t-14 -19.5t-11.5 -16.5q37 -57 62 -79t53 -22q31 0 50.5 30.5t19.5 67.5q0 46 -20.5 74.5t-53.5 28.5zM222 167h1q21 0 43.5 17.5t34 32.5t32.5 46q-41 66 -61 84q-24 21 -53 21q-32 0 -53 -29
t-21 -74q0 -41 22 -69.5t55 -28.5zM640 271v-1q0 -78 -39 -125.5t-91 -47.5q-75 0 -146 114q-38 -56 -71 -85t-77 -29q-52 0 -90 47.5t-38 120.5q0 75 38 123t96 48q78 0 146 -111q2 2 11.5 16t13 18t13 16t14.5 16.5t14.5 13.5t17 13t17.5 9t21 7t22 2q55 0 91.5 -45.5
t36.5 -119.5z" />
    <glyph glyph-name="integral" unicode="&#x222b;" horiz-adv-x="183" 
d="M80 -4l-16 382q-2 27 -2 75q0 83 9 147t23.5 101.5t34.5 61.5t38.5 32t38.5 8q22 0 40.5 -15t18.5 -39q0 -26 -12.5 -41t-30.5 -15q-16 0 -28 30.5t-20 30.5q-27 0 -27 -109q0 -28 1 -44l15 -364q1 -28 1 -79q0 -193 -40.5 -277.5t-104.5 -84.5q-24 0 -41.5 16.5
t-17.5 40.5q0 23 16.5 40.5t35.5 17.5q13 0 23.5 -33t18.5 -33q27 0 27 109q0 27 -1 42z" />
    <glyph glyph-name="approxequal" unicode="&#x2248;" horiz-adv-x="474" 
d="M372 101q-29 0 -85 36t-84 36q-26 0 -45.5 -18t-41.5 -53l-38 49q20 42 55.5 70t72.5 28q44 0 90 -36q48 -36 75 -36q23 0 41 17t40 54l40 -48q-52 -99 -120 -99zM206 436q41 0 89 -36q50 -36 76 -36q42 0 81 71l40 -49q-51 -98 -119 -98q-39 0 -91 36t-79 36
q-26 0 -45.5 -18.5t-41.5 -52.5l-38 49q20 42 55 70t73 28z" />
    <glyph glyph-name="notequal" unicode="&#x2260;" horiz-adv-x="462" 
d="M398 493l-32 -87h118v-75h-144l-49 -132h193v-74h-220l-43 -118l-49 28l34 90h-115v74h141l48 132h-189v75h216l42 115z" />
    <glyph glyph-name="lessequal" unicode="&#x2264;" horiz-adv-x="423" 
d="M413 -6h-393v76h393v-76zM412 106l-390 218v79l389 217v-83l-323 -172v-2l324 -174v-83z" />
    <glyph glyph-name="greaterequal" unicode="&#x2265;" horiz-adv-x="529" 
d="M524 -6h-391v76h391v-76zM136 620l389 -217v-80l-389 -217v83l324 174v2l-324 172v83z" />
    <glyph glyph-name="lozenge" unicode="&#x25ca;" horiz-adv-x="451" 
d="M432 316l-140 317h-3l-141 -317l141 -318h3zM504 316l-178 -390h-72l-177 390l179 392h70z" />
    <glyph glyph-name="c_t" unicode="&#xe6a4;" horiz-adv-x="801" 
d="M838 560q0 -42 -3 -51l-26 -78h69l-11 -61h-76q-19 -56 -48.5 -150.5t-41.5 -130.5q-4 -4 -4 -20q0 -2 1 -2q22 10 37.5 25t35.5 50l40 -14q-71 -87 -102.5 -113.5t-65.5 -26.5q-26 0 -43.5 13.5t-17.5 41.5q2 25 15 61l65 193q18 56 20 73h-54q-12 15 -12 20t2 8v6
q0 13 13 20.5t31 7.5q23 0 58 24.5t58 61.5v4q0 5 3 11.5t3 11.5q0 6 -2 11q-2 51 -41 75.5t-75 24.5q-38 0 -77 -34t-39 -65v-1q0 -12 6.5 -31.5t6.5 -27.5q0 -14 -13 -23h-2q-2 -1 -4.5 -1.5t-5.5 -0.5q-48 0 -48 74q0 69 53.5 111.5t107.5 42.5q91 0 139 -42.5t48 -97.5z
M577 347v-7q-1 -33 -20 -49t-42 -16q-33 0 -33 28q0 9 10 52q0 37 -30 37q-35 0 -96 -47q-48 -46 -74 -98.5t-26 -96.5q0 -36 19 -60.5t56 -30.5q31 0 56.5 12t37 23t39.5 41l44 -25q-54 -60 -84.5 -84.5t-52.5 -30.5t-71 -7q-149 0 -149 139q0 120 89.5 212t219.5 107
q39 0 72 -25t35 -74z" />
    <glyph glyph-name="s_p" unicode="&#xe6a5;" horiz-adv-x="956" 
d="M888 301q0 62 -45 62q-60 0 -115 -95q-19 -44 -35.5 -95t-24.5 -81t-8 -35q0 -22 27 -22q63 0 119.5 76t76.5 165zM728 498q10 30 10 47q0 6 -2 11q-2 51 -41 75.5t-75 24.5q-38 0 -77 -34t-39 -65v-1q0 -12 6.5 -31.5t6.5 -27.5q0 -14 -13 -23h-2q-2 -1 -4.5 -1.5
t-5.5 -0.5q-48 0 -48 74q0 69 53.5 111.5t107.5 42.5q91 0 139 -42.5t48 -97.5q0 -48 -3 -51l-36 -132q85 65 148 65q41 0 73.5 -29.5t32.5 -90.5q0 -84 -51.5 -165.5t-125 -130.5t-138.5 -49q-24 0 -56 13q-49 -167 -50 -185q0 -13 28 -13q4 0 14 0.5t15 0.5l-2 -43h-220
l1 44q11 0 18.5 0.5t13 1t10.5 3.5t7.5 3.5t6.5 6t5 7.5t6 11t7 12l168 516q-22 24 -56 24q-13 0 -24 -4v44q44 0 88.5 22t55.5 57zM354 98q0 21 -26 60.5t-52 83t-26 75.5q0 65 40.5 95t97.5 30q27 0 87 -15q11 0 21 15h37l-29 -157h-41q-9 98 -68 98q-7 0 -23.5 -8.5
t-16.5 -21.5q0 -24 45 -82q60 -90 60 -135q0 -63 -40 -102t-121 -39q-85 12 -98 13q-1 0 -14 -22l-39 5l30 176h39q9 -57 34 -90.5t55 -33.5q19 0 33.5 13t14.5 42z" />
    <glyph glyph-name="longs_t" unicode="&#xfb05;" horiz-adv-x="614" 
d="M346 432q-9 -28 -60 -221t-61 -233q-19 -79 -48.5 -128t-58.5 -68.5t-70 -30.5l-8 -1q-36 0 -67.5 19t-32.5 52q1 61 55 61q24 0 37 -13t13 -34q0 -15 -8 -33h1q29 1 51.5 34t28.5 104l119 431h-84l97 61q52 136 106 202t122 66q41 0 68 -19t27 -53q0 -70 -60 -70
q-22 0 -35.5 18.5t-13.5 42.5q0 12 5 25q-41 -2 -70.5 -37.5t-41 -78.5t-11.5 -84v-12zM674 431l-11 -61h-77l-91 -281q-4 -4 -4 -20q0 -2 1 -2q23 10 38.5 25t35.5 50l40 -14q-71 -88 -102.5 -114t-66.5 -26q-27 0 -45 13.5t-18 41.5q2 25 15 61l66 193q18 56 20 73h-54
q-12 15 -12 20t2 8q-1 2 -1 6q0 13 13.5 20.5t31.5 7.5q25 0 65 28.5t61 70.5l32 14q18 -9 18 -28q0 -5 -1 -8l-26 -78h70z" />
    <glyph glyph-name="s_t" unicode="&#xfb06;" horiz-adv-x="747" 
d="M781 560q0 -42 -3 -51l-26 -78h69l-11 -61h-76q-19 -56 -48.5 -150.5t-41.5 -130.5q-4 -4 -4 -20v-2q23 10 38.5 25t35.5 50l40 -14q-71 -87 -102.5 -113.5t-65.5 -26.5q-27 0 -44.5 13.5t-17.5 41.5q2 21 16 61l64 193q18 56 20 73h-53q-12 15 -12 20t2 8q-1 2 -1 6
q0 13 13 20.5t31 7.5q23 0 59 24.5t58 61.5v4q0 5 3 11.5t3 11.5q0 6 -2 11q-2 51 -41 75.5t-75 24.5q-38 0 -77 -34t-39 -65v-1q0 -12 6.5 -31.5t6.5 -27.5q0 -14 -13 -23h-2q-2 -1 -5 -1.5t-6 -0.5q-47 0 -47 74q0 69 53.5 111.5t107.5 42.5q91 0 139 -42.5t48 -97.5z
M333 98q0 21 -26 60.5t-52 83t-26 75.5q0 65 41 95t98 30q26 0 86 -15q12 0 22 15h36l-28 -157h-42q-9 98 -68 98q-7 0 -23.5 -8.5t-16.5 -21.5q0 -22 46 -82q59 -89 59 -135q0 -63 -40 -102t-121 -39q-85 12 -98 13q-1 0 -14 -22l-38 5l29 176h39q9 -57 34 -90.5t55 -33.5
q19 0 33.5 13t14.5 42z" />
    </font>
</defs>
</svg>
