<?xml version="1.0" standalone="no"?>
<!DOCTYPE svg PUBLIC "-//W3C//DTD SVG 1.1//EN" "http://www.w3.org/Graphics/SVG/1.1/DTD/svg11.dtd" >
<svg xmlns="http://www.w3.org/2000/svg" xmlns:xlink="http://www.w3.org/1999/xlink" version="1.1">
<metadata>
Created by FontForge 20170731 at Tue Feb 28 14:09:11 2012
 By Aleksey,,,
Copyright (c) Arkandis Digital Foundry under the GNU General Public License V2 and later, with font exception.
</metadata>
<defs>
<font id="TribunADFStd-Italic" horiz-adv-x="686" >
  <font-face 
    font-family="Tribun ADF Std"
    font-weight="400"
    font-style="italic"
    font-stretch="normal"
    units-per-em="1000"
    panose-1="2 4 5 3 8 5 5 9 2 3"
    ascent="750"
    descent="-250"
    x-height="440"
    cap-height="652"
    bbox="-149 -250 2002 899"
    underline-thickness="50"
    underline-position="-200"
    slope="-15"
    unicode-range="U+0020-FB06"
  />
<missing-glyph horiz-adv-x="670" 
d="M170 0v700h500v-700h-500zM420 395l170 255h-340zM450 350l170 -255v510zM250 50h340l-170 255zM220 605v-510l170 255z" />
    <glyph glyph-name="AE" unicode="AE" horiz-adv-x="885" 
d="M574 584q-8 -10 -47.5 -53.5t-102 -114.5t-119.5 -140h168q62 176 101 308zM992 652l-40 -162l-24 2q7 18 7 30q0 6 -2 13t-5 13t-8 18.5t-10 24.5q-10 0 -24 9q-34 7 -143 7q-41 0 -50 -4.5t-18 -26.5q-21 -70 -66 -210q40 0 68 1.5t49.5 6.5t32.5 7.5t22.5 14t15 15.5
t13.5 22.5t15 26.5l20 -4l-81 -238l-23 4l-15 91q-13 2 -23.5 4t-15 2.5t-16 1t-37.5 0.5h-38l-87 -253q0 -23 51 -23h30q113 0 171 27t119 104l24 -3l-77 -173h-508l1 29q6 0 18.5 1t15.5 1.5t11.5 1.5t10.5 2t7.5 3.5t7 5t4.5 7t5 10t4 12.5l55 157l-198 -1
q-35 -38 -46 -55q-57 -87 -81 -122q0 -23 63 -23v-29h-193l2 29q18 4 34 15t25.5 21t29.5 33l400 458q30 33 30 47q0 18 -28 21q-8 1 -35 2v26h530z" />
    <glyph glyph-name="ae" unicode="ae" horiz-adv-x="649" 
d="M403 365v7q0 22 -11 29.5t-33 7.5q-3 0 -9.5 -0.5t-9.5 -0.5q-69 -31 -127.5 -127.5t-64.5 -177.5q0 -55 41 -55q38 0 87 51t85.5 126.5t41.5 139.5zM631 375q0 31 -31 31q-17 0 -40 -10.5t-31 -18.5q-18 -16 -39 -51t-34 -62.5t-13 -31.5t9 -4q3 0 19 7t26 10
q53 17 93.5 57t40.5 73zM699 367q-2 -43 -41.5 -78t-83 -51.5t-92 -30.5t-51.5 -16q-13 -39 -13 -68q0 -75 67 -75q19 0 37 5.5t28 9t31 19.5t24.5 19t28.5 25l9 -22q-50 -53 -80.5 -75t-48.5 -27t-74 -14q-102 0 -102 128q0 9 -2 13q-29 -36 -44.5 -53.5t-42 -42t-52.5 -35
t-55 -10.5q-84 0 -84 82q0 56 35.5 131.5t57.5 103.5q44 57 99.5 96.5t109.5 39.5q26 0 69 -29l16 26h76l-18 -45q59 43 115 48q81 0 81 -74z" />
    <glyph glyph-name="OE" unicode="OE" horiz-adv-x="945" 
d="M521 622q-55 0 -106 -30t-88 -78t-65.5 -106.5t-42.5 -116.5t-14 -107q0 -78 33.5 -113.5t105.5 -35.5q39 0 67.5 13t47.5 41.5t26 45t19 50.5q3 7 4 11l89 269q23 71 25 86q0 28 -28 49.5t-73 21.5zM532 0q-24 0 -104.5 -4t-111.5 -4q-91 0 -155.5 63t-64.5 158
q0 117 62 222.5t160 167t201 61.5q32 0 51 -1t24.5 -1.5t13 -3t11.5 -3.5h3q11 -1 29 -3h397l-35 -159h-21q2 12 2 31q0 41 -14 60t-55 23h-146q-5 0 -26.5 -9t-21.5 -17l-64 -215q117 0 149 13q38 23 63 79l25 -4l-78 -234h-25l10 45q-1 23 -11.5 34t-23 13.5t-49.5 4.5
q-9 1 -13 1l-59 3q-8 -24 -24.5 -69.5t-28.5 -78.5t-12 -37l-18 -61q0 -18 16 -24t60 -6q107 0 166 27t128 109l21 -9l-76 -172h-355z" />
    <glyph glyph-name="oe" unicode="oe" horiz-adv-x="665" 
d="M352 408q-52 0 -100.5 -61t-73.5 -132t-25 -115q0 -78 66 -78q39 0 75 41.5t59 98.5t36.5 108t15.5 79q0 59 -53 59zM647 373q-3 33 -32 33q-85 0 -159 -180q38 12 54.5 17.5t46 18.5t43.5 26.5t28 35t19 49.5zM715 369q-1 -56 -78 -112q-25 -18 -55 -30.5t-45.5 -16.5
t-59.5 -13q-23 -1 -35 -17t-13.5 -29t-1.5 -33q0 -30 20.5 -53.5t50.5 -23.5q24 0 54.5 14.5t44.5 24t51 37.5l14 -17q-118 -113 -207 -113q-71 0 -105 63q-43 -37 -71 -49.5t-70 -12.5q-60 0 -100 40.5t-40 100.5q0 63 45.5 136.5t114.5 124.5t131 51q21 0 44 -5.5
t45.5 -23.5t23.5 -45q48 40 83 57t79 17q34 0 57 -18t23 -47v-7z" />
    <glyph glyph-name="f_j" unicode="fj" horiz-adv-x="529" 
d="M448 388l-166 -1q-1 0 -55.5 -182t-65.5 -223q-37 -139 -81 -185.5t-121 -46.5q-30 0 -58.5 20t-28.5 43q0 49 41 49q35 0 35 -38q0 -16 -9 -34q5 -7 19 -8q64 0 104 151l133 454h-93l7 42h94q81 271 235 271q35 0 59 -16.5t24 -47.5v-6q-1 -22 -14 -34t-32 -12
q-16 0 -25.5 13.5t-9.5 31.5q0 7 4 18t4 14q0 7 -18 7q-34 0 -59 -17t-38.5 -48t-21 -58.5t-13.5 -65t-10 -50.5h142q79 0 148 12l7 -2l-155 -540q-28 -79 -78 -114t-103 -35h-6q-35 0 -58 16.5t-23 43.5q0 19 14 34.5t32 18.5q41 0 41 -39q0 -12 -4.5 -24.5t-7.5 -14.5
q6 -2 15 -2q40 0 96 141.5t92.5 280t36.5 159.5q0 16 -7 20t-22 4z" />
    <glyph glyph-name="f_f_j" unicode="ffj" horiz-adv-x="845" 
d="M545 429q81 271 235 271q35 0 59 -16.5t24 -47.5v-6q-3 -46 -46 -46q-16 0 -25.5 13.5t-9.5 31.5q0 7 4 18t4 14q0 7 -18 7q-34 0 -59 -17t-38.5 -48t-21 -58.5t-13.5 -65t-10 -50.5h142q79 0 148 12l7 -2l-155 -540q-28 -79 -78 -114t-103 -35h-6q-35 0 -57.5 16.5
t-22.5 43.5q0 19 13.5 34.5t31.5 18.5q41 0 41 -39q0 -12 -4.5 -24.5t-7.5 -14.5q6 -2 16 -2q39 0 95 141.5t92.5 280t36.5 159.5q0 16 -7 20t-22 4l-166 -1q-1 0 -55.5 -182t-65.5 -223q-37 -139 -81 -185.5t-122 -46.5q-30 0 -58.5 20t-28.5 43q0 49 41 49q35 0 35 -38
q0 -16 -9 -34q5 -7 19 -8q66 0 105 151l133 454h-224q-1 0 -30 -92t-59.5 -193t-36.5 -123q-31 -101 -61 -151.5t-59.5 -64t-80.5 -13.5q-29 0 -57 22t-30 43q1 47 41 47q35 0 35 -38q0 -16 -9 -34q5 -7 19 -8q65 0 104 151l138 454h-93l7 42h94q46 122 127.5 191t155.5 69
h4q80 0 80 -70q-1 -22 -14 -34t-32 -12q-16 0 -25.5 13.5t-9.5 31.5q0 6 5.5 17t5.5 15q0 7 -19 7q-131 0 -193 -228h225z" />
    <glyph glyph-name="f_f" unicode="ff" horiz-adv-x="741" 
d="M644 619q-1 -22 -14 -34t-32 -12q-16 0 -25.5 13.5t-9.5 31.5q0 6 5 17t5 15q0 7 -18 7q-131 0 -193 -228h219q102 271 235 271q35 -1 59.5 -18.5t24.5 -51.5q-1 -22 -14 -34t-32 -12q-16 0 -25.5 13.5t-9.5 31.5q0 7 5.5 18t5.5 14q0 7 -19 7q-35 0 -60 -17t-39 -48
t-21.5 -58.5t-14 -65t-10.5 -50.5h107l-7 -42h-110q-1 -3 -28.5 -95t-58 -197.5t-33.5 -115.5q-22 -74 -47.5 -122.5t-53.5 -70t-51 -29t-53 -7.5q-31 0 -58.5 20.5t-28.5 44.5q1 47 41 47q35 0 35 -38q0 -16 -9 -34q5 -7 19 -8q66 0 105 151l138 454h-217q-2 0 -59.5 -186
t-66.5 -222q-23 -77 -44 -123t-46.5 -69t-49 -30t-62.5 -7q-29 0 -57 22t-29 43q1 47 41 47q33 0 33 -38q0 -15 -8 -34q4 -7 19 -8q65 0 104 151l139 454h-94l7 42h94q47 122 128.5 191t155.5 69h3q80 0 80 -70z" />
    <glyph glyph-name="f_i" unicode="fi" horiz-adv-x="521" 
d="M538 439l-116 -344q-3 -14 -3 -24q0 -2 1 -7.5t2 -15.5q14 4 26 12.5t18.5 14.5t22 25t22.5 27l17 -21q-24 -34 -43 -55.5t-49 -42t-59 -20.5q-43 0 -43 56q1 17 47.5 168.5t47.5 159.5q0 13 -38 15h-109q-2 0 -60.5 -175.5t-70.5 -215.5q-23 -78 -49.5 -130t-55 -75.5
t-51 -31.5t-50.5 -9q-31 0 -58 20.5t-27 43.5q0 48 41 48q34 0 34 -38q0 -15 -8 -34q5 -7 19 -8q64 0 104 151l145 454h-93l7 42h94q102 271 228 271q35 0 59 -16.5t24 -47.5q0 -25 -12 -38.5t-33 -13.5q-16 0 -26 13.5t-10 31.5q0 7 5.5 18t5.5 14q0 7 -19 7q-35 0 -59 -17
t-37 -47.5t-19.5 -59t-12 -64.5t-9.5 -51h133q90 8 111 12z" />
    <glyph glyph-name="f_l" unicode="fl" horiz-adv-x="555" 
d="M639 694l-188 -595q-6 -32 -6 -41q0 -10 4 -14q26 0 100 85q2 1 3 2.5t2 2.5l14 -13q-57 -77 -84 -100q-39 -33 -78 -33q-53 0 -53 42q0 15 9 44l175 545q3 7 3 14q0 14 -16 14h-6v-17q-3 -46 -46 -46q-16 0 -25.5 13.5t-9.5 31.5q0 7 5.5 18t5.5 14q0 7 -19 7
q-29 0 -51.5 -13.5t-35 -32.5t-22 -47.5t-14 -52t-9.5 -52t-9 -41.5h107l-7 -42h-106q-1 0 -31.5 -89t-62.5 -187.5t-38 -120.5q-21 -73 -45.5 -122t-51.5 -74t-53.5 -34.5t-59.5 -9.5q-28 0 -50 18t-28 48q1 47 41 47q34 0 34 -38q0 -15 -8 -34q5 -7 19 -8q64 0 104 151
l143 453h-93l7 42h94q102 271 232 271q39 0 65 -18q79 9 133 23z" />
    <glyph glyph-name="f_f_i" unicode="ffi" horiz-adv-x="881" 
d="M551 692h7q36 0 58 -18t22 -52q-1 -22 -13.5 -34t-31.5 -12q-16 0 -26 13.5t-10 31.5q0 7 6 18t6 14q0 7 -20 7q-32 -2 -59 -17t-44 -33.5t-33.5 -51.5t-25 -55.5t-21.5 -61.5q-3 -8 -4 -12h216q48 125 123.5 198t146.5 73q36 0 60 -16.5t24 -47.5q0 -25 -12.5 -38.5
t-33.5 -13.5q-16 0 -25.5 13.5t-9.5 31.5q0 7 5.5 18t5.5 14q0 7 -19 7q-33 0 -61 -17t-45.5 -40.5t-32.5 -57.5t-22.5 -58.5t-15.5 -53.5l-3 -12h133q90 8 111 12l6 -2l-116 -344q-4 -16 -4 -29q0 -11 4 -18q14 4 26 12.5t18.5 14.5t22 25t22.5 27l17 -21
q-24 -34 -43 -55.5t-49 -42t-59 -20.5q-44 0 -44 55q0 28 9 49q8 22 47.5 148t39.5 132q-7 14 -37 15h-110q-2 0 -58 -192.5t-59 -206.5q-17 -61 -38 -105.5t-40.5 -69.5t-43.5 -39.5t-42.5 -19t-40.5 -4.5h-7q-34 0 -60 18t-26 45q0 49 41 49q35 0 35 -38q0 -16 -9 -34
q5 -7 20 -8q65 0 104 151l137 454h-214q-1 0 -54.5 -177t-64.5 -216q-22 -78 -49 -129.5t-56 -75t-52.5 -31.5t-50.5 -8q-31 0 -58.5 20.5t-27.5 44.5q0 47 41 47q33 0 33 -38q0 -15 -8 -34q4 -7 19 -8q65 0 104 151l138 454h-94l7 42h94q49 127 120 195t154 68z" />
    <glyph glyph-name="f_f_l" unicode="ffl" horiz-adv-x="919" 
d="M629 621q-1 -22 -14 -34t-32 -12q-18 0 -29 13.5t-11 31.5q0 6 8 17t8 15q0 7 -19 7q-41 0 -72.5 -21t-52.5 -64t-29.5 -66t-20.5 -69q-2 -7 -3 -10h217q51 134 105.5 202.5t120.5 68.5q39 0 65 -18q79 9 133 23l7 -11l-183 -595q-6 -27 -6 -44q0 -7 4 -11q26 0 100 85
q2 1 3 2.5t2 2.5l14 -13q-57 -77 -84 -100q-38 -33 -78 -33q-53 0 -53 42q0 15 9 44l170 545l2 6t2 5.5t1 3.5q0 8 -24 13v-17q-1 -22 -13.5 -34t-32.5 -12q-16 0 -26 13.5t-10 31.5q0 7 6 18t6 14q0 7 -20 7q-35 0 -59 -17t-36 -47.5t-18.5 -59t-12 -64.5t-9.5 -51h107
l-7 -42h-106q-1 0 -53 -183t-62 -221q-20 -74 -46 -123t-56 -71.5t-56 -30.5t-59 -8q-28 0 -53.5 19.5t-25.5 44.5q0 49 41 49q35 0 35 -38q0 -16 -9 -34q5 -7 19 -8q65 0 105 151l133 453h-215q-1 0 -56.5 -183.5t-66.5 -222.5q-23 -74 -48 -122t-51.5 -70.5t-49 -30
t-52.5 -8.5q-30 0 -58 19.5t-28 44.5q0 48 41 48q34 0 34 -38q0 -16 -9 -34q5 -7 19 -8q66 0 105 152l134 453h-94l7 42h94q47 124 122 193t147 69h3q43 0 61.5 -17t18.5 -53z" />
    <glyph glyph-name=".notdef" horiz-adv-x="670" 
d="M170 0v700h500v-700h-500zM420 395l170 255h-340zM450 350l170 -255v510zM250 50h340l-170 255zM220 605v-510l170 255z" />
    <glyph glyph-name=".null" horiz-adv-x="0" 
 />
    <glyph glyph-name="nonmarkingreturn" horiz-adv-x="333" 
 />
    <glyph glyph-name="space" unicode=" " horiz-adv-x="285" 
 />
    <glyph glyph-name="exclam" unicode="!" horiz-adv-x="283" 
d="M190 65q0 -26 -22.5 -50t-50.5 -24q-41 0 -41 45q0 32 24.5 51.5t53.5 19.5q36 0 36 -42zM360 624q0 -25 -9.5 -53.5t-25.5 -63t-57.5 -129t-86.5 -206.5h-18l83 420q10 38 30 58.5t40 20.5q23 0 33.5 -11t10.5 -36z" />
    <glyph glyph-name="quotedbl" unicode="&#x22;" horiz-adv-x="363" 
d="M290 628q-2 -27 -101 -217h-21q7 63 11.5 99.5t11 68t11.5 45t14.5 23.5t18.5 12t25 2q30 0 30 -33zM469 628q-2 -33 -98 -217h-23q18 154 33 207q20 43 59 43q29 0 29 -33z" />
    <glyph glyph-name="numbersign" unicode="#" horiz-adv-x="527" 
d="M439 400h-127q-3 -8 -26 -57.5t-30 -71.5h116q3 6 19.5 37.5t31 60t16.5 31.5zM625 462l-14 -62h-105q-1 -3 -28 -63.5t-30 -65.5h93l-12 -63h-108q-28 -55 -88 -208h-71l92 208h-122q-2 0 -45 -97t-49 -111h-69l91 208h-94l15 63h98v-1l15 28q14 28 31 61t22 41h-95
l11 62h108q7 18 44.5 102t46.5 107h67l-90 -209h125l90 209h68l-91 -209h94z" />
    <glyph glyph-name="dollar" unicode="$" horiz-adv-x="481" 
d="M382 626q-73 0 -108 -29t-35 -62t26.5 -64.5t55.5 -45.5zM410 165v9q0 14 -3.5 26.5t-6.5 20.5t-13.5 20t-15 16.5t-20.5 19.5t-21 19h-6l-79 -260q82 8 122 39t43 90zM553 605l-37 -119l-19 1v13q0 47 -18.5 72.5t-55.5 42.5l-69 -219q98 -79 118 -118q27 -54 27 -106
t-33 -89.5t-82.5 -53.5t-86 -22.5t-63.5 -6.5l-6 -18q-5 -18 -11 -40t-8 -27h-39l28 87q-81 17 -146 65l31 128l20 4q4 -87 40 -128q2 -1 16.5 -11t26.5 -16t23 -9l83 287q-46 31 -87 82t-41 99q0 46 22.5 79t58.5 49.5t72 24t73 7.5l21 62h42l-20 -70q68 -16 120 -50z" />
    <glyph glyph-name="percent" unicode="%" horiz-adv-x="808" 
d="M813 254v12q0 56 -59 56q-49 0 -88.5 -38t-59 -86.5t-22.5 -93.5q0 -63 58 -63q65 0 114 69t57 144zM841 262q-2 -47 -18 -87.5t-30 -59.5t-50 -61q-24 -23 -60.5 -39t-71.5 -16q-45 0 -74 31.5t-29 98.5q0 85 73.5 164.5t154.5 79.5q58 0 81.5 -29t23.5 -82zM436 542v4
q0 11 -10 38q-16 4 -31.5 12.5t-24 14.5t-9.5 6q-48 0 -100.5 -82.5t-56.5 -152.5q0 -27 15 -42t41 -15q58 0 114.5 70t61.5 147zM360 657q19 0 34 -3t23 -7.5t13.5 -9t8 -7.5t3.5 -3v1q3 -3 6 -8v1q20 -17 65 -17q78 0 148 49q10 11 19 18h47l-428 -685h-57l380 602
q-52 -21 -94 -21q-52 0 -69 4v-2q2 -26 2 -34q-3 -64 -52 -148q-18 -33 -75 -69t-94 -36q-53 0 -83.5 38t-30.5 91q0 86 77 166t157 80z" />
    <glyph glyph-name="ampersand" unicode="&#x26;" horiz-adv-x="692" 
d="M521 567q-7 46 -43 52q-40 0 -57.5 -41t-17.5 -127v-19q37 18 65 40v-1q50 43 53 96zM415 95q-53 71 -93 238q-74 -26 -123 -75t-49 -98q0 -48 34 -81t90 -33q71 0 141 49zM572 299q0 23 -51 23v30h191l-1 -28q-33 -4 -56 -17v1q-2 -2 -7 -7.5t-15 -16t-23 -22.5l-2 -4
q-3 -4 -9.5 -13.5t-17.5 -23.5t-30.5 -39t-44.5 -55q53 -84 117 -84q27 0 70 28l11 -15q-39 -47 -64.5 -61t-76.5 -14q-79 0 -121 77v1q-85 -47 -125.5 -62.5t-86.5 -15.5q-76 0 -126 41t-50 111q0 78 55 129t213 118l-3 61q0 95 46.5 157.5t125.5 62.5h3q43 0 69 -24.5
t27 -62.5q0 -53 -39.5 -94t-139.5 -89q35 -156 76 -219q85 79 85 127z" />
    <glyph glyph-name="quotesingle" unicode="'" horiz-adv-x="185" 
d="M292 628q0 -30 -104 -217h-20q26 185 33 207q4 17 23 30t37 13q12 0 21.5 -8.5t9.5 -24.5z" />
    <glyph glyph-name="parenleft" unicode="(" horiz-adv-x="245" 
d="M387 646q-115 -106 -175.5 -262.5t-60.5 -327.5q0 -131 39 -224l-20 -12q-56 112 -71.5 173.5t-15.5 150.5q0 122 43 223t141 197q68 75 105 102z" />
    <glyph glyph-name="parenright" unicode=")" horiz-adv-x="240" 
d="M188 664q85 -164 85 -331q0 -158 -72.5 -275t-214.5 -234l-12 20q102 101 167 225.5t65 201.5v30q0 260 -43 358z" />
    <glyph glyph-name="asterisk" unicode="*" horiz-adv-x="415" 
d="M343 439q0 -35 13 -80.5t13 -54.5q0 -46 -39 -46q-35 0 -35 44q0 8 14 60t14 74q0 4 -6 4q-1 0 -1 -1q-24 -13 -47 -29q-1 -1 -7.5 -9.5t-10.5 -12.5t-11.5 -12t-13 -13t-12.5 -10t-13.5 -7.5t-12.5 -2.5q-29 4 -34 39q0 19 16 32.5t35.5 19.5t52 15.5t48.5 15.5
q-21 13 -61 24t-64.5 23t-26.5 35q0 13 10 27t21 14q21 0 48 -34q72 -68 79 -68q4 0 4 7q0 20 -9.5 71.5t-9.5 67.5q0 18 11 28.5t25 10.5q27 0 38 -26l-2 2v-4q0 -27 -12.5 -76.5t-13.5 -63.5q1 -2 3 -7t3 -7q19 12 46 38t47.5 44.5t31.5 18.5q34 0 34 -44q0 -32 -28 -43
q-103 -26 -126 -40q41 -24 97 -30q6 -2 19 -6t17.5 -6t11 -7.5t8.5 -13.5t2 -21q0 -33 -32 -38q-17 0 -63.5 43t-70.5 55z" />
    <glyph glyph-name="plus" unicode="+" horiz-adv-x="541" 
d="M586 291v-77h-218v-214h-71v214h-217v77h221v214h67v-214h218z" />
    <glyph glyph-name="comma" unicode="," horiz-adv-x="210" 
d="M172 35q-4 -86 -141 -163l-10 27q81 53 84 83q0 10 -24 28v-1q-18 21 -18 48q0 26 15 39.5t39 13.5q23 0 39 -21t16 -49v-5z" />
    <glyph glyph-name="hyphen" unicode="-" horiz-adv-x="349" 
d="M351 261l-18 -75h-226l18 75h226z" />
    <glyph glyph-name="period" unicode="." horiz-adv-x="214" 
d="M173 49q-1 -26 -19.5 -43.5t-41.5 -17.5q-16 0 -34 17.5t-18 39.5q0 27 18.5 45.5t41.5 18.5q22 0 37.5 -15.5t15.5 -39.5v-5z" />
    <glyph glyph-name="slash" unicode="/" horiz-adv-x="345" 
d="M504 661l-420 -680h-80l420 680h80z" />
    <glyph glyph-name="zero" unicode="0" horiz-adv-x="590" 
d="M537 515v12q0 49 -19.5 77t-58.5 28q-43 0 -101.5 -81t-100 -188t-41.5 -178q0 -57 20.5 -96t59.5 -39q51 0 94 43t68 101.5t44 129.5t26 117t9 74zM615 419q-2 -43 -17 -97.5t-45 -112.5t-68 -106t-91 -79t-110 -31q-76 0 -114 60t-38 143q0 108 41 210.5t119.5 176
t175.5 88.5q50 0 85 -42t48.5 -96.5t13.5 -113.5z" />
    <glyph glyph-name="one" unicode="1" horiz-adv-x="352" 
d="M422 657q0 -3 -7 -29l-189 -576q0 -24 76 -24h10v-28h-284l1 27q101 4 116 47l168 511v3q0 23 -45 23q-9 0 -26.5 -2t-22.5 -2l1 28l152 27q12 3 22 4t24 5q4 0 4 -12v-2z" />
    <glyph glyph-name="two" unicode="2" horiz-adv-x="507" 
d="M537 499q-3 -55 -59 -127q-15 -17 -84 -84.5t-100 -94.5l-118 -109h188q45 0 63 11.5t39 54.5l21 -12l-56 -138h-363v24l225 220q157 163 157 234q0 44 -34.5 76.5t-86.5 32.5q-43 0 -82 -25t-61 -69l-28 13q38 82 96.5 123.5t125.5 41.5q66 0 111.5 -45.5t45.5 -116.5
v-10z" />
    <glyph glyph-name="three" unicode="3" horiz-adv-x="471" 
d="M93 100q21 0 69 -30.5t91 -30.5q52 0 82 49.5t30 99.5v20q0 96 -82 130q-1 0 -1 2q-55 11 -97 11l2 28q34 6 64.5 14.5t79 27t77.5 49.5t29 71q0 33 -27.5 55.5t-60.5 22.5q-58 0 -115 -70l-18 10q28 52 75 82t98 30q59 0 98 -35t39 -94q-3 -55 -35.5 -83t-119.5 -64
q78 -46 78 -147q-1 -28 -8 -53t-18.5 -46t-22 -37t-27 -31t-25 -22.5t-23.5 -18.5l-15 -11q-67 -36 -154 -36q-105 8 -110 65q2 42 47 42z" />
    <glyph glyph-name="four" unicode="4" horiz-adv-x="529" 
d="M466 542l-316 -295h210zM591 671l-143 -424h94l-17 -75h-102q-5 -10 -27 -79.5t-28 -92.5h-85l58 172h-266l26 73l445 426h45z" />
    <glyph glyph-name="five" unicode="5" horiz-adv-x="480" 
d="M569 661l-30 -82h-234l-42 -76q111 -30 160 -81t49 -132q0 -127 -97 -213t-246 -86q-61 0 -76 64q0 18 14 29.5t32 13.5q27 0 55.5 -25.5t65.5 -25.5q73 0 126.5 68t53.5 143q0 42 -21 74t-52 48t-59.5 24t-50.5 8q-9 -1 -22 -1q-8 0 -16.5 0.5t-9.5 0.5v2q0 2 2.5 5.5
l7.5 10.5t9 15l118 216h263z" />
    <glyph glyph-name="six" unicode="6" horiz-adv-x="557" 
d="M465 271v17q0 46 -29.5 78t-75.5 32q-66 0 -114 -63q-34 -47 -45.5 -92t-11.5 -109q0 -102 93 -102q79 1 131 77t52 162zM305 429q41 13 88 13q73 0 118 -47t45 -119q0 -115 -81 -199t-187 -84q-88 0 -131 52.5t-43 140.5q0 93 54 186t133 158.5t170 107t166 42.5l-2 -27
q-98 -13 -182.5 -73t-147.5 -151z" />
    <glyph glyph-name="seven" unicode="7" horiz-adv-x="503" 
d="M630 646l-417 -646h-78l391 578h-220q-83 0 -134 -73l-19 15l90 141h381z" />
    <glyph glyph-name="eight" unicode="8" horiz-adv-x="545" 
d="M443 158q0 24 -9 47t-31.5 49.5t-33.5 38t-41 40.5q-70 -28 -115 -76.5t-45 -108.5q0 -49 36.5 -85t83.5 -36q48 0 92 38.5t63 92.5zM514 529v10q0 46 -29 72.5t-72 26.5q-51 0 -79 -31.5t-28 -78.5q0 -9 1.5 -17.5t6 -17.5t7.5 -15.5t11 -15t11 -13t13.5 -13.5
t12.5 -11.5t13 -12.5l12 -9l36 14q37 18 60 47.5t24 64.5zM586 529q-1 -21 -6 -38.5t-17 -31t-21.5 -23.5t-29 -19.5t-30 -14.5t-34 -14.5t-31.5 -12.5q62 -66 82 -102.5t20 -97.5q-3 -59 -40 -102t-86 -61.5t-100 -18.5q-84 0 -139 44t-55 120q0 124 156 187l47 15
q-5 6 -17.5 21.5t-16.5 21t-13.5 18.5t-13 21t-8.5 19.5t-6.5 22.5t-1.5 24q0 85 56 124.5t134 39.5q64 0 117.5 -37t53.5 -97v-8z" />
    <glyph glyph-name="nine" unicode="9" horiz-adv-x="553" 
d="M516 511v11q0 56 -26 84t-66 28q-84 0 -127.5 -62.5t-45.5 -173.5q0 -50 21.5 -84t71.5 -34q153 0 172 231zM591 451q-5 -101 -52 -185.5t-121 -140.5t-156.5 -91.5t-169.5 -51.5l2 31q103 22 193 86.5t145 160.5q-73 -35 -132 -35q-65 0 -102 44.5t-37 121.5
q0 103 80 191.5t176 88.5q78 0 126 -55.5t48 -145.5v-19z" />
    <glyph glyph-name="colon" unicode=":" horiz-adv-x="224" 
d="M160 49q-1 -28 -18 -44.5t-41 -16.5q-17 0 -35 17.5t-18 39.5q0 28 18.5 46t42.5 18q19 0 35 -16.5t16 -39.5v-4zM277 380q-1 -27 -17.5 -43.5t-41.5 -16.5q-22 0 -37.5 14t-15.5 39q0 31 16.5 49.5t43.5 18.5q52 0 52 -61z" />
    <glyph glyph-name="semicolon" unicode=";" horiz-adv-x="220" 
d="M165 35q-4 -89 -141 -163l-10 27q82 51 85 83q0 20 -4.5 24t-17.5 4q-21 20 -21 46q0 27 15.5 40.5t38.5 13.5q26 0 40.5 -19.5t14.5 -48.5v-7zM277 380q-2 -29 -18.5 -44.5t-40.5 -15.5q-22 0 -38 15t-16 40q0 30 17 48t44 18q52 0 52 -61z" />
    <glyph glyph-name="less" unicode="&#x3c;" horiz-adv-x="591" 
d="M112 291l523 227l-1 -85l-422 -180l423 -182v-85l-523 228v77z" />
    <glyph glyph-name="equal" unicode="=" horiz-adv-x="648" 
d="M635 191v-74h-506v74h506zM647 388l-2 -78h-508v78h510z" />
    <glyph glyph-name="greater" unicode="&#x3e;" horiz-adv-x="591" 
d="M635 291v-77l-524 -228v85l424 182l-422 180l-2 85z" />
    <glyph glyph-name="question" unicode="?" horiz-adv-x="390" 
d="M467 529q-2 -47 -31.5 -85.5t-110.5 -97.5l-1 -1l-1 -1h-1l-1 -1l-1 -1l-2 -2q-72 -58 -86 -78q-11 -16 -28 -63l-10 -29l-18 2q15 92 36 128q32 25 102 109.5t78 112.5q8 18 8 32q0 30 -25 51.5t-58 21.5q-29 0 -44 -6t-18.5 -12.5t-9.5 -23.5q14 -50 15 -50
q-1 -13 -3.5 -21t-10.5 -12t-12 -5t-19 -3q-16 0 -26 15t-10 38q3 48 42.5 80t103.5 32q142 0 142 -119v-11zM212 46q-1 -20 -19.5 -39.5t-37.5 -19.5q-18 0 -36.5 17.5t-18.5 41.5q1 22 20 39t38 17q20 0 37 -16.5t17 -39.5z" />
    <glyph glyph-name="at" unicode="@" horiz-adv-x="694" 
d="M561 82l11 -36q-116 -61 -202 -61q-145 0 -242.5 97t-98.5 240q4 153 105.5 251t231.5 98q73 0 138.5 -31t113 -99.5t53.5 -161.5q0 -88 -50 -163.5t-121 -75.5q-12 0 -23 2.5t-19 7t-15.5 10t-12 11t-9 11.5t-7 10.5t-4.5 7.5l-1 4q-48 -58 -111 -63q-39 0 -59.5 34
t-20.5 81q0 79 55 165t126 86q11 0 25 -7.5t23 -15.5l9 -7q18 14 19 17h69q-65 -269 -65 -273q0 -37 34 -37q51 0 86 63t35 122q0 112 -83.5 186t-182.5 74q-87 0 -148.5 -45.5t-88 -113.5t-26.5 -151q0 -121 77.5 -202t196.5 -81q66 0 182 46zM449 421q-15 36 -52 36
q-53 0 -83 -58t-30 -128q0 -36 16.5 -58t40.5 -22q35 0 64 50q1 1 22 89.5t22 90.5z" />
    <glyph glyph-name="A" unicode="A" horiz-adv-x="629" 
d="M444 267l-30 232v1q-12 -18 -71 -102t-88 -131h189zM635 29v-29h-253l1 29q35 2 53.5 8.5t22.5 13.5t4 19v10q0 11 -1 15l-17 126h-220q-23 -36 -54.5 -97t-31.5 -70q0 -25 55 -25h5v-29h-195l2 29q37 4 56 25q10 10 33 43t63 94t71 109t89 138t84 130l-11 72l102 26
l67 -561q12 -52 18 -60q12 -11 57 -16z" />
    <glyph glyph-name="B" unicode="B" horiz-adv-x="574" 
d="M470 207v15q0 18 -3 31.5t-10.5 23t-12 13.5t-17.5 12t-16 10q-28 11 -133 13v-1l-76 -247v-3q0 -33 61 -33q89 0 147 44.5t60 121.5zM543 511v8q0 52 -30.5 71.5t-82.5 19.5h-5q-54 0 -54 -22l-75 -221q135 0 189 35.5t58 108.5zM645 502q-5 -106 -160 -157
q26 -12 36 -17.5t28 -21t25 -38.5t7 -57q0 -91 -74.5 -151t-204.5 -60h-288l2 29q51 6 64 19q8 8 43 111t74.5 224t50.5 149q14 40 14 60q0 14 -16 21.5t-62 11.5v27h264q197 0 197 -139v-11z" />
    <glyph glyph-name="C" unicode="C" horiz-adv-x="630" 
d="M754 662l-47 -208l-21 3q-6 82 -41.5 121t-107.5 39q-127 0 -226.5 -113t-99.5 -288q0 -75 39.5 -126.5t128.5 -51.5q112 0 240 117l19 -18q-75 -82 -140.5 -119t-146.5 -37q-111 0 -181.5 69t-70.5 182q0 112 64 213t162.5 160t198.5 59q37 0 90 -11q64 -11 75 -11
q30 0 41 20h24z" />
    <glyph glyph-name="D" unicode="D" horiz-adv-x="700" 
d="M641 407v19q0 184 -207 184h-25q-16 0 -22 -2t-8.5 -5t-8.5 -15l-172 -515q0 -21 15 -26.5t43 -5.5q160 0 255 85v-1q49 42 88 127.5t42 154.5zM755 383q-4 -79 -35 -145t-79.5 -109t-111 -73t-126.5 -43t-129 -13h-261l2 29q54 6 64 19q36 74 110 269.5t74 261.5
q0 10 -4.5 17.5t-9.5 12t-16 8t-16.5 4.5t-19 2.5t-15.5 1.5v27h286q123 0 205 -67t82 -188v-14z" />
    <glyph glyph-name="E" unicode="E" horiz-adv-x="589" 
d="M694 652l-39 -160h-25l5 56q0 38 -38 48.5t-152 10.5q-59 0 -71 -12q-56 -138 -80 -228h78q68 4 89 19t55 74l23 -4l-84 -238l-27 5q14 42 14 60v7q0 30 -83 30h-81l-8 -22l-20 -55t-23.5 -67t-20 -63.5t-8.5 -39.5q5 -28 80 -28q116 0 173 22.5t114 81.5q5 7 19 30
l20 -11l-69 -168h-521l2 29q12 1 18.5 2t14 3t11 2.5t8.5 4.5t6.5 5t5.5 8.5t5 10.5t6 14t8 17q10 15 86 241.5t77 254.5q0 14 -15.5 22t-62.5 11v27h510z" />
    <glyph glyph-name="F" unicode="F" horiz-adv-x="556" 
d="M694 652l-40 -160h-26l-24 108q-15 7 -67 7h-104q-7 0 -17 0.5t-12 0.5q-11 0 -17.5 -4t-18.5 -19l-75 -219q124 2 148 12q18 8 37 27t28.5 33.5t9.5 17.5l21 -5l-90 -239l-21 4q10 37 10 64q0 29 -20 33q-8 2 -39 4t-62.5 3t-34.5 1q-84 -227 -84 -255q0 -21 15.5 -28
t59.5 -9v-29h-259l2 29q53 6 64 17q40 71 111.5 284t71.5 262q0 6 -3 11t-9 8.5t-11.5 6t-14.5 3.5t-14 2t-14.5 1.5t-11.5 0.5v27h511z" />
    <glyph glyph-name="G" unicode="G" horiz-adv-x="717" 
d="M791 660l-62 -206l-22 3q-12 163 -164 163q-81 0 -148 -41.5t-106 -105t-60 -132.5t-21 -131q0 -94 55.5 -136t141.5 -42q65 0 105 31v-1q37 42 55.5 82.5t21.5 62.5t3 56q0 29 -67 33q-2 0 -7 1h-6l1 27h276l-2 -27q-63 -4 -84 -23q0 -2 -16 -47.5t-36 -102.5t-27 -80
q-113 -63 -244 -63h-3q-148 0 -212.5 65.5t-64.5 198.5q0 63 33 136t88.5 136t137.5 105t171 42q52 0 88.5 -5t49.5 -11t23.5 -11t17.5 -5q36 0 63 32z" />
    <glyph glyph-name="H" unicode="H" horiz-adv-x="688" 
d="M835 652l-1 -27q-50 -10 -59 -16q-13 -9 -28 -54q-42 -110 -101.5 -293.5t-59.5 -196.5q0 -36 75 -36h2v-29h-280l1 29q64 6 84 29q6 7 45.5 116.5t50.5 144.5l-285 1q-5 -17 -26 -79.5t-38.5 -115.5t-18.5 -59q0 -37 72 -37v-29h-256l2 29q54 6 64 19q25 29 104 250
t79 293q0 6 -3 10.5t-9 8t-11.5 5.5t-15.5 4t-14.5 3t-15 2t-11.5 1v27h285l-1 -27q-71 -6 -93 -37q-10 -15 -28.5 -69t-32.5 -101l-14 -46h284q4 12 15.5 44t18 51t15 45t13 45.5t5.5 33.5q0 7 -3.5 13t-8 9t-13.5 5.5t-14 3t-15.5 2t-12.5 1.5v27h254z" />
    <glyph glyph-name="I" unicode="I" horiz-adv-x="294" 
d="M444 652l-1 -27q-64 -1 -76 -39q-29 -61 -100.5 -275t-71.5 -248v-4q0 -28 68 -30v-29h-251l2 29q48 7 59 19q32 38 79 177.5t69 220.5t38 145q0 15 -24.5 25.5t-43.5 10.5v25h253z" />
    <glyph glyph-name="J" unicode="J" horiz-adv-x="414" 
d="M565 652v-27q-21 0 -65 -23q-27 -25 -116.5 -280.5t-108.5 -279.5q-54 -61 -131 -61q-53 0 -83.5 24t-30.5 69q0 51 49 58q44 -9 44 -73v-5q0 -28 33 -28q28 0 50 40q69 154 104.5 261t69.5 265q0 14 -16.5 21.5t-62.5 11.5v27h264z" />
    <glyph glyph-name="K" unicode="K" horiz-adv-x="637" 
d="M774 652l-3 -27q-26 -4 -78 -35l-312 -219q5 -9 14.5 -24.5t12.5 -21.5q116 -211 136 -245q15 -32 28 -39.5t66 -11.5v-29h-284l1 29q1 0 27 2t39.5 6t13.5 13q0 18 -37 88.5t-73.5 132t-37.5 61.5l-86 -246q-5 -16 -5 -24q0 -10 4 -16.5t13.5 -9.5t16 -4t20.5 -2t19 -1
v-29h-257l2 29q53 6 64 17q24 39 56 126t53 158.5t47 165t27 95.5q0 14 -14.5 22.5t-63.5 11.5v27h281l-1 -27q-66 -5 -94 -42q-48 -148 -69 -200l102 60q77 46 115.5 78t90.5 87q0 11 -35 14l-27 3v27h228z" />
    <glyph glyph-name="L" unicode="L" horiz-adv-x="572" 
d="M601 184l-66 -184h-522l2 29q51 6 64 19q48 107 115 295.5t67 247.5q0 27 -78 34v27h281l-1 -27q-68 -5 -91 -37l-174 -512q0 -17 20.5 -22.5t79.5 -5.5q99 0 166 23q78 40 113 124z" />
    <glyph glyph-name="M" unicode="M" horiz-adv-x="806" 
d="M953 652l-1 -27q-56 -13 -61 -19q-2 0 -12.5 -24.5t-25.5 -66t-31.5 -89.5t-34.5 -100.5t-32 -93.5t-25.5 -74.5t-12.5 -37.5q-13 -42 -13 -57v-6q0 -15 11.5 -19.5t65.5 -8.5v-29h-283l1 29q56 5 75.5 17.5t33.5 50.5l137 429q-78 -108 -173.5 -233.5t-152.5 -200
t-68 -92.5h-19l-37 513q-143 -363 -148 -447q0 -37 69 -37v-29h-202l2 29q42 5 61 29q10 15 32.5 74t49.5 135t51 147t42 126l19 55q0 26 -73 30v27h187l34 -474l362 474h172z" />
    <glyph glyph-name="N" unicode="N" horiz-adv-x="655" 
d="M807 652l-1 -27q-50 -12 -66 -31q-9 -6 -47 -113l-168 -497h-23l-205 529q-18 -51 -43 -121.5t-41 -116t-32 -92t-24 -75t-8 -39.5q0 -9 1.5 -15.5t6.5 -10.5t8 -6.5t12 -4l12 -2t15 -1t15 -0.5v-29h-205l2 29q44 3 58 21q25 34 85.5 212.5t72.5 224.5q6 13 18 43t20 47
q-26 44 -89 48v27h169l188 -477q133 364 133 416q0 34 -68 34v27h204z" />
    <glyph glyph-name="O" unicode="O" 
d="M647 477q0 63 -31.5 103t-93.5 41q-113 -2 -197 -114q-74 -99 -101 -179t-27 -158q0 -143 108 -143q51 0 111.5 33t99.5 79q54 71 89 160.5t42 177.5zM301 -19q-93 0 -151 65.5t-58 162.5q0 151 125 291q71 76 145 120t172 44h8q107 0 159 -71.5t52 -172.5
q0 -46 -23 -104t-66 -116.5t-97.5 -107.5t-124.5 -80t-141 -31z" />
    <glyph glyph-name="P" unicode="P" horiz-adv-x="555" 
d="M549 500v9q0 57 -33 79t-98 22q-35 0 -42 -19v1q0 -1 -6 -4l-81 -239q26 -2 43 -2q209 0 217 153zM654 500q-2 -49 -23.5 -86.5t-51.5 -58.5t-70 -34.5t-73.5 -17.5t-67.5 -4q-52 0 -92 8q-8 -19 -23 -64.5t-32 -100.5t-23 -74v-6q0 -13 5.5 -19.5t11.5 -8t22.5 -2.5
t27.5 -3v-29h-253l2 29q20 2 32.5 5t20.5 5t13.5 9.5t7 10t6.5 16.5t7 20q8 16 48.5 140t76.5 240l37 116q0 13 -14.5 20.5t-57.5 13.5v27h253q91 0 150.5 -39.5t59.5 -108.5v-4z" />
    <glyph glyph-name="Q" unicode="Q" horiz-adv-x="690" 
d="M523 621q-50 0 -96.5 -25t-81 -65t-63 -89.5t-46.5 -100.5t-27.5 -96t-9.5 -77q0 -138 121 -138q51 0 103 29.5t94 81.5q46 60 86 159t44 176v9q0 64 -35 100t-89 36zM754 432q-4 -88 -42 -168.5t-97 -137.5t-132.5 -94.5t-148.5 -45.5l-33 -3q-16 -16 -48 -44
q41 -5 103.5 -23t113.5 -18q143 0 215 76l17 -14q-32 -43 -72 -75q-32 -25 -84 -44.5t-99 -19.5q-69 0 -109 7t-50 15t-31 15t-58 7q-56 0 -118 -33l-10 25q115 75 182 133q-76 22 -118.5 71.5t-42.5 142.5q0 84 38.5 167.5t100 146.5t141.5 103t159 43q93 0 158 -61.5
t65 -158.5v-12z" />
    <glyph glyph-name="R" unicode="R" horiz-adv-x="604" 
d="M544 507v9q0 94 -121 94q-31 0 -37 -2.5t-15 -19.5l-74 -219q28 -3 48 -3q191 0 199 141zM652 518l-1 -13q-6 -120 -175 -170l-28 -8q5 -58 46.5 -168t80.5 -125q7 -3 32 -5v-29h-159q-75 150 -105 317q-60 4 -60 5q-85 -242 -85 -254q0 -23 9 -28.5t48 -9.5q6 -1 9 -1
v-29h-250l1 29q65 2 87 66q31 75 93 266t69 231q-1 8 -6 13.5t-14.5 9t-17 5t-19.5 3t-15 2.5v27h252q96 -1 152.5 -36.5t56.5 -87.5q0 -2 -0.5 -5t-0.5 -5z" />
    <glyph glyph-name="S" unicode="S" horiz-adv-x="473" 
d="M577 665l-50 -208l-22 4q0 99 -29 128v-1q-33 33 -98 33q-108 0 -108 -77q0 -36 21 -72.5t51 -68.5t60 -63.5t51 -68.5t21 -73q0 -100 -63.5 -158.5t-152.5 -58.5q-41 0 -76 9.5t-55.5 19t-26.5 9.5q-12 0 -19.5 -8t-16.5 -27h-22l45 233l22 -8q-5 -20 -5 -34
q0 -62 42 -103.5t99 -41.5q55 0 96 36.5t44 85.5q0 31 -30.5 79t-67.5 88.5t-68.5 79t-32.5 51.5q-4 14 -4 31q0 91 57 137t135 46q28 0 72 -11q42 -12 60 -12q26 0 39 12q2 8 7 12h25z" />
    <glyph glyph-name="T" unicode="T" horiz-adv-x="595" 
d="M740 652l-55 -172l-23 3q8 35 8 51q0 45 -30.5 58.5t-118.5 13.5q-23 -62 -105.5 -296.5t-82.5 -242.5q0 -20 10.5 -27.5t40.5 -7.5l41 -3v-29h-299l1 29q73 6 90 29q41 53 102.5 245.5t87.5 302.5q-54 0 -80.5 -1.5t-53.5 -7t-42.5 -19.5t-31.5 -34.5t-36 -57.5l-23 4
l51 162h549z" />
    <glyph glyph-name="U" unicode="U" horiz-adv-x="665" 
d="M817 652l-1 -26q-21 -6 -36 -14t-23.5 -13.5t-17 -21t-11.5 -22.5t-12 -34t-13 -40l-97 -278q-42 -121 -109.5 -171.5t-166.5 -50.5q-76 0 -144.5 43.5t-68.5 117.5q0 55 63.5 244.5t63.5 209.5q0 15 -29 22t-49 7v27h281l-1 -27q-55 -5 -75 -22t-45 -82
q-117 -341 -117 -382q0 -52 43 -78t93 -26q99 0 170 88q112 159 166 465q0 31 -69 37v27h205z" />
    <glyph glyph-name="V" unicode="V" horiz-adv-x="627" 
d="M784 652l-1 -27q-31 -1 -61 -35l-407 -609h-23l-61 517q-16 95 -23 108q-9 10 -14.5 12.5t-15.5 3t-20 3.5v27h247l-1 -27q-81 -12 -81 -35q0 -5 0.5 -10.5t0.5 -9.5l47 -425q23 36 90 133t116.5 177t77.5 143q0 18 -65 27v27h194z" />
    <glyph glyph-name="W" unicode="W" horiz-adv-x="857" 
d="M1012 652l-1 -27q-25 -10 -36 -15t-21.5 -16.5t-14.5 -19t-19 -34.5t-31 -53l-296 -506h-23l-31 439l-188 -331q-9 -16 -29 -52.5t-30 -55.5h-23l-34 515q-14 105 -20 112q-12 12 -56 17v27h244l-1 -27q-53 -10 -66 -18t-13 -33q0 -1 1 -3v-2l28 -385l123 209l15 27
q16 28 32.5 57t17.5 31q-4 16 -4 67q-6 28 -20 39t-58 11v27h249l-1 -27q-52 -4 -65 -23q-9 -22 -9 -45q0 -9 9 -65q8 -207 16 -309l152 255q2 4 17 29t26 44.5t21.5 43.5t11.5 37q0 32 -56 32q-1 0 -4 0.5t-5 0.5v27h192z" />
    <glyph glyph-name="X" unicode="X" horiz-adv-x="633" 
d="M757 652l-1 -27q-71 -26 -121 -75l-193 -203l91 -252q16 -42 33 -51.5t70 -14.5l-1 -29h-281l1 29q14 1 32 1.5t23 1t12 3.5t9.5 8.5t4.5 17.5q0 11 -5.5 30t-13 40t-17 44t-17.5 40.5t-14 30.5l-6 13l-160 -162q-22 -24 -22 -42q0 -6 2 -10.5t7 -7t9.5 -4.5t11.5 -2.5
t12 -1t13 -0.5h11l4 -29h-227l2 29q46 8 88 43.5t139 138.5l96 102l-98 256q-24 56 -87 56v27h271l-1 -27q-3 0 -16.5 -1t-21 -2.5t-18 -4.5t-15.5 -9.5t-5 -15.5q0 -13 17 -60.5t34 -88.5l17 -41l156 156q18 18 20 38q0 6 -4.5 11t-12 7.5t-15 4.5t-17 3.5t-13.5 2.5v27
h217z" />
    <glyph glyph-name="Y" unicode="Y" horiz-adv-x="556" 
d="M712 652l-1 -27q-44 -20 -57 -34q-33 -33 -251 -288q-9 -23 -29.5 -83.5t-35.5 -109.5l-16 -49q0 -32 81 -32h9v-29h-297v29q72 7 91 28q8 10 25 55t41.5 115t26.5 75l-34 130q-34 161 -59 179q-9 5 -11 6.5t-6.5 3t-6 1.5t-8.5 1t-15 2v27h244v-27q-1 0 -9.5 -0.5
t-15.5 -1t-17.5 -2.5t-17.5 -5t-12 -8t-5 -12q0 -22 25 -117t34 -122q42 39 115.5 124.5t85.5 119.5q0 21 -70 24v27h196z" />
    <glyph glyph-name="Z" unicode="Z" horiz-adv-x="603" 
d="M343 48q113 0 165.5 25t98.5 103q0 2 -2 3l21 -4l-63 -175h-518l3 21l510 584h-168q-96 0 -141 -22.5t-78 -90.5l-22 5l54 155h497v-19l-514 -585h157z" />
    <glyph glyph-name="bracketleft" unicode="[" horiz-adv-x="266" 
d="M354 621q-10 0 -18 -2.5t-12.5 -7.5t-6.5 -8.5t-4 -8.5l-2 -6l-199 -660q-5 -10 -5 -17q0 -22 48 -22h58l-7 -39h-196l238 808h177l-8 -37h-63z" />
    <glyph glyph-name="backslash" unicode="\" horiz-adv-x="498" 
d="M498 -19h-79l-259 680h76z" />
    <glyph glyph-name="bracketright" unicode="]" horiz-adv-x="269" 
d="M385 658l-237 -808h-179l10 39h63q17 0 26 4t12 9t9 20l193 659q6 12 6 18q0 22 -47 22h-60l8 37h196z" />
    <glyph glyph-name="asciicircum" unicode="^" horiz-adv-x="478" 
d="M541 295h-73l-134 271l-159 -271h-73l207 366h61z" />
    <glyph glyph-name="underscore" unicode="_" horiz-adv-x="497" 
d="M503 -61v-60h-505v60h505z" />
    <glyph glyph-name="grave" unicode="`" horiz-adv-x="253" 
d="M358 501h-42l-133 102q-19 20 -19 38q0 16 12.5 27.5t27.5 11.5t35 -25z" />
    <glyph glyph-name="a" unicode="a" horiz-adv-x="521" 
d="M428 354q0 2 0.5 5t0.5 4q0 23 -20.5 33.5t-46.5 10.5q-45 0 -118 -81q-53 -71 -66.5 -100.5t-23.5 -90.5q-2 -11 -3 -18v-4q0 -16 1 -24.5t6 -19t16.5 -15t30.5 -4.5q45 0 87 38v-1q55 55 94.5 126t41.5 141zM533 430l-29 -87q-28 -87 -56 -179.5t-28 -109.5q0 -7 11 -7
q12 0 88 72l15 -13q-56 -62 -88.5 -89.5t-57.5 -27.5q-24 0 -34.5 14.5t-10.5 33.5q0 23 16 78q-49 -61 -95 -94t-101 -33q-46 0 -72 31t-26 77q0 66 33 132t80.5 111.5t100 73.5t91.5 28q63 0 80 -38q3 5 5 7t3 4t2 8l69 19l5 -8q-1 0 -1 -1v-2z" />
    <glyph glyph-name="b" unicode="b" horiz-adv-x="498" 
d="M199 -12q-30 0 -57 8t-42.5 15.5t-18.5 7.5q-15 0 -37 -19l22 54l188 574v6q0 5 -3.5 7.5t-18.5 4.5t-45 3l1 28l59 8q17 3 51 8t48 7l7 -9l-119 -370q57 69 93.5 94.5t95.5 25.5q46 0 78.5 -29.5t32.5 -83.5v-11q-3 -79 -60.5 -157.5t-134 -125t-140.5 -46.5zM448 305
q0 3 0.5 8t0.5 7q0 63 -60 63h-6l1 2q-67 0 -148 -112q-29 -49 -56 -120t-27 -103q0 -25 46 -25q38 0 96 46t104 113.5t49 120.5z" />
    <glyph glyph-name="c" unicode="c" horiz-adv-x="423" 
d="M482 356q-1 -22 -15.5 -35.5t-33.5 -13.5q-36 0 -39 42l18 48q0 13 -37 13q-50 0 -93.5 -30.5t-70 -73.5t-41.5 -86t-15 -73q0 -45 23.5 -74.5t69.5 -36.5q33 0 59.5 11t39.5 22t39 38l10 10l20 -15q-66 -74 -96 -91t-92 -22q-9 -1 -13 -1q-141 0 -141 141
q0 86 52.5 159.5t125 112.5t141.5 40q36 -1 63 -18.5t27 -55.5q0 -1 -0.5 -5t-0.5 -6z" />
    <glyph glyph-name="d" unicode="d" horiz-adv-x="527" 
d="M213 49q45 0 95.5 53t82.5 126.5t32 132.5q0 17 -1.5 25.5t-11 16t-28.5 7.5q-23 0 -54 -16t-45 -29q-45 -46 -85.5 -122.5t-43.5 -136.5q0 -57 59 -57zM620 692q-19 -49 -110.5 -333.5t-91.5 -295.5q0 -7 17 -12q10 2 18 6t18.5 13.5t14.5 13.5t18 19t17 18l14 -17
q-90 -118 -157 -118q-39 0 -39 52q0 22 7 59q-38 -43 -58 -61.5t-51 -33t-68 -14.5q-47 0 -75 32.5t-28 79.5q0 74 46 154t118 133.5t141 53.5h1q49 0 66 -36q15 33 45.5 121t30.5 98v1q0 24 -36 24h-22v28q96 8 157 23z" />
    <glyph glyph-name="e" unicode="e" horiz-adv-x="420" 
d="M467 369q-3 -75 -99 -132q-111 -43 -193 -56q-16 -40 -16 -66q0 -69 91 -69q57 0 154 73l13 -17q-39 -39 -63.5 -60t-51.5 -32.5t-42.5 -14t-58.5 -7.5q-59 0 -94.5 39.5t-35.5 96.5q0 52 26.5 115t69.5 106q96 96 224 96q76 0 76 -63v-9zM401 375v4q0 24 -33 29
q-48 0 -106 -66q-10 -12 -17 -21t-13.5 -18.5t-10 -15t-9 -16t-7.5 -15t-8.5 -18.5t-9.5 -21q53 14 78.5 22t57.5 21t45.5 27.5t23 36t9.5 51.5z" />
    <glyph glyph-name="f" unicode="f" horiz-adv-x="302" 
d="M521 630q-1 -22 -14 -34t-32 -12q-16 0 -25.5 13.5t-9.5 31.5q0 7 5.5 18t5.5 14q0 7 -19 7q-35 0 -59.5 -17t-38.5 -48t-21.5 -58.5t-14 -64.5t-10.5 -51h107l-7 -42h-106q-1 0 -55.5 -182t-65.5 -223q-37 -139 -81 -185.5t-121 -46.5q-30 0 -58.5 20t-28.5 43
q0 49 41 49q35 0 35 -38q0 -16 -9 -34q5 -7 19 -8q64 0 104 151l133 454h-93l7 42h94q81 271 235 271q35 0 59 -16.5t24 -47.5v-6z" />
    <glyph glyph-name="g" unicode="g" horiz-adv-x="424" 
d="M308 -124q0 24 -12 42t-33.5 29t-41.5 17.5t-45 13t-34 9.5q-2 0 -5 0.5t-5 0.5q-33 0 -60.5 -40.5t-27.5 -68.5q0 -50 37 -72.5t86 -22.5q61 0 100 26t41 66zM369 340v6q0 61 -55 61q-48 0 -89.5 -56t-41.5 -120t62 -64q91 0 124 173zM414 413q0 -2 6.5 -5t11.5 -3
q32 0 51 39l25 -42q-32 -42 -64 -51q3 -18 3 -42q0 -67 -61 -121t-134 -54q-4 0 -15 2.5t-17 2.5q-4 -2 -12.5 -7t-12.5 -8t-9.5 -7t-7.5 -8t-2 -9q0 -9 3.5 -18.5t17.5 -20.5t36 -16q138 -37 138 -134v-13q0 -72 -51 -109t-166 -39q-67 0 -116 28t-49 87q0 47 36 83
q0 17 72 56l8 4q-20 13 -20 52q0 24 26 51t62 39q-26 14 -46 46t-20 57q0 95 60.5 141.5t148.5 46.5q58 0 98 -28z" />
    <glyph glyph-name="h" unicode="h" horiz-adv-x="514" 
d="M525 108q-53 -69 -84 -92.5t-72 -25.5q-25 0 -34 8.5t-9 25.5q0 20 24 106l73 220q0 3 1 9.5t1 9.5q0 11 -26 11q-42 0 -117.5 -82t-114.5 -184q-16 -47 -36 -114h-81l204 628q0 21 -40 21q-5 0 -15.5 -1t-14.5 -1l1 26q90 8 160 26l7 -11l-138 -428q83 102 132.5 141.5
t89.5 39.5q36 0 52.5 -15t16.5 -48q0 -17 -46.5 -160.5t-49.5 -156.5q0 -11 16 -11q9 0 23 10.5t24.5 22t23.5 27t15 17.5z" />
    <glyph glyph-name="i" unicode="i" horiz-adv-x="265" 
d="M282 439l-19 -47q-4 -11 -54.5 -165t-50.5 -159q0 -11 12 -20q10 3 18.5 7.5t17.5 13.5t14.5 15t17 21t17.5 22l18 -21q-26 -36 -43.5 -56.5t-48 -41.5t-59.5 -21q-45 0 -45 57q0 8 15 68t26 89q9 21 32.5 93t23.5 78q0 10 -11 13.5t-30 4t-24 1.5l2 27q83 7 165 23z
M322 589q-2 -23 -17.5 -38.5t-35.5 -15.5q-47 0 -47 52q0 30 14.5 46.5t37.5 16.5q22 0 35 -17.5t13 -43.5z" />
    <glyph glyph-name="j" unicode="j" horiz-adv-x="224" 
d="M314 589q-2 -21 -17.5 -37.5t-35.5 -16.5q-15 0 -29.5 16.5t-14.5 38.5q0 26 13 43t35 17q49 0 49 -61zM279 439l-158 -540q-27 -79 -76 -114t-101 -35h-8q-33 0 -55.5 16.5t-22.5 43.5q0 19 13.5 34.5t32.5 18.5q41 0 41 -39q0 -30 -9 -39q2 -2 12 -2q30 0 71.5 86.5
t74 194.5t55.5 198t23 102q0 27 -31 27q-2 0 -9.5 -0.5t-13.5 -0.5q-13 0 -20 1l1 27q53 2 173 23z" />
    <glyph glyph-name="k" unicode="k" horiz-adv-x="472" 
d="M369 -13q-18 0 -34.5 10.5t-28 25t-25 43t-21.5 49t-22 58.5q-7 20 -11 30q-13 -3 -40 -27q-17 -47 -57 -176h-80l205 627q-2 21 -71 21l1 26q90 8 161 26l7 -9l-147 -456q71 49 117.5 88t58 52t11.5 16q0 12 -45 12h-9v26h187l-1 -26q-36 -3 -119 -57.5t-115 -88.5
q19 -81 50.5 -143t57.5 -62q10 0 20.5 9t16.5 18t14.5 24.5t9.5 17.5l19 -17q-31 -58 -57.5 -87.5t-52.5 -29.5z" />
    <glyph glyph-name="l" unicode="l" horiz-adv-x="265" 
d="M347 689l-200 -634q0 -11 15 -11q4 0 9.5 2t11.5 6t11 8t13 11.5t12.5 11.5t12.5 13.5t11.5 13t12 13.5t9.5 11l13 -13q-30 -41 -48.5 -62.5t-50 -44.5t-63.5 -26q-52 9 -52 50q0 15 8 36l173 540l2 6t2 5.5t1 3.5q0 19 -68 19v26q88 9 157 26z" />
    <glyph glyph-name="m" unicode="m" horiz-adv-x="757" 
d="M58 0l28 86q29 86 58.5 178t32.5 104q0 17 -50 17h-15l1 27q76 12 166 29l6 -2l-59 -177q129 168 221 179q30 0 42.5 -13t12.5 -41q0 -43 -24 -112q39 51 64.5 80.5t67 57.5t79.5 28q58 0 58 -65q0 -20 -4 -32l-82 -245q-2 -7 -7 -18t-7.5 -17.5t-2.5 -10.5q0 -5 10 -5
q27 0 96 80l17 -17l-6 -13q-85 -107 -151 -107q-41 0 -41 44q0 17 17 74l78 254q0 9 -16 15h-3q3 0 3 1q-34 0 -72.5 -33t-70 -83t-50 -84.5t-30.5 -60.5q-18 -45 -35 -118h-83q2 15 4 17l111 343q0 19 -16 19q-37 0 -76.5 -31.5t-70 -78.5t-52.5 -91t-34 -79
q-12 -41 -33 -99h-82z" />
    <glyph glyph-name="n" unicode="n" horiz-adv-x="529" 
d="M412 380q-64 0 -142.5 -117.5t-124.5 -262.5h-81l110 350q0 3 5 8t5 7q0 7 -4.5 11t-13.5 5.5t-15.5 2.5t-17.5 1h-14l1 27q45 7 85.5 14.5t59.5 11.5t21 4q4 0 6 -2v-1h1l-63 -181q34 46 50 66.5t48.5 54t63 48t63.5 14.5q35 0 48.5 -14t13.5 -41q0 -20 -10 -70
l-60 -195q-26 -63 -26 -67q0 -6 10 -6q26 0 94 79l16 -20q-59 -71 -87 -93.5t-58 -22.5q-21 0 -35 14.5t-14 44.5q2 27 17 75l54 160l3 9q3 8 5.5 17.5t5 22t2.5 21.5q0 25 -22 25z" />
    <glyph glyph-name="o" unicode="o" horiz-adv-x="496" 
d="M373 410q-41 0 -82.5 -36t-70.5 -86t-47.5 -101t-18.5 -84q0 -31 18.5 -56t54.5 -25q29 0 65.5 24t56.5 47q32 46 61.5 113t32.5 116q0 88 -70 88zM526 301q-5 -116 -103.5 -214.5t-207.5 -98.5q-73 0 -108.5 36t-35.5 99q0 68 42.5 141.5t117.5 125t156 51.5
q59 0 99 -36.5t40 -93.5v-10z" />
    <glyph glyph-name="p" unicode="p" horiz-adv-x="504" 
d="M538 313q-6 -116 -110.5 -220.5t-206.5 -104.5q-26 0 -68 15q-63 -183 -63 -205q0 -23 54 -23h11v-25h-207l1 27q12 1 20.5 3t16 8.5t10.5 9.5t11 16t11 17l168 545q0 19 -47 19h-19v26l159 20l4 -21l-22 -68q30 33 82.5 61.5t99.5 28.5q38 0 66.5 -28.5t28.5 -88.5v-12z
M446 309q0 79 -61 79q-77 0 -139 -108q-22 -50 -41 -104t-27.5 -85.5t-8.5 -39.5q0 -31 47 -31q76 0 139 81t88 180z" />
    <glyph glyph-name="q" unicode="q" horiz-adv-x="487" 
d="M435 354q0 22 -16 38.5t-41 16.5q-48 0 -102 -59t-86.5 -125.5t-34.5 -102.5q0 -67 50 -67q36 0 80 29q50 43 99 128t51 142zM548 427l-214 -620q-2 -6 -2 -8q0 -23 51 -23q7 0 23 2v-28h-251l6 26q69 6 80 19q48 94 120 327q-49 -63 -96 -98.5t-103 -35.5q-48 0 -73 32
t-25 80q0 117 101 220t207 121q60 0 81 -49q15 18 15 35h80z" />
    <glyph glyph-name="r" unicode="r" horiz-adv-x="382" 
d="M459 385q-6 -49 -48 -54q-21 0 -35 17.5t-17 17.5q-35 0 -106.5 -131.5t-92.5 -199.5l-10 -35h-82l97 295q21 57 21 75q0 23 -36 23q-15 -5 -36 -5l2 28l44 6q16 2 55 9t62 10l7 -2l-44 -147q106 149 177 149q42 0 42 -51v-5z" />
    <glyph glyph-name="s" unicode="s" horiz-adv-x="369" 
d="M282 441q21 0 51.5 -7.5t41.5 -7.5q16 0 31 16h16l-26 -145h-22q-10 111 -85 111q-12 0 -35.5 -15.5t-23.5 -35.5q0 -17 17.5 -46.5t38 -57.5t38 -63.5t17.5 -63.5q0 -57 -41 -97.5t-107 -40.5q0 1 -51.5 10t-58.5 10q-10 0 -23 -22h-17l27 168h20q9 -66 36.5 -99
t64.5 -33q72 0 72 67q0 35 -54.5 115.5t-54.5 119.5q0 61 37.5 89t90.5 28z" />
    <glyph glyph-name="t" unicode="t" horiz-adv-x="283" 
d="M270 387q-29 -81 -69 -202.5t-40 -126.5q0 -4 16 -8q35 16 83 79l24 -13q-64 -78 -95 -103t-65 -25q-48 0 -48 44q0 6 9 55q11 31 30 82t33.5 91.5t26.5 81.5q4 24 13 45h-71q-3 7 -3 10q0 13 5 19.5t10 8t17 2.5q20 1 45 19t42.5 35t50.5 53l26 11q1 -4 1 -15
q0 -1 -0.5 -3.5t-0.5 -4.5l-28 -93h78l-7 -42h-83z" />
    <glyph glyph-name="u" unicode="u" horiz-adv-x="514" 
d="M530 436l-96 -303q-23 -65 -23 -72q-2 -6 -2 -14q0 -7 10 -7q11 0 39.5 30t48.5 59l19 -15q-68 -87 -92 -106.5t-55 -19.5q-20 0 -34 15t-14 42q0 30 35 149q-74 -106 -114 -145q-63 -61 -121 -61q-51 0 -51 58q0 38 33 126l56 200v2q0 17 -56 17l1 25q70 7 153 25l7 -2
l-105 -361q0 -7 3.5 -15.5t6.5 -9.5q43 0 124.5 108t146.5 275h80z" />
    <glyph glyph-name="v" unicode="v" horiz-adv-x="457" 
d="M513 418q-3 -70 -36.5 -141.5t-83.5 -128.5t-88.5 -92.5t-75.5 -63.5q-11 -11 -19 -11q-9 0 -9 32q0 23 2.5 59.5t2.5 52.5q0 63 -13 151t-34 111v-1q-26 10 -35 10q-3 0 -23 -2l2 24q108 17 118 19q4 4 18 4q6 0 8 -8l14 -99q18 -98 18 -250q79 59 125.5 146t46.5 165
q-38 9 -38 45q0 18 10 32t26 14q7 0 20 -5t28.5 -22t15.5 -41z" />
    <glyph glyph-name="w" unicode="w" horiz-adv-x="671" 
d="M98 419l67 10q67 10 67 12q5 -2 8 -14l7 -60q17 -105 19 -219q36 50 93 137t84 121t42 34q5 0 7 -18q2 -51 10 -166t11 -167q31 36 61 79t45.5 70.5t34.5 63.5t21 39q9 20 9 30q-25 0 -40.5 16.5t-15.5 39.5q0 20 12 35t36 19q27 0 45 -15t18 -41q-2 -52 -63.5 -159.5
t-167.5 -226.5l-62 -58q-6 0 -9 35l-17 292q-21 -34 -60.5 -90.5t-64.5 -93.5t-25 -43q0 -1 2 -1q-62 -99 -74 -99t-13 31l1 151q0 222 -42 232h-48z" />
    <glyph glyph-name="x" unicode="x" horiz-adv-x="475" 
d="M526 401q-3 -44 -36 -44q-19 0 -34.5 9t-18.5 9q-10 0 -38 -33.5t-60 -81.5l-2 5q0 -27 17.5 -118.5t38.5 -91.5q8 0 16.5 4t14.5 8t13.5 13.5t11 14t10.5 15.5t8 12l15 -13q-47 -67 -75.5 -94t-54.5 -27q-32 0 -48 38l-36 138q-33 -41 -95 -103q-7 -7 -20 -22t-19 -21.5
t-17 -15t-21.5 -11.5t-24.5 -3q-19 0 -31 13t-12 36q0 16 10.5 27t24.5 11q21 0 36.5 -8.5t23.5 -8.5q11 0 33 24t57.5 69.5t49.5 62.5l-33 146q-17 28 -49 28q-6 0 -44 -4l-2 23l134 34h3q12 0 20 -7.5t13 -22.5t8.5 -29.5t7.5 -36t8 -34.5q56 75 90.5 102.5t69.5 27.5
q37 0 37 -40z" />
    <glyph glyph-name="y" unicode="y" horiz-adv-x="471" 
d="M523 382q-4 -69 -94.5 -222t-205 -281t-175.5 -128q-36 0 -48 47q3 43 33 43q16 0 42.5 -13.5t33.5 -13.5q21 0 95 84.5t76 115.5q0 32 -32 181t-61 186q-12 14 -50 14q-15 0 -31 -7l3 31q124 17 143 22q21 0 48 -107.5t30 -146.5l16 -97q131 194 131 238q0 12 -32 33.5
t-32 32.5q0 38 34 44q4 1 23 3q30 -9 41.5 -20.5t11.5 -38.5z" />
    <glyph glyph-name="z" unicode="z" horiz-adv-x="410" 
d="M444 440l-2 -16l-305 -346q22 -13 74 -60t108 -67q13 0 24 6.5t11 12.5q-2 -1 -4 -1q-4 0 -9.5 10.5t-5.5 23.5q0 11 12 25.5t27 14.5q34 0 34 -42q0 -32 -30 -55t-68 -23t-118 41t-99 41q-23 0 -46 -21l-8 18l323 366h-143q-8 1 -20 1q-24 0 -34.5 -7.5t-16.5 -24.5
t-12 -24l-20 5l39 122h289z" />
    <glyph glyph-name="braceleft" unicode="{" horiz-adv-x="270" 
d="M445 680l-7 -21q-24 -7 -40 -14.5t-30 -21.5t-21.5 -24t-17.5 -36t-15.5 -43.5t-18.5 -60.5t-23 -74q0 -33 -33.5 -75t-75.5 -57q38 -23 38 -59q0 -18 -52 -189q-29 -90 -29 -96q0 -16 16.5 -37.5t34.5 -23.5l-4 -21q-44 2 -66 6.5t-38.5 21t-16.5 48.5v7q0 21 39.5 149
t39.5 139q0 8 -2.5 15.5t-5.5 12t-10.5 9.5t-11 7t-14.5 7.5l-15 7.5q62 15 84 35.5t39 74.5l54 177q26 80 68 108t134 28z" />
    <glyph glyph-name="bar" unicode="|" horiz-adv-x="224" 
d="M210 661v-680h-36v680h36z" />
    <glyph glyph-name="braceright" unicode="}" horiz-adv-x="264" 
d="M193 312q0 24 40.5 150t40.5 137q0 21 -16 41t-39 20l8 20q102 -2 116 -44q9 -12 9 -27v-10q-2 -32 -42.5 -150t-40.5 -144q0 -5 1 -9t1.5 -7t3 -6t3.5 -4.5t5 -4t5.5 -3.5t7 -3t6.5 -2.5t8 -2.5t9 -3v-11q-61 -16 -85 -49q-12 -24 -27 -66t-32.5 -96t-23.5 -72
q-25 -80 -66.5 -109.5t-131.5 -29.5l5 22q57 16 87 58q14 24 41.5 104t37.5 120q19 57 40.5 79.5t67.5 44.5q-39 24 -39 57z" />
    <glyph glyph-name="asciitilde" unicode="~" horiz-adv-x="526" 
d="M555 273q-48 -65 -64 -76t-68 -16q-46 0 -118 34q-74 33 -86 33q-20 0 -38 -12t-45 -41l-55 37q39 50 67.5 70t63.5 20q42 0 110 -33q66 -34 85 -34q23 0 40.5 7t24 13t15.5 19t11 15z" />
    <glyph glyph-name="uni00A0" unicode="&#xa0;" horiz-adv-x="285" 
 />
    <glyph glyph-name="exclamdown" unicode="&#xa1;" horiz-adv-x="286" 
d="M243 286q-62 -211 -95 -365q-24 -120 -74 -120q-39 0 -39 47q0 29 16.5 68.5t69 149.5t101.5 224zM326 415q-1 -26 -18 -42t-39 -16q-21 0 -35 17t-14 39q0 20 17.5 40t39.5 20q18 0 34 -13.5t16 -36.5q0 -1 -0.5 -3.5t-0.5 -4.5z" />
    <glyph glyph-name="cent" unicode="&#xa2;" horiz-adv-x="403" 
d="M327 404q-7 -2 -20.5 -9t-41.5 -28.5t-51 -50t-40.5 -77.5t-17.5 -106q0 -51 25 -78zM471 356q-3 -22 -16 -35.5t-32 -13.5q-31 0 -31 42q0 23 9 48q0 12 -34 13q-8 -26 -154 -373q15 -3 30 -3q9 0 17.5 1.5t15.5 3t15.5 6t14 7t14.5 9t13 9t14 11t13 11.5t13.5 12.5
t12.5 11.5l18 -14q-62 -74 -95 -91t-99 -22q-10 -1 -16 -1q-10 -19 -27.5 -66.5t-23.5 -61.5h-38l51 135q-32 12 -49 22.5t-31 38t-14 70.5q0 2 0.5 8t0.5 9q1 14 7.5 40.5t25.5 68.5t47.5 79t79 68t112.5 40q5 0 24.5 42.5t31.5 74.5h34l-46 -116q92 -12 92 -78v-6z" />
    <glyph glyph-name="sterling" unicode="&#xa3;" horiz-adv-x="476" 
d="M571 585q-15 -37 -37 -37q-14 0 -25.5 12t-14.5 23v1q-12 38 -35 42q-28 0 -53 -29.5t-35 -59.5q-27 -84 -46 -174h125l-10 -54h-128q-19 -57 -29.5 -86t-15 -39t-17 -32.5t-22.5 -41.5q97 -35 158 -35q11 0 46.5 13t45.5 24l14 -15q-59 -99 -154 -103q-13 0 -25 1.5
l-20 2.5t-18.5 5.5t-15 6t-15.5 9.5t-13.5 9.5t-16 12.5t-16.5 13q-55 -60 -101 -60q-63 0 -63 59q0 36 25 58.5t74 22.5q32 0 56 -6q1 11 13.5 90.5t14.5 90.5h-108l9 54h112q7 20 17 51t13.5 41t10.5 29.5t11.5 27t12.5 22t17 26t22 28.5q57 76 148 76q39 0 64 -17t25 -53
v-9zM171 71l-57 24q-56 0 -56 -33v-1q-1 0 -1 -2q0 -12 12.5 -21t28.5 -9q33 0 48.5 9.5t24.5 32.5z" />
    <glyph glyph-name="currency" unicode="&#xa4;" horiz-adv-x="553" 
d="M530 111l-42 -53l-87 95q-61 -40 -119 -40q-57 0 -122 39q-52 -65 -82 -95l-53 55l91 92q-38 65 -38 127q0 61 37 117l-90 99l49 52l87 -93q64 39 126 39q58 0 110 -38l91 91l42 -52l-85 -97q35 -62 35 -121q0 -61 -37 -123q74 -77 87 -94zM279 468q-59 0 -97.5 -44
t-38.5 -102q0 -46 38.5 -91t96.5 -45q55 0 97.5 41.5t42.5 100.5q0 56 -42 98t-97 42z" />
    <glyph glyph-name="yen" unicode="&#xa5;" horiz-adv-x="564" 
d="M407 305q-5 -3 -5 -4q-8 -30 -24 -74h182l-16 -49h-182q-39 -96 -39 -116q0 -30 91 -33v-29h-294l8 29q28 2 48.5 9t32.5 14t22.5 24.5t14.5 27t12 36.5t12 38h-167l17 49h167q6 19 9.5 29t6 17.5t8.5 28.5l-1 1q-1 1 -1 2h-165l15 50h140q-59 239 -77 252q-12 9 -61 15
l1 27h246l-1 -27q-68 -6 -71 -11q-10 -8 -10 -20l61 -239l31 27q170 182 170 217q0 22 -69 26l1 27h195l-2 -27q-38 -15 -61 -37l-205 -230h151l-16 -50h-175z" />
    <glyph glyph-name="brokenbar" unicode="&#xa6;" horiz-adv-x="193" 
d="M220 391h-71v280h71v-280zM220 -15h-71v282h71v-282z" />
    <glyph glyph-name="section" unicode="&#xa7;" horiz-adv-x="414" 
d="M382 192q0 8 -1.5 15.5t-5.5 17.5t-6 16t-9 17.5t-9.5 15.5t-11.5 18t-10 16q-12 15 -55 45t-74 30q-46 0 -46 -65q0 -52 53 -120q24 -25 58 -48t62 -23q47 0 55 65zM484 556q-1 -20 -4.5 -31t-12.5 -16t-14.5 -6t-22.5 -3l-4 2q-5 2 -12 6t-14 8.5t-11.5 11.5t-4.5 15
q0 24 9.5 36t19 16.5t9.5 8.5q0 11 -18.5 18t-41.5 7q-78 0 -96 -76q0 -37 22 -67l116 -146q37 -47 37 -104q0 -62 -33 -100.5t-98 -38.5q-13 0 -17 1q47 -67 47 -117q-2 -54 -44 -95t-110 -45h-13q-59 0 -94 28t-35 77q0 68 57 68q45 -7 48 -49q-2 -30 -46 -60
q0 -4 1.5 -7.5t4 -6t5.5 -4.5t8 -4t9 -3t10.5 -2t10 -1.5l10.5 -1.5t10 -1q49 0 79 26t30 64q0 8 -2.5 16.5t-4.5 14t-8.5 14.5t-9.5 13t-11.5 14t-10.5 13l-72 84q-66 81 -66 145q0 51 33.5 92t83.5 41q21 0 43 -6q-30 38 -41 60.5t-11 55.5q0 72 44.5 106t109.5 34
q82 0 115 -51z" />
    <glyph glyph-name="dieresis" unicode="&#xa8;" horiz-adv-x="376" 
d="M267 599q-3 -54 -50 -54q-23 0 -36.5 15.5t-13.5 39.5q0 23 16.5 37t38.5 14q19 0 32 -15t13 -37zM469 599q-3 -54 -51 -54q-20 0 -35 16.5t-15 38.5t17 36.5t38 14.5q13 0 29.5 -13.5t16.5 -33.5v-5z" />
    <glyph glyph-name="copyright" unicode="&#xa9;" horiz-adv-x="709" 
d="M516 252l-22 -82q-3 -12 -38.5 -29t-71.5 -17q-91 0 -156 56t-65 148q0 52 19 92.5t50.5 64t68 35.5t76.5 12q5 0 13 -1t28.5 -4t36 -7.5t28.5 -13t13 -19.5v-74h-19q-15 87 -103 87q-71 0 -103.5 -47.5t-32.5 -118.5q0 -83 38 -123.5t99 -40.5q49 0 74.5 20t43.5 62h23z
M628 328q0 81 -23.5 140t-64 90.5t-86.5 46t-99 14.5q-73 0 -130.5 -28t-90 -72t-49 -92t-16.5 -95q0 -65 21.5 -118t53 -84.5t71.5 -53t73 -29.5t60 -8q116 0 198 85.5t82 203.5zM682 326q0 -148 -101.5 -243.5t-232.5 -97.5q-86 0 -160.5 41t-122.5 120t-51 180
q2 90 33 159t81.5 108t107 58.5t116.5 19.5h2q88 0 153.5 -29t102 -79t54 -109t18.5 -128z" />
    <glyph glyph-name="ordfeminine" unicode="&#xaa;" horiz-adv-x="391" 
d="M395 610v13q0 12 -3.5 16t-12.5 4q-39 0 -92 -62t-53 -108q0 -33 25 -33q18 0 45 21t35 32q56 70 56 117zM487 670q-72 -207 -72 -226h3q4 0 12.5 7.5t19.5 18.5t15 14l6 -19q-54 -70 -87 -70q-37 0 -38 33q0 14 2 24q-32 -30 -55.5 -43t-57.5 -13q-76 0 -76 73
q3 75 68 138v-1q68 65 133 65q43 0 55 -21q1 3 1.5 6t1 4.5t3 3.5t7.5 4z" />
    <glyph glyph-name="guillemotleft" unicode="&#xab;" horiz-adv-x="416" 
d="M315 392q0 -12 -38.5 -52t-83.5 -82l-45 -41q2 -19 38 -89.5t36 -76.5q0 -14 -8 -14q-5 0 -40 44t-68 88l-33 44v14l134 101q93 78 102 78q6 0 6 -12v-2zM479 392q-1 -13 -100 -115q-6 -4 -17 -13.5t-27.5 -24.5t-24.5 -22q6 -19 42 -82t36 -82q0 -16 -10 -16
q-7 0 -42.5 44t-67.5 88l-32 44v14l135 101q7 6 31.5 25t46.5 36l22 17q8 0 8 -12v-2z" />
    <glyph glyph-name="logicalnot" unicode="&#xac;" horiz-adv-x="622" 
d="M611 388v-283h-58v205h-439v78h497z" />
    <glyph glyph-name="uni00AD" unicode="&#xad;" horiz-adv-x="349" 
d="M351 261l-18 -75h-226l18 75h226z" />
    <glyph glyph-name="registered" unicode="&#xae;" horiz-adv-x="709" 
d="M459 242q41 -53 70 -76v-17h-63q-13 0 -54.5 56t-66.5 102h-42v-92v-15t1.5 -10.5t2 -6.5t6 -3t8 -2t12.5 -1t17 -2v-26h-160v26q36 3 42.5 6t6.5 21v247q0 13 -1 19.5t-2 11.5t-5.5 6.5t-8 2t-14 1.5t-18.5 2v27h174q50 0 80.5 -25t30.5 -71q0 -72 -71 -106
q50 -62 55 -75zM412 397v21q0 70 -71 70h-38v-152h42q47 0 67 61zM513 560q-78 59 -165 59q-119 -3 -191.5 -80t-87.5 -213q3 -64 25 -116.5t52.5 -83.5t67.5 -52t66.5 -29t51.5 -8q117 0 206 82t90 203q-1 75 -24.5 130.5t-90.5 107.5zM682 321q0 -98 -50 -177t-125.5 -119
t-158.5 -40q-86 0 -160.5 41t-122.5 120t-51 180q0 149 100.5 245t233.5 100q134 0 234 -101.5t100 -248.5z" />
    <glyph glyph-name="macron" unicode="&#xaf;" horiz-adv-x="435" 
d="M515 579l-15 -59h-309l14 59h310z" />
    <glyph glyph-name="degree" unicode="&#xb0;" horiz-adv-x="382" 
d="M422 527q0 40 -30.5 70t-67.5 30q-44 0 -77 -33.5t-33 -72.5q0 -42 29 -68.5t70 -26.5q44 0 76.5 30t32.5 71zM465 527q-4 -67 -50 -107t-105 -40q-62 0 -99.5 41t-37.5 102q0 66 48 107t105 41t98 -39.5t41 -96.5v-8z" />
    <glyph glyph-name="plusminus" unicode="&#xb1;" horiz-adv-x="593" 
d="M590 75v-75h-508v75h508zM592 350l-1 -75h-218v-156h-60v156h-229v75h232v213h57v-213h219z" />
    <glyph glyph-name="uni00B2" unicode="&#xb2;" horiz-adv-x="327" 
d="M413 565q-1 -24 -29 -56.5t-99.5 -96t-95.5 -86.5h109q31 0 40 5.5t26 29.5l14 -12l-36 -85h-238l3 27l139 130q96 85 96 129q0 25 -22 42t-58 17q-34 0 -58.5 -14.5t-24.5 -42.5l-18 15q43 104 145 104q107 0 107 -93v-13z" />
    <glyph glyph-name="uni00B3" unicode="&#xb3;" horiz-adv-x="310" 
d="M408 590q-1 -14 -4.5 -23.5t-14.5 -18.5t-17.5 -13t-27.5 -14.5l-31 -15.5q16 -8 24 -14.5t15 -22t7 -40.5q0 -76 -57 -121.5t-137 -45.5q-36 0 -53.5 12t-17.5 29q0 14 9 25t22 11q8 0 40 -16.5t40 -16.5q37 0 62.5 25.5t25.5 63.5q0 50 -45 73q0 1 -11.5 3t-27 4
t-24.5 2v22q152 25 152 89q0 41 -44 41q-33 0 -77 -39l-13 13q16 30 47.5 49.5t64.5 19.5q42 0 67.5 -21.5t25.5 -59.5z" />
    <glyph glyph-name="acute" unicode="&#xb4;" horiz-adv-x="277" 
d="M395 639q0 -22 -18 -34l-179 -102h-44l183 171q8 7 17 7q14 0 26.5 -14t14.5 -28z" />
    <glyph glyph-name="uni00B5" unicode="&#xb5;" horiz-adv-x="544" 
d="M569 429l-107 -367q0 -21 25 -21q19 0 69 36l-13 -27q-53 -45 -64 -51t-48 -10q-34 0 -45.5 11.5t-11.5 35.5q0 4 -0.5 14t-0.5 15q-86 -76 -154 -76q-71 0 -98 59l-6 -67q0 -184 -79 -184q-32 0 -32 39q0 48 42 124l1 1q1 1 1 2q19 50 34 97l101 371v-2h100l-88 -311
q0 -28 18.5 -45t46.5 -17q60 0 126 64l87 309h96z" />
    <glyph glyph-name="paragraph" unicode="&#xb6;" horiz-adv-x="514" 
d="M377 617q-57 -5 -98 -45q-26 -25 -51 -79t-25 -89q0 -48 35 -80v1q17 -15 41 -16zM670 649l-8 -32q-70 -5 -89 -24q-4 -4 -58.5 -169t-106.5 -328l-53 -163q0 -8 18.5 -13t36.5 -6l19 -1l-6 -33h-156l236 737h-51l-236 -737h-157l8 33q66 5 72 8q3 3 20 21
q30 65 66.5 188.5t44.5 145.5q-144 10 -144 112q0 52 13.5 94.5t33 69t48.5 46t54 29t54.5 15t45 6.5t31.5 1h264z" />
    <glyph glyph-name="periodcentered" unicode="&#xb7;" horiz-adv-x="196" 
d="M151 253q0 -27 -16.5 -43.5t-38.5 -16.5q-20 0 -34.5 17t-14.5 43q0 29 14 44t36 15q23 0 38.5 -16t15.5 -43z" />
    <glyph glyph-name="cedilla" unicode="&#xb8;" horiz-adv-x="273" 
d="M199 -122q-2 -38 -35.5 -63.5t-85.5 -25.5q-51 0 -97 24l19 38q45 -17 68 -17q80 7 80 34q0 13 -21.5 25t-46.5 12q-17 0 -33 -8l-13 15l68 100h46l-44 -63h7q44 0 66 -14t22 -48v-9z" />
    <glyph glyph-name="uni00B9" unicode="&#xb9;" horiz-adv-x="230" 
d="M142 309q0 4 55.5 151.5t56.5 147.5q0 14 -31 14q-6 0 -15 -1t-11 -1l2 30q98 17 131 21h5q4 0 5 -10q-2 -16 -3 -18q-14 -33 -44.5 -118.5t-54 -152.5t-24.5 -67q0 -13 49 -13v-28h-188l2 28q54 8 65 17z" />
    <glyph glyph-name="ordmasculine" unicode="&#xba;" horiz-adv-x="369" 
d="M391 597v12q0 37 -26 37q-21 0 -53 -29.5t-48 -55.5q-28 -62 -28 -95q0 -35 34 -35q28 0 48 18v-1q28 24 50.5 68.5t22.5 80.5zM466 583q-3 -77 -71.5 -132t-139.5 -55q-40 0 -67 21t-27 59q0 68 65 131.5t147 63.5q40 0 66.5 -22.5t26.5 -60.5v-5z" />
    <glyph glyph-name="guillemotright" unicode="&#xbb;" horiz-adv-x="413" 
d="M450 212q-7 -6 -70 -53t-113.5 -84.5t-51.5 -37.5q-7 0 -7 13q0 14 163 177q-4 10 -23.5 45.5t-33 67t-13.5 53.5q1 13 7 13q5 0 22 -22t38.5 -51.5t30.5 -38.5q13 -19 29.5 -40.5t18.5 -24.5zM288 212q-35 -24 -93.5 -69.5t-97.5 -75.5t-45 -30t-6 13q1 8 14.5 25.5
t36.5 40.5t42 41t43 40t28 25q0 1 -7 11t-12.5 19t-14 23.5t-15 28.5t-12.5 29.5t-9.5 31t-3.5 28.5q1 13 8 13q4 0 9 -3t10.5 -9t10 -12.5t11 -16t10.5 -16t10 -17.5t9 -15l74 -91v-14z" />
    <glyph glyph-name="onequarter" unicode="&#xbc;" horiz-adv-x="737" 
d="M694 310l-181 -155h119q13 29 24 56.5t21.5 56t16.5 42.5zM796 408l-91 -253h52l-11 -54h-59q-1 -3 -17.5 -51t-16.5 -50h-70l38 102h-171l19 50l285 256h42zM336 660q0 -11 -3 -17q-122 -323 -122 -337t51 -14l-1 -28h-189l2 28q57 7 68 18l104 280l8 22q0 6 -10 7
t-46 1l1 30l130 21q7 0 7 -9v-2zM724 671l-498 -682h-60l498 682h60z" />
    <glyph glyph-name="onehalf" unicode="&#xbd;" horiz-adv-x="762" 
d="M337 660q0 -5 -26 -71t-58 -152t-42 -131v-1q0 -13 50 -13l-1 -28h-188l2 28q51 6 58 8t12 14l102 276q6 14 6 20q0 10 -42 10h-13l2 30q123 20 128 20l3 1q7 0 7 -9v-2zM708 671l-497 -682h-59l498 682h58zM801 317q0 -7 -0.5 -13t-1.5 -11t-3 -10t-3 -8.5t-4 -8
t-4.5 -7t-5 -7t-5 -6t-6 -6.5t-5.5 -6q-37 -39 -95.5 -90.5t-87.5 -79.5h105q36 0 42.5 3.5t21.5 30.5l15 -14l-36 -84h-237v28l141 127q105 98 105 149q0 42 -80 42q-26 0 -46.5 -13t-48.5 -39l-15 11q54 103 146 103q52 0 80 -28t28 -63z" />
    <glyph glyph-name="threequarters" unicode="&#xbe;" horiz-adv-x="747" 
d="M643 155q0 1 13 36.5t27 74t17 43.5l-177 -154h120zM807 408l-92 -253h51l-11 -54h-55q-21 -50 -37 -101h-70l37 102h-170l19 50l285 256h43zM390 590q-1 -19 -14.5 -35.5t-25 -23.5t-33.5 -17t-23 -10q19 -10 34 -31t15 -48q0 -72 -56.5 -118t-137.5 -46
q-36 0 -53.5 12.5t-17.5 29.5q0 14 9 24.5t21 10.5q9 0 40.5 -16.5t39.5 -16.5q44 0 66.5 26.5t22.5 63.5q0 81 -111 81l1 22q152 25 152 89q0 41 -46 41q-33 0 -74 -39l-14 13q16 28 48 48.5t64 20.5q39 0 66 -20.5t27 -56.5v-4zM734 671l-498 -682h-60l499 682h59z" />
    <glyph glyph-name="questiondown" unicode="&#xbf;" horiz-adv-x="402" 
d="M331 288q-21 -88 -46 -129q-14 -19 -64 -73.5t-80 -100t-30 -83.5q0 -60 61 -68q90 2 90 40l-3 9q-3 9 -6 21t-3 20q0 40 40 40q38 0 38 -51q-2 -52 -40.5 -82t-108.5 -30q-68 0 -105 32.5t-37 93.5q0 49 28 84.5t116 102.5q29 15 49 31t32.5 35t19 33.5t14.5 39t14 37.5
zM405 417q-2 -24 -19.5 -42t-39.5 -18q-48 0 -48 60q1 22 17.5 38.5t36.5 16.5q22 0 37.5 -16t15.5 -39z" />
    <glyph glyph-name="Agrave" unicode="&#xc0;" horiz-adv-x="629" 
d="M444 267l-30 232v1q-12 -18 -71 -102t-88 -131h189zM635 29v-29h-253l1 29q35 2 53.5 8.5t22.5 13.5t4 19v10q0 11 -1 15l-17 126h-220q-23 -36 -54.5 -97t-31.5 -70q0 -25 55 -25h5v-29h-195l2 29q37 4 56 25q10 10 33 43t63 94t71 109t89 138t84 130l-11 72l102 26
l67 -561q12 -52 18 -60q12 -11 57 -16zM569 714h-42l-133 102q-19 20 -19 37t11.5 28.5t27.5 11.5t35 -25z" />
    <glyph glyph-name="Aacute" unicode="&#xc1;" horiz-adv-x="628" 
d="M444 267l-30 232v1q-12 -18 -71 -102t-88 -131h189zM635 29v-29h-253l1 29q35 2 53.5 8.5t22.5 13.5t4 19v10q0 11 -1 15l-17 126h-220q-23 -36 -54.5 -97t-31.5 -70q0 -25 55 -25h5v-29h-195l2 29q37 4 56 25q10 10 33 43t63 94t71 109t89 138t84 130l-11 72l102 26
l67 -561q12 -52 18 -60q12 -11 57 -16zM651 851q0 -21 -18 -33l-180 -102h-42l182 171q9 6 19 6q15 0 26.5 -11.5t12.5 -30.5z" />
    <glyph glyph-name="Acircumflex" unicode="&#xc2;" horiz-adv-x="629" 
d="M444 267l-30 232v1q-12 -18 -71 -102t-88 -131h189zM635 29v-29h-253l1 29q35 2 53.5 8.5t22.5 13.5t4 19v10q0 11 -1 15l-17 126h-220q-23 -36 -54.5 -97t-31.5 -70q0 -25 55 -25h5v-29h-195l2 29q37 4 56 25q10 10 33 43t63 94t71 109t89 138t84 130l-11 72l102 26
l67 -561q12 -52 18 -60q12 -11 57 -16zM638 714h-42l-78 98l-144 -98h-48l175 176h46z" />
    <glyph glyph-name="Atilde" unicode="&#xc3;" horiz-adv-x="629" 
d="M444 267l-30 232v1q-12 -18 -71 -102t-88 -131h189zM635 29l3 -29h-256l1 29q35 2 53.5 8.5t22.5 13.5t4 19v10q0 11 -1 15l-17 126h-220q-23 -36 -54.5 -97t-31.5 -70q0 -25 55 -25h5v-29h-195l2 29q37 4 56 25q10 10 33 43t63 94t71 109t89 138t84 130l-11 72l102 26
l67 -561q12 -52 18 -60q12 -11 57 -16zM571 720q-12 0 -73 21t-75 21q-34 0 -55 -45h-35q18 62 43 88.5t67 26.5q29 -3 76.5 -23t70.5 -20q16 0 25.5 6t13 13t9.5 25h34q-26 -112 -101 -113z" />
    <glyph glyph-name="Adieresis" unicode="&#xc4;" horiz-adv-x="628" 
d="M444 267l-30 232v1q-12 -18 -71 -102t-88 -131h189zM635 29v-29h-253l1 29q35 2 53.5 8.5t22.5 13.5t4 19v10q0 11 -1 15l-17 126h-220q-23 -36 -54.5 -97t-31.5 -70q0 -25 55 -25h5v-29h-195l2 29q37 4 56 25q10 10 33 43.5t61.5 92.5t71.5 110.5t87 136.5t84 131l-8 72
l102 26l67 -561q12 -52 18 -60q12 -11 57 -16zM448 812q-1 -23 -14.5 -39t-34.5 -16q-23 0 -37 16t-14 40q0 23 17.5 37t38.5 14t32.5 -14.5t11.5 -37.5zM650 812q-1 -25 -16 -40t-36 -15q-20 0 -34.5 17t-14.5 39q0 23 17 37t39 14q16 0 30.5 -13t14.5 -33v-6z" />
    <glyph glyph-name="Aring" unicode="&#xc5;" horiz-adv-x="629" 
d="M444 267l-30 232v1q-12 -18 -71 -102t-88 -131h189zM635 29v-29h-253l1 29q35 2 53.5 8.5t22.5 13.5t4 19v10q0 11 -1 15l-17 126h-220q-23 -36 -54.5 -97t-31.5 -70q0 -25 55 -25h5v-29h-195l2 29q37 4 56 25q10 10 33 43t63 94t71 109t89 138t84 130l-11 72l103 26
l66 -561q12 -52 18 -60q12 -11 57 -16zM559 794q0 24 -20 41.5t-45 17.5q-22 0 -45 -20t-23 -44t18 -37.5t44 -13.5q25 0 46.5 17t24.5 39zM596 794q-2 -46 -36 -74t-74 -28q-36 0 -66 29t-30 69q0 50 31.5 79.5t72.5 29.5q44 0 73 -30t29 -75z" />
    <glyph glyph-name="Ccedilla" unicode="&#xc7;" horiz-adv-x="630" 
d="M754 662l-47 -208l-21 3q-6 82 -41.5 121t-107.5 39q-87 0 -152 -33.5t-101.5 -91t-54.5 -127t-18 -149.5q0 -75 39.5 -126.5t128.5 -51.5q112 0 240 117l19 -18q-145 -157 -284 -157q-23 0 -55 5l-26 -36h14q82 0 82 -62q0 -56 -35.5 -78.5t-82.5 -22.5h-8q-36 0 -97 24
l22 41q45 -17 69 -17q29 0 40.5 7.5t13.5 26.5q0 41 -39 41q-8 0 -17.5 -2.5t-14.5 -4.5l-6 -3l-11 12l59 86q-80 23 -121.5 87t-41.5 148q0 112 64 213t162.5 160t198.5 59q37 0 90 -11q64 -11 75 -11q30 0 41 20h24z" />
    <glyph glyph-name="Egrave" unicode="&#xc8;" horiz-adv-x="588" 
d="M694 652l-39 -160h-25l5 56q0 38 -38 48.5t-152 10.5q-59 0 -71 -12q-56 -138 -80 -228h78q68 4 89 19t55 74l23 -4l-84 -238l-27 5q14 42 14 60v7q0 30 -83 30h-81l-8 -22l-20 -55t-23.5 -67t-20 -63.5t-8.5 -39.5q5 -28 80 -28q116 0 173 22.5t114 81.5q5 7 19 30
l20 -11l-69 -168h-521l2 29q12 1 18.5 2t14 3t11 2.5t8.5 4.5t6.5 5t5.5 8.5t5 10.5t6 14t8 17q10 15 86 241.5t77 254.5q0 14 -15.5 22t-62.5 11v27h510zM525 714h-41l-135 102q-18 19 -18 37q0 16 11 28t28 12q15 0 35 -25z" />
    <glyph glyph-name="Eacute" unicode="&#xc9;" horiz-adv-x="588" 
d="M694 652l-39 -160h-25l5 56q0 38 -38 48.5t-152 10.5q-59 0 -71 -12q-56 -138 -80 -228h78q68 4 89 19t55 74l23 -4l-84 -238l-27 5q14 42 14 60v7q0 30 -83 30h-81l-8 -22l-20 -55t-23.5 -67t-20 -63.5t-8.5 -39.5q5 -28 80 -28q116 0 173 22.5t114 81.5q5 7 19 30
l20 -11l-69 -168h-521l2 29q12 1 18.5 2t14 3t11 2.5t8.5 4.5t6.5 5t5.5 8.5t5 10.5t6 14t8 17q10 15 86 241.5t77 254.5q0 14 -15.5 22t-62.5 11v27h510zM629 851q0 -22 -18 -33l-179 -102h-44l182 171q16 2 22 2q34 0 37 -38z" />
    <glyph glyph-name="Ecircumflex" unicode="&#xca;" horiz-adv-x="588" 
d="M694 652l-39 -160h-25l5 56q0 38 -38 48.5t-152 10.5q-59 0 -71 -12q-56 -138 -80 -228h78q68 4 89 19t55 74l23 -4l-84 -238l-27 5q14 42 14 60v7q0 30 -83 30h-81l-8 -22l-20 -55t-23.5 -67t-20 -63.5t-8.5 -39.5q5 -28 80 -28q116 0 173 22.5t114 81.5q5 7 19 30
l20 -11l-69 -168h-521l2 29q12 1 18.5 2t14 3t11 2.5t8.5 4.5t6.5 5t5.5 8.5t5 10.5t6 14t8 17q10 15 86 241.5t77 254.5q0 14 -15.5 22t-62.5 11v27h510zM625 714h-42l-78 98l-144 -98h-47l174 176h47z" />
    <glyph glyph-name="Edieresis" unicode="&#xcb;" horiz-adv-x="588" 
d="M694 652l-39 -160h-25l5 56q0 38 -38 48.5t-152 10.5q-59 0 -71 -12q-56 -138 -80 -228h78q68 4 89 19t55 74l23 -4l-84 -238l-27 5q14 42 14 60v7q0 30 -83 30h-81l-8 -22l-20 -55t-23.5 -67t-20 -63.5t-8.5 -39.5q5 -28 80 -28q116 0 173 22.5t114 81.5q5 7 19 30
l20 -11l-69 -168h-521l2 29q12 1 18.5 2t14 3t11 2.5t8.5 4.5t6.5 5t5.5 8.5t5 10.5t6 14t8 17q10 15 86 241.5t77 254.5q0 14 -15.5 22t-62.5 11v27h510zM426 812q-1 -24 -16 -39.5t-35 -15.5q-49 0 -49 56q0 23 16.5 37t38.5 14q18 0 31.5 -15t13.5 -37zM628 812
q-1 -25 -16 -40t-36 -15q-19 0 -34 16.5t-15 39.5q0 24 17 37.5t38 13.5q14 0 30 -13.5t16 -33.5v-5z" />
    <glyph glyph-name="Igrave" unicode="&#xcc;" horiz-adv-x="294" 
d="M444 652l-1 -27q-64 -1 -76 -39q-29 -61 -100.5 -275t-71.5 -248v-4q0 -28 68 -30l1 -29h-252l2 29q48 7 59 19q32 38 79 177.5t69 220.5t38 145q0 15 -24.5 25.5t-43.5 10.5v25h253zM420 714h-42l-133 102q-19 19 -19 40q0 13 10 25t28 12t36 -25z" />
    <glyph glyph-name="Iacute" unicode="&#xcd;" horiz-adv-x="294" 
d="M444 652l-1 -27q-64 -1 -76 -39q-29 -61 -100.5 -275t-71.5 -248v-4q0 -28 68 -30v-29h-251l2 29q48 7 59 19q32 38 79 177.5t69 220.5t38 145q0 15 -24.5 25.5t-43.5 10.5v25h253zM471 863v-12q0 -23 -18 -33l-179 -102h-44l183 171q6 6 24 6q16 0 25 -11t9 -19z" />
    <glyph glyph-name="Icircumflex" unicode="&#xce;" horiz-adv-x="295" 
d="M444 652l-1 -27q-61 -1 -73 -39q-29 -61 -102 -275t-73 -248v-4q0 -28 68 -30v-29h-251l2 29q48 7 59 19q32 38 79 177.5t69 220.5t38 145q0 15 -24.5 25.5t-43.5 10.5v25h253zM494 714h-42l-82 98q-28 -21 -79.5 -55.5t-61.5 -42.5h-47l175 176h47z" />
    <glyph glyph-name="Idieresis" unicode="&#xcf;" horiz-adv-x="294" 
d="M444 652l-1 -27q-64 -1 -76 -39q-29 -61 -100.5 -275t-71.5 -248v-4q0 -28 68 -30v-29h-251l2 29q48 7 59 19q68 84 183 543q0 15 -23.5 25.5t-41.5 10.5v25h253zM298 812q-1 -23 -15 -39t-35 -16q-22 0 -36 16t-14 40q0 23 18 37t40 14q20 0 31 -14.5t11 -37.5zM500 812
q-1 -25 -15.5 -40t-35.5 -15q-20 0 -35 17t-15 39q0 23 17 37t39 14q17 0 31 -13t14 -33v-6z" />
    <glyph glyph-name="Eth" unicode="&#xd0;" horiz-adv-x="706" 
d="M355 332l-18 -75h-69l-63 -184q0 -21 14.5 -26.5t43.5 -5.5q160 0 254 85v-1q54 46 92 138t38 163q0 184 -207 184h-24h-17t-10 -4t-6 -6t-7 -12l-84 -256h63zM762 383q-4 -79 -35.5 -145t-79.5 -109t-110.5 -73t-126.5 -43t-129 -13h-262l2 29q55 6 64 19q25 50 87 209
h-61l17 75h71q71 186 71 248q0 10 -4.5 17.5t-10 11.5t-16 7.5t-16.5 4.5t-18.5 2.5t-15.5 1.5v27h285q124 0 206 -67t82 -188v-14z" />
    <glyph glyph-name="Ntilde" unicode="&#xd1;" horiz-adv-x="655" 
d="M297 513q-30 -79 -90 -254t-60 -202q0 -28 72 -28v-29h-205l2 29q43 3 58 21q23 27 59.5 127t78 228.5t58.5 171.5q-26 44 -89 48v27h169l188 -477q28 101 74.5 236.5t57.5 170.5q0 43 -67 43v27h204l-1 -27q-45 -9 -67 -31q-7 -7 -50.5 -131.5t-101.5 -296t-62 -182.5
h-23zM470 832q33 0 83 -21.5t64 -21.5q6 0 11.5 1t9.5 2t8 4t6.5 5t5.5 7t4.5 7t5.5 9t5 9h27q-28 -112 -102 -113q-14 0 -74.5 21t-74.5 21q-33 0 -54 -45h-35q19 62 45 88.5t65 26.5z" />
    <glyph glyph-name="Ograve" unicode="&#xd2;" 
d="M623 716h-42l-133 102q-19 20 -19 38q0 16 12.5 27.5t28.5 11.5q14 0 34 -25zM647 477v20q0 20 -2.5 35.5t-5.5 26.5t-12 20l-13.5 13.5t-18.5 9.5t-20.5 7t-25.5 6t-26 6q-113 -2 -198 -114q-74 -99 -101 -179t-27 -158q0 -143 108 -143q51 0 111.5 33t99.5 79
q54 71 89 160.5t42 177.5zM753 417q-11 -107 -80 -208.5t-170.5 -164.5t-201.5 -63q-93 0 -151 65.5t-58 162.5q0 151 125 291q71 76 145 120t172 44q95 0 157 -61t62 -156v-30z" />
    <glyph glyph-name="Oacute" unicode="&#xd3;" 
d="M647 477v20q0 20 -2.5 35.5t-5.5 26.5t-12 20l-13.5 13.5t-18.5 9.5t-20.5 7t-25.5 6t-26 6q-113 -2 -198 -114q-74 -99 -101 -179t-27 -158q0 -143 108 -143q51 0 111.5 33t99.5 79q54 71 89 160.5t42 177.5zM753 417q-11 -107 -80 -208.5t-170.5 -164.5t-201.5 -63
q-93 0 -151 65.5t-58 162.5q0 151 125 291q71 76 145 120t172 44q95 0 157 -61t62 -156v-30zM685 863v-12q0 -22 -17 -33l-180 -102h-44l184 171q6 6 23 6t25.5 -11t8.5 -19z" />
    <glyph glyph-name="Ocircumflex" unicode="&#xd4;" 
d="M690 716h-42l-78 98q-57 -37 -66 -42q-2 -1 -19 -13q-29 -21 -60 -43h-46l174 176h47zM647 477v20q0 20 -2.5 35.5t-5.5 26.5t-12 20l-13.5 13.5t-18.5 9.5t-20.5 7t-25.5 6t-26 6q-113 -2 -198 -114q-74 -99 -101 -179t-27 -158q0 -143 108 -143q51 0 111.5 33t99.5 79
q54 71 89 160.5t42 177.5zM753 417q-11 -107 -80 -208.5t-170.5 -164.5t-201.5 -63q-93 0 -151 65.5t-58 162.5q0 151 125 291q71 76 145 120t172 44q95 0 157 -61t62 -156v-30z" />
    <glyph glyph-name="Otilde" unicode="&#xd5;" 
d="M647 477v20q0 20 -2.5 35.5t-5.5 26.5t-12 20l-13.5 13.5t-18.5 9.5t-20.5 7t-25.5 6t-26 6q-94 0 -176.5 -92.5t-130.5 -245.5l1 1q-20 -63 -20 -114q0 -143 108 -143q51 0 111.5 33t99.5 79q54 71 89 160.5t42 177.5zM753 417q-11 -107 -80 -208.5t-170.5 -164.5
t-201.5 -63q-93 0 -151 65.5t-58 162.5q0 151 125 291q70 76 144.5 120t172.5 44q95 0 157 -61t62 -156v-30zM473 832q33 0 83.5 -21.5t63.5 -21.5q17 0 28 7t13.5 11t14.5 26h26q-26 -112 -101 -113q-12 0 -73 21t-75 21q-34 0 -55 -45h-35q19 62 45 88.5t65 26.5z" />
    <glyph glyph-name="Odieresis" unicode="&#xd6;" 
d="M647 477v20q0 20 -2.5 35.5t-5.5 26.5t-12 20l-13.5 13.5t-18.5 9.5t-20.5 7t-25.5 6t-26 6q-113 -2 -198 -114q-74 -99 -101 -179t-27 -158q0 -143 108 -143q51 0 111.5 33t99.5 79q54 71 89 160.5t42 177.5zM753 417q-11 -107 -80 -208.5t-170.5 -164.5t-201.5 -63
q-93 0 -151 65.5t-58 162.5q0 151 125 291q71 76 145 120t172 44q95 0 157 -61t62 -156v-30zM506 814q-1 -26 -15 -40t-36 -14t-35.5 15.5t-13.5 39.5q0 23 16.5 37t38.5 14q18 0 31.5 -15t13.5 -37zM708 814q-3 -54 -51 -54q-20 0 -35 16.5t-15 38.5t17 36.5t38 14.5
q13 0 29.5 -13.5t16.5 -33.5v-5z" />
    <glyph glyph-name="multiply" unicode="&#xd7;" horiz-adv-x="589" 
d="M615 441l-208 -190q35 -32 78.5 -76.5t72.5 -74.5t38 -37l-52 -55l-187 194l-210 -191l-47 52l206 190l-188 188l53 56l187 -189q27 28 80 75t92 81l39 33z" />
    <glyph glyph-name="Oslash" unicode="&#xd8;" horiz-adv-x="687" 
d="M753 430q-4 -81 -46.5 -163.5t-105 -144.5t-141 -101.5t-150.5 -39.5q-52 0 -97 19q-53 -70 -84 -102h-49l96 128q-30 24 -48 46t-25.5 48t-9 45t-1.5 54v5q3 64 28.5 126.5t62 107.5t57 66.5t36.5 34.5q133 105 260 105q51 0 99 -19q9 14 28 39t27 37h54l-75 -100
q84 -62 84 -176v-15zM601 600q-35 21 -80 21q-96 0 -183.5 -102t-123.5 -251q-17 -60 -17 -97q0 -49 17 -81zM646 471v12q0 37 -18 75l-383 -508q30 -22 71 -22q52 0 109 34t91 76q46 58 86.5 157.5t43.5 175.5z" />
    <glyph glyph-name="Ugrave" unicode="&#xd9;" horiz-adv-x="665" 
d="M817 652l-1 -26q-21 -6 -36 -14t-23.5 -13.5t-17 -21t-11.5 -22.5t-12 -34t-13 -40l-97 -278q-42 -121 -109.5 -171.5t-166.5 -50.5q-76 0 -144.5 43.5t-68.5 117.5q0 55 63.5 244.5t63.5 209.5q0 15 -29 22t-49 7v27h281l-1 -27q-55 -5 -75 -22t-45 -82
q-117 -341 -117 -382q0 -52 43 -78t93 -26q99 0 170 88q112 159 166 465q0 31 -69 37v27h205zM616 716h-42l-133 102q-19 20 -19 38q0 16 12 27.5t28 11.5q15 0 35 -25z" />
    <glyph glyph-name="Uacute" unicode="&#xda;" horiz-adv-x="665" 
d="M817 652l-1 -26q-21 -6 -36 -14t-23.5 -13.5t-17 -21t-11.5 -22.5t-12 -34t-13 -40l-97 -278q-42 -121 -109.5 -171.5t-166.5 -50.5q-76 0 -144.5 43.5t-68.5 117.5q0 55 63.5 244.5t63.5 209.5q0 15 -29 22t-49 7v27h281l-1 -27q-55 -5 -75 -22t-45 -82
q-117 -341 -117 -382q0 -52 43 -78t93 -26q99 0 170 88q112 159 166 465q0 31 -69 37v27h205zM691 851q0 -21 -18 -33l-179 -102h-44l183 171q8 7 18 7q15 0 26.5 -13.5t13.5 -29.5z" />
    <glyph glyph-name="Ucircumflex" unicode="&#xdb;" horiz-adv-x="665" 
d="M817 652l-1 -26q-21 -6 -36 -14t-23.5 -13.5t-17 -21t-11.5 -22.5t-12 -34t-13 -40l-97 -278q-42 -121 -109.5 -171.5t-166.5 -50.5q-76 0 -144.5 43.5t-68.5 117.5q0 55 63.5 244.5t63.5 209.5q0 15 -29 22t-49 7v27h281l-1 -27q-55 -5 -75 -22t-45 -82
q-117 -341 -117 -382q0 -52 43 -78t93 -26q99 0 170 88q112 159 166 465q0 31 -69 37v27h205zM685 716h-41l-79 98l-144 -98h-47l175 176h46z" />
    <glyph glyph-name="Udieresis" unicode="&#xdc;" horiz-adv-x="665" 
d="M817 652l-1 -26q-21 -6 -36 -14t-23.5 -13.5t-17 -21t-11.5 -22.5t-12 -34t-13 -40l-97 -278q-42 -121 -109.5 -171.5t-166.5 -50.5q-76 0 -144.5 43.5t-68.5 117.5q0 55 63.5 244.5t63.5 209.5q0 15 -29 22t-49 7v27h281l-1 -27q-55 -5 -75 -22t-45 -82
q-117 -341 -117 -382q0 -52 43 -78t93 -26q99 0 170 88q112 159 166 465q0 31 -69 37v27h205zM496 812q-1 -24 -15.5 -39.5t-35.5 -15.5q-22 0 -35.5 16t-13.5 40q0 23 17 37t39 14q17 0 30.5 -15t13.5 -37zM699 812q-1 -25 -16.5 -40t-36.5 -15q-18 0 -33 16.5t-15 39.5
q0 24 17 37.5t38 13.5q14 0 30 -14t16 -34v-4z" />
    <glyph glyph-name="Yacute" unicode="&#xdd;" horiz-adv-x="556" 
d="M628 854q0 -22 -18 -34l-179 -102h-44l183 171q8 7 17 7q15 0 27 -13.5t14 -28.5zM712 652l-1 -27q-44 -20 -57 -34q-33 -33 -251 -288q-9 -23 -29.5 -83.5t-35.5 -109.5l-16 -49q0 -32 81 -32h9v-29h-297v29q72 7 91 28q8 10 25 55t41.5 115t26.5 75l-34 130
q-34 161 -59 179q-9 5 -11 6.5t-6.5 3t-6 1.5t-8.5 1t-15 2v27h244v-27q-1 0 -9.5 -0.5t-15.5 -1t-17.5 -2.5t-17.5 -5t-12 -8t-5 -12q0 -22 25 -117t34 -122q42 39 115.5 124.5t85.5 119.5q0 21 -70 24v27h196z" />
    <glyph glyph-name="Thorn" unicode="&#xde;" horiz-adv-x="544" 
d="M506 366v9q0 103 -130 103q-32 0 -48 -22q0 -2 -2 -4l-80 -234q19 -3 49 -3q101 0 154 36t57 115zM609 367q-5 -93 -76 -147v1q-35 -20 -54.5 -29t-59.5 -17.5t-92 -8.5q-72 0 -93 8q0 -1 -9.5 -26t-18 -50.5t-8.5 -29.5q0 -22 11 -28t56 -11v-29h-252l2 29q46 5 54 10.5
t23 38.5q0 5 41 118.5t84 239t46 155.5q0 14 -15.5 21.5t-56.5 12.5v27h244l-1 -27q-40 -4 -57 -23l-29 -82h56q103 0 154 -33t51 -109v-11z" />
    <glyph glyph-name="germandbls" unicode="&#xdf;" horiz-adv-x="485" 
d="M553 551q-1 -59 -56.5 -109.5t-102.5 -60.5q4 -3 25 -17t30 -22t23.5 -23t20.5 -33t6 -40l1 -1v-1q-3 -64 -28.5 -116.5t-62 -81.5t-71.5 -44.5t-63 -15.5q-31 0 -54.5 13t-23.5 37q0 60 33 60q16 0 30 -14.5t14 -32.5q0 -10 -8 -21q0 -5 16 -7q31 0 72 48q22 27 39 85.5
t17 113.5q0 87 -77 90q-22 0 -24 25q6 17 20 17q57 0 100.5 47.5t43.5 127.5q0 63 -57 66q-83 0 -155 -206q0 -1 -31 -100.5t-63 -204t-35 -114.5q-68 -217 -211 -217q-26 0 -48 13.5t-22 41.5q0 22 14.5 39t31.5 19q17 0 28 -11t11 -25q0 -29 -14 -41q0 -2 14 -2
q75 0 118 169l86 310q54 192 120 277t155 85q55 0 95.5 -28.5t42.5 -94.5z" />
    <glyph glyph-name="agrave" unicode="&#xe0;" horiz-adv-x="521" 
d="M480 501h-42l-134 102q-18 19 -18 38q0 16 12 27.5t28 11.5q14 0 34 -25zM428 354q0 2 0.5 5t0.5 4q0 23 -20.5 33.5t-46.5 10.5q-45 0 -118 -81q-53 -71 -66.5 -100.5t-23.5 -90.5q-2 -11 -3 -18v-4q0 -16 1 -24.5t6 -19t16.5 -15t30.5 -4.5q45 0 87 38v-1
q55 55 94.5 126t41.5 141zM533 430l-29 -87q-28 -87 -56 -179.5t-28 -109.5q0 -7 11 -7q12 0 88 72l15 -13q-56 -62 -88.5 -89.5t-57.5 -27.5q-24 0 -34.5 14.5t-10.5 33.5q0 23 16 78q-49 -61 -95 -94t-101 -33q-46 0 -72 31t-26 77q0 66 33 132t80.5 111.5t100 73.5
t91.5 28q63 0 80 -38q3 5 5 7t3 4t2 8l69 19l5 -8q-1 0 -1 -1v-2z" />
    <glyph glyph-name="aacute" unicode="&#xe1;" horiz-adv-x="521" 
d="M428 354q0 2 0.5 5t0.5 4q0 23 -20.5 33.5t-46.5 10.5q-45 0 -118 -81q-53 -71 -66.5 -100.5t-23.5 -90.5q-2 -11 -3 -18v-4q0 -16 1 -24.5t6 -19t16.5 -15t30.5 -4.5q45 0 87 38v-1q55 55 94.5 126t41.5 141zM533 430q0 -2 -28.5 -88t-56.5 -178.5t-28 -112.5q0 -7 9 -7
q4 0 12 6.5t27.5 25.5t30.5 29l35 1q-56 -62 -88.5 -89.5t-57.5 -27.5q-24 0 -34.5 14.5t-10.5 33.5q0 23 16 78q-49 -61 -95 -94t-101 -33q-46 0 -72 31t-26 77q0 66 33 132t80.5 111.5t100 73.5t91.5 28q63 0 80 -38q3 5 5 7t3 4t2 8l69 19l5 -8q-1 0 -1 -1v-2zM569 639
q0 -22 -18 -34l-179 -102h-44l183 171q9 6 18 6q14 0 26 -12.5t14 -28.5z" />
    <glyph glyph-name="acircumflex" unicode="&#xe2;" horiz-adv-x="522" 
d="M553 502h-42l-78 98q-57 -37 -66 -42q-2 -1 -19 -13q-29 -21 -60 -43h-47l175 176h47zM428 354q0 2 0.5 5t0.5 4q0 23 -20.5 33.5t-46.5 10.5q-45 0 -118 -81q-53 -71 -66.5 -100.5t-23.5 -90.5q-2 -11 -3 -18v-4q0 -16 1 -24.5t6 -19t16.5 -15t30.5 -4.5q45 0 87 38v-1
q55 55 94.5 126t41.5 141zM533 430l-29 -87q-28 -87 -56 -179.5t-28 -109.5q0 -7 11 -7q12 0 88 72l15 -13q-56 -62 -88.5 -89.5t-57.5 -27.5q-24 0 -34.5 14.5t-10.5 33.5q0 23 16 78q-49 -61 -95 -94t-101 -33q-46 0 -72 31t-26 77q0 66 33 132t80.5 111.5t100 73.5
t91.5 28q63 0 80 -38q3 5 5 7t3 4t2 8l69 19l5 -8q-1 0 -1 -1v-2z" />
    <glyph glyph-name="atilde" unicode="&#xe3;" horiz-adv-x="522" 
d="M428 354q0 2 0.5 5t0.5 4q0 23 -20.5 33.5t-46.5 10.5q-45 0 -118 -81q-53 -71 -66.5 -100.5t-23.5 -90.5q-2 -11 -3 -18v-4q0 -16 1 -24.5t6 -19t16.5 -15t30.5 -4.5q45 0 87 38v-1q55 55 94.5 126t41.5 141zM533 430l-29 -87q-28 -87 -56 -179.5t-28 -109.5q0 -7 11 -7
q12 0 88 72l15 -13q-56 -62 -88.5 -89.5t-57.5 -27.5q-24 0 -34.5 14.5t-10.5 33.5q0 23 16 78q-49 -61 -95 -94t-101 -33q-46 0 -72 31t-26 77q0 66 33 132t80.5 111.5t100 73.5t91.5 28q63 0 80 -38q3 5 5 7t3 4t2 8l69 19l5 -8q-1 0 -1 -1v-2zM361 619q33 0 83.5 -21.5
t63.5 -21.5q33 0 47 26l9 18h27q-28 -112 -102 -113q-13 0 -74 21t-74 21q-35 0 -55 -45h-35q19 62 45 88.5t65 26.5z" />
    <glyph glyph-name="adieresis" unicode="&#xe4;" horiz-adv-x="521" 
d="M428 354q0 2 0.5 5t0.5 4q0 23 -20.5 33.5t-46.5 10.5q-45 0 -118 -81q-53 -71 -66.5 -100.5t-23.5 -90.5q-2 -11 -3 -18v-4q0 -16 1 -24.5t6 -19t16.5 -15t30.5 -4.5q45 0 87 38v-1q55 55 94.5 126t41.5 141zM533 430l-29 -87q-28 -87 -56 -179.5t-28 -109.5q0 -7 11 -7
q12 0 88 72l15 -13q-56 -62 -88.5 -89.5t-57.5 -27.5q-24 0 -34.5 14.5t-10.5 33.5q0 23 16 78q-49 -61 -95 -94t-101 -33q-46 0 -72 31t-26 77q0 66 33 132t80.5 111.5t100 73.5t91.5 28q63 0 80 -38q3 5 5 7t3 4t2 8l69 19l5 -8q-1 0 -1 -1v-2zM371 599q-1 -26 -15 -40
t-36 -14q-23 0 -36 15t-13 40q0 23 16.5 37t38.5 14q18 0 31.5 -15t13.5 -37zM573 599q-3 -54 -52 -54q-20 0 -34.5 16.5t-14.5 38.5t17 36.5t38 14.5q13 0 29.5 -13.5t16.5 -33.5v-5z" />
    <glyph glyph-name="aring" unicode="&#xe5;" horiz-adv-x="524" 
d="M428 354q0 2 0.5 5t0.5 4q0 23 -20.5 33.5t-46.5 10.5q-45 0 -118 -81q-53 -71 -66.5 -100.5t-23.5 -90.5q-2 -11 -3 -18v-4q0 -16 1 -24.5t6 -19t16.5 -15t30.5 -4.5q45 0 87 38v-1q55 55 94.5 126t41.5 141zM533 430l-29 -87q-28 -87 -56 -179.5t-28 -109.5q0 -7 11 -7
q12 0 88 72l15 -13q-56 -62 -88.5 -89.5t-57.5 -27.5q-24 0 -34.5 14.5t-10.5 33.5q0 23 16 78q-49 -61 -95 -94t-101 -33q-46 0 -72 31t-26 77q0 66 33 132t80.5 111.5t100 73.5t91.5 28q63 0 80 -38q3 5 5 7t3 4t2 8l69 19l5 -8q-1 0 -1 -1v-2zM480 597q0 25 -18 42
t-47 17q-26 0 -44.5 -17t-21.5 -41q0 -25 16 -40.5t45 -15.5t49.5 14.5t20.5 40.5zM516 597q-2 -44 -31.5 -73t-74.5 -29q-38 0 -67.5 28t-29.5 69t28 74t76 33q42 0 70.5 -27.5t28.5 -74.5z" />
    <glyph glyph-name="ccedilla" unicode="&#xe7;" horiz-adv-x="424" 
d="M75 132q0 65 31 124.5t78 99t99 63t96 23.5q83 0 105 -86q0 -7 -1 -13t-1.5 -10.5t-3 -8t-3.5 -6t-4.5 -4.5t-5 -3t-6.5 -1.5t-6.5 -1t-8.5 -1t-9 -0.5q-37 3 -39 42q0 10 1.5 16.5t3 9.5t3.5 4t4 1l1 1q0 2 -3 8t-11 13.5t-19 7.5q-59 0 -109.5 -45.5t-77.5 -109.5
t-27 -124q0 -70 50 -90q28 -6 50 -6q9 0 17.5 1.5t15.5 2.5t15.5 5.5t13 6.5t13.5 8.5t12 8.5t13 11.5t12 11t13 12.5l12 12l19 -13q-103 -114 -211 -114l-28 -39h17q78 0 78 -62q0 -41 -31.5 -69.5t-88.5 -28.5q-50 0 -101 24l21 38q40 -17 68 -17q48 0 54 34
q0 15 -13 26.5t-29 11.5q-14 0 -33 -9l-13 15l60 85q-93 28 -93 135z" />
    <glyph glyph-name="egrave" unicode="&#xe8;" horiz-adv-x="420" 
d="M437 501h-42l-133 102q-19 20 -19 38q0 16 11 27.5t29 11.5q18 -2 34 -25zM467 369q-3 -75 -99 -132q-111 -43 -193 -56q-16 -40 -16 -66q0 -69 91 -69q57 0 154 73l13 -17q-39 -39 -63.5 -60t-51.5 -32.5t-42.5 -14t-58.5 -7.5q-59 0 -94.5 39.5t-35.5 96.5
q0 52 26.5 115t69.5 106q96 96 224 96q76 0 76 -63v-9zM401 375v4q0 24 -33 29q-48 0 -106 -66q-10 -12 -17 -21t-13.5 -18.5t-10 -15t-9 -16t-7.5 -15t-8.5 -18.5t-9.5 -21q53 14 78.5 22t57.5 21t45.5 27.5t23 36t9.5 51.5z" />
    <glyph glyph-name="eacute" unicode="&#xe9;" horiz-adv-x="420" 
d="M532 650v-11q0 -23 -17 -34l-180 -102h-44l183 171q6 6 23 6t26 -11t9 -19zM467 369q-3 -75 -99 -132q-111 -43 -193 -56q-16 -40 -16 -66q0 -69 91 -69q57 0 154 73l13 -17q-39 -39 -63.5 -60t-51.5 -32.5t-42.5 -14t-58.5 -7.5q-59 0 -94.5 39.5t-35.5 96.5
q0 52 26.5 115t69.5 106q96 96 224 96q76 0 76 -63v-9zM401 375v4q0 24 -33 29q-48 0 -106 -66q-10 -12 -17 -21t-13.5 -18.5t-10 -15t-9 -16t-7.5 -15t-8.5 -18.5t-9.5 -21q53 14 78.5 22t57.5 21t45.5 27.5t23 36t9.5 51.5z" />
    <glyph glyph-name="ecircumflex" unicode="&#xea;" horiz-adv-x="421" 
d="M513 501h-41l-81 98l-142 -98h-47l175 176h46zM467 369q-3 -75 -99 -132q-111 -43 -193 -56q-16 -40 -16 -66q0 -69 90 -69q58 0 155 73l13 -17q-39 -39 -63.5 -60t-51.5 -32.5t-42.5 -14t-58.5 -7.5q-59 0 -94.5 39.5t-35.5 96.5q0 52 26.5 115t69.5 106q96 96 224 96
q76 0 76 -63v-9zM401 375v4q0 24 -33 29q-48 0 -106 -66q-10 -12 -17 -21t-13.5 -18.5t-10 -15t-9 -16t-7.5 -15t-8.5 -18.5t-9.5 -21q53 14 78.5 22t57.5 21t45.5 27.5t23 36t9.5 51.5z" />
    <glyph glyph-name="edieresis" unicode="&#xeb;" horiz-adv-x="420" 
d="M467 369q-3 -75 -99 -132q-111 -43 -193 -56q-16 -40 -16 -66q0 -69 91 -69q57 0 154 73l13 -17q-39 -39 -63.5 -60t-51.5 -32.5t-42.5 -14t-58.5 -7.5q-59 0 -94.5 39.5t-35.5 96.5q0 52 26.5 115t69.5 106q96 96 224 96q76 0 76 -63v-9zM401 375v4q0 24 -33 29
q-48 0 -106 -66q-10 -12 -17 -21t-13.5 -18.5t-10 -15t-9 -16t-7.5 -15t-8.5 -18.5t-9.5 -21q53 14 78.5 22t57.5 21t45.5 27.5t23 36t9.5 51.5zM520 599q-3 -54 -51 -54q-21 0 -35.5 16.5t-14.5 38.5q0 23 17 37t38 14q13 0 29.5 -13.5t16.5 -33.5v-5zM318 599
q-1 -26 -15 -40t-36 -14t-35.5 15.5t-13.5 39.5q0 23 16.5 37t38.5 14q18 0 31.5 -15t13.5 -37z" />
    <glyph glyph-name="igrave" unicode="&#xec;" horiz-adv-x="266" 
d="M282 439l-19 -47q-4 -11 -54.5 -165t-50.5 -159q0 -11 14 -20q12 4 23.5 12.5t17.5 15t20.5 25t21.5 26.5l18 -21q-26 -36 -43.5 -56.5t-48 -41.5t-59.5 -21q-45 0 -45 57q0 8 15 68t26 89q9 21 32.5 93t23.5 78q0 10 -11 13.5t-30 4t-24 1.5l2 27q83 7 165 23zM348 507
h-41l-135 102q-18 15 -18 41q0 12 10 24t29 12q14 0 36 -25z" />
    <glyph glyph-name="iacute" unicode="&#xed;" horiz-adv-x="266" 
d="M282 439l-19 -47q-4 -11 -54.5 -165t-50.5 -159q0 -11 12 -20q10 3 18.5 7.5t17.5 13.5t14.5 15t17 21t17.5 22l18 -21q-26 -36 -43.5 -56.5t-48 -41.5t-59.5 -21q-45 0 -45 57q0 8 15 68t26 89q9 21 32.5 93t23.5 78q0 10 -11 13.5t-30 4t-24 1.5l2 27q83 7 165 23z
M386 656v-12q0 -22 -17 -33l-180 -102h-43l183 171q6 6 23 6t25.5 -11t8.5 -19z" />
    <glyph glyph-name="icircumflex" unicode="&#xee;" horiz-adv-x="266" 
d="M282 439l-19 -47q-4 -11 -54.5 -165t-50.5 -159q0 -11 12 -20q10 3 18.5 7.5t17.5 13.5t14.5 15t17 21t17.5 22l18 -21q-26 -36 -43.5 -56.5t-48 -41.5t-59.5 -21q-45 0 -45 57q0 8 15 68t26 89q9 21 32.5 93t23.5 78q0 10 -11 13.5t-30 4t-24 1.5l2 27q83 7 165 23z
M392 507h-42l-79 98q-40 -32 -144 -98h-46l174 176h47z" />
    <glyph glyph-name="idieresis" unicode="&#xef;" horiz-adv-x="266" 
d="M282 439l-19 -47q-4 -11 -54.5 -165t-50.5 -159q0 -11 12 -20q10 3 18.5 7.5t17.5 13.5t14.5 15t17 21t17.5 22l18 -21q-26 -36 -43.5 -56.5t-48 -41.5t-59.5 -21q-45 0 -45 57q0 8 15 68t26 89q9 21 32.5 93t23.5 78q0 10 -11 13.5t-30 4t-24 1.5l2 27q83 7 165 23z
M181 605q-1 -23 -15.5 -39t-35.5 -16q-22 0 -35.5 16t-13.5 40q0 23 17.5 37t38.5 14t32.5 -14.5t11.5 -37.5zM383 605q-1 -25 -16 -40t-36 -15q-20 0 -34.5 17t-14.5 39q0 23 17 37t39 14q17 0 31 -13t14 -33v-6z" />
    <glyph glyph-name="eth" unicode="&#xf0;" horiz-adv-x="502" 
d="M546 616l-92 -36q30 -39 52 -94.5t22 -107.5q0 -147 -100 -276q-28 -31 -95.5 -72.5t-117.5 -41.5q-73 0 -108.5 36t-35.5 99t32 124t78.5 102t98.5 66.5t93 25.5q48 0 80 -32q-21 85 -61 141l-120 -50l-37 42l126 50q-47 39 -111 63l49 23q64 -15 123 -60l18 6
q17 7 39.5 15.5t30.5 11.5q36 -32 36 -35zM443 322v18q0 42 -12.5 53t-47.5 16q-7 0 -10 1q-27 -1 -62 -23.5t-61 -58.5q-27 -34 -61 -103.5t-34 -121.5q0 -32 19 -56.5t57 -24.5q30 0 62.5 22t54.5 49q43 54 67.5 120.5t27.5 108.5z" />
    <glyph glyph-name="ntilde" unicode="&#xf1;" horiz-adv-x="530" 
d="M412 380q-64 0 -142.5 -117.5t-124.5 -262.5h-81l110 350q0 3 5 8t5 7q0 7 -4.5 11t-13.5 5.5t-15.5 2.5t-17.5 1h-14l1 27q45 7 85.5 14.5t59.5 11.5t21 4q4 0 6 -2v-1h1l-63 -181q34 46 50 66.5t48.5 54t63 48t63.5 14.5q35 0 48.5 -14t13.5 -41q0 -20 -10 -70
l-60 -195q-26 -63 -26 -67q0 -6 10 -6q26 0 94 79l16 -20q-59 -71 -87 -93.5t-58 -22.5q-21 0 -35 14.5t-14 44.5q2 27 17 75l54 160l3 9q3 8 5.5 17.5t5 22t2.5 21.5q0 25 -22 25zM339 619q33 0 83 -21.5t63 -21.5q17 0 27.5 6.5t14.5 12.5t14 25h27q-28 -112 -100 -113
q-13 4 -50 17.5t-58.5 19t-39.5 5.5q-35 0 -57 -45h-35q19 62 44 88.5t67 26.5z" />
    <glyph glyph-name="ograve" unicode="&#xf2;" horiz-adv-x="496" 
d="M496 501h-42l-134 102q-18 19 -18 38q0 16 12 27.5t28 11.5q14 0 34 -25zM373 410q-41 0 -82.5 -36t-70.5 -86t-47.5 -101t-18.5 -84q0 -31 18.5 -56t54.5 -25q29 0 65.5 24t56.5 47q32 46 61.5 113t32.5 116q0 88 -70 88zM526 301q-5 -116 -103.5 -214.5t-207.5 -98.5
q-73 0 -108.5 36t-35.5 99q0 68 42.5 141.5t117.5 125t156 51.5q59 0 99 -36.5t40 -93.5v-10z" />
    <glyph glyph-name="oacute" unicode="&#xf3;" horiz-adv-x="497" 
d="M373 410q-41 0 -82.5 -36t-70.5 -86t-47.5 -101t-18.5 -84q0 -31 18.5 -56t54.5 -25q29 0 65.5 24t56.5 47q32 46 61.5 113t32.5 116q0 88 -70 88zM526 301q-5 -116 -103.5 -214.5t-207.5 -98.5q-73 0 -108.5 36t-35.5 99q0 68 42.5 141.5t117.5 125t156 51.5
q59 0 99 -36.5t40 -93.5v-10zM563 650v-11q0 -23 -17 -34l-180 -102h-44l183 171q7 6 24 6t25.5 -11t8.5 -19z" />
    <glyph glyph-name="ocircumflex" unicode="&#xf4;" horiz-adv-x="497" 
d="M536 501h-42l-78 98q-57 -37 -66 -42q-2 -1 -19 -13q-29 -21 -60 -43h-47l175 176h47zM373 410q-41 0 -82.5 -36t-70.5 -86t-47.5 -101t-18.5 -84q0 -31 18.5 -56t54.5 -25q29 0 65.5 24t56.5 47q32 46 61.5 113t32.5 116q0 88 -70 88zM526 301q-5 -116 -103.5 -214.5
t-207.5 -98.5q-73 0 -108.5 36t-35.5 99q0 68 42.5 141.5t117.5 125t156 51.5q59 0 99 -36.5t40 -93.5v-10z" />
    <glyph glyph-name="otilde" unicode="&#xf5;" horiz-adv-x="498" 
d="M373 410q-41 0 -82.5 -36t-70.5 -86t-47.5 -101t-18.5 -84q0 -31 19 -56t56 -25q29 0 65 24.5t55 46.5q32 46 61.5 113t32.5 116q0 88 -70 88zM526 301q-5 -116 -103.5 -214.5t-207.5 -98.5q-73 0 -108.5 36t-35.5 99q0 68 42.5 141.5t117.5 125t156 51.5q59 0 99 -36.5
t40 -93.5v-10zM341 619q35 0 84.5 -21.5t62.5 -21.5q6 0 11.5 1t9.5 2t8 4t6.5 5t5.5 7t4.5 7t5.5 9t5 9h27q-28 -112 -101 -113q-15 0 -75.5 21t-74.5 21q-34 0 -54 -45h-37q19 60 44 87.5t68 27.5z" />
    <glyph glyph-name="odieresis" unicode="&#xf6;" horiz-adv-x="497" 
d="M373 410q-41 0 -82.5 -36t-70.5 -86t-47.5 -101t-18.5 -84q0 -31 18.5 -56t54.5 -25q29 0 65.5 24t56.5 47q32 46 61.5 113t32.5 116q0 88 -70 88zM526 301q-5 -116 -103.5 -214.5t-207.5 -98.5q-73 0 -108.5 36t-35.5 99q0 68 42.5 141.5t117.5 125t156 51.5
q59 0 99 -36.5t40 -93.5v-10zM363 599q-1 -26 -15 -40t-35 -14q-23 0 -36.5 15.5t-13.5 39.5q0 23 16.5 37t38.5 14q18 0 31.5 -15t13.5 -37zM565 599q-3 -54 -51 -54q-20 0 -35 16.5t-15 38.5t17 36.5t38 14.5q13 0 29.5 -13.5t16.5 -33.5v-5z" />
    <glyph glyph-name="divide" unicode="&#xf7;" horiz-adv-x="554" 
d="M386 49q0 -26 -19 -43.5t-44 -17.5q-18 0 -34.5 18t-16.5 39q0 26 18.5 45t39.5 19q43 -4 56 -60zM596 291l-3 -77h-507v77h510zM406 453q-2 -25 -21 -41t-42 -16q-18 0 -34.5 16t-16.5 37q0 27 17.5 47t40.5 20t39.5 -18t16.5 -45z" />
    <glyph glyph-name="oslash" unicode="&#xf8;" horiz-adv-x="495" 
d="M441 321v10q0 34 -23 62l-208 -369q6 -2 23 -2q47 0 97 53t80.5 123.5t30.5 122.5zM84 -132l74 128q-33 11 -61 48.5t-28 82.5q0 101 95 205q116 108 220 108h15l62 112h39l-66 -119q41 -12 66 -45t25 -79q0 -138 -143 -255q-50 -41 -78.5 -54t-62.5 -13q-10 0 -46 2
q-10 -14 -28 -44.5t-30 -52t-14 -24.5h-39zM380 410q-46 -4 -86 -33.5t-65 -69t-43.5 -83.5t-26 -76t-7.5 -48q0 -34 26 -57z" />
    <glyph glyph-name="ugrave" unicode="&#xf9;" horiz-adv-x="514" 
d="M479 501h-42l-134 102q-18 19 -18 38q0 16 12 27.5t28 11.5q14 0 34 -25zM530 436l-96 -303q-23 -65 -23 -72q-2 -6 -2 -14q0 -7 10 -7q11 0 39.5 30t48.5 59l19 -15q-68 -87 -92 -106.5t-55 -19.5q-20 0 -34 15t-14 42q0 30 35 149q-74 -106 -114 -145q-63 -61 -121 -61
q-51 0 -51 58q0 38 33 126l56 200v2q0 17 -56 17l1 25q70 7 153 25l7 -2l-105 -361q0 -7 3.5 -15.5t6.5 -9.5q43 0 124.5 108t146.5 275h80z" />
    <glyph glyph-name="uacute" unicode="&#xfa;" horiz-adv-x="513" 
d="M530 435l-96 -302q-23 -65 -23 -72q-2 -6 -2 -14q0 -7 10 -7q11 0 39.5 30t48.5 59l19 -15q-68 -87 -92 -106.5t-55 -19.5q-20 0 -34 15t-14 42q0 30 35 149q-74 -106 -114 -145q-63 -61 -121 -61q-51 0 -51 58q0 38 33 126l56 200v2q0 17 -56 17l1 25q70 7 153 25l7 -2
l-105 -361q0 -7 3.5 -15.5t6.5 -9.5q42 0 124 108t147 274h80zM552 639q0 -23 -18 -34l-179 -102h-44l183 171q12 11 27 11q13 0 23 -9.5t10 -24.5q0 -4 -2 -12z" />
    <glyph glyph-name="ucircumflex" unicode="&#xfb;" horiz-adv-x="514" 
d="M530 435l-96 -302q-23 -65 -23 -72q-2 -6 -2 -14q0 -7 10 -7q11 0 39.5 30t48.5 59l19 -15q-68 -87 -92 -106.5t-55 -19.5q-20 0 -34 15t-14 42q0 30 35 149q-74 -106 -114 -145q-63 -61 -121 -61q-51 0 -51 58q0 38 33 126l56 200v2q0 17 -56 17l1 25q70 7 153 25l7 -2
l-105 -361q0 -7 3.5 -15.5t6.5 -9.5q42 0 124 108t147 274h80zM521 501h-42l-78 98q-57 -37 -66 -42q-2 -1 -19 -13q-29 -21 -60 -43h-47l175 176h47z" />
    <glyph glyph-name="udieresis" unicode="&#xfc;" horiz-adv-x="513" 
d="M530 435l-96 -302q-23 -65 -23 -72q-2 -6 -2 -14q0 -7 10 -7q11 0 39.5 30t48.5 59l19 -15q-68 -87 -92 -106.5t-55 -19.5q-20 0 -34 15t-14 42q0 30 35 149q-74 -106 -114 -145q-63 -61 -121 -61q-51 0 -51 58q0 38 33 126l56 200v2q0 17 -56 17l1 25q70 7 153 25l7 -2
l-105 -361q0 -7 3.5 -15.5t6.5 -9.5q42 0 124 108t147 274h80zM349 599q-1 -26 -15.5 -40t-36.5 -14t-35 16t-13 39t16.5 37t38.5 14q17 0 31 -15t14 -37zM551 599q-3 -54 -52 -54q-20 0 -34.5 16.5t-14.5 38.5q0 23 17 37t38 14q15 0 30.5 -14t15.5 -34v-4z" />
    <glyph glyph-name="yacute" unicode="&#xfd;" horiz-adv-x="471" 
d="M523 382q-4 -69 -94.5 -222t-205 -281t-175.5 -128q-36 0 -48 47q3 43 33 43q16 0 42.5 -13.5t33.5 -13.5q21 0 95 84.5t76 115.5q0 32 -32 181t-61 186q-12 14 -50 14q-15 0 -31 -7l3 31q124 17 143 22q21 0 48 -107.5t30 -146.5l16 -97q131 194 131 238q0 12 -32 33.5
t-32 32.5q0 38 34 44q4 1 23 3q30 -9 41.5 -20.5t11.5 -38.5zM572 639q0 -23 -18 -34l-179 -102h-44l182 171q13 4 25 4q31 0 34 -39z" />
    <glyph glyph-name="thorn" unicode="&#xfe;" horiz-adv-x="425" 
d="M190 628q0 13 -10.5 16.5t-46.5 4.5h-2h-2v28q4 0 41 5.5t75.5 11.5t40.5 6l7 -9q-84 -280 -103 -334q66 84 158 84q56 0 83.5 -33.5t27.5 -87.5v-8q-6 -104 -99 -206q-39 -43 -104 -80.5t-118 -37.5q-25 0 -64 15q-63 -183 -63 -204q0 -10 13 -17t37 -7h13v-25h-206v27
q21 0 42.5 15.5t30.5 38.5zM367 309v8q0 37 -14 54.5t-45 17.5q-41 0 -76.5 -27.5t-50.5 -55.5l-15 -27q-69 -163 -76 -229q0 -14 14.5 -22t32.5 -8q72 0 146 84q36 48 52.5 81.5t20.5 52t11 71.5z" />
    <glyph glyph-name="ydieresis" unicode="&#xff;" horiz-adv-x="471" 
d="M523 382q-4 -69 -94.5 -222t-205 -281t-175.5 -128q-36 0 -48 47q3 43 33 43q16 0 42.5 -13.5t33.5 -13.5q21 0 95 84.5t76 115.5q0 32 -32 181t-61 186q-12 14 -50 14q-15 0 -31 -7l3 31q124 17 143 22q21 0 48 -107.5t30 -146.5l16 -97q131 194 131 238q0 12 -32 33.5
t-32 32.5q0 38 34 44q4 1 23 3q30 -9 41.5 -20.5t11.5 -38.5zM348 599q-1 -26 -15 -40t-36 -14q-23 0 -36.5 15.5t-13.5 39.5q0 23 17 37t39 14q18 0 31.5 -14.5t13.5 -37.5zM550 599q-3 -54 -52 -54q-20 0 -35 16.5t-15 38.5q0 23 17 37t39 14q15 0 30.5 -14t15.5 -34v-4z
" />
    <glyph glyph-name="dotlessi" unicode="&#x131;" horiz-adv-x="265" 
d="M282 439l-115 -344q-2 -6 -5 -10.5t-4 -6.5t-1 -4q0 -3 10 -26q13 4 25.5 12.5t18.5 15t21.5 25t22.5 26.5l18 -21q-26 -35 -44 -56t-48 -41.5t-59 -20.5q-45 0 -45 56q0 8 15 68t26 89q9 21 32.5 93t23.5 78q0 10 -11 13.5t-30 4t-24 1.5l2 27q83 7 165 23z" />
    <glyph glyph-name="Lslash" unicode="&#x141;" horiz-adv-x="583" 
d="M612 184l-66 -184h-522l2 29q53 6 64 19q31 69 80 201l-86 -47l36 89l83 47q69 194 69 253q0 27 -78 34v27h281l-1 -27q-67 -5 -90 -37l-58 -175l78 45l-32 -92l-79 -44l-83 -246q0 -17 20.5 -22.5t79.5 -5.5q98 0 165 23q35 18 66 50t47 74z" />
    <glyph glyph-name="lslash" unicode="&#x142;" horiz-adv-x="322" 
d="M391 689l-83 -278l80 47l-32 -92l-78 -43l-70 -224l-15 -44q0 -11 15 -11q4 0 9.5 2t11.5 6t11 8t13 11.5t12.5 11.5t12.5 13.5t11.5 13t12 13.5t9.5 11l13 -13q-3 -4 -13.5 -18.5t-14.5 -19.5t-14 -18t-15 -18t-15 -15.5t-16.5 -15.5t-16.5 -11.5t-18.5 -9.5t-18.5 -5.5
t-20 -2.5q-30 1 -41 13.5t-11 34.5q0 9 8 39l58 188l-108 -60l36 89l101 58l84 265l2 6t2 5.5t1 3.5q0 18 -68 18v27q92 9 159 26z" />
    <glyph glyph-name="Scaron" unicode="&#x160;" horiz-adv-x="472" 
d="M577 665l-50 -208l-22 4q0 99 -29 128v-1q-33 33 -98 33q-108 0 -108 -77q0 -36 21 -72.5t51 -68.5t60 -63.5t51 -68.5t21 -73q0 -100 -63.5 -158.5t-152.5 -58.5q-41 0 -76 9.5t-55.5 19t-26.5 9.5q-12 0 -19.5 -8t-16.5 -27h-22l45 233l22 -8q-5 -20 -5 -34
q0 -62 42 -103.5t99 -41.5q55 0 96 36.5t44 85.5q0 31 -30.5 79t-67.5 88.5t-68.5 79t-32.5 51.5q-4 14 -4 31q0 91 57 137t135 46q28 0 72 -11q42 -12 60 -12q26 0 39 12q2 8 7 12h25zM602 869l-181 -178h-45l-95 178h41l90 -104l5 2.5l5 2.5l1 1q102 74 137 98h42z" />
    <glyph glyph-name="scaron" unicode="&#x161;" horiz-adv-x="369" 
d="M282 441q21 0 51.5 -7.5t41.5 -7.5q16 0 31 16h16l-26 -145h-22q-10 111 -85 111q-12 0 -35.5 -15.5t-23.5 -35.5t28 -61t56 -88t28 -82q0 -57 -41.5 -97.5t-107.5 -40.5q0 1 -51.5 10t-58.5 10q-10 0 -23 -22h-17l27 168h20q9 -66 36.5 -99t64.5 -33q72 0 72 67
q0 35 -54.5 115.5t-54.5 119.5q0 61 37.5 89t90.5 28zM335 554q136 92 148 102h43l-184 -176h-42l-95 176h40z" />
    <glyph glyph-name="Ydieresis" unicode="&#x178;" horiz-adv-x="556" 
d="M406 806q-3 -54 -47 -54q-21 0 -34.5 15.5t-13.5 39.5q0 22 15.5 36t36.5 14q18 0 30.5 -15t12.5 -36zM601 806q-3 -54 -50 -54q-19 0 -33 16.5t-14 38.5t16.5 36t36.5 14q14 0 29 -13.5t15 -32.5v-5zM712 652l-1 -27q-44 -20 -57 -34q-33 -33 -251 -288
q-9 -23 -29.5 -83.5t-35.5 -109.5l-16 -49q0 -32 81 -32h9v-29h-297v29q72 7 91 28q8 10 25 55t41.5 115t26.5 75l-34 130q-34 161 -59 179q-9 5 -11 6.5t-6.5 3t-6 1.5t-8.5 1t-15 2v27h244v-27q-1 0 -9.5 -0.5t-15.5 -1t-17.5 -2.5t-17.5 -5t-12 -8t-5 -12q0 -22 25 -117
t34 -122q42 39 115.5 124.5t85.5 119.5q0 21 -70 24v27h196z" />
    <glyph glyph-name="Zcaron" unicode="&#x17d;" horiz-adv-x="605" 
d="M343 48q113 0 165.5 25t98.5 103q0 2 -2 3l21 -4l-63 -175h-518l3 21l510 584h-168q-96 0 -141 -22.5t-78 -90.5l-22 5l54 155h497v-19l-514 -585h157zM654 869l-183 -178h-44l-95 178h42l91 -104q20 16 79 56t69 48h41z" />
    <glyph glyph-name="zcaron" unicode="&#x17e;" horiz-adv-x="410" 
d="M444 440l-2 -16l-305 -346q22 -13 74 -60t108 -67q13 0 24 6.5t11 12.5q-2 -1 -4 -1q-4 0 -9.5 10.5t-5.5 23.5q0 11 12 25.5t27 14.5q34 0 34 -42q0 -32 -30 -55t-68 -23t-118 41t-99 41q-23 0 -46 -21l-8 18l323 366h-143q-8 1 -20 1q-24 0 -34.5 -7.5t-16.5 -24.5
t-12 -24l-20 5l39 122h289zM512 656l-178 -176h-47l-95 176h41l89 -102l148 102h42z" />
    <glyph glyph-name="longs" unicode="&#x17f;" horiz-adv-x="302" 
d="M287 429q-1 -1 -29.5 -102.5t-60 -212.5t-36.5 -132q-37 -139 -81 -185.5t-121 -46.5q-30 0 -58.5 20t-28.5 43q0 49 41 49q35 0 35 -38q0 -16 -9 -34q5 -7 19 -8q104 0 104 145v6l133 454h-92l101 42q81 271 234 271q35 0 59 -16.5t24 -47.5v-6q-1 -22 -14 -34t-32 -12
q-16 0 -25.5 13.5t-9.5 31.5q0 7 5.5 18t5.5 14q0 7 -19 7h-5q-43 0 -70.5 -18t-39 -48.5t-16.5 -60t-7.5 -64t-6.5 -48.5z" />
    <glyph glyph-name="florin" unicode="&#x192;" horiz-adv-x="378" 
d="M523 603q-1 -22 -14 -34t-32 -12q-16 0 -25.5 13.5t-9.5 31.5q0 6 5.5 17t5.5 15q0 7 -19 7q-35 0 -59 -14.5t-35.5 -41t-17 -51t-10.5 -57.5t-9 -48h107l-6 -42h-107q-1 0 -43 -135.5t-52 -173.5q-26 -91 -82.5 -177t-109.5 -100l-30 79q15 -5 23 -5q19 0 34 8t27 26
t18.5 31.5t18.5 40.5l109 406h-93l7 42h94q50 129 101.5 186.5t119.5 57.5q36 0 60 -16.5t24 -47.5v-6z" />
    <glyph glyph-name="circumflex" unicode="&#x2c6;" horiz-adv-x="366" 
d="M466 501h-42l-79 98l-144 -98h-47l175 176h46z" />
    <glyph glyph-name="caron" unicode="&#x2c7;" horiz-adv-x="358" 
d="M496 656l-179 -176h-47l-95 176h41l89 -102l148 102h43z" />
    <glyph glyph-name="uni02C9" unicode="&#x2c9;" horiz-adv-x="349" 
d="M345 652l-18 -75h-226l18 75h226z" />
    <glyph glyph-name="breve" unicode="&#x2d8;" horiz-adv-x="317" 
d="M450 693q-63 -171 -174 -171q-41 0 -64.5 25t-23.5 70q0 27 10 76h16v-20q0 -42 19.5 -61t63.5 -19q41 0 68.5 21t64.5 79h20z" />
    <glyph glyph-name="dotaccent" unicode="&#x2d9;" horiz-adv-x="180" 
d="M272 589q-2 -23 -17 -38.5t-36 -15.5q-47 0 -47 52q0 30 14.5 46.5t37.5 16.5q22 0 35 -17.5t13 -43.5z" />
    <glyph glyph-name="ring" unicode="&#x2da;" horiz-adv-x="304" 
d="M362 597q0 24 -18.5 41.5t-46.5 17.5q-26 0 -45 -17.5t-22 -40.5q0 -26 16 -41t46 -15q29 0 49.5 14.5t20.5 40.5zM398 597q-2 -44 -31.5 -73t-74.5 -29q-39 0 -68.5 28t-29.5 69t28.5 74t75.5 33q42 0 71 -27.5t29 -74.5z" />
    <glyph glyph-name="ogonek" unicode="&#x2db;" horiz-adv-x="263" 
d="M210 -91q-71 -85 -122 -85q-24 0 -44 19.5t-20 47.5q0 55 76 112h32q-59 -45 -59 -80q0 -13 17.5 -22.5t34.5 -9.5q15 0 29 7.5t45 29.5z" />
    <glyph glyph-name="tilde" unicode="&#x2dc;" horiz-adv-x="397" 
d="M266 619q33 0 83.5 -21.5t63.5 -21.5q17 0 27.5 6.5t14.5 12.5t14 25h27q-28 -112 -101 -113q-14 5 -39.5 14t-40.5 14t-34 9.5t-33 4.5q-37 0 -57 -45h-35q18 62 43 88.5t67 26.5z" />
    <glyph glyph-name="hungarumlaut" unicode="&#x2dd;" horiz-adv-x="442" 
d="M561 639q0 -23 -17 -34l-180 -102h-44l184 171q7 7 16 7q15 0 27 -13.5t14 -28.5zM395 639q0 -22 -18 -34l-179 -102h-44l183 171q8 7 17 7q14 0 26.5 -14t14.5 -28z" />
    <glyph glyph-name="Delta" unicode="&#x394;" horiz-adv-x="590" 
d="M465 48l-66 490l-311 -490h377zM554 0h-522l6 25l398 626l36 12l86 -638z" />
    <glyph glyph-name="Delta" unicode="&#x2206;" horiz-adv-x="590" 
d="M465 48l-66 490l-311 -490h377zM554 0h-522l6 25l398 626l36 12l86 -638z" />
    <glyph glyph-name="Omega" unicode="&#x3a9;" horiz-adv-x="682" 
d="M497 632q-66 0 -119 -41.5t-83 -104t-46 -124.5t-16 -112q0 -25 2.5 -49.5t9.5 -54t10 -41.5t13.5 -47.5t11.5 -37.5l-10 -20h-217l12 142l19 1q3 -45 14.5 -59t42.5 -14h101q-27 30 -42.5 51.5t-33.5 66.5t-18 93q0 64 26.5 131t72 123t114.5 92t146 36q96 0 151.5 -53
t55.5 -148q0 -53 -16 -104t-39 -88.5t-60 -77.5t-65 -65t-69 -57h107q31 0 47.5 12.5t43.5 60.5l19 -1l-59 -142h-218v19q4 5 32 41t37.5 49t35.5 49.5t37.5 58t30 58.5t27 66.5t15.5 66.5t7 73q0 78 -36 114.5t-94 36.5z" />
    <glyph glyph-name="Omega" unicode="&#x2126;" horiz-adv-x="682" 
d="M497 632q-66 0 -119 -41.5t-83 -104t-46 -124.5t-16 -112q0 -25 2.5 -49.5t9.5 -54t10 -41.5t13.5 -47.5t11.5 -37.5l-10 -20h-217l12 142l19 1q3 -45 14.5 -59t42.5 -14h101q-27 30 -42.5 51.5t-33.5 66.5t-18 93q0 64 26.5 131t72 123t114.5 92t146 36q96 0 151.5 -53
t55.5 -148q0 -53 -16 -104t-39 -88.5t-60 -77.5t-65 -65t-69 -57h107q31 0 47.5 12.5t43.5 60.5l19 -1l-59 -142h-218v19q4 5 32 41t37.5 49t35.5 49.5t37.5 58t30 58.5t27 66.5t15.5 66.5t7 73q0 78 -36 114.5t-94 36.5z" />
    <glyph glyph-name="pi" unicode="&#x3c0;" horiz-adv-x="529" 
d="M254 434q40 0 132 -2t136 -2q22 0 35.5 7t28.5 27l18 -9q-21 -63 -53 -99q-20 -5 -65 -5q-9 -28 -37 -159l-10 -54q-5 -27 -5 -41q0 -45 36 -45q18 0 49 26l5 -23q-23 -31 -54 -49t-59 -18q-67 0 -67 79q0 46 59 286q-118 2 -149 2l-6 -15q-18 -100 -46 -179.5
t-46.5 -111.5t-30.5 -44q-30 -13 -56 -17l-2 19q58 61 98 161.5t57 188.5q-43 0 -70.5 -9.5t-64.5 -33.5l-6 24q2 2 11 12.5t12 13.5l12.5 12.5t14.5 13t15 11.5t17 11.5t18.5 8.5t22 7t23.5 4t27 2z" />
    <glyph glyph-name="uni2000" unicode="&#x2000;" horiz-adv-x="500" 
 />
    <glyph glyph-name="uni2001" unicode="&#x2001;" horiz-adv-x="1000" 
 />
    <glyph glyph-name="uni2002" unicode="&#x2002;" horiz-adv-x="500" 
 />
    <glyph glyph-name="uni2003" unicode="&#x2003;" horiz-adv-x="1000" 
 />
    <glyph glyph-name="uni2004" unicode="&#x2004;" horiz-adv-x="333" 
 />
    <glyph glyph-name="uni2005" unicode="&#x2005;" horiz-adv-x="250" 
 />
    <glyph glyph-name="uni2006" unicode="&#x2006;" horiz-adv-x="166" 
 />
    <glyph glyph-name="uni2007" unicode="&#x2007;" horiz-adv-x="590" 
 />
    <glyph glyph-name="uni2008" unicode="&#x2008;" horiz-adv-x="214" 
 />
    <glyph glyph-name="uni2009" unicode="&#x2009;" horiz-adv-x="100" 
 />
    <glyph glyph-name="uni200A" unicode="&#x200a;" horiz-adv-x="10" 
 />
    <glyph glyph-name="uni2010" unicode="&#x2010;" horiz-adv-x="349" 
d="M107 186v75h244v-75h-244z" />
    <glyph glyph-name="uni2011" unicode="&#x2011;" horiz-adv-x="349" 
d="M107 186v75h244v-75h-244z" />
    <glyph glyph-name="figuredash" unicode="&#x2012;" horiz-adv-x="590" 
d="M107 186v75h485v-75h-485z" />
    <glyph glyph-name="endash" unicode="&#x2013;" horiz-adv-x="500" 
d="M107 186v75h395v-75h-395z" />
    <glyph glyph-name="emdash" unicode="&#x2014;" horiz-adv-x="1000" 
d="M107 186v75h895v-75h-895z" />
    <glyph glyph-name="afii00208" unicode="&#x2015;" horiz-adv-x="2000" 
d="M107 186v75h1895v-75h-1895z" />
    <glyph glyph-name="uni2016" unicode="&#x2016;" horiz-adv-x="448" 
d="M434 661v-680h-36v680h36zM210 661v-680h-36v680h36z" />
    <glyph glyph-name="quoteleft" unicode="&#x2018;" horiz-adv-x="209" 
d="M316 636q-80 -50 -81 -84q0 -5 23 -26v1q19 -25 19 -49q0 -8 -0.5 -14.5t-3 -11t-4 -8t-5.5 -6.5l-6 -4.5t-8 -2.5t-8 -1.5t-10 -2t-10 -1.5q-26 0 -40.5 18.5t-14.5 48.5q0 93 140 171z" />
    <glyph glyph-name="quoteright" unicode="&#x2019;" horiz-adv-x="201" 
d="M300 585q0 -28 -44 -81.5t-94 -80.5l-10 26q81 50 82 86q0 7 -24 24v-1q-18 23 -18 49q0 30 13.5 42.5t29.5 12.5q65 0 65 -71v-6z" />
    <glyph glyph-name="quotesinglbase" unicode="&#x201a;" horiz-adv-x="211" 
d="M173 35q-3 -86 -141 -163l-11 27q79 51 82 83q0 10 -21 28v-1q-18 19 -18 48q0 24 15 38.5t36 14.5q25 0 41.5 -21t16.5 -49v-5z" />
    <glyph glyph-name="uni201B" unicode="&#x201b;" horiz-adv-x="233" 
d="M343 623q0 -27 -23 -49t-56 -22q-2 -2 -12 -2h-26q-3 -4 -3 -13q0 -40 61 -89l-17 -28q-30 12 -56.5 49.5t-26.5 80.5q0 41 30.5 81t82.5 40q19 0 32.5 -13.5t13.5 -34.5z" />
    <glyph glyph-name="quotedblleft" unicode="&#x201c;" horiz-adv-x="419" 
d="M318 636q-83 -52 -85 -84q0 -5 23 -26v1q21 -24 21 -49q0 -20 -17 -36t-37 -16q-24 0 -40 16.5t-16 50.5q0 91 142 171zM529 636q-80 -51 -80 -84q0 -14 19 -26v1q20 -27 20 -49q0 -9 -1.5 -16t-2.5 -11.5t-5.5 -8.5t-6 -6t-8.5 -4t-8.5 -2.5t-10.5 -2t-10 -1.5
q-25 0 -40.5 16t-15.5 50q0 94 140 172z" />
    <glyph glyph-name="quotedblright" unicode="&#x201d;" horiz-adv-x="419" 
d="M301 585q-1 -30 -12.5 -54t-36.5 -45.5t-40.5 -31.5t-50.5 -31l-10 26q82 48 82 86q0 6 -20 30t-20 41q0 18 3 28.5t13 16t14.5 6.5t22.5 4q23 0 39 -18t16 -49v-9zM512 585q-1 -44 -24 -77t-42 -45.5t-64 -34.5q-6 -3 -9 -5l-11 26q83 49 83 86q0 5 -21 30t-21 41
q0 25 16 40t38 15q23 0 39 -17t16 -50v-9z" />
    <glyph glyph-name="quotedblbase" unicode="&#x201e;" horiz-adv-x="421" 
d="M171 35q-4 -88 -139 -163l-9 27q79 51 82 83q0 10 -24 28v-1q-18 21 -18 48q0 26 15.5 39.5t38.5 13.5q21 0 37.5 -18t16.5 -48v-9zM383 35q-4 -86 -138 -163l-10 27q81 54 81 83q0 8 -21.5 34t-21.5 41q0 26 15.5 39.5t40.5 13.5q24 0 39 -19.5t15 -55.5z" />
    <glyph glyph-name="uni201F" unicode="&#x201f;" horiz-adv-x="472" 
d="M584 632q0 -8 -2.5 -18.5t-9.5 -26t-24 -25.5t-42 -10q-36 0 -42 -2q-2 -4 -2 -12q0 -43 63 -90l-16 -28q-32 13 -57 46.5t-25 77.5q0 56 32.5 91.5t76.5 35.5q48 0 48 -39zM344 631q0 -29 -19 -54t-62 -25q0 -2 -28 -2h-10q-3 -4 -3 -12q0 -40 65 -90l-17 -28
q-32 14 -57.5 46.5t-25.5 76.5t29.5 86t80.5 42q47 0 47 -40z" />
    <glyph glyph-name="dagger" unicode="&#x2020;" horiz-adv-x="396" 
d="M447 386q-9 0 -45 12t-91 18q-14 -62 -14 -88q0 -45 14 -70q-9 -18 -27.5 -46.5t-33.5 -61.5t-34 -94q-24 -97 -57 -212h-24l27 104q39 156 43 246l-1 67q60 59 83 155q-46 0 -82 -16v1q-8 -5 -12 -5q-24 -10 -43 -10q-40 0 -44 46q3 44 52 44q17 0 62.5 -14.5
t61.5 -15.5h13q14 42 14 89q0 12 -3.5 37.5t-3.5 26.5q3 62 51 62q41 0 41 -45q0 -20 -38.5 -81.5t-38.5 -85.5v-3q44 2 77 14q3 0 8 1.5t6 1.5q32 13 45 13q46 0 46 -40v-4q-4 -46 -52 -46z" />
    <glyph glyph-name="daggerdbl" unicode="&#x2021;" horiz-adv-x="432" 
d="M472 387q-12 0 -56.5 15t-56.5 15h-28q-14 -46 -14 -84q0 -24 11 -74q-43 -45 -72 -130q0 -3 -4 -11t-4 -9v-4h18q11 0 58.5 15t59.5 15q45 0 45 -40q0 -46 -36 -49l-13 -1q-16 0 -64.5 12.5t-72.5 13.5q-14 -36 -14 -81q0 -22 8 -44q-3 -8 -3 -13q0 -32 -13 -52.5
t-37 -20.5q-41 0 -41 52q1 20 37 83t36 76q-49 -1 -88 -13.5t-50 -12.5q-17 0 -31 8.5t-14 21.5q0 60 53 60q12 0 58 -15t54 -15h27q15 40 15 82q0 16 -12 78q25 23 43 56.5t27 58.5t10 26l2 6q0 3 2 5h-16q-11 0 -56.5 -15t-63.5 -15q-47 0 -47 46q2 44 51 44q9 0 50.5 -14
t81.5 -16h5q15 34 15 66q0 3 -0.5 7t-0.5 6l-5 63v10q0 62 50 62q34 0 41 -33v-17q0 -20 -39 -83.5t-39 -78.5v-2q44 2 85.5 16t57.5 14q18 0 31.5 -10.5t13.5 -25.5q0 -1 -0.5 -3.5t-0.5 -4.5q-1 -19 -14.5 -30.5t-23.5 -13.5t-16 -2z" />
    <glyph glyph-name="bullet" unicode="&#x2022;" horiz-adv-x="334" 
d="M376 325q0 -62 -41.5 -98.5t-90.5 -36.5q-53 0 -93 41t-40 98q0 64 40 99.5t92 35.5q57 0 95 -39.5t38 -99.5z" />
    <glyph glyph-name="uni2023" unicode="&#x2023;" horiz-adv-x="360" 
d="M130 75v400l274 -200z" />
    <glyph glyph-name="onedotenleader" unicode="&#x2024;" horiz-adv-x="214" 
d="M173 49q-1 -26 -19.5 -43.5t-41.5 -17.5q-16 0 -34 17.5t-18 39.5q0 27 18.5 45.5t41.5 18.5q22 0 37.5 -15.5t15.5 -39.5v-5z" />
    <glyph glyph-name="twodotenleader" unicode="&#x2025;" horiz-adv-x="428" 
d="M387 49q-1 -26 -19.5 -43.5t-41.5 -17.5q-16 0 -34 17.5t-18 39.5q0 27 18.5 45.5t41.5 18.5q22 0 37.5 -15.5t15.5 -39.5v-5zM173 49q-1 -26 -19.5 -43.5t-41.5 -17.5q-16 0 -34 17.5t-18 39.5q0 27 18.5 45.5t41.5 18.5q22 0 37.5 -15.5t15.5 -39.5v-5z" />
    <glyph glyph-name="ellipsis" unicode="&#x2026;" horiz-adv-x="642" 
d="M601 49q-1 -26 -19.5 -43.5t-41.5 -17.5q-16 0 -34 17.5t-18 39.5q0 27 18.5 45.5t41.5 18.5q22 0 37.5 -15.5t15.5 -39.5v-5zM387 49q-1 -26 -19.5 -43.5t-41.5 -17.5q-16 0 -34 17.5t-18 39.5q0 27 18.5 45.5t41.5 18.5q22 0 37.5 -15.5t15.5 -39.5v-5zM173 49
q-1 -26 -19.5 -43.5t-41.5 -17.5q-16 0 -34 17.5t-18 39.5q0 27 18.5 45.5t41.5 18.5q22 0 37.5 -15.5t15.5 -39.5v-5z" />
    <glyph glyph-name="perthousand" unicode="&#x2030;" horiz-adv-x="1093" 
d="M730 214v7q0 29 -13.5 48.5t-25.5 24.5t-21 5l-10 -1l6 -2q-47 0 -91.5 -82t-44.5 -146q0 -17 3 -26.5t13 -14t15 -5t23 -2.5q40 0 87 47q53 78 59 147zM1116 213q-5 -87 -58 -160t-117 -73q-47 0 -82 39.5t-35 91.5q0 81 64 151t140 70q41 -3 64.5 -37t23.5 -82z
M1092 214v6q0 33 -18.5 54.5t-44.5 21.5q-41 0 -87 -72t-46 -140q0 -65 63 -65q39 0 83.5 59t48.5 123zM751 213q-5 -87 -58 -160t-116 -73q-53 0 -85.5 39t-32.5 92q0 83 65 152t139 69q44 -3 66 -36t22 -83zM401 556v5q0 19 -10 31q-25 10 -29 14v-1l-32 29l-52 -36
q-28 -28 -51 -81.5t-23 -93.5q0 -27 10 -42t43 -25q50 0 95 60.5t49 139.5zM495 604q32 0 69 19t55 34t47 42h51l-475 -718h-56l412 618q-29 -19 -52 -25.5t-59 -6.5q-14 0 -54 9q-2 0 -5 0.5t-4 0.5v-8q0 -48 -20.5 -105t-63 -102.5t-94.5 -45.5q-51 0 -83 39t-32 91
q0 81 63.5 153t142.5 72q22 0 33 -5.5t30 -21.5q49 -40 92 -40h3z" />
    <glyph glyph-name="guilsinglleft" unicode="&#x2039;" horiz-adv-x="253" 
d="M316 392q-1 -15 -165 -175q4 -12 39.5 -77t35.5 -88q0 -15 -8 -15q-24 0 -73 88l-72 88v14l239 179q4 0 4 -12v-2z" />
    <glyph glyph-name="guilsinglright" unicode="&#x203a;" horiz-adv-x="251" 
d="M211 222q-5 5 -39.5 79.5t-34.5 91.5q1 13 9 13q12 0 72 -93q18 -23 35 -44t24 -30t10 -13v-14q-47 -37 -105 -80t-94 -69t-38 -26q-6 0 -6 13q2 20 36.5 55t79 72t51.5 45z" />
    <glyph glyph-name="fraction" unicode="&#x2044;" horiz-adv-x="347" 
d="M501 652l-420 -680h-80l420 680h80z" />
    <glyph glyph-name="Euro" unicode="&#x20ac;" horiz-adv-x="574" 
d="M722 686l-67 -218h-23q10 37 10 81q0 100 -75 100q-45 0 -102 -35.5t-81 -65.5q-44 -55 -87 -141h224l-36 -53h-206q-12 -40 -18 -46h1v-1v-1h174l-39 -53h-142l-5 -47q0 -66 29.5 -110.5t80.5 -44.5q9 0 19 1.5t21 5t19.5 6.5t21.5 9.5t20.5 10.5t21.5 12t19.5 11.5
t20.5 12.5t18 11l-25 -55q-71 -76 -166 -76q-91 0 -142.5 63.5t-51.5 168.5v21h-84l39 53h52v2q11 38 12 46h-70l43 53h47q56 116 153 197.5t199 81.5h3q19 0 75 -16l35 -11q18 0 37 27h25z" />
    <glyph glyph-name="afii61289" unicode="&#x2113;" horiz-adv-x="382" 
d="M272 461l-28 -118q67 60 114 138.5t47 149.5q0 43 -30 43q-27 0 -49 -46t-54 -167zM377 123l9 -17q-83 -111 -181 -111q-91 0 -91 88q0 33 14 89l16 73l-68 -43l-2 25l79 54l33 124q26 113 49 163.5t61 88.5q49 48 94 48q56 0 56 -75q0 -157 -215 -332l-21 -83
q-15 -56 -15 -97q0 -36 15 -51.5t46 -15.5q57 0 121 72z" />
    <glyph glyph-name="afii61352" unicode="&#x2116;" horiz-adv-x="991" 
d="M917 419q-61 0 -115.5 -83t-54.5 -139q0 -23 14 -40.5t43 -17.5q23 0 50.5 17t44.5 34q25 32 47.5 81t25.5 84q0 64 -55 64zM1034 340q-4 -84 -79.5 -155t-159.5 -71q-56 0 -83.5 26t-27.5 72q0 77 75 153t168 76q46 0 76.5 -26.5t30.5 -67.5v-7zM807 652l-1 -27
q-50 -12 -66 -31q-9 -6 -47 -113l-168 -497h-23l-205 529q-18 -51 -43 -121.5t-41 -116t-32 -92t-24 -75t-8 -39.5q0 -9 1.5 -15.5t6.5 -10.5t8 -6.5t12 -4l12 -2t15 -1t15 -0.5v-29h-205l2 29q44 3 58 21q25 34 85.5 212.5t72.5 224.5q6 13 18 43t20 47q-26 44 -89 48v27
h169l188 -477q133 364 133 416q0 34 -68 34v27h204z" />
    <glyph glyph-name="trademark" unicode="&#x2122;" horiz-adv-x="902" 
d="M730 394h-8l-115 212v-145q0 -23 8 -31t31 -11v-24h-102v24q27 3 34.5 11t7.5 31v180q-18 33 -55 36v22h92l121 -220l125 220h80v-22q-46 -5 -46 -38v-186q0 -23 5 -27t36 -7v-24h-133v24q6 1 13.5 1t10.5 0.5t6.5 2t4.5 5t2 9.5t1 16v155zM498 625h-16q-17 52 -51 52
h-41v-224q0 -5 -0.5 -11t-0.5 -7q0 -9 7 -11.5t36 -4.5v-24h-134v24q27 3 33 6t6 15v237h-39q-17 0 -33 -15t-18 -37h-15v74h266v-74z" />
    <glyph glyph-name="estimated" unicode="&#x212e;" horiz-adv-x="925" 
d="M775 346v185q0 13 -9 22q-94 96 -218 96q-127 0 -221 -99q-9 -9 -9 -23v-181q0 -6 10 -6h439q8 0 8 6zM895 322h-567q-10 0 -10 -4v-184q0 -11 8 -21q93 -100 222 -100q138 0 229 112h44q-47 -60 -119.5 -95.5t-154.5 -35.5q-145 0 -247 98.5t-102 238.5t102 239t247 99
q144 0 246 -99t102 -239v-9z" />
    <glyph glyph-name="partialdiff" unicode="&#x2202;" horiz-adv-x="494" 
d="M357 378h-1q-65 0 -117 -55q-36 -43 -64.5 -108.5t-28.5 -114.5q0 -34 17.5 -54t50.5 -20q62 0 134 99q50 71 94 184q-6 24 -28.5 46.5t-56.5 22.5zM345 418h1q35 0 65 -17.5t43 -50.5q18 47 26 69t18 64.5t10 77.5q0 50 -24 89.5t-79 39.5q-64 0 -147 -59
q-5 0 -9.5 11.5t-4.5 27.5t5 26q69 40 140 40q80 0 123 -58t43 -157q0 -53 -14.5 -120t-44 -138.5t-70 -131t-98.5 -98t-123 -38.5q-60 0 -93 34t-33 95q0 63 24.5 119t63.5 93.5t86 59.5t92 22z" />
    <glyph glyph-name="product" unicode="&#x220f;" horiz-adv-x="799" 
d="M774 658v-27q-60 -4 -73 -15t-13 -54v-537q0 -49 13.5 -62t70.5 -18v-26h-237v26q55 5 66.5 16t11.5 63v568q0 21 -7 26.5t-31 5.5h-187q-24 0 -30 -5t-6 -23v-572q0 -50 9.5 -62t60.5 -17v-26h-230v26q57 5 70 17.5t13 61.5v538q0 43 -13 54t-73 15v27h585z" />
    <glyph glyph-name="summation" unicode="&#x2211;" horiz-adv-x="673" 
d="M653 102l-40 -187h-422v25l206 324l-202 368v26h417q0 -7 4.5 -65.5t6.5 -94.5l-19 -6q-11 63 -31 102q-11 18 -29.5 24.5t-70.5 6.5h-179l169 -303l-206 -329h244q62 0 82.5 17.5t49.5 99.5z" />
    <glyph glyph-name="minus" unicode="&#x2212;" horiz-adv-x="441" 
d="M450 290l-16 -71h-325l30 71h311z" />
    <glyph glyph-name="uni2215" unicode="&#x2215;" horiz-adv-x="347" 
d="M501 652l-420 -680h-80l420 680h80z" />
    <glyph glyph-name="uni2219" unicode="&#x2219;" horiz-adv-x="196" 
d="M218 253q0 -27 -17 -43.5t-38 -16.5q-20 0 -34.5 17t-14.5 43q0 29 14 44t36 15q23 0 38.5 -16t15.5 -43z" />
    <glyph glyph-name="radical" unicode="&#x221a;" horiz-adv-x="669" 
d="M655 773l-154 -914l-14 -11l-201 521l-81 -41l-7 32l141 75l152 -413h8l127 760z" />
    <glyph glyph-name="infinity" unicode="&#x221e;" horiz-adv-x="786" 
d="M609 368h-1q-14 0 -28.5 -5.5t-25.5 -12t-25 -19.5t-20.5 -20.5l-19.5 -22.5t-16 -19q47 -57 75.5 -79t62.5 -22q40 0 64 30t24 68q0 46 -25.5 74t-64.5 28zM288 168h1q26 0 54 18t40.5 31.5t40.5 46.5q-21 27 -31 39t-29 30.5t-38.5 26.5t-41.5 8q-41 0 -65.5 -29.5
t-24.5 -73.5q0 -41 26.5 -69t67.5 -28zM743 271v-1q0 -70 -40 -113.5t-94 -43.5q-41 0 -78.5 25.5t-82.5 84.5q-43 -54 -80.5 -82t-85.5 -28q-54 0 -93.5 43.5t-39.5 109.5q0 68 39.5 112t99.5 44q46 0 84.5 -28.5t78.5 -80.5q51 60 76 79q42 30 87 30q56 0 92.5 -42.5
t36.5 -108.5z" />
    <glyph glyph-name="integral" unicode="&#x222b;" horiz-adv-x="506" 
d="M317 10l-18 387q-2 54 -2 76q0 327 140 327q18 0 35 -12.5t17 -33.5t-11 -33t-26 -12q-16 0 -28 24t-20 24q-42 0 -42 -119q0 -25 1 -39l16 -362q2 -62 2 -86q0 -343 -141 -343q-23 0 -37.5 14t-14.5 34t12.5 33.5t30.5 13.5q14 0 25.5 -25.5t20.5 -25.5q19 0 30 32.5
t11 87.5q0 25 -1 38z" />
    <glyph glyph-name="approxequal" unicode="&#x2248;" horiz-adv-x="595" 
d="M442 120q-39 0 -97 35q-54 35 -85 35q-28 0 -48.5 -18.5t-40.5 -51.5l-30 34q20 42 53 67.5t71 25.5q47 0 98 -35q2 -2 10.5 -7.5t11.5 -7t10.5 -6t11.5 -6t10.5 -4t13 -3.5t12.5 -1q26 0 45 16.5t41 52.5l29 -34q-48 -92 -116 -92zM265 415q41 0 95 -35q56 -35 83 -35
q45 0 86 69l29 -34q-47 -92 -115 -92q-39 0 -99 35q-54 35 -85 35q-46 0 -88 -69l-30 33q20 42 53 67.5t71 25.5z" />
    <glyph glyph-name="notequal" unicode="&#x2260;" horiz-adv-x="617" 
d="M477 477l-36 -88h132v-58h-153l-58 -132h211v-58h-232l-46 -110l-36 20l37 90h-128v58h149l58 132h-207v58h227l45 108z" />
    <glyph glyph-name="lessequal" unicode="&#x2264;" horiz-adv-x="638" 
d="M593 -1h-403v58h403v-58zM591 94l-398 211v62l398 210v-68l-348 -172v-2l348 -173v-68z" />
    <glyph glyph-name="greaterequal" unicode="&#x2265;" horiz-adv-x="637" 
d="M591 -1h-401v58h401v-58zM193 577l398 -211v-61l-398 -211v67l349 174v2l-349 172v68z" />
    <glyph glyph-name="lozenge" unicode="&#x25ca;" horiz-adv-x="677" 
d="M582 315l-154 324h-8l-155 -323l155 -324h8zM634 315l-182 -383h-58l-182 383l183 387h57z" />
    <glyph glyph-name="c_t" unicode="&#xe6a4;" horiz-adv-x="724" 
d="M770 571q0 -6 -4 -26.5t-4 -22.5l-28 -93h78l-7 -42h-83q-29 -81 -69 -202.5t-40 -126.5q0 -4 16 -8q35 16 83 79l20 -13q-62 -78 -92 -103t-64 -25q-48 0 -48 44q0 12 15 55t40.5 117t43.5 138q8 33 13 45h-71q-3 7 -3 10q0 13 5.5 19.5t10.5 8t17 2.5q33 6 74.5 31
t52.5 59v3q0 11 6 27.5t6 25.5q0 35 -41 59t-102 24q-50 0 -98 -26.5t-48 -73.5q13 -32 13 -55q0 -25 -15 -25q-7 0 -21 6q-20 22 -20 67v7q0 67 57 105.5t132 38.5q72 0 123.5 -41t51.5 -88zM482 356q-1 -22 -15.5 -35.5t-33.5 -13.5q-36 0 -39 42l18 48q0 13 -37 13
q-50 0 -93.5 -30.5t-70 -73.5t-41.5 -86t-15 -73q0 -45 23.5 -74.5t69.5 -36.5q33 0 59.5 11t39.5 22t39 38l10 10l20 -15q-66 -74 -96 -91t-92 -22q-9 -1 -13 -1q-141 0 -141 141q0 86 52.5 159.5t125 112.5t141.5 40q36 -1 63 -18.5t27 -55.5q0 -1 -0.5 -5t-0.5 -6z" />
    <glyph glyph-name="s_p" unicode="&#xe6a5;" horiz-adv-x="867" 
d="M833 309q0 79 -62 79q-77 0 -139 -108q-22 -50 -40.5 -104t-27 -85.5t-8.5 -39.5q0 -31 46 -31q51 0 100 41.5t80.5 99.5t46.5 120zM669 420l-22 -68q31 33 83.5 61.5t99.5 28.5q38 0 66 -28.5t28 -88.5v-12q-3 -76 -54 -152.5t-124 -124.5t-138 -48q-27 0 -69 15
q-62 -186 -62 -205q0 -23 54 -23h11v-25h-209l1 27q13 1 21.5 3t15.5 8t10.5 10t11 15.5t11.5 17.5l170 542v3q0 19 -49 19h-19v26q61 0 93.5 24t47.5 73q3 16 6 27.5t4 14.5t1.5 6t0.5 7q0 35 -40.5 59t-101.5 24q-49 0 -96.5 -26t-48.5 -74q11 -32 11 -55q0 -25 -15 -25
q-8 0 -21 6q-20 22 -20 67v7q0 66 57.5 105t132.5 39q84 0 131.5 -42.5t47.5 -123.5v-3q0 -17 -4 -34.5t-12 -42t-11 -34.5zM282 441q25 0 53.5 -7.5t36.5 -7.5q18 0 34 16h16l-26 -145h-22q-10 111 -85 111q-12 0 -35.5 -15.5t-23.5 -35.5q0 -17 17.5 -46.5t38 -57.5
t38 -63.5t17.5 -63.5q0 -57 -41 -97.5t-107 -40.5q0 1 -51.5 10t-58.5 10q-10 0 -23 -22h-17l27 168h20q9 -66 36.5 -99t64.5 -33q72 0 72 67q0 35 -54.5 115.5t-54.5 119.5q0 61 37.5 89t90.5 28z" />
    <glyph glyph-name="longs_t" unicode="&#xfb05;" horiz-adv-x="543" 
d="M287 429q-1 -1 -29.5 -102.5t-60 -212.5t-36.5 -132q-37 -139 -81 -185.5t-121 -46.5q-30 0 -58.5 20t-28.5 43q0 49 41 49q35 0 35 -38q0 -16 -9 -34q5 -7 19 -8q104 0 104 145v6l133 454h-92l101 42q81 271 234 271q42 0 85.5 -17t43.5 -47v-6q-1 -22 -15.5 -34
t-34.5 -12q-16 0 -26 13.5t-10 31.5q0 7 8 18t8 14q0 2 -26.5 4.5t-38.5 2.5h-5q-43 0 -70.5 -18t-39 -48.5t-16.5 -60t-7.5 -64t-6.5 -48.5zM521 387q-19 -51 -45.5 -130t-45 -137t-18.5 -62t16 -8q35 16 83 79l24 -13q-64 -78 -95 -103t-65 -25q-48 0 -48 44q0 6 9 55
q11 31 30 82t33.5 91.5t26.5 81.5q4 24 13 45h-71q-3 7 -3 10q0 13 5 19.5t10 8t17 2.5q19 1 44 18.5t43.5 35.5t50.5 53l26 11q1 -4 1 -15q0 -1 -0.5 -3.5t-0.5 -4.5l-28 -93h78l-7 -42h-83z" />
    <glyph glyph-name="s_t" unicode="&#xfb06;" horiz-adv-x="655" 
d="M691 571q0 -5 -3.5 -24.5t-3.5 -24.5l-29 -93h78l-7 -42h-83q-29 -81 -69 -202.5t-40 -126.5q0 -4 16 -8q35 16 83 79l20 -13q-62 -78 -92 -103t-64 -25q-48 0 -48 44q0 12 15 55t40.5 117t43.5 138q8 33 13 45h-71q-3 7 -3 10q0 13 5.5 19.5t10.5 8t17 2.5q33 6 74.5 31
t52.5 59v3q0 11 6 27.5t6 25.5q0 35 -40.5 59t-101.5 24q-49 0 -96.5 -26t-48.5 -74q11 -32 11 -55q0 -25 -15 -25q-8 0 -21 6q-20 22 -20 67v7q0 66 57.5 105t132.5 39q72 0 123 -41t51 -88zM282 441q25 0 53.5 -7.5t36.5 -7.5q18 0 34 16h16l-26 -145h-22q-10 111 -85 111
q-12 0 -35.5 -15.5t-23.5 -35.5q0 -17 17.5 -46.5t38 -57.5t38 -63.5t17.5 -63.5q0 -57 -41 -97.5t-107 -40.5q0 1 -51.5 10t-58.5 10q-10 0 -23 -22h-17l27 168h20q9 -66 36.5 -99t64.5 -33q72 0 72 67q0 35 -54.5 115.5t-54.5 119.5q0 61 37.5 89t90.5 28z" />
    </font>
</defs>
</svg>
